<svg height="512" viewBox="0 0 512 512" width="512" xmlns="http://www.w3.org/2000/svg"><g id="Harvest_Carrots" data-name="Harvest Carrots"><g id="Filled"><path d="m385.769 488h61.844c-2.055-42.752-13.053-101.028-21.723-141.61a45.7 45.7 0 1 0 -87.78 24.68c11.968 34.103 29.524 80.693 47.659 116.93z" fill="#f09b73"/><circle cx="380" cy="324" fill="#f2bba5" r="12"/><circle cx="408" cy="344" fill="#f2bba5" r="8"/><path d="m361.9 434.393c5.313 13.118 10.918 26.233 16.652 38.6 13.9-1.729 54.8-7.073 67.14-9.405-2.71-26.09-7.523-55.076-12.551-81.395a132.317 132.317 0 0 1 -71.241 52.2z" fill="#e58b6c"/><path d="m328 144h-90.177l-9.941-9.941c-23.217-23.135-59.048-16.499-75.882 9.941h-152v112h144l32 16h152z" fill="#ffead2"/><path d="m157.013 262.507 18.987 9.493h152v-128h-45.378a200.517 200.517 0 0 1 -125.609 118.507z" fill="#faddc3"/><path d="m125.962 488c18.145-36.251 35.711-82.868 47.688-116.99 8.56-24.386-4.926-51.965-30.54-59.26a45.8 45.8 0 0 0 -57.25 34.59c-8.67 40.592-19.668 98.9-21.723 141.66z" fill="#f09b73"/><path d="m224.128 488h64.309c8.513-41.719 13.1-95.369 15.473-133.97 1.658-26.964-20.135-50.03-47.91-50.03s-49.75 23.1-47.89 50.35c2.637 38.571 7.525 92.05 16.018 133.65z" fill="#f09b73"/><path d="m135.72 467.446c10.1-22.305 19.718-46.619 27.939-68.754a132.181 132.181 0 0 1 -93.562 33.2c-1.231 8.323-2.336 16.578-3.265 24.615z" fill="#e58b6c"/><path d="m215.16 430.654c1.367 11.282 2.908 22.533 4.645 33.383l72.873.321c4.448-28.1 7.5-58.914 9.558-85.972a132.429 132.429 0 0 1 -87.076 52.268z" fill="#e58b6c"/><g fill="#f2bba5"><circle cx="124" cy="324" r="12"/><circle cx="252" cy="324" r="12"/><circle cx="280" cy="344" r="8"/><circle cx="104" cy="344" r="8"/></g><path d="m391.915 32.42c-1.826-28.32-38.339-33.934-51.489-13.02-10.5-17.082-36.157-14.02-42.911 4.2-8.587-9.349-24.152-10.021-33.515-1.484-9.376-8.551-24.988-7.8-33.515 1.484-7.158-19.152-32.768-20.606-42.911-4.2-14.714-22.919-49.564-13.178-51.489 13.02-29.236-6.047-32.615 39.58-4.085 39.58a19.892 19.892 0 0 0 12.294-4.247c3.064 21.619 34.029 27.354 44.6 8.056 13.738 20.574 48.989 12.554 50.985-13.222a24.584 24.584 0 0 0 24.121-4.703 24.56 24.56 0 0 0 24.124 4.7c1.925 25.21 36.932 34.36 50.985 13.222 10.291 18.741 41.441 14.1 44.6-8.056 12.362 9.815 32.291.772 32.291-15.75a20.071 20.071 0 0 0 -24.085-19.58z" fill="#81c784"/><rect fill="#ffead2" height="32" rx="16" width="72" x="288" y="144"/><rect fill="#ffead2" height="32" rx="16" width="72" x="288" y="176"/><rect fill="#ffead2" height="32" rx="16" width="72" x="288" y="208"/><rect fill="#ffead2" height="32" rx="16" width="56" x="288" y="240"/><path d="m416 448a56.018 56.018 0 0 0 -54.1 41.528 39.961 39.961 0 0 0 -51.8 0 56.006 56.006 0 0 0 -108.2 0 39.961 39.961 0 0 0 -51.8 0 56 56 0 0 0 -110.1 14.472v8h432v-8a56 56 0 0 0 -56-56z" fill="#a1887f"/><circle cx="108" cy="204" fill="#fff7f0" r="12"/><circle cx="68" cy="172" fill="#fff7f0" r="20"/><circle cx="68" cy="476" fill="#bcaaa4" r="12"/><circle cx="96" cy="464" fill="#bcaaa4" r="8"/><circle cx="236" cy="476" fill="#bcaaa4" r="12"/><circle cx="264" cy="464" fill="#bcaaa4" r="8"/><path d="m391.915 32.42c-1.142-17.712-15.856-26.542-29.934-25.554a128.353 128.353 0 0 1 -63.167 74.834c11.972 8.821 30.855 8.3 40.295-5.895 10.291 18.741 41.441 14.1 44.6-8.056 12.362 9.816 32.291.773 32.291-15.749a20.071 20.071 0 0 0 -24.085-19.58z" fill="#66bb6a"/><circle cx="160" cy="40" fill="#c8e6c9" r="16"/><circle cx="192.254" cy="61.566" fill="#c8e6c9" r="8"/><circle cx="388" cy="476" fill="#bcaaa4" r="12"/><circle cx="416" cy="464" fill="#bcaaa4" r="8"/><path d="m396 496a75.653 75.653 0 0 1 -33.695-7.877c-.138.468-.281.933-.407 1.405a39.961 39.961 0 0 0 -51.8 0 55.933 55.933 0 0 0 -13.327-23.9 76 76 0 0 1 -94.47 22.49c-.138.468-.281.933-.407 1.405a39.961 39.961 0 0 0 -51.8 0 56.131 56.131 0 0 0 -32.47-37.183 88.176 88.176 0 0 1 -48.924 59.66h403.3v-8a55.789 55.789 0 0 0 -15.227-38.365 75.879 75.879 0 0 1 -60.773 30.365z" fill="#9c7b70"/></g><g id="Outline"><path d="m297.75 434.561a8 8 0 0 0 7.939-7.1c2.5-22.107 4.588-46.646 6.206-72.937 1.788-29-19.255-53.2-46.688-57.75l11.63-75.585a8 8 0 0 0 -15.815-2.434l-5.022 32.626-3.335-21.687a8 8 0 1 0 -15.814 2.432l9.941 64.641c-28.379 4.69-48.6 29.72-46.665 58.126 1.756 25.812 3.964 50.167 6.565 72.386 1.16 9.928 17.253 9.875 15.73-3.279h33.578a8 8 0 0 0 0-16h-35.325c-1.564-15.206-2.949-31.277-4.145-48h31.47a8 8 0 0 0 0-16h-31.339c6.013-32.043 46.644-42.831 68.722-19.353 13.948 14.836 10.608 30.045 9.011 51.353h-38.394a8 8 0 0 0 0 16h37.112c-1.006 11.746-2.115 23-3.321 33.66a8 8 0 0 0 7.959 8.901z"/><path d="m370.466 303.153c-11.063-8.621-24.377-21.892-26.24-29.488a23.94 23.94 0 0 0 6.077-26.511 24 24 0 0 0 11.566-39.154 23.94 23.94 0 0 0 0-32c13.727-15.315 2.944-40-17.869-40h-40c-20.814 0-31.6 24.686-17.869 40a23.94 23.94 0 0 0 0 32 23.94 23.94 0 0 0 0 32 23.947 23.947 0 0 0 2.158 34.12c4.493 16.278 23.659 35.36 55.965 42.675a54.3 54.3 0 0 0 -13.692 56.924c8.064 22.987 16.136 44.475 23.994 63.865 3.791 9.365 19.191 4.784 14.347-7.206l32.666-6.533a8 8 0 1 0 -3.138-15.69l-35.512 7.1c-4.06-10.459-16.392-43.409-18-49.241l25.023-6.256a8 8 0 0 0 -3.88-15.522l-21.979 5.5c6.917-41.773 65.478-41.526 73.985-1.672q2.363 11.053 4.485 21.669l-32.12 6.424a8 8 0 1 0 3.138 15.69l32.052-6.411c2.324 12.24 4.391 23.964 6.181 35.078a8 8 0 1 0 15.8-2.543c-3.881-24.095-8.833-49.6-13.886-73.249-6.099-28.547-34.138-47.547-63.252-41.569zm-66.466-151.153h40a8 8 0 0 1 0 16h-40a8 8 0 0 1 0-16zm0 32h40a8 8 0 0 1 0 16h-40a8 8 0 0 1 0-16zm-8 72a8.009 8.009 0 0 1 8-8h24a8 8 0 0 1 0 16h-24a8.009 8.009 0 0 1 -8-8zm13.825 24c18.983-.022 18.105.048 19.717-.055 2.507 6.911 7.786 13.9 13.533 20.026-11.582-3.214-24.587-9.121-33.25-19.971zm-5.825-48a8 8 0 0 1 0-16h40a8 8 0 0 1 0 16z"/><path d="m230.48 254.025a8 8 0 1 0 -12.96-9.38 178.265 178.265 0 0 1 -46.837 44.155c11.389-17.069 25.413-40.614 36.358-67.015a8 8 0 0 0 -14.781-6.127c-17.147 41.364-42.847 76.215-51.472 87.333-28.916-5.659-56.68 13.276-62.752 41.682-5.651 26.488-10.326 51.173-13.894 73.369a8 8 0 1 0 15.8 2.539c1.788-11.121 3.86-22.883 6.2-35.194 33.873 6.72 32.455 6.617 33.875 6.617 9.589 0 10.991-13.961 1.56-15.847l-32.377-6.476q2.126-10.608 4.484-21.668c8.609-40.273 67.068-39.884 73.985 1.659l-21.729-5.433a8 8 0 0 0 -3.88 15.522l24.783 6.2c-1.611 5.842-13.436 37.471-18.013 49.251l-35.261-7.053a8 8 0 1 0 -3.138 15.69l32.412 6.482c-4.771 11.807 10.59 16.483 14.391 7.1 7.9-19.5 15.966-40.955 23.965-63.766a54.314 54.314 0 0 0 -18.936-61.33c17.266-8.935 45.592-27.053 68.217-58.31z"/><path d="m8 264h136a8 8 0 0 0 0-16h-136a8 8 0 0 0 0 16z"/><path d="m104 152c46.183-1.21 50.624 2.773 54.748-3.7 14.192-22.289 44.005-27.983 63.477-8.581 20.807 22.9 32.406 26.8 29.274 38.614a19.318 19.318 0 0 1 -13.242 13.062c-7.059 1.871-10.713-1.567-14.144-4.5l-26.913-23.032a8 8 0 0 0 -10.4 12.157l26.667 22.82c28.583 28.466 74.781-16.21 45.044-45.468l-24.982-24.98c-25.867-25.775-65.367-19.87-85.73 7.608h-43.799a8 8 0 0 0 0 16z"/><path d="m505.667 496h-26.167a64.009 64.009 0 0 0 -121.661-18.734 47.938 47.938 0 0 0 -43.685 0c-22.79-49.587-93.52-49.594-116.315 0a47.936 47.936 0 0 0 -43.684 0 64.009 64.009 0 0 0 -121.655 18.734h-24.5a8 8 0 0 0 0 16h32a8 8 0 0 0 8-8 48 48 0 0 1 94.372-12.409 8 8 0 0 0 5.346 5.574c8.347 2.605 10.345-9.165 28.282-9.165 17.9 0 19.949 11.766 28.282 9.165a8 8 0 0 0 5.346-5.574c12.611-47.261 80.121-47.3 92.744 0a8 8 0 0 0 5.346 5.574c8.356 2.609 10.316-9.165 28.282-9.165 17.9 0 19.949 11.766 28.282 9.165a8 8 0 0 0 5.346-5.574 48 48 0 0 1 94.372 12.409 8 8 0 0 0 8 8h33.667a8 8 0 1 0 0-16z"/><path d="m272 57.884a8 8 0 0 0 -16 0v70.116a8 8 0 0 0 16 0z"/><path d="m139.647 78.944c9.374 17.541 34.516 22.28 49.636 9 10.756 8.608 25.393 9.605 37.541 4.334l5.415 21.662a8 8 0 1 0 15.522-3.88l-7.1-28.394c7.35-9.352 11.419-26.156-.168-27.056a8.014 8.014 0 0 0 -8.595 7.36c-1.4 18.076-26.768 23.757-36.354 9.4a8.006 8.006 0 0 0 -13.67.6c-6.869 12.542-27.67 8.7-29.66-5.336a8 8 0 0 0 -4.929-6.3c-6.612-2.667-7.932 3.666-15.285 3.666-12.47 0-14.132-13.875-9.028-20.459 5.74-7.4 12.247-.446 17.933-4.736a8 8 0 0 0 3.158-5.8c1.36-18.515 26.217-25.736 36.779-9.283a8.006 8.006 0 0 0 13.537-.116c6.621-10.706 23.77-10.164 28.612 2.794a8.006 8.006 0 0 0 13.386 2.611c5.563-6.055 16.16-6.523 22.232-.984a8 8 0 0 0 10.781 0c6.075-5.539 16.673-5.072 22.233.984a8 8 0 0 0 13.393-2.631c4.4-11.882 21.539-14.27 28.594-2.791a8.005 8.005 0 0 0 13.588.068c9.1-14.465 35.416-11.171 36.734 9.277a8 8 0 0 0 9.6 7.319 12.07 12.07 0 0 1 14.468 11.747c0 9.868-12.223 15.116-19.321 9.486a8.005 8.005 0 0 0 -12.893 5.139c-2.073 14.549-23.078 17.328-29.665 5.333a8.007 8.007 0 0 0 -13.644-.619c-10.125 15.061-35.046 8.061-36.377-9.361a8.009 8.009 0 0 0 -8.586-7.368c-11.681.891-7.515 17.831-.037 27.207l-7.323 36.614a8 8 0 0 0 15.69 3.138l5.815-29.078a37.967 37.967 0 0 0 23.9 2.012l-5.157 18.4a8 8 0 1 0 15.407 4.317l7.322-26.12c14.809 8.805 36.543 4.239 45.258-12.208 16.92 4.566 35.611-8.038 35.611-26.892a28.1 28.1 0 0 0 -25.4-27.875c-7.173-25.888-39.493-32.81-58.2-16.8a32.354 32.354 0 0 0 -45.248 4.5 32.629 32.629 0 0 0 -31.149.45 32.613 32.613 0 0 0 -31.088-.482c-10.985-13.771-31.732-15.593-45.26-4.487-19.4-17.1-50.67-7.966-58.088 16.6-20.93.98-30.786 23.97-22.283 41.32 6.307 12.874 20.691 17.032 32.363 13.718z"/><circle cx="72" cy="504" r="8"/><circle cx="104" cy="480" r="8"/><circle cx="256" cy="480" r="8"/><circle cx="72" cy="144" r="8"/><circle cx="280" cy="504" r="8"/><circle cx="232" cy="504" r="8"/><circle cx="408" cy="480" r="8"/><circle cx="432" cy="504" r="8"/><path d="m8 152h32a8 8 0 0 0 0-16h-32a8 8 0 0 0 0 16z"/></g></g></svg>