<svg id="Capa_1" enable-background="new 0 0 512 512" height="512" viewBox="0 0 512 512" width="512" xmlns="http://www.w3.org/2000/svg"><g><g><g><path d="m478.87 70.56c-2.18-.31-5.48-1.02-9.62-1.72l-92.22 35.66c-5.003 5.003-241.06 241.06-241.06 241.06l-80.17 3.57-40.13 40.54 73.81 29.63c36.983 14.862 79.507 6.383 107.97-22.08l292.72-292.72c11.71-11.71 4.83-31.64-11.3-33.94z" fill="#eefaff"/><path d="m382.04 368.73c-.03-.57-.04-1.15-.04-1.73 0-22.09 17.91-40 40-40 22.73 0 40.93 18.93 39.96 41.72 3.45-1.22 6.86-1.72 10.04-1.72 16.57 0 30 13.43 30 30s-13.43 30-30 30c-30.38 0-100 0-100 0-16.57 0-30-13.43-30-30s13.43-30 30-30c3.52 0 6.9.61 10.04 1.73z" fill="#eefaff"/><path d="m320.38 217.72c-.033.145-42.289 183.239-42.43 183.85l-41.95 43.43c0-4.8 0-134.902 0-142.42z" fill="#80b6ff"/><path d="m292.18 189.35-70.71 70.71h-84.86l42.43-42.42z" fill="#80b6ff"/><path d="m50.04 108.73c-.03-.57-.04-1.15-.04-1.73 0-22.09 17.91-40 40-40 22.73 0 40.93 18.93 39.96 41.72 3.45-1.22 6.86-1.72 10.04-1.72 16.57 0 30 13.43 30 30s-13.43 30-30 30c-30.38 0-100 0-100 0-16.57 0-30-13.43-30-30s13.43-30 30-30c3.52 0 6.9.61 10.04 1.73z" fill="#eefaff"/></g><path d="m469.25 68.84v.01l-35.65 35.65c-15.62 15.62-40.95 15.62-56.57 0l14.14-14.14c27.43-27.43 60.43-24.49 78.08-21.52z" fill="#80b6ff"/></g><g><circle cx="384.1" cy="154" r="9.999"/><path d="m341.67 182.28c-3.9 3.91-3.9 10.24 0 14.14 3.91 3.91 10.24 3.91 14.15 0 3.9-3.9 3.9-10.23 0-14.14-3.91-3.9-10.24-3.9-14.15 0z"/><path d="m186.11 337.85c-3.9 3.9-3.9 10.23 0 14.14 3.91 3.9 10.24 3.9 14.14 0 3.91-3.91 3.91-10.24 0-14.14-3.9-3.91-10.23-3.91-14.14 0z"/><path d="m5.878 391.699c.68 3.281 2.958 6.003 6.066 7.251l73.807 29.628c41.643 16.736 88.369 6.113 118.771-24.288l21.478-21.478v62.188c0 4.076 2.474 7.745 6.253 9.271 3.77 1.524 8.101.615 10.939-2.324l41.95-43.43c1.261-1.306 2.143-2.93 2.551-4.698l24.813-107.513 73.595-73.595c3.905-3.905 3.905-10.237 0-14.142-3.905-3.906-10.236-3.905-14.143 0l-50.967 50.966 9.131-39.566c1.004-4.352-1-8.842-4.909-11.002-3.913-2.16-8.778-1.465-11.927 1.703l-84.38 84.86c-1.863 1.874-2.909 4.408-2.909 7.051v51.947l-35.621 35.622c-14.622 14.622-33.881 23.631-54.11 25.824l35.702-35.701c3.905-3.905 3.906-10.237 0-14.142-3.905-3.905-10.237-3.905-14.142 0l-48.645 48.644c-5.471-1.095-10.828-2.683-15.979-4.754l-59.833-24.019 26.781-27.055 50.538-2.25-9.433 9.433c-3.905 3.905-3.905 10.237 0 14.143 3.905 3.905 10.237 3.905 14.143 0 0 0 248.826-248.827 262.34-262.341 19.319 12.777 45.782 10.788 62.93-6.359l31.957-31.957c.008.002.017.003.026.005 1.841.347 3.431.646 4.804.841 3.799.542 6.805 3.074 8.039 6.775.586 1.758 1.526 6.27-2.398 10.194l-47.53 47.531c-3.905 3.905-3.905 10.237 0 14.142s10.237 3.906 14.142 0l47.53-47.53c8.074-8.074 10.844-19.824 7.229-30.664-3.628-10.879-12.896-18.638-24.191-20.248-1.427-.203-5.96-1.105-9.369-1.681-33.584-5.654-63.201.702-86.811 24.31-10.459 10.459-84.392 84.392-97.032 97.032l-110.452 27.618c-1.758.439-3.363 1.348-4.645 2.629l-42.43 42.42c-2.86 2.86-3.716 7.161-2.169 10.898 1.548 3.737 5.194 6.174 9.239 6.174h60.718l-65.682 65.683-76.29 3.397c-2.513.112-4.892 1.167-6.662 2.955l-40.13 40.54c-2.355 2.379-3.363 5.782-2.683 9.062zm240.122-84.994 56.754-57.077-33.924 146.99-22.83 23.635zm200.978-229.725-20.449 20.449c-9.219 9.219-22.991 11.167-34.141 5.855l5.853-5.853c15.703-15.702 33.263-20.163 48.737-20.451zm-286.222 173.08 23.396-23.39 75.425-18.86-42.25 42.25z"/><path d="m40 177h100c22.056 0 40-17.944 40-40s-17.944-40-40-40c-.329 0-.658.004-.985.012-4.431-22.026-24.033-40.012-49.015-40.012-24.151 0-44.357 17.211-48.998 40.012-.334-.008-.668-.012-1.002-.012-22.056 0-40 17.944-40 40s17.944 40 40 40zm0-60c8.704 0 16.133 5.621 18.862 13.335 1.842 5.207 7.556 7.933 12.763 6.093 5.207-1.842 7.935-7.556 6.093-12.763-3.18-8.99-9.347-16.402-17.387-21.126 2.161-14.434 14.643-25.539 29.669-25.539 17.087 0 30.697 14.2 29.969 31.295-.142 3.319 1.375 6.491 4.045 8.466 2.671 1.975 6.148 2.495 9.28 1.387 2.154-.762 4.41-1.148 6.706-1.148 11.028 0 20 8.972 20 20s-8.972 20-20 20h-100c-11.028 0-20-8.972-20-20s8.972-20 20-20z"/><path d="m10 257h60c5.523 0 10-4.477 10-10s-4.477-10-10-10h-60c-5.523 0-10 4.477-10 10s4.477 10 10 10z"/><path d="m90 297c5.523 0 10-4.477 10-10s-4.477-10-10-10h-40c-5.523 0-10 4.477-10 10s4.477 10 10 10z"/><path d="m402 277h80c5.523 0 10-4.477 10-10s-4.477-10-10-10h-80c-5.523 0-10 4.477-10 10s4.477 10 10 10z"/><path d="m502 217h-60c-5.523 0-10 4.477-10 10s4.477 10 10 10h60c5.523 0 10-4.477 10-10s-4.477-10-10-10z"/><path d="m512 397c0-22.056-17.944-40-40-40-.329 0-.658.004-.985.012-4.431-22.026-24.033-40.012-49.015-40.012-24.154 0-44.36 17.216-48.998 40.021-.334-.008-.667-.021-1.002-.021-22.056 0-40 17.944-40 40s17.944 40 40 40h100c22.056 0 40-17.944 40-40zm-160 0c0-11.028 8.972-20 20-20 8.704 0 16.133 5.621 18.862 13.335 1.843 5.207 7.556 7.934 12.763 6.093 5.207-1.842 7.935-7.556 6.093-12.763-3.179-8.986-9.351-16.384-17.387-21.108 2.154-14.443 14.637-25.557 29.669-25.557 17.087 0 30.697 14.2 29.969 31.295-.142 3.319 1.375 6.491 4.045 8.466s6.148 2.494 9.28 1.387c2.154-.762 4.41-1.148 6.706-1.148 11.028 0 20 8.972 20 20s-8.972 20-20 20c-7.936 0-86.07 0-100 0-11.028 0-20-8.972-20-20z"/><circle cx="411" cy="184" r="10"/></g></g></svg>