<?xml version="1.0"?>
<svg xmlns="http://www.w3.org/2000/svg" xmlns:xlink="http://www.w3.org/1999/xlink" xmlns:svgjs="http://svgjs.com/svgjs" version="1.1" width="512" height="512" x="0" y="0" viewBox="0 0 512.001 512" style="enable-background:new 0 0 512 512" xml:space="preserve" class=""><g><path xmlns="http://www.w3.org/2000/svg" d="m273.191406 452.730469-45.824218-154.664063c-7.742188-26.125-8.566407-53.808594-2.394532-80.347656l1.335938-5.742188c.640625-2.761718-1.453125-5.398437-4.285156-5.398437h-114.996094c-2.832032 0-4.929688 2.636719-4.285156 5.398437l1.335937 5.742188c6.171875 26.539062 5.347656 54.222656-2.394531 80.347656l-45.828125 154.664063" fill="#a9dbf6" data-original="#a9dbf6" style=""/><path xmlns="http://www.w3.org/2000/svg" d="m273.191406 452.730469h-217.335937l45.828125-154.664063c5.226562-17.65625 7.296875-36.027344 6.191406-54.269531-.53125-8.746094-1.804688-17.476563-3.800781-26.074219l-1.335938-5.75c-.640625-2.757812 1.457031-5.394531 4.292969-5.394531h114.984375c2.839844 0 4.9375 2.636719 4.296875 5.394531l-1.335938 5.75c-2.007812 8.617188-3.269531 17.359375-3.800781 26.125-1.105469 18.230469.960938 36.578125 6.1875 54.21875zm0 0" fill="#89e5ff" data-original="#89e5ff" style="" class=""/><path xmlns="http://www.w3.org/2000/svg" d="m211.328125 372.8125-34.375-.003906c-.003906-5.234375-2.839844-9.808594-7.0625-12.261719l17.160156-29.808594c.515625-.886719.171875-2.023437-.734375-2.503906-7.027344-3.71875-15.042968-5.824219-23.550781-5.824219-8.511719 0-16.527344 2.105469-23.5625 5.832032-.90625.480468-1.238281 1.609374-.730469 2.503906l17.078125 29.855468c-4.167969 2.46875-6.96875 7.007813-6.972656 12.203126l-34.382813.007812c-1.023437 0-1.839843.851562-1.796874 1.882812.625 17.199219 9.886718 32.210938 23.570312 40.8125.855469.542969 2 .242188 2.503906-.636718l17.035156-29.875c.054688.03125.105469.066406.160157.097656 2.089843 1.214844 4.515625 1.90625 7.097656 1.90625 2.585937 0 5.003906-.691406 7.089844-1.898438.042969-.027343.085937-.054687.128906-.082031l17.066406 29.859375c.507813.878906 1.644531 1.171875 2.511719.636719 13.679688-8.605469 22.941406-23.613281 23.574219-40.820313.035156-1.03125-.78125-1.882812-1.808594-1.882812zm0 0" fill="#5d5360" data-original="#5d5360" style="" class=""/><path xmlns="http://www.w3.org/2000/svg" d="m273.191406 452.730469h-30.417968l-45.828126-154.664063c-5.226562-17.636718-7.292968-35.988281-6.191406-54.21875v-.050781h30.289063l.132812.050781c-1.105469 18.230469.960938 36.578125 6.1875 54.21875zm0 0" fill="#67cbef" data-original="#67cbef" style="" class=""/><path xmlns="http://www.w3.org/2000/svg" d="m226.3125 211.976562-1.335938 5.746094c-2.007812 8.621094-3.269531 17.359375-3.800781 26.125l-.128906-.046875h-30.289063c.53125-8.75 1.792969-17.476562 3.800782-26.078125l1.332031-5.746094c.644531-2.761718-1.453125-5.398437-4.292969-5.398437h30.417969c2.839844 0 4.9375 2.636719 4.296875 5.398437zm0 0" fill="#59b8e2" data-original="#59b8e2" style=""/><path xmlns="http://www.w3.org/2000/svg" d="m195.890625 211.976562-1.332031 5.746094c-2.007813 8.601563-3.273438 17.328125-3.800782 26.078125h-82.882812c-.53125-8.75-1.804688-17.476562-3.800781-26.078125l-1.335938-5.746094c-.640625-2.761718 1.457031-5.398437 4.296875-5.398437h84.5625c2.839844 0 4.9375 2.636719 4.292969 5.398437zm0 0" fill="#67cbef" data-original="#67cbef" style="" class=""/><path xmlns="http://www.w3.org/2000/svg" d="m194.347656 88.84375h292.335938l-31.136719-23.410156h-228.039063zm0 0" fill="#5d5360" data-original="#5d5360" style="" class=""/><path xmlns="http://www.w3.org/2000/svg" d="m359.882812 253.949219c0 10.105469-8.191406 18.292969-18.292968 18.292969-10.105469 0-18.292969-8.1875-18.292969-18.292969 0-10.101563 8.1875-18.292969 18.292969-18.292969 10.101562 0 18.292968 8.191406 18.292968 18.292969zm0 0" fill="#ffe07e" data-original="#ffe07e" style=""/><path xmlns="http://www.w3.org/2000/svg" d="m488.511719 486.507812h-465.023438v-21.214843c0-6.9375 5.621094-12.558594 12.558594-12.558594h439.90625c6.933594 0 12.558594 5.621094 12.558594 12.558594zm0 0" fill="#6f6571" data-original="#6f6571" style=""/><path xmlns="http://www.w3.org/2000/svg" d="m74.5625 389.601562c.710938.214844 1.429688.3125 2.140625.3125 3.246094 0 6.242187-2.117187 7.210937-5.386718l24.984376-84.320313c8.09375-27.324219 8.960937-56.4375 2.507812-84.191406l-.445312-1.914063h27.171874c4.15625 0 7.523438-3.367187 7.523438-7.523437s-3.371094-7.523437-7.523438-7.523437h-31.105468c-3.660156 0-7.0625 1.644531-9.339844 4.507812-2.277344 2.867188-3.105469 6.554688-2.277344 10.117188l1.335938 5.746093c5.867187 25.21875 5.078125 51.675781-2.277344 76.503907l-24.984375 84.320312c-1.179687 3.984375 1.089844 8.171875 5.078125 9.351562zm0 0" fill="#000000" data-original="#000000" style="" class=""/><path xmlns="http://www.w3.org/2000/svg" d="m504.476562 478.984375h-8.441406v-13.691406c0-11.074219-9.007812-20.085938-20.082031-20.085938h-62.148437l-2.738282-20.691406c-.546875-4.121094-4.324218-7.023437-8.445312-6.472656-4.121094.542969-7.019532 4.328125-6.472656 8.445312l2.476562 18.71875h-10.671875l-34.800781-34.488281 36.027344-36.878906 2.546874 19.226562c.5 3.785156 3.730469 6.535156 7.449219 6.535156.328125 0 .660157-.019531.996094-.0625 4.117187-.546874 7.015625-4.328124 6.472656-8.449218l-4.445312-33.574219c0-.023437.003906-.046875.003906-.074219 0-.007812 0-.019531 0-.03125-.003906-.183594-.015625-.363281-.027344-.546875-.007812-.066406-.007812-.132812-.015625-.199219-.023437-.242187-.058594-.480468-.109375-.71875-.027343-.136718-.066406-.265624-.097656-.398437-.011719-.035156-.019531-.074219-.03125-.113281l-6.578125-49.734375 16.726562-50.1875c.007813-.019531.015626-.039063.023438-.058594l50.519531-151.5625h31.660157c5.390624 0 10.160156-3.433594 11.867187-8.546875s-.039063-10.726562-4.347656-13.964844l-37.078125-27.882812v-40.371094c0-5.859375-3.773438-10.910156-9.390625-12.574219-5.617188-1.660156-11.535157.527344-14.71875 5.441407l-28.789063 44.390624h-58.78125c-4.15625 0-7.527344 3.371094-7.527344 7.527344 0 4.152344 3.371094 7.523438 7.527344 7.523438h5.914063l-21.457031 19.609375-21.488282-19.636719c3.894532-.285156 6.96875-3.53125 6.96875-7.5 0-4.15625-3.367187-7.523438-7.523437-7.523438h-44.953125l-28.789063-44.394531c-3.1875-4.914062-9.105469-7.097656-14.71875-5.4375-5.617187 1.660157-9.390625 6.714844-9.390625 12.570313v40.886718l-38.453125 27.148438c-4.472656 3.160156-6.367187 8.789062-4.707031 14.007812 1.65625 5.21875 6.449219 8.726563 11.925781 8.726563h34.203125l50.5 151.488281c.019532.066406.042969.128906.0625.195313l16.710938 50.125-15.554688 117.480469-37.703125-127.25c-7.355469-24.832032-8.144531-51.285157-2.277343-76.507813l1.332031-5.742187c.832031-3.566407 0-7.253907-2.277344-10.121094-2.273437-2.863282-5.679687-4.507813-9.335937-4.507813h-48.179688c-4.15625 0-7.527344 3.371094-7.527344 7.523438 0 4.15625 3.371094 7.527343 7.527344 7.527343h44.246094l-.445313 1.910157c-1.554687 6.691406-2.675781 13.460937-3.382812 20.261719h-69.707031c-4.15625 0-7.523438 3.371093-7.523438 7.527343s3.371094 7.523438 7.523438 7.523438h68.84375c-.199219 16.484375 2.046874 32.984375 6.753906 48.878906l42.964844 145.003906h-197.183594l8.085937-27.285156c1.179688-3.988281-1.09375-8.171875-5.078125-9.355469-3.984375-1.179687-8.171875 1.09375-9.351562 5.078125l-9.351563 31.5625h-14.191406c-11.074219 0-20.082031 9.007813-20.082031 20.082031v13.695313h-8.441406c-4.15625 0-7.523438 3.367187-7.523438 7.523437s3.367188 7.523438 7.523438 7.523438h496.953124c4.15625 0 7.523438-3.367188 7.523438-7.523438s-3.367188-7.523437-7.523438-7.523437zm-219.929687-33.777344 9.554687-72.140625 37.867188 37.867188-33.078125 34.273437zm11.808594-239.214843h-20.148438l6.984375-18.117188zm104.703125-19.589844 6.539062 19.589844h-20.777344zm-69.8125 91.195312c3.167968 1.394532 6.664062 2.167969 10.34375 2.167969 3.675781 0 7.171875-.773437 10.339844-2.167969l18.457031 19.847656h-57.59375zm28.660156 34.898438h21.15625l3.183594 24.054687zm16.457031 37.421875h-69.082031l34.339844-34.335938zm8.164063-59.363281-21.164063-22.757813c1.402344-2.195313 2.480469-4.613281 3.171875-7.191406h27.980469zm17.296875-51.886719-16.390625-17.628907h22.265625zm-30.769531-10.992188 16.625 17.878907h-21.683594c-.792969-2.300782-1.898438-4.453126-3.273438-6.410157zm-18.695313 26.273438c0 5.9375-4.832031 10.769531-10.769531 10.769531s-10.769532-4.832031-10.769532-10.769531 4.832032-10.769531 10.769532-10.769531 10.769531 4.832031 10.769531 10.769531zm-35.179687-8.394531h-21.679688l16.621094-17.875 8.332031 11.46875c-1.371094 1.953124-2.480469 4.105468-3.273437 6.40625zm-19.433594-24.515626-16.390625 17.628907-5.875-17.628907zm18.898437 39.566407c.6875 2.574219 1.769531 4.992187 3.167969 7.1875l-21.160156 22.761719-9.984375-29.949219zm-14.527343 51.890625h21.304687l-24.554687 24.554687zm40.550781 109.023437 23.90625 23.6875h-46.769531zm-2.265625-23.433593-33.121094-33.117188h69.527344l-34.347656 35.160156zm77.683594-208.199219-6.15625-18.441407 22.730468-31.277343zm17.117187-101.042969 23.238281-21.234375 28.242188 21.234375zm-168.808594-23.410156h.015625.015625 11.480469l-21.777344 19.902344-15.570312-19.902344zm30.574219 2.964844 22.375 20.445312h-44.746094zm152.695312-48.722657v30.707031h-19.910156zm-33.78125 45.757813h.015626.015624 22.601563l-20.675781 18.894531-20.679688-18.894531zm-15.410156 23.410156h-44.832031l22.414063-20.484375zm-147.914062-38.460938h-19.914063v-30.710937zm-28.953125 17.804688 16.164062 20.65625h-45.417969zm218.816406 35.707031-91.558594 125.96875c-2.878906-1.113281-6.003906-1.730469-9.273437-1.730469-3.269532 0-6.398438.617188-9.28125 1.730469l-13.324219-18.335937c-.019531-.023438-.035156-.046875-.054687-.070313l-78.171876-107.5625zm-169.773437 69.476563-7 18.171875-17.125-51.367188zm-241.636719 305.613281v-13.691406c0-2.777344 2.261719-5.035157 5.035156-5.035157h19.785156.027344.023437 217.28125.027344.027344 202.734375c2.773437 0 5.035156 2.257813 5.035156 5.035157v13.691406zm0 0" fill="#000000" data-original="#000000" style="" class=""/><path xmlns="http://www.w3.org/2000/svg" d="m193.503906 334.722656c0-.003906 0-.003906 0-.003906 1.257813-2.175781 1.582032-4.816406.886719-7.234375-.699219-2.421875-2.378906-4.492187-4.609375-5.671875-8.265625-4.378906-17.609375-6.691406-27.015625-6.691406-9.410156 0-18.753906 2.316406-27.023437 6.695312-2.230469 1.183594-3.914063 3.25-4.609376 5.675782-.695312 2.417968-.371093 5.054687.886719 7.234374l14.074219 24.378907c-1.558594 1.878906-2.785156 4.007812-3.636719 6.292969h-28.136719c-2.519531 0-4.964843 1.042968-6.710937 2.855468-1.75 1.816406-2.703125 4.304688-2.609375 6.824219.703125 19.105469 10.804688 36.605469 27.027344 46.808594 1.488281.9375 3.21875 1.421875 4.960937 1.421875.746094 0 1.492188-.089844 2.226563-.269532 2.445312-.609374 4.574218-2.207031 5.835937-4.394531l14.070313-24.363281c2.414062.410156 4.867187.410156 7.28125 0l14.070312 24.367188c1.257813 2.183593 3.386719 3.785156 5.835938 4.394531.730468.179687 1.480468.269531 2.226562.269531 1.742188 0 3.472656-.484375 4.960938-1.421875 16.226562-10.203125 26.332031-27.703125 27.03125-46.8125.09375-2.519531-.855469-5.007813-2.605469-6.824219-1.746094-1.8125-4.195313-2.855468-6.710937-2.855468h-28.136719c-.851563-2.289063-2.082031-4.421876-3.640625-6.304688zm-27.433594 43.949219c-7.40625 4.285156-14.019531-7.324219-6.605468-11.492187 7.449218-4.191407 14.003906 7.214843 6.605468 11.492187zm-3.304687-48.503906c5.039063 0 9.90625.847656 14.53125 2.527343l-10.886719 18.863282c-2.402344-.410156-4.894531-.410156-7.296875 0l-10.886719-18.859375c4.625-1.683594 9.496094-2.53125 14.539063-2.53125zm-27.566406 75.441406c-7.640625-6.441406-12.777344-15.34375-14.527344-25.160156h21.773437c.847657 2.273437 2.09375 4.433593 3.640626 6.304687zm55.125.007813-10.886719-18.855469c1.554688-1.875 2.800781-4.03125 3.648438-6.3125h21.773437c-1.75 9.820312-6.890625 18.722656-14.535156 25.167969zm0 0" fill="#000000" data-original="#000000" style="" class=""/></g></svg>
