<?xml version="1.0"?>
<svg xmlns="http://www.w3.org/2000/svg" xmlns:xlink="http://www.w3.org/1999/xlink" xmlns:svgjs="http://svgjs.com/svgjs" version="1.1" width="512" height="512" x="0" y="0" viewBox="0 0 504.414 504.414" style="enable-background:new 0 0 512 512" xml:space="preserve" class=""><g>
<circle xmlns="http://www.w3.org/2000/svg" style="" cx="252.062" cy="252.207" r="252.062" fill="#e1e6e8" data-original="#e1e6e8" class=""/>
<path xmlns="http://www.w3.org/2000/svg" style="" d="M234.732,15.111L204.8,71.825c-3.938,7.089-0.788,15.754,5.514,18.905  c7.089,3.938,15.754,0.788,18.905-5.514l29.932-56.714c3.938-7.089,0.788-15.754-5.514-18.905  C246.548,5.659,237.883,8.81,234.732,15.111z" fill="#ffffff" data-original="#ffffff" class=""/>
<path xmlns="http://www.w3.org/2000/svg" style="" d="M216.615,100.97L216.615,100.97c-3.938,0-7.089-0.788-10.24-2.363  c-5.514-3.151-8.665-7.089-11.028-12.603c-1.575-5.514-0.788-11.815,1.575-16.542l30.72-57.502  c3.938-7.089,11.028-11.815,19.692-11.815c3.938,0,7.089,0.788,10.24,2.363c11.028,5.514,14.966,18.905,8.665,29.932l-29.932,56.714  C232.369,96.244,225.28,100.97,216.615,100.97z M247.335,15.899c-2.363,0-4.726,1.575-5.514,3.151l-29.932,56.714  c-0.788,1.575-0.788,3.151-0.788,4.726c0.788,1.575,1.575,3.151,3.151,3.938c0.788,0.788,1.575,0.788,3.151,0.788l0,0  c2.363,0,4.726-1.575,5.514-3.151l29.932-56.714c1.575-3.151,0.788-7.089-2.363-8.665C248.911,15.899,248.123,15.899,247.335,15.899  z" fill="#183651" data-original="#183651" class=""/>
<path xmlns="http://www.w3.org/2000/svg" style="" d="M229.218,86.004l218.978,114.215c15.754,8.665,35.446,2.363,44.111-13.391l0,0  c8.665-15.754,2.363-35.446-13.391-44.111L259.938,28.502L229.218,86.004z" fill="#ffffff" data-original="#ffffff" class=""/>
<path xmlns="http://www.w3.org/2000/svg" style="" d="M463.951,212.035L463.951,212.035c-6.302,0-13.391-1.575-18.905-4.726L225.28,93.093  c-1.575-0.788-3.151-2.363-3.938-4.726c-0.788-2.363-0.788-3.938,0.788-6.302l30.72-57.502c2.363-3.938,7.089-5.514,10.24-3.151  l218.978,114.215c19.692,10.24,27.569,35.446,16.542,55.138C492.308,203.37,478.917,212.035,463.951,212.035z M239.458,82.853  L451.348,193.13c12.603,6.302,27.569,1.575,33.871-10.24c6.302-11.815,1.575-26.782-10.24-33.871L262.302,38.742L239.458,82.853z" fill="#183651" data-original="#183651" class=""/>
<path xmlns="http://www.w3.org/2000/svg" style="" d="M258.363,101.758l189.834,98.462c15.754,8.665,35.446,2.363,44.111-13.391  c8.665-15.754,2.363-35.446-13.391-44.111l-95.311-49.625" fill="#e06177" data-original="#2aa0da" class=""/>
<g xmlns="http://www.w3.org/2000/svg">
	<path style="" d="M444.258,206.521l-189.046-98.462c-3.938-2.363-5.514-7.089-3.151-10.24   c2.363-3.938,7.089-5.514,10.24-3.151l189.834,98.462c11.815,6.302,26.782,1.575,33.871-10.24   c6.302-11.815,1.575-26.782-10.24-33.871l-95.311-49.625c-3.938-2.363-5.514-7.089-3.151-10.24   c2.363-3.938,7.089-5.514,10.24-3.151l95.311,49.625c19.692,10.24,27.569,35.446,16.542,55.138   C489.157,209.671,463.951,217.548,444.258,206.521z" fill="#183651" data-original="#183651" class=""/>
	<path style="" d="M444.258,206.521l-189.046-98.462c-3.938-2.363-5.514-7.089-3.151-10.24   c2.363-3.938,7.089-5.514,10.24-3.151l189.834,98.462c11.815,6.302,26.782,1.575,33.871-10.24   c6.302-11.815,1.575-26.782-10.24-33.871L359.188,88.367c-3.938-2.363-5.514-7.089-3.151-10.24   c2.363-3.938,7.089-5.514,10.24-3.151l116.578,60.652c19.692,10.24,27.569,35.446,16.542,55.138   C489.157,209.671,463.951,217.548,444.258,206.521z" fill="#183651" data-original="#183651" class=""/>
</g>
<polygon xmlns="http://www.w3.org/2000/svg" style="" points="223.705,130.902 19.692,130.902 102.4,220.699 102.4,295.53 140.997,324.675   140.997,220.699 " fill="#ffffff" data-original="#ffffff" class=""/>
<path xmlns="http://www.w3.org/2000/svg" style="" d="M140.997,332.551c-1.575,0-3.151-0.788-4.726-1.575l-38.597-29.145  c-2.363-1.575-3.151-3.938-3.151-6.302v-71.68l-80.345-88.222c-2.363-2.363-2.363-5.514-1.575-7.877  c1.575-3.151,3.938-4.726,7.089-4.726h203.225c3.151,0,6.302,1.575,7.089,4.726c1.575,3.151,0.788,6.302-1.575,8.665l-79.557,87.434  v100.825c0,3.151-1.575,5.514-4.726,7.089C143.36,331.764,142.572,332.551,140.997,332.551z M110.277,291.591l22.843,17.329v-88.222  c0-1.575,0.788-3.938,2.363-5.514l70.105-77.194H37.809l70.105,77.194c1.575,1.575,2.363,3.151,2.363,5.514V291.591z" fill="#183651" data-original="#183651" class=""/>
<circle xmlns="http://www.w3.org/2000/svg" style="" cx="81.132" cy="60.01" r="26.782" fill="#e06177" data-original="#2aa0da" class=""/>
<path xmlns="http://www.w3.org/2000/svg" style="" d="M81.132,95.456c-18.905,0-34.658-15.754-34.658-34.658s15.754-34.658,34.658-34.658  s34.658,15.754,34.658,34.658C115.791,79.702,100.037,95.456,81.132,95.456z M81.132,41.105c-10.24,0-18.905,8.665-18.905,18.905  s8.665,18.905,18.905,18.905c10.24,0,18.905-8.665,18.905-18.905C100.037,49.77,91.372,41.105,81.132,41.105z" fill="#183651" data-original="#183651" class=""/>
<circle xmlns="http://www.w3.org/2000/svg" style="" cx="128.394" cy="129.327" r="26.782" fill="#e06177" data-original="#2aa0da" class=""/>
<path xmlns="http://www.w3.org/2000/svg" style="" d="M128.394,163.985c-18.905,0-34.658-15.754-34.658-34.658s15.754-34.658,34.658-34.658  s34.658,15.754,34.658,34.658C163.052,148.231,147.298,163.985,128.394,163.985z M128.394,110.422  c-10.24,0-18.905,8.665-18.905,18.905s8.665,18.905,18.905,18.905s18.905-8.665,18.905-18.905S138.634,110.422,128.394,110.422z" fill="#183651" data-original="#183651" class=""/>
<path xmlns="http://www.w3.org/2000/svg" style="" d="M9.452,264.022l17.329,21.268v183.532c0,15.754,12.603,28.357,28.357,28.357h131.545  c15.754,0,28.357-12.603,28.357-28.357v-204.8H9.452z" fill="#ffffff" data-original="#ffffff" class=""/>
<path xmlns="http://www.w3.org/2000/svg" id="SVGCleanerId_0" style="" d="M186.683,504.268H54.351c-19.692,0-36.234-16.542-36.234-36.234V287.653  L2.363,268.748c-1.575-2.363-2.363-5.514-0.788-8.665s4.726-3.938,7.877-3.938H215.04c4.726,0,7.877,3.151,7.877,7.877v204.8  C222.129,487.727,206.375,504.268,186.683,504.268z M25.206,271.899l7.089,7.877c0.788,1.575,1.575,3.151,1.575,4.726v183.532  c0,11.028,9.452,20.48,20.48,20.48h131.545c11.028,0,20.48-9.452,20.48-20.48V271.899H25.206z" fill="#183651" data-original="#183651" class=""/>
<path xmlns="http://www.w3.org/2000/svg" style="" d="M120.517,401.081c0,0-41.748-14.178-94.523-3.151v3.151v66.954c0,15.754,12.603,28.357,28.357,28.357  h131.545c15.754,0,28.357-12.603,28.357-28.357v-64.591C196.923,407.382,161.477,412.108,120.517,401.081z" fill="#fcbd5e" data-original="#fcbd5e"/>
<g xmlns="http://www.w3.org/2000/svg">
	<path style="" d="M51.2,313.647H25.994c-4.726,0-7.877-3.151-7.877-7.877s3.151-7.877,7.877-7.877H51.2   c4.726,0,7.877,3.151,7.877,7.877S55.926,313.647,51.2,313.647z" fill="#183651" data-original="#183651" class=""/>
	<path style="" d="M51.2,350.668H25.994c-4.726,0-7.877-3.151-7.877-7.877s3.151-7.877,7.877-7.877H51.2   c4.726,0,7.877,3.151,7.877,7.877S55.926,350.668,51.2,350.668z" fill="#183651" data-original="#183651" class=""/>
	<path style="" d="M51.2,387.69H25.994c-4.726,0-7.877-3.151-7.877-7.877c0-4.726,3.151-7.877,7.877-7.877H51.2   c4.726,0,7.877,3.151,7.877,7.877C59.077,383.751,55.926,387.69,51.2,387.69z" fill="#183651" data-original="#183651" class=""/>
	<path style="" d="M51.2,423.924H25.994c-4.726,0-7.877-3.151-7.877-7.877s3.151-7.877,7.877-7.877H51.2   c4.726,0,7.877,3.151,7.877,7.877C59.077,420.773,55.926,423.924,51.2,423.924z" fill="#183651" data-original="#183651" class=""/>
	<path style="" d="M51.2,460.945H25.994c-4.726,0-7.877-3.151-7.877-7.877s3.151-7.877,7.877-7.877H51.2   c4.726,0,7.877,3.151,7.877,7.877S55.926,460.945,51.2,460.945z" fill="#183651" data-original="#183651" class=""/>
</g>
<circle xmlns="http://www.w3.org/2000/svg" style="" cx="159.114" cy="445.191" r="20.48" fill="#ffffff" data-original="#ffffff" class=""/>
<path xmlns="http://www.w3.org/2000/svg" style="" d="M159.114,473.548c-15.754,0-28.357-12.603-28.357-28.357s12.603-28.357,28.357-28.357  s28.357,12.603,28.357,28.357S174.868,473.548,159.114,473.548z M159.114,432.588c-7.089,0-12.603,5.514-12.603,12.603  s5.514,12.603,12.603,12.603c7.089,0,12.603-5.514,12.603-12.603S166.203,432.588,159.114,432.588z" fill="#183651" data-original="#183651" class=""/>
<circle xmlns="http://www.w3.org/2000/svg" style="" cx="128.394" cy="342.791" r="20.48" fill="#e06177" data-original="#2aa0da" class=""/>
<path xmlns="http://www.w3.org/2000/svg" style="" d="M128.394,371.148c-15.754,0-28.357-12.603-28.357-28.357s12.603-28.357,28.357-28.357  s28.357,12.603,28.357,28.357S144.148,371.148,128.394,371.148z M128.394,330.188c-7.089,0-12.603,5.514-12.603,12.603  s5.514,12.603,12.603,12.603c7.089,0,12.603-5.514,12.603-12.603C140.997,335.702,135.483,330.188,128.394,330.188z" fill="#183651" data-original="#183651" class=""/>
<g xmlns="http://www.w3.org/2000/svg">
	<path id="SVGCleanerId_0_1_" style="" d="M186.683,504.268H54.351c-19.692,0-36.234-16.542-36.234-36.234V287.653   L2.363,268.748c-1.575-2.363-2.363-5.514-0.788-8.665s4.726-3.938,7.877-3.938H215.04c4.726,0,7.877,3.151,7.877,7.877v204.8   C222.129,487.727,206.375,504.268,186.683,504.268z M25.206,271.899l7.089,7.877c0.788,1.575,1.575,3.151,1.575,4.726v183.532   c0,11.028,9.452,20.48,20.48,20.48h131.545c11.028,0,20.48-9.452,20.48-20.48V271.899H25.206z" fill="#183651" data-original="#183651" class=""/>
</g>
<g xmlns="http://www.w3.org/2000/svg">
	<rect x="276.48" y="357.758" style="" width="15.754" height="17.329" fill="#183651" data-original="#183651" class=""/>
	<rect x="432.443" y="357.758" style="" width="15.754" height="17.329" fill="#183651" data-original="#183651" class=""/>
	
		<rect x="287.398" y="396.248" transform="matrix(-0.866 0.5 -0.5 -0.866 753.448 607.9332)" style="" width="15.753" height="17.329" fill="#183651" data-original="#183651" class=""/>
	
		<rect x="422.117" y="318.349" transform="matrix(-0.8662 0.4997 -0.4997 -0.8662 965.8618 395.4047)" style="" width="15.754" height="17.329" fill="#183651" data-original="#183651" class=""/>
	
		<rect x="316.258" y="425.142" transform="matrix(-0.4999 0.8661 -0.8661 -0.4999 861.8829 369.9341)" style="" width="15.754" height="17.329" fill="#183651" data-original="#183651" class=""/>
	
		<rect x="393.76" y="289.866" transform="matrix(-0.4999 0.8661 -0.8661 -0.4999 860.9667 99.9118)" style="" width="15.754" height="17.329" fill="#183651" data-original="#183651" class=""/>
	<rect x="354.462" y="436.527" style="" width="17.329" height="15.754" fill="#183651" data-original="#183651" class=""/>
	<rect x="354.462" y="280.564" style="" width="17.329" height="15.754" fill="#183651" data-original="#183651" class=""/>
	
		<rect x="392.885" y="425.444" transform="matrix(-0.866 0.5 -0.5 -0.866 965.9648 607.8058)" style="" width="17.329" height="15.753" fill="#183651" data-original="#183651" class=""/>
	
		<rect x="315.05" y="290.744" transform="matrix(-0.866 0.5 -0.5 -0.866 753.3716 395.3712)" style="" width="17.329" height="15.753" fill="#183651" data-original="#183651" class=""/>
	
		<rect x="421.288" y="397.234" transform="matrix(-0.4996 0.8662 -0.8662 -0.4996 995.6903 235.0714)" style="" width="17.328" height="15.753" fill="#183651" data-original="#183651" class=""/>
	
		<rect x="286.429" y="319.035" transform="matrix(-0.5 0.866 -0.866 -0.5 725.7546 234.8146)" style="" width="17.329" height="15.753" fill="#183651" data-original="#183651" class=""/>
</g>
<g xmlns="http://www.w3.org/2000/svg">
</g>
<g xmlns="http://www.w3.org/2000/svg">
</g>
<g xmlns="http://www.w3.org/2000/svg">
</g>
<g xmlns="http://www.w3.org/2000/svg">
</g>
<g xmlns="http://www.w3.org/2000/svg">
</g>
<g xmlns="http://www.w3.org/2000/svg">
</g>
<g xmlns="http://www.w3.org/2000/svg">
</g>
<g xmlns="http://www.w3.org/2000/svg">
</g>
<g xmlns="http://www.w3.org/2000/svg">
</g>
<g xmlns="http://www.w3.org/2000/svg">
</g>
<g xmlns="http://www.w3.org/2000/svg">
</g>
<g xmlns="http://www.w3.org/2000/svg">
</g>
<g xmlns="http://www.w3.org/2000/svg">
</g>
<g xmlns="http://www.w3.org/2000/svg">
</g>
<g xmlns="http://www.w3.org/2000/svg">
</g>
</g></svg>
