<svg id="Capa_1" enable-background="new 0 0 512 512" height="512" viewBox="0 0 512 512" width="512" xmlns="http://www.w3.org/2000/svg"><g><g><path d="m170.292 298.058c24.937 22.384 40.331 53.335 42.514 86.522h86.388c2.182-33.183 17.57-64.135 42.506-86.515 26.18-23.495 42.649-57.592 42.649-95.538 0-70.885-57.463-128.349-128.348-128.35-70.729-.001-128.008 56.989-128.35 127.717-.183 38.196 16.32 72.538 42.641 96.164z" fill="#fcc16d"/><path d="m384.35 202.53c0 37.94-16.47 72.04-42.65 95.53-24.94 22.38-40.32 53.34-42.51 86.52h-34c2.19-33.18 17.57-64.14 42.51-86.52 26.18-23.49 42.65-57.59 42.65-95.53 0-65.13-48.5-118.92-111.35-127.23 5.56-.74 11.24-1.12 17-1.12 70.89 0 128.35 57.46 128.35 128.35z" fill="#fcb44d"/><path d="m240.16 259.5h31.68v68h-31.68z" fill="#8dcafc"/><path d="m271.84 259.5v19.68c-1.2 1.27-2.48 2.48-3.82 3.6-6.95 5.81-17.09 5.81-24.03 0-1.35-1.13-2.63-2.33-3.83-3.61v-19.67z" fill="#64b9fc"/><path d="m284.043 230.133c0 13.78-6.23 26.104-16.026 34.309-6.944 5.816-17.085 5.816-24.03.002-9.8-8.205-16.03-20.53-16.03-34.311 0-17.593 10.154-32.807 24.925-40.11 1.974-.976 4.269-.976 6.243 0 14.764 7.303 24.918 22.517 24.918 40.11z" fill="#fff2e3"/><path d="m284.043 369h-56.087v-36.957c.001-15.488 12.556-28.043 28.044-28.043 15.488 0 28.043 12.555 28.043 28.043z" fill="#d5daf2"/><path d="m284.04 332.04v36.96h-24.5v-36.96c0-7.74-3.14-14.75-8.21-19.82-2.19-2.2-4.75-4.03-7.58-5.4 3.7-1.81 7.86-2.82 12.25-2.82 7.74 0 14.76 3.14 19.83 8.22 5.07 5.07 8.21 12.08 8.21 19.82z" fill="#bec7ec"/><g><path d="m215.803 465.639c.724 21.583 18.437 38.861 40.197 38.861s39.473-17.278 40.197-38.861z" fill="#d5daf2"/><path d="m296.2 465.64c-.3 8.91-3.5 17.09-8.69 23.62h-63.02c-5.19-6.53-8.39-14.71-8.69-23.62z" fill="#bec7ec"/><path d="m296.2 465.64c-.73 21.58-18.44 38.86-40.2 38.86-4.12 0-8.09-.62-11.83-1.77 16.02-4.93 27.78-19.6 28.36-37.09z" fill="#bec7ec"/><path d="m303.362 469.263h-94.725c-4.866 0-8.81-3.944-8.81-8.81v-89.73c0-4.866 3.944-8.81 8.81-8.81h94.725c4.866 0 8.81 3.944 8.81 8.81v89.73c0 4.866-3.944 8.81-8.81 8.81z" fill="#6d81d5"/><path d="m312.17 370.72v89.73c0 4.87-3.94 8.81-8.81 8.81h-33.39c4.87 0 8.81-3.94 8.81-8.81v-89.73c0-4.86-3.94-8.81-8.81-8.81h33.39c4.87 0 8.81 3.95 8.81 8.81z" fill="#5169cd"/></g></g><g><path d="m368.591 264.629c-3.504-2.214-8.134-1.167-10.346 2.334-5.98 9.464-13.231 18.05-21.554 25.52-18.779 16.853-32.393 38.2-39.569 61.93h-5.579v-22.37c0-10.67-4.733-20.25-12.201-26.77v-41.601c6.548-7.805 10.674-17.344 11.848-27.511 2.242-1.196 4.001-2.608 5.51-3.822 2.624-2.111 3.941-3.171 7.299-3.171 4.142 0 7.5-3.358 7.5-7.5s-3.358-7.5-7.5-7.5c-6.414 0-10.631 2.064-13.771 4.247-3.432-15.116-13.428-28.017-27.779-35.116-4.096-2.026-8.795-2.027-12.893-.001-14.356 7.098-24.355 19.999-27.787 35.117-3.14-2.183-7.357-4.248-13.77-4.248-4.142 0-7.5 3.358-7.5 7.5s3.358 7.5 7.5 7.5c3.357 0 4.674 1.06 7.298 3.17 1.509 1.214 3.269 2.627 5.512 3.823 1.174 10.166 5.3 19.705 11.848 27.508v41.603c-7.469 6.521-12.201 16.1-12.201 26.77v22.37h-5.58c-7.176-23.729-20.793-45.078-39.575-61.937-25.682-23.052-40.316-56.055-40.149-90.546.134-27.875 9.953-55.01 27.646-76.409 2.639-3.192 2.191-7.92-1.001-10.56-3.194-2.639-7.919-2.191-10.56 1.001-19.895 24.061-30.934 54.565-31.085 85.895-.187 38.772 16.262 75.87 45.13 101.782 16.251 14.587 28.152 32.929 34.671 53.303-4.573 2.893-7.625 7.981-7.625 13.781v89.73c0 8.993 7.317 16.31 16.31 16.31h1.305c5.567 20.624 24.376 35.239 46.057 35.239 21.671 0 40.488-14.619 46.057-35.237h1.305c8.993 0 16.31-7.316 16.31-16.31v-89.73c0-5.8-3.053-10.889-7.627-13.782 6.518-20.373 18.416-38.713 34.664-53.295 9.351-8.392 17.499-18.038 24.216-28.671 2.213-3.501 1.168-8.134-2.334-10.346zm-161.263 144.013h97.345v17.642h-97.345zm0-15v-22.919c0-.722.588-1.31 1.31-1.31h94.725c.722 0 1.31.588 1.31 1.31v22.919zm29.074-155.175c5.918-.997 9.526-3.898 12.298-6.128 2.624-2.111 3.94-3.17 7.297-3.17 3.358 0 4.675 1.06 7.3 3.171 2.773 2.23 6.382 5.131 12.301 6.128-1.795 7.838-6.094 14.946-12.396 20.224-4.172 3.494-10.229 3.493-14.4.001-6.305-5.278-10.605-12.387-12.4-20.226zm19.601-41.62c10.472 5.257 17.646 14.866 19.829 26.047-.985-.526-1.92-1.266-3.132-2.242-3.401-2.736-8.059-6.483-16.702-6.483-8.642 0-13.3 3.748-16.701 6.484-1.21.974-2.145 1.713-3.127 2.239 2.183-11.181 9.358-20.789 19.833-26.045zm-8.345 78.089c2.705.91 5.522 1.381 8.344 1.381 2.82 0 5.636-.471 8.341-1.38v22.561c-2.678-.647-5.469-.998-8.342-.998s-5.665.352-8.342.998v-22.562zm-12.201 57.107c0-11.328 9.216-20.543 20.543-20.543s20.543 9.216 20.543 20.543v22.37h-41.087v-22.37zm67.905 129.72h-37.029c-4.142 0-7.5 3.358-7.5 7.5s3.358 7.5 7.5 7.5h19.916c-4.959 12.031-16.802 20.237-30.249 20.237-13.454 0-25.292-8.204-30.251-20.237h6.584c4.142 0 7.5-3.358 7.5-7.5s-3.358-7.5-7.5-7.5h-23.695c-.722 0-1.31-.587-1.31-1.31v-19.169h97.345v19.169c-.001.722-.589 1.31-1.311 1.31z"/><path d="m385.956 242.218c3.911-12.816 5.894-26.171 5.894-39.692 0-74.907-60.941-135.849-135.848-135.85-28.271 0-55.362 8.576-78.342 24.8-3.384 2.389-4.19 7.069-1.801 10.453 2.39 3.384 7.071 4.19 10.453 1.801 20.436-14.428 44.534-22.054 69.691-22.054 66.636.001 120.848 54.214 120.848 120.85 0 12.037-1.763 23.918-5.24 35.314-1.209 3.962 1.023 8.154 4.984 9.362.729.223 1.466.329 2.191.329 3.212 0 6.184-2.081 7.17-5.313z"/><path d="m256 39.167c4.142 0 7.5-3.358 7.5-7.5v-24.167c0-4.142-3.358-7.5-7.5-7.5s-7.5 3.358-7.5 7.5v24.167c0 4.142 3.358 7.5 7.5 7.5z"/><path d="m399.112 63.672-17.089 17.088c-2.929 2.929-2.929 7.677 0 10.606 1.464 1.465 3.384 2.197 5.303 2.197s3.839-.732 5.303-2.197l17.088-17.088c2.929-2.929 2.929-7.677 0-10.606-2.927-2.929-7.676-2.929-10.605 0z"/><path d="m119.37 343.414-17.088 17.088c-2.929 2.929-2.929 7.677 0 10.606 1.464 1.465 3.384 2.197 5.303 2.197s3.839-.732 5.303-2.197l17.088-17.088c2.929-2.929 2.929-7.677 0-10.606-2.928-2.929-7.677-2.929-10.606 0z"/><path d="m465.891 209.891h-24.167c-4.142 0-7.5 3.358-7.5 7.5s3.358 7.5 7.5 7.5h24.167c4.142 0 7.5-3.358 7.5-7.5s-3.358-7.5-7.5-7.5z"/><path d="m70.276 209.891h-24.167c-4.142 0-7.5 3.358-7.5 7.5s3.358 7.5 7.5 7.5h24.167c4.142 0 7.5-3.358 7.5-7.5s-3.358-7.5-7.5-7.5z"/><path d="m392.63 343.414c-2.929-2.929-7.678-2.929-10.606 0-2.929 2.929-2.929 7.678 0 10.606l17.088 17.088c1.464 1.464 3.384 2.197 5.303 2.197s3.839-.732 5.303-2.197c2.929-2.929 2.929-7.678 0-10.606z"/><path d="m119.37 91.367c1.464 1.464 3.384 2.197 5.303 2.197s3.839-.732 5.303-2.197c2.929-2.929 2.929-7.678 0-10.606l-17.088-17.088c-2.929-2.929-7.678-2.929-10.606 0-2.929 2.929-2.929 7.678 0 10.606z"/></g></g></svg>