<svg id="Capa_1" enable-background="new 0 0 511.958 511.958" height="512" viewBox="0 0 511.958 511.958" width="512" xmlns="http://www.w3.org/2000/svg"><g><g><circle cx="255.972" cy="255.979" fill="#eaf6ff" r="248.479"/></g><g><path d="m504.452 255.979c0 137.23-111.25 248.48-248.48 248.48-67.24 0-128.24-26.7-172.97-70.09 42.77 34.86 97.37 55.76 156.85 55.76 137.23 0 248.48-111.25 248.48-248.48 0-69.99-28.94-133.23-75.51-178.39 55.92 45.56 91.63 114.97 91.63 192.72z" fill="#d8ecfe"/></g><g><ellipse cx="106.077" cy="255.979" fill="#bc7c63" rx="98.584" ry="156.688"/></g><g><path d="m204.662 255.979c0 86.54-44.14 156.69-98.59 156.69-9.98 0-19.62-2.36-28.7-6.74 3.17.49 6.39.74 9.65.74 54.44 0 98.58-70.15 98.58-156.69 0-70.67-29.44-130.41-69.88-149.95 49.92 7.71 88.94 74.59 88.94 155.95z" fill="#aa6a51"/></g><g><ellipse cx="64.178" cy="255.979" fill="#7c4b37" rx="56.685" ry="90.095"/></g><g><path d="m120.862 255.979c0 49.76-25.38 90.1-56.68 90.1-7.21 0-14.11-2.14-20.46-6.05.15.01.31.01.46.01 31.3 0 56.68-40.34 56.68-90.1 0-38.31-15.04-71.03-36.25-84.05 31.1.36 56.25 40.56 56.25 90.09z" fill="#683a2a"/></g><g><ellipse cx="83.913" cy="218.679" fill="#edd9d3" rx="25.946" ry="41.238"/></g><g><path d="m109.862 218.679c0 22.77-11.62 41.24-25.95 41.24-5.83 0-11.22-3.06-15.55-8.23 12.76-2.59 22.62-19.92 22.62-40.91 0-13.5-4.08-25.49-10.39-33.01 1.09-.22 2.19-.33 3.32-.33 14.33 0 25.95 18.46 25.95 41.24z" fill="#e5c7be"/></g><g><path d="m255.97 38.438c-19.264 0-38.275 4.954-54.979 14.325-3.612 2.027-4.897 6.599-2.871 10.211 2.027 3.612 6.599 4.899 10.211 2.871 14.467-8.117 30.94-12.407 47.64-12.407 16.701 0 33.175 4.291 47.644 12.409 1.161.651 2.421.96 3.663.96 2.624 0 5.172-1.38 6.548-3.831 2.026-3.612.741-8.184-2.871-10.211-16.706-9.373-35.72-14.327-54.985-14.327z"/><path d="m478.406 129.21c-21.281-37.262-51.854-68.855-88.415-91.364-3.524-2.171-8.146-1.073-10.318 2.455-2.172 3.527-1.072 8.146 2.455 10.318 34.427 21.195 63.215 50.944 83.253 86.03 20.653 36.164 31.57 77.428 31.57 119.33 0 64.367-25.066 124.883-70.581 170.397s-106.03 70.581-170.398 70.581-124.883-25.066-170.398-70.581c-4.729-4.729-9.224-9.629-13.507-14.67 10.786 5.568 22.233 8.46 34.009 8.46 25.619 0 50.285-14.122 69.453-39.766 2.48-3.317 1.801-8.018-1.517-10.497-3.316-2.48-8.017-1.801-10.498 1.517-16.267 21.762-36.666 33.746-57.438 33.746-23.662 0-46.164-15.053-63.361-42.387-4.512-7.171-8.51-14.95-11.97-23.221 9.908 9.137 21.366 14.015 33.432 14.015 17.813 0 34.302-10.616 46.431-29.895 11.449-18.197 17.754-42.24 17.754-67.7 0-25.461-6.305-49.504-17.754-67.701-12.128-19.277-28.617-29.893-46.43-29.893-12.067 0-23.524 4.878-33.432 14.014 3.459-8.271 7.458-16.049 11.97-23.22 17.197-27.333 39.699-42.387 63.361-42.387s46.164 15.054 63.361 42.387c17.877 28.414 27.723 66.344 27.723 106.802 0 31.442-5.974 61.549-17.277 87.063-1.678 3.788.033 8.218 3.82 9.896 3.788 1.678 8.217-.033 9.895-3.819 12.144-27.413 18.562-59.62 18.562-93.139 0-43.248-10.664-84.015-30.026-114.79-20.042-31.854-47.054-49.398-76.058-49.398-11.776 0-23.223 2.892-34.009 8.46 4.283-5.041 8.778-9.941 13.507-14.67 45.514-45.517 106.029-70.583 170.397-70.583 33.504 0 65.927 6.742 96.37 20.04 3.795 1.656 8.216-.075 9.875-3.871 1.658-3.796-.075-8.217-3.871-9.875-32.347-14.13-66.79-21.294-102.374-21.294-68.374 0-132.656 26.627-181.004 74.975-41.478 41.477-66.95 94.685-73.357 152.14-.4 3.583-.737 7.236-.984 10.808-1.533 22.163-.224 44.645 3.951 66.556.882 4.63 1.892 9.236 3.029 13.81.795 3.196 1.651 6.376 2.57 9.539.327 1.124.661 2.246 1.003 3.365 5.75 18.808 13.703 36.934 23.645 53.903 10.065 17.179 22.158 33.154 35.907 47.552 1.395 1.461 2.807 2.906 4.236 4.335 48.348 48.349 112.63 74.975 181.004 74.975s132.657-26.626 181.004-74.975c48.348-48.348 74.975-112.63 74.975-181.004 0-44.506-11.599-88.342-33.545-126.769zm-394.493 55.73c9.826 0 18.445 15.766 18.445 33.738s-8.619 33.737-18.445 33.737-18.446-15.765-18.446-33.737 8.62-33.738 18.446-33.738zm-68.92 71.039c0-22.671 5.487-43.877 15.451-59.714 9.284-14.756 21.265-22.882 33.734-22.882 2.041 0 4.067.24 6.073.668-11.757 7.479-19.784 24.43-19.784 44.626 0 27.329 14.691 48.737 33.446 48.737 12.47 0 23.137-9.472 28.89-23.849.37 4.071.56 8.216.56 12.412 0 22.67-5.487 43.877-15.451 59.713-9.284 14.756-21.264 22.882-33.734 22.882s-24.45-8.126-33.734-22.882c-9.964-15.834-15.451-37.041-15.451-59.711z"/><path d="m173.918 259.83c0-4.143-3.358-7.5-7.5-7.5h-13.5c-4.142 0-7.5 3.357-7.5 7.5s3.358 7.5 7.5 7.5h13.5c4.142 0 7.5-3.357 7.5-7.5z"/><path d="m159.673 317.518c3.292 0 6.312-2.185 7.227-5.513 1.099-3.994-1.249-8.122-5.243-9.221l-13.016-3.58c-3.993-1.095-8.122 1.248-9.22 5.242s1.249 8.122 5.243 9.221l13.016 3.58c.665.183 1.334.271 1.993.271z"/><path d="m126.742 337.935c-2.366 3.4-1.528 8.074 1.872 10.44l11.081 7.711c1.306.908 2.799 1.345 4.277 1.345 2.372 0 4.706-1.123 6.163-3.217 2.366-3.4 1.528-8.074-1.872-10.44l-11.081-7.711c-3.401-2.367-8.075-1.528-10.44 1.872z"/><path d="m98.093 364.106c-3.431 2.32-4.331 6.983-2.01 10.414l7.563 11.182c1.45 2.143 3.813 3.299 6.219 3.299 1.446 0 2.907-.418 4.195-1.289 3.431-2.32 4.331-6.983 2.01-10.414l-7.563-11.182c-2.32-3.428-6.982-4.33-10.414-2.01z"/><path d="m139.421 215.212c.915 3.329 3.935 5.514 7.227 5.514.658 0 1.328-.088 1.993-.271l13.016-3.579c3.994-1.098 6.341-5.226 5.243-9.22s-5.227-6.34-9.22-5.243l-13.016 3.579c-3.994 1.098-6.341 5.226-5.243 9.22z"/><path d="m139.695 163.574-11.081 7.71c-3.4 2.365-4.238 7.04-1.873 10.439 1.458 2.095 3.791 3.218 6.163 3.218 1.478 0 2.972-.437 4.277-1.345l11.081-7.71c3.4-2.365 4.238-7.04 1.873-10.439s-7.04-4.239-10.44-1.873z"/><path d="m103.646 133.958-7.563 11.182c-2.321 3.431-1.42 8.094 2.01 10.414 1.288.872 2.749 1.289 4.195 1.289 2.406 0 4.77-1.156 6.219-3.299l7.563-11.182c2.321-3.431 1.42-8.094-2.01-10.414-3.43-2.323-8.093-1.421-10.414 2.01z"/></g></g></svg>