<svg id="Capa_1" enable-background="new 0 0 512.009 512.009" height="512" viewBox="0 0 512.009 512.009" width="512" xmlns="http://www.w3.org/2000/svg"><g id="XMLID_1862_"><g id="XMLID_1895_"><path d="m174.645 51.714 72.227-41.7c10.481 2.808 16.358 4.383 26.839 7.192l71.685 124.162c-2.808 10.481-4.383 16.358-7.192 26.839l-72.227 41.701c-10.481-2.808-16.358-4.383-26.839-7.192l-71.685-124.163c2.808-10.481 4.383-16.358 7.192-26.839z" fill="#c5d3de"/></g><g id="XMLID_1894_"><path id="XMLID_205_" d="m51.554 264.999 167.658-96.798-31.833-55.136-167.658 96.799c-9.287 5.362-12.469 17.237-7.107 26.524l12.416 21.505c5.362 9.286 17.237 12.468 26.524 7.106z" fill="#c68a65"/></g><g id="XMLID_411_"><path id="XMLID_204_" d="m123.823 130.096h85.178v63.665h-85.178z" fill="#ffda8f" transform="matrix(.866 -.5 .5 .866 -58.669 104.9)"/></g><g id="XMLID_407_"><g id="XMLID_410_"><path id="XMLID_192_" d="m251.676 279.996h-119.205c-22.303 0-27.272 31.315-6.064 38.219l125.269 40.781z" fill="#e2e9ee"/></g><g id="XMLID_408_"><path d="m378.51 279.996h-126.834v79l13.606 6.844c14.956 7.524 24.394 22.836 24.394 39.578 0 13.437-6.098 26.148-16.579 34.557l-25.421 20.395v41.625h117.999 106.335v-41.625l-24.56-19.705c-11.025-8.845-17.44-22.216-17.44-36.35 0-16.271 8.486-31.365 22.389-39.819l29.584-17.991c12.436-7.562 20.027-21.063 20.027-35.618v-30.892h-247" fill="#c5d3de"/></g></g><g id="XMLID_206_"><path id="XMLID_209_" d="m413.279 182.441c2.56 0 5.118-.977 7.071-2.929l19.564-19.565c3.905-3.905 3.905-10.237 0-14.142-3.906-3.905-10.236-3.905-14.143 0l-19.564 19.565c-3.905 3.905-3.905 10.237 0 14.142 1.954 1.953 4.512 2.929 7.072 2.929z"/><path id="XMLID_210_" d="m423.574 220.461c0 5.523 4.478 10 10 10h30.436c5.522 0 10-4.477 10-10s-4.478-10-10-10h-30.436c-5.523 0-10 4.477-10 10z"/><path id="XMLID_213_" d="m502.009 269.996h-98.917c-5.522 0-10 4.477-10 10s4.478 10 10 10h88.917v20.893c0 10.99-5.833 21.364-15.222 27.073l-29.585 17.991c-16.773 10.2-27.193 28.732-27.193 48.363 0 17.258 7.721 33.35 21.182 44.15l20.818 16.703v26.827h-204.333v-26.827l21.679-17.393c12.914-10.361 20.321-25.8 20.321-42.357 0-20.646-11.457-39.234-29.9-48.512l-8.1-4.075v-62.836h51.53c5.522 0 10-4.477 10-10s-4.478-10-10-10h-180.735c-14.876 0-26.894 10.261-29.225 24.953-2.332 14.692 5.919 28.17 20.064 32.775l124.547 40.546 12.93 6.504c11.651 5.86 18.889 17.603 18.889 30.645 0 10.459-4.679 20.212-12.837 26.757l-25.421 20.395c-2.366 1.898-3.742 4.767-3.742 7.8v41.625c0 5.523 4.478 10 10 10h224.333c5.522 0 10-4.477 10-10v-41.625c0-3.033-1.377-5.902-3.742-7.8l-24.561-19.705c-8.705-6.984-13.697-17.391-13.697-28.551 0-12.695 6.738-24.679 17.584-31.274l29.585-17.991c15.316-9.314 24.831-26.236 24.831-44.162v-30.893c0-5.522-4.477-9.999-10-9.999zm-379.009 28.087c.301-1.897 1.874-8.087 9.472-8.087h109.205v55.228l-112.174-36.518c-7.225-2.352-6.805-8.726-6.503-10.623z"/><path id="XMLID_216_" d="m230.478 207.715c1.326 2.297 3.51 3.973 6.072 4.659l26.839 7.192c.852.228 1.721.341 2.588.341 1.74 0 3.467-.455 5-1.34l72.228-41.701c2.297-1.326 3.973-3.51 4.659-6.072l7.191-26.839c.687-2.562.327-5.292-.999-7.588l-71.684-124.162c-1.326-2.297-3.511-3.973-6.072-4.659l-26.84-7.191c-2.561-.686-5.291-.327-7.588.999l-72.228 41.701c-2.297 1.326-3.973 3.51-4.659 6.072l-7.191 26.839c-.687 2.562-.327 5.292.999 7.588l14.926 25.853-158.998 91.796c-6.805 3.929-11.672 10.272-13.706 17.862-2.034 7.589-.99 15.517 2.938 22.322l12.416 21.505c3.929 6.805 10.271 11.672 17.861 13.706 2.534.679 5.106 1.015 7.662 1.015 5.097 0 10.128-1.336 14.66-3.954l158.999-91.798zm-81.373-10.584-19.429-33.652 53.081 14.223zm34.126-138.828 65.054-37.559 18.838 5.047 67.542 116.987-5.047 18.837-65.054 37.559-18.837-5.047-67.543-116.987zm21.339 104.539-56.967-15.264 36.115-20.851zm-158.017 93.497c-2.178 1.257-4.716 1.593-7.146.94-2.43-.651-4.46-2.209-5.718-4.387l-12.416-21.505c-1.258-2.178-1.592-4.716-.94-7.146s2.209-4.46 4.388-5.718l85.231-49.208 21.833 37.815z"/><path id="XMLID_220_" d="m348.09 279.994c0 2.63 1.069 5.21 2.93 7.07 1.86 1.86 4.44 2.93 7.07 2.93 2.64 0 5.21-1.07 7.069-2.93 1.86-1.86 2.931-4.44 2.931-7.07s-1.07-5.21-2.931-7.07c-1.859-1.86-4.43-2.93-7.069-2.93-2.63 0-5.21 1.07-7.07 2.93s-2.93 4.44-2.93 7.07z"/></g></g></svg>