<svg id="Layer_5" enable-background="new 0 0 64 64" height="512" viewBox="0 0 64 64" width="512" xmlns="http://www.w3.org/2000/svg"><g><g><g><path d="m18.14 34c.88 6.13 5.73 10.98 11.86 11.86v16.07c-14.97-.99-26.94-12.96-27.93-27.93z" fill="#ccd1d9"/></g><g><path d="m16 26h-8l-2 4h-3.93c.99-14.97 12.96-26.94 27.93-27.93v16.07c-4.72.68-8.68 3.71-10.65 7.86z" fill="#ccd1d9"/></g><g><path d="m61.93 30h-16.07c-.88-6.13-5.73-10.98-11.86-11.86v-16.07c14.97.99 26.94 12.96 27.93 27.93z" fill="#ccd1d9"/></g><g><path d="m34 61.93v-16.07c6.13-.88 10.98-5.73 11.86-11.86h16.07c-.99 14.97-12.96 26.94-27.93 27.93z" fill="#ccd1d9"/></g><g><path d="m16 26h3.35c-.59 1.25-1.01 2.59-1.21 4h-12.14l2-4z" fill="#cf9e76"/></g><g><path d="m22 10h2c0 1.66-.67 3.16-1.76 4.24-1.08 1.09-2.58 1.76-4.24 1.76h-2c0-1.66.67-3.16 1.76-4.24 1.08-1.09 2.58-1.76 4.24-1.76z" fill="#b4dd7f"/></g><g><path d="m16 22h-4c-1.1 0-2.1-.45-2.83-1.17-.72-.73-1.17-1.73-1.17-2.83h4c1.1 0 2.1.45 2.83 1.17.72.73 1.17 1.73 1.17 2.83z" fill="#b4dd7f"/></g><g><path d="m51.19 15.99c.52.65.81 1.47.81 2.31 0 2.04-1.66 3.7-3.7 3.7h-.6c-1.02 0-1.94-.42-2.62-1.08-.66-.68-1.08-1.6-1.08-2.62 0-.84.29-1.66.81-2.31l3.19-3.99z" fill="#69d6f4"/></g><g><path d="m22 45c0 2 2 2 2 5s-2.68 4-5 4c-2 0-5-1-5-4s3-5 3-7c0 0 2 0 2 3.39v.61c0-2.42 3-2 3-2z" fill="#ff826e"/></g><g><path d="m45.86 30c.09.65.14 1.32.14 2s-.05 1.35-.14 2c-.88 6.13-5.73 10.98-11.86 11.86-.65.09-1.32.14-2 .14s-1.35-.05-2-.14c-6.13-.88-10.98-5.73-11.86-11.86-.09-.65-.14-1.32-.14-2s.05-1.35.14-2c.2-1.41.62-2.75 1.21-4 1.97-4.15 5.93-7.18 10.65-7.86.65-.09 1.32-.14 2-.14s1.35.05 2 .14c6.13.88 10.98 5.73 11.86 11.86z" fill="#e6e9ed"/></g><g><circle cx="32" cy="32" fill="#fcd770" r="4"/></g></g><g><path d="m32 27c-2.757 0-5 2.243-5 5s2.243 5 5 5 5-2.243 5-5-2.243-5-5-5zm0 8c-1.654 0-3-1.346-3-3s1.346-3 3-3 3 1.346 3 3-1.346 3-3 3z"/><path d="m31 21h2v4h-2z"/><path d="m24.636 23.636h2v4h-2z" transform="matrix(.707 -.707 .707 .707 -10.619 25.636)"/><path d="m21 31h4v2h-4z"/><path d="m23.636 37.364h4v2h-4z" transform="matrix(.707 -.707 .707 .707 -19.619 29.364)"/><path d="m31 39h2v4h-2z"/><path d="m37.364 36.364h2v4h-2z" transform="matrix(.707 -.707 .707 .707 -15.891 38.364)"/><path d="m39 31h4v2h-4z"/><path d="m36.364 24.636h4v2h-4z" transform="matrix(.707 -.707 .707 .707 -6.891 34.636)"/><path d="m47 32c0-.338-.029-.668-.051-1h16.045l-.07-1.065c-1.017-15.436-13.423-27.842-28.859-28.859l-1.065-.07v16.045c-.332-.022-.662-.051-1-.051s-.668.029-1 .051v-16.045l-1.065.07c-15.436 1.017-27.842 13.423-28.859 28.859l-.07 1.065h16.045c-.022.332-.051.662-.051 1s.029.668.051 1h-16.045l.07 1.065c1.017 15.436 13.423 27.842 28.858 28.858l1.066.071v-16.045c.332.022.662.051 1 .051s.668-.029 1-.051v16.045l1.065-.07c15.436-1.017 27.842-13.423 28.858-28.858l.071-1.066h-16.045c.022-.332.051-.662.051-1zm-12-28.838c13.586 1.401 24.437 12.252 25.838 25.838h-14.14c-1.196-5.869-5.829-10.502-11.698-11.698zm-6 0v14.14c-4.452.908-8.188 3.796-10.257 7.698h-1.743v-2-1-5h1c3.859 0 7-3.141 7-7v-1h-3c-3.859 0-7 3.141-7 7v.372.628 1.026c-.838-.635-1.87-1.026-3-1.026h-4.786c4.6-7.568 12.557-12.887 21.786-13.838zm-11.899 11.838c.465-2.279 2.484-4 4.899-4h.899c-.465 2.279-2.484 4-4.899 4zm-2.272 6h-2.829c-1.304 0-2.416-.836-2.829-2h2.829c1.304 0 2.416.836 2.829 2zm-7.829-3.658v.658c0 2.757 2.243 5 5 5h3v2h-7.618l-2 4h-2.22c.435-4.217 1.783-8.169 3.838-11.658zm.618 11.658 1-2h9.257c-.231.65-.433 1.313-.573 2zm21.382 31.838c-13.586-1.4-24.438-12.252-25.838-25.838h14.14c1.196 5.869 5.829 10.502 11.698 11.698zm-10-28.838c0-7.168 5.832-13 13-13s13 5.832 13 13-5.832 13-13 13-13-5.832-13-13zm41.838 3c-1.401 13.586-12.252 24.438-25.838 25.838v-14.14c5.869-1.196 10.502-5.829 11.698-11.698z"/><path d="m47.701 23h.598c2.592 0 4.701-2.109 4.701-4.701 0-1.063-.366-2.107-1.03-2.938l-3.97-4.962-3.969 4.962c-.665.83-1.031 1.874-1.031 2.938 0 2.592 2.109 4.701 4.701 4.701zm-2.108-6.389 2.407-3.01 2.408 3.011c.382.476.592 1.076.592 1.687 0 1.489-1.212 2.701-2.701 2.701h-.598c-1.489 0-2.701-1.212-2.701-2.701 0-.611.21-1.211.593-1.688z"/><path d="m58 40c0-1.654-1.346-3-3-3s-3 1.346-3 3h2c0-.552.448-1 1-1s1 .448 1 1-.448 1-1 1h-8v2h8c1.654 0 3-1.346 3-3z"/><path d="m51 45c-1.654 0-3 1.346-3 3h2c0-.552.448-1 1-1s1 .448 1 1-.448 1-1 1h-10v2h10c1.654 0 3-1.346 3-3s-1.346-3-3-3z"/><path d="m37 49h2v2h-2z"/><path d="m17 42h-1v1c0 .594-.535 1.388-1.103 2.229-.845 1.253-1.897 2.814-1.897 4.771 0 3.282 3.019 5 6 5 2.768 0 6-1.31 6-5 0-2.008-.796-2.982-1.376-3.693-.433-.531-.624-.786-.624-1.307v-.868l-.859-.122c-.164-.023-1.36-.168-2.438.302-.591-1.782-1.914-2.312-2.703-2.312zm3.248 4.3c.211-.185.56-.273.892-.31.204.687.599 1.169.935 1.581.496.609.925 1.134.925 2.429 0 2.783-3.062 3-4 3-1.384 0-4-.627-4-3 0-1.346.791-2.519 1.556-3.653.409-.606.806-1.195 1.08-1.803.206.368.364.953.364 1.847v.609h2c0-.433.142-.606.248-.7z"/></g></g></svg>