<svg height="496pt" viewBox="0 0 496 496" width="496pt" xmlns="http://www.w3.org/2000/svg"><path d="m8 392h96v96h-96zm0 0" fill="#d46b69"/><path d="m264 392h96v96h-96zm0 0" fill="#f8cf6a"/><path d="m136 264h96v96h-96zm0 0" fill="#5789d6"/><path d="m136 392h96v96h-96zm0 0" fill="#bc8f6f"/><path d="m8 264h96v96h-96zm0 0" fill="#599072"/><path d="m152 8h192v192h-192zm0 0" fill="#599072"/><path d="m152 24h168v176h-168zm0 0" fill="#70b48f"/><path d="m296 152h192v192h-192zm0 0" fill="#85b6cf"/><path d="m296 168h168v176h-168zm0 0" fill="#94cce7"/><path d="m296 208h-144c-4.414062 0-8-3.585938-8-8v-192c0-4.414062 3.585938-8 8-8h192c4.414062 0 8 3.585938 8 8v144h-16v-136h-176v176h136zm0 0"/><path d="m488 352h-192c-4.414062 0-8-3.585938-8-8v-192c0-4.414062 3.585938-8 8-8h192c4.414062 0 8 3.585938 8 8v192c0 4.414062-3.585938 8-8 8zm-184-16h176v-176h-176zm0 0"/><path d="m232 128c-2.761719 0-5.382812-1.433594-6.855469-3.878906l-33.144531-55.242188v59.121094h-16v-88c0-3.601562 2.398438-6.753906 5.863281-7.710938 3.480469-.960937 7.152344.511719 9 3.589844l33.136719 55.242188v-59.121094h16v88c0 3.601562-2.398438 6.753906-5.863281 7.710938-.710938.191406-1.433594.289062-2.136719.289062zm0 0"/><path d="m296 128h-32c-4.414062 0-8-3.585938-8-8v-24c0-4.414062 3.585938-8 8-8h24v-8h-32v-16h40c4.414062 0 8 3.585938 8 8v48c0 4.414062-3.585938 8-8 8zm-24-16h16v-8h-16zm0 0"/><path d="m440 272h-32c-4.414062 0-8-3.585938-8-8v-24c0-4.414062 3.585938-8 8-8h24v-8h-32v-16h40c4.414062 0 8 3.585938 8 8v48c0 4.414062-3.585938 8-8 8zm-24-16h16v-8h-16zm0 0"/><path d="m376 272h-40c-8.824219 0-16-7.175781-16-16v-64c0-8.824219 7.175781-16 16-16h40c4.414062 0 8 3.585938 8 8v24h-16v-16h-32v64h32v-16h16v24c0 4.414062-3.585938 8-8 8zm0 0"/><path d="m456 320h-24v-16h16v-16h16v24c0 4.414062-3.585938 8-8 8zm0 0"/><path d="m208 176h-24c-4.414062 0-8-3.585938-8-8v-24h16v16h16zm0 0"/><path d="m104 496h-96c-4.414062 0-8-3.585938-8-8v-96c0-4.414062 3.585938-8 8-8h96c4.414062 0 8 3.585938 8 8v96c0 4.414062-3.585938 8-8 8zm-88-16h80v-80h-80zm0 0"/><path d="m232 496h-96c-4.414062 0-8-3.585938-8-8v-96c0-4.414062 3.585938-8 8-8h96c4.414062 0 8 3.585938 8 8v96c0 4.414062-3.585938 8-8 8zm-88-16h80v-80h-80zm0 0"/><path d="m104 368h-96c-4.414062 0-8-3.585938-8-8v-96c0-4.414062 3.585938-8 8-8h96c4.414062 0 8 3.585938 8 8v96c0 4.414062-3.585938 8-8 8zm-88-16h80v-80h-80zm0 0"/><path d="m232 368h-96c-4.414062 0-8-3.585938-8-8v-96c0-4.414062 3.585938-8 8-8h96c4.414062 0 8 3.585938 8 8v96c0 4.414062-3.585938 8-8 8zm-88-16h80v-80h-80zm0 0"/><path d="m360 496h-96c-4.414062 0-8-3.585938-8-8v-96c0-4.414062 3.585938-8 8-8h96c4.414062 0 8 3.585938 8 8v96c0 4.414062-3.585938 8-8 8zm-88-16h80v-80h-80zm0 0"/><path d="m64 336h-24c-4.414062 0-8-3.585938-8-8v-24h16v16h16zm0 0"/><path d="m64 464h-24c-4.414062 0-8-3.585938-8-8v-24h16v16h16zm0 0"/><path d="m192 336h-24c-4.414062 0-8-3.585938-8-8v-24h16v16h16zm0 0"/><path d="m192 464h-24c-4.414062 0-8-3.585938-8-8v-24h16v16h16zm0 0"/><path d="m320 464h-24c-4.414062 0-8-3.585938-8-8v-24h16v16h16zm0 0"/></svg>