<svg height="512pt" viewBox="0 -83 512 512" width="512pt" xmlns="http://www.w3.org/2000/svg"><path d="m158.167969 7.503906h-135.667969c-8.285156 0-15 6.714844-15 15v135.667969c0 8.28125 6.714844 15 15 15-8.285156 0-15 6.714844-15 15v135.664063c0 8.285156 6.714844 15 15 15h135.667969c8.28125 0 15-6.714844 15-15 0-13.222657 0-288.109376 0-301.332032 0-8.285156-6.71875-15-15-15zm0 0" fill="#60f375"/><path d="m158.167969 7.503906h-15v135.667969h-135.667969v15c0 8.28125 6.714844 15 15 15h120.667969v135.664063h-135.667969v15c0 8.285156 6.714844 15 15 15h135.667969c8.28125 0 15-6.714844 15-15 0-13.222657 0-288.109376 0-301.332032 0-8.285156-6.71875-15-15-15zm0 0" fill="#28d05b"/><path d="m489.5 173.171875-150.667969-150.667969c0-8.285156-6.714843-15-15-15h-135.664062c-8.285157 0-15 6.714844-15 15v301.332032c0 8.285156 6.714843 15 15 15h135.667969c8.28125 0 15-6.714844 15-15 0 8.285156 6.714843 15 15 15h135.664062c8.285156 0 15-6.714844 15-15v-135.664063c0-8.285156-6.714844-15-15-15zm0 0" fill="#87f8f4"/><path d="m489.5 173.171875h-15v135.664063h-135.667969v-286.332032c0-8.285156-6.714843-15-15-15h-15v135.667969h-135.664062v30h135.667969v135.664063h-135.667969v15c0 8.285156 6.714843 15 15 15h135.667969c8.28125 0 15-6.714844 15-15 0 8.285156 6.714843 15 15 15h135.664062c8.285156 0 15-6.714844 15-15v-135.664063c0-8.285156-6.714844-15-15-15zm0 0" fill="#00e7ec"/><path d="m489.5 173.171875h-150.667969v-150.667969c0-8.285156 6.71875-15 15-15h135.667969c8.285156 0 15 6.714844 15 15v135.667969c0 8.28125-6.714844 15-15 15zm0 0" fill="#5c87bd"/><path d="m489.5 7.503906h-15v135.667969h-135.667969v30h150.667969c8.285156 0 15-6.71875 15-15v-135.667969c0-8.285156-6.714844-15-15-15zm0 0" fill="#456ea2"/><path d="m512 22.503906c0-12.40625-10.09375-22.49999975-22.5-22.49999975h-122.664062c-4.144532 0-7.5 3.35546875-7.5 7.49999975 0 4.140625 3.355468 7.5 7.5 7.5h122.664062c4.136719 0 7.5 3.363282 7.5 7.5v135.667969c0 4.132813-3.363281 7.5-7.5 7.5h-120.671875c-4.128906 0-7.5 3.367187-7.5 7.5 0 4.136719 3.371094 7.5 7.5 7.5h.023437 120.648438c4.128906.007813 7.488281 3.367187 7.5 7.5v135.667969c-.011719 4.121094-3.371094 7.488281-7.5 7.5h-135.671875c-4.117187-.011719-7.464844-3.359375-7.496094-7.460938 0-.015625 0-.027344 0-.042968v-150.664063c0-.023437-.003906-.039063-.003906-.058594v-150.613281c0-6.011719-2.339844-11.660156-6.589844-15.910156-4.25-4.238282-9.898437-6.589844-15.910156-6.589844h-135.65625c-5.597656 0-10.871094 2.058594-14.996094 5.757812-3.984375-3.574218-9.246093-5.75390575-15.007812-5.75390575h-135.667969c-12.40625 0-22.5 10.09374975-22.5 22.49999975v124.664063c0 4.144531 3.355469 7.5 7.5 7.5s7.5-3.355469 7.5-7.5v-124.664063c0-4.136718 3.363281-7.5 7.5-7.5h135.667969c4.136719 0 7.5 3.363282 7.5 7.5 0 .019532.003906.039063.003906.058594v143.109375h-143.171875c-12.40625 0-22.5 10.09375-22.5 22.5v135.664063c0 12.40625 10.09375 22.5 22.5 22.5h124.664062c4.144532 0 7.5-3.355469 7.5-7.5 0-4.140626-3.355468-7.5-7.5-7.5h-124.664062c-4.136719 0-7.5-3.363282-7.5-7.5v-135.664063c0-4.136719 3.363281-7.5 7.5-7.5h143.167969v143.164063c0 12.40625 10.09375 22.5 22.5 22.5h135.664062c5.761719 0 11.023438-2.179688 15.007813-5.753907 4.132812 3.699219 9.394531 5.75 14.988281 5.757813h135.671875c6.011719-.011719 11.660156-2.351563 15.910156-6.589844 4.25-4.25 6.589844-9.898438 6.589844-15.910156v-135.667969c0-5.597656-2.050781-10.859375-5.757812-14.992187 3.578124-3.984376 5.757812-9.246094 5.757812-15.007813zm-188.167969 308.832032h-135.664062c-4.136719 0-7.5-3.363282-7.5-7.5v-143.164063h128.160156c4.140625 0 7.5-3.371094 7.5-7.5 0-4.132813-3.359375-7.5-7.5-7.5h-128.15625v-143.171875c.007813-4.128906 3.367187-7.488281 7.5-7.5h135.65625c4.132813.011719 7.492187 3.371094 7.5 7.5v150.671875c0 .019531.003906.035156.003906.054687v150.554688c0 .023438-.003906.039062-.003906.058594 0 .011718.003906.019531.003906.027344-.015625 4.121093-3.375 7.46875-7.5 7.46875zm0 0"/><path d="m82.605469 64.542969c-1.097657-2.925781-3.894531-4.863281-7.019531-4.863281s-5.925782 1.9375-7.023438 4.863281l-16.871094 44.992187c-1.457031 3.878906.511719 8.203125 4.386719 9.65625 3.878906 1.449219 8.199219-.511718 9.65625-4.386718l.984375-2.632813h17.730469l.988281 2.632813c1.125 3.007812 3.984375 4.867187 7.019531 4.867187.875 0 1.765625-.15625 2.632813-.480469 3.875-1.453125 5.839844-5.777344 4.386718-9.65625zm-10.261719 32.628906 3.238281-8.640625 3.238281 8.640625zm0 0"/><path d="m115.957031 59.675781c-4.140625 0-7.496093 3.355469-7.496093 7.5v44.996094c0 4.140625 3.355468 7.496094 7.496093 7.496094h6c4.140625 0 7.5-3.355469 7.5-7.496094 0-3.632813-2.578125-6.65625-6-7.351563v-37.644531c0-4.140625-3.359375-7.5-7.5-7.5zm0 0"/><path d="m244.644531 97.171875c2.070313 0 3.75 1.683594 3.75 3.75s-1.679687 3.75-3.75 3.75h-11.25c-4.140625 0-7.496093 3.355469-7.496093 7.5 0 4.140625 3.355468 7.496094 7.496093 7.496094h11.25c10.339844 0 18.75-8.410157 18.75-18.746094s-8.410156-18.746094-18.75-18.746094c-2.066406 0-3.75-1.683593-3.75-3.75 0-2.066406 1.683594-3.75 3.75-3.75h5.25c4.140625 0 7.5-3.355469 7.5-7.5s-3.359375-7.5-7.5-7.5h-5.25c-10.335937 0-18.746093 8.410157-18.746093 18.75 0 10.335938 8.410156 18.746094 18.746093 18.746094zm0 0"/><path d="m278.605469 119.671875c4.140625 0 7.496093-3.359375 7.496093-7.5v-22.507813c0-4.140624-3.355468-7.5-7.496093-7.5s-7.5 3.359376-7.5 7.5v22.507813c0 4.140625 3.359375 7.5 7.5 7.5zm0 0"/><path d="m286.101562 67.167969c0 4.140625-3.355468 7.5-7.496093 7.5-4.144531 0-7.5-3.359375-7.5-7.5s3.355469-7.5 7.5-7.5c4.140625 0 7.496093 3.359375 7.496093 7.5zm0 0"/><path d="m414.417969 112.171875v-7.5h7.125c12.335937 0 22.371093-10.09375 22.371093-22.496094 0-12.40625-10.035156-22.5-22.371093-22.5h-14.625c-4.140625 0-7.496094 3.355469-7.496094 7.5v44.996094c0 4.140625 3.355469 7.496094 7.496094 7.496094s7.5-3.355469 7.5-7.496094zm0-37.496094h7.125c4.0625 0 7.371093 3.363281 7.371093 7.5 0 4.132813-3.308593 7.496094-7.371093 7.496094h-7.125zm0 0"/><path d="m66.132812 284.679688c8.011719 0 15.542969-3.121094 21.210938-8.785157 5.664062-5.667969 8.785156-13.199219 8.785156-21.210937 0-4.140625-3.355468-7.5-7.496094-7.5h-12.996093c-4.140625 0-7.5 3.355468-7.5 7.5 0 4.144531 3.359375 7.5 7.5 7.5h3.492187c-.648437 1.121094-1.449218 2.164062-2.390625 3.105468-2.835937 2.832032-6.601562 4.394532-10.605469 4.394532-8.269531 0-14.996093-6.730469-14.996093-15 0-8.269532 6.726562-14.996094 14.996093-14.996094h5.503907c4.140625 0 7.5-3.359375 7.5-7.5 0-4.144531-3.359375-7.5-7.5-7.5h-5.503907c-16.539062 0-29.996093 13.457031-29.996093 29.996094 0 16.539062 13.457031 29.996094 29.996093 29.996094zm0 0"/><path d="m137.03125 284.679688c4.140625 0 7.5-3.355469 7.5-7.5v-29.996094c0-4.140625-3.359375-7.496094-7.5-7.496094-2.070312 0-3.945312.839844-5.304688 2.195312-2.9375-1.40625-6.222656-2.195312-9.695312-2.195312-12.402344 0-22.496094 10.089844-22.496094 22.496094 0 12.402344 10.09375 22.496094 22.496094 22.496094 3.472656 0 6.757812-.789063 9.695312-2.199219 1.359376 1.359375 3.234376 2.199219 5.304688 2.199219zm-15-14.996094c-4.132812 0-7.496094-3.363282-7.496094-7.5 0-4.136719 3.363282-7.5 7.496094-7.5 4.136719 0 7.5 3.363281 7.5 7.5 0 4.132812-3.363281 7.5-7.5 7.5zm0 0"/><path d="m253.585938 275.894531c5.667968-5.667969 8.785156-13.199219 8.785156-21.210937 0-4.140625-3.351563-7.5-7.496094-7.5h-12.992188c-4.144531 0-7.5 3.355468-7.5 7.5 0 4.144531 3.355469 7.5 7.5 7.5h3.488282c-.648438 1.121094-1.449219 2.164062-2.390625 3.105468-2.832031 2.832032-6.597657 4.394532-10.605469 4.394532-8.269531 0-14.996094-6.730469-14.996094-15 0-8.269532 6.726563-14.996094 14.996094-14.996094h5.503906c4.144532 0 7.5-3.359375 7.5-7.5 0-4.144531-3.355468-7.5-7.5-7.5h-5.503906c-16.539062 0-29.996094 13.457031-29.996094 29.996094 0 16.539062 13.457032 29.996094 29.996094 29.996094 8.015625 0 15.546875-3.121094 21.210938-8.785157zm0 0"/><path d="m289.136719 239.6875c-12.40625 0-22.5 10.089844-22.5 22.496094 0 12.402344 10.09375 22.496094 22.5 22.496094h9.398437c4.140625 0 7.496094-3.355469 7.496094-7.5 0-4.140626-3.355469-7.496094-7.496094-7.496094h-9.398437c-4.136719 0-7.5-3.363282-7.5-7.5 0-4.136719 3.363281-7.5 7.5-7.5.722656 0 1.4375.105468 2.117187.308594-2.394531 2.945312-2.222656 7.285156.519532 10.027343 2.929687 2.929688 7.679687 2.929688 10.605468 0l5.042969-5.042969c2.402344-2.402343 2.890625-6.121093 1.1875-9.0625-4.011719-6.929687-11.476563-11.226562-19.472656-11.226562zm0 0"/><path d="m410.617188 229.550781c-1.097657-2.925781-3.894532-4.863281-7.019532-4.863281s-5.925781 1.9375-7.023437 4.863281l-16.871094 44.996094c-1.457031 3.878906.511719 8.199219 4.386719 9.652344 3.878906 1.453125 8.199218-.507813 9.65625-4.386719l.988281-2.632812h17.726563l.988281 2.632812c1.128906 3.011719 3.984375 4.867188 7.019531 4.867188.875 0 1.765625-.152344 2.632812-.480469 3.878907-1.453125 5.84375-5.773438 4.386719-9.652344zm-10.261719 32.632813 3.238281-8.640625 3.238281 8.640625zm0 0"/><path d="m435.617188 277.179688c0 4.144531 3.355468 7.5 7.496093 7.5h6c8.269531 0 14.996094-6.730469 14.996094-15 0-3.890626-1.3125-7.539063-3.703125-10.273438-2.820312-3.222656-6.476562-3.9375-8.890625-4.414062-.269531-.050782-.609375-.117188-.90625-.183594-.003906-.039063-.003906-.082032-.007813-.125h.011719c4.140625 0 7.5-3.359375 7.5-7.5 0-4.144532-3.359375-7.5-7.5-7.5-8.269531 0-14.996093 6.730468-14.996093 15 0 4.832031 2.003906 9.203125 5.5 11.992187 2.539062 2.019531 5.304687 2.601563 7.363281 3.003907h-5.367188c-4.140625 0-7.496093 3.355468-7.496093 7.5zm0 0"/><path d="m56.210938 30.671875h-19.210938c-4.144531 0-7.5 3.355469-7.5 7.5 0 4.140625 3.355469 7.5 7.5 7.5h19.210938c4.140624 0 7.5-3.359375 7.5-7.5 0-4.144531-3.359376-7.5-7.5-7.5zm0 0"/><path d="m229.71875 38.171875c0-4.144531-3.355469-7.5-7.5-7.5h-19.207031c-4.144531 0-7.5 3.355469-7.5 7.5 0 4.140625 3.355469 7.5 7.5 7.5h19.207031c4.144531 0 7.5-3.359375 7.5-7.5zm0 0"/><path d="m388.230469 30.671875h-19.210938c-4.140625 0-7.5 3.355469-7.5 7.5 0 4.140625 3.359375 7.5 7.5 7.5h19.210938c4.140625 0 7.5-3.359375 7.5-7.5 0-4.144531-3.359375-7.5-7.5-7.5zm0 0"/><path d="m286 135.890625h-60c-4.144531 0-7.5 3.359375-7.5 7.5 0 4.144531 3.355469 7.5 7.5 7.5h60c4.144531 0 7.5-3.355469 7.5-7.5 0-4.140625-3.355469-7.5-7.5-7.5zm0 0"/><path d="m384.167969 143.390625c0 4.144531 3.355469 7.5 7.5 7.5h60c4.140625 0 7.5-3.355469 7.5-7.5 0-4.140625-3.359375-7.5-7.5-7.5h-60c-4.144531 0-7.5 3.359375-7.5 7.5zm0 0"/><path d="m52.832031 143.390625c0 4.144531 3.359375 7.5 7.5 7.5h60c4.144531 0 7.5-3.355469 7.5-7.5 0-4.140625-3.355469-7.5-7.5-7.5h-60c-4.140625 0-7.5 3.359375-7.5 7.5zm0 0"/><path d="m63.710938 203.179688c0-4.140626-3.359376-7.5-7.5-7.5h-19.210938c-4.144531 0-7.5 3.359374-7.5 7.5 0 4.144531 3.355469 7.5 7.5 7.5h19.210938c4.140624 0 7.5-3.355469 7.5-7.5zm0 0"/><path d="m222.21875 210.679688c4.144531 0 7.5-3.355469 7.5-7.5 0-4.140626-3.355469-7.5-7.5-7.5h-19.207031c-4.144531 0-7.5 3.359374-7.5 7.5 0 4.144531 3.355469 7.5 7.5 7.5zm0 0"/><path d="m388.230469 195.679688h-19.210938c-4.140625 0-7.5 3.359374-7.5 7.5 0 4.144531 3.359375 7.5 7.5 7.5h19.210938c4.140625 0 7.5-3.355469 7.5-7.5 0-4.140626-3.359375-7.5-7.5-7.5zm0 0"/><path d="m286 300.902344h-60c-4.144531 0-7.5 3.355468-7.5 7.5 0 4.144531 3.355469 7.5 7.5 7.5h60c4.144531 0 7.5-3.355469 7.5-7.5 0-4.144532-3.355469-7.5-7.5-7.5zm0 0"/><path d="m384.167969 308.402344c0 4.144531 3.355469 7.5 7.5 7.5h60c4.140625 0 7.5-3.355469 7.5-7.5 0-4.144532-3.359375-7.5-7.5-7.5h-60c-4.144531 0-7.5 3.359375-7.5 7.5zm0 0"/><path d="m60.332031 315.902344h60c4.144531 0 7.5-3.355469 7.5-7.5 0-4.144532-3.355469-7.5-7.5-7.5h-60c-4.140625 0-7.5 3.355468-7.5 7.5 0 4.144531 3.359375 7.5 7.5 7.5zm0 0"/></svg>