<?xml version="1.0"?>
<svg xmlns="http://www.w3.org/2000/svg" xmlns:xlink="http://www.w3.org/1999/xlink" xmlns:svgjs="http://svgjs.com/svgjs" version="1.1" width="512" height="512" x="0" y="0" viewBox="0 0 24 24" style="enable-background:new 0 0 512 512" xml:space="preserve" class=""><g><path xmlns="http://www.w3.org/2000/svg" d="m23.25 12.5h-22.5l2.25-3-2.25-2 2.25-2-2.25-3h22.5l-2.25 3 2.25 2-2.25 2z" fill="#5368c1" data-original="#ffc107" style="" class=""/><path xmlns="http://www.w3.org/2000/svg" d="m12 12.5v-10h-11.25l2.25 3-2.25 2 2.25 2-2.25 3z" fill="#e8665d" data-original="#ffd54f" style="" class=""/><path xmlns="http://www.w3.org/2000/svg" d="m23.25 13h-22.5c-.297 0-.566-.175-.686-.446s-.069-.589.131-.809l1.963-2.158-1.877-1.501c-.177-.143-.281-.358-.281-.586s.104-.443.281-.586l1.876-1.501-1.962-2.158c-.2-.22-.251-.537-.131-.809s.389-.446.686-.446h22.5c.297 0 .566.175.686.446s.069.589-.131.809l-1.963 2.158 1.876 1.501c.178.143.282.358.282.586s-.104.443-.281.586l-1.876 1.501 1.963 2.158c.2.22.251.537.131.809s-.39.446-.687.446zm-20.805-1.5h19.109l-1.36-1.495c-.139-.153-.209-.357-.192-.564.016-.206.117-.396.279-.526l1.768-1.415-1.768-1.414c-.162-.13-.263-.32-.279-.526-.017-.207.053-.411.192-.564l1.36-1.495h-19.109l1.36 1.495c.139.152.209.357.193.564-.017.206-.118.396-.279.526l-1.768 1.414 1.768 1.414c.162.13.263.32.279.526.017.207-.053.411-.192.564z" fill="#000000" data-original="#000000" style="" class=""/><path xmlns="http://www.w3.org/2000/svg" d="m12 12.75c-.414 0-.75-.336-.75-.75v-9c0-.414.336-.75.75-.75s.75.336.75.75v9c0 .414-.336.75-.75.75z" fill="#000000" data-original="#000000" style="" class=""/><path xmlns="http://www.w3.org/2000/svg" d="m16.25 19h-2.5c-.414 0-.75-.336-.75-.75s.336-.75.75-.75h2.5c.414 0 .75.336.75.75s-.336.75-.75.75z" fill="#000000" data-original="#000000" style="" class=""/><path xmlns="http://www.w3.org/2000/svg" d="m16.25 21c-.414 0-.75-.336-.75-.75v-4.5c0-.414.336-.75.75-.75s.75.336.75.75v4.5c0 .414-.336.75-.75.75z" fill="#000000" data-original="#000000" style="" class=""/><path xmlns="http://www.w3.org/2000/svg" d="m13.75 21c-.414 0-.75-.336-.75-.75v-4.5c0-.414.336-.75.75-.75s.75.336.75.75v4.5c0 .414-.336.75-.75.75z" fill="#000000" data-original="#000000" style="" class=""/><path xmlns="http://www.w3.org/2000/svg" d="m8.75 22c-.414 0-.75-.336-.75-.75v-4.5c0-.414.336-.75.75-.75h1.25c1.103 0 2 .897 2 2s-.897 2-2 2h-.5v1.25c0 .414-.336.75-.75.75zm.75-3.5h.5c.276 0 .5-.225.5-.5s-.224-.5-.5-.5h-.5z" fill="#000000" data-original="#000000" style="" class=""/></g></svg>
