<svg height="496pt" viewBox="0 0 496 496" width="496pt" xmlns="http://www.w3.org/2000/svg"><path d="m472 456-2.230469-13.382812c-14.488281-86.929688-21.769531-174.90625-21.769531-263.042969v-35.574219h-160v35.574219c0 28.167969-.742188 56.3125-2.230469 84.425781l2.230469 192zm0 0" fill="#f0d0b4"/><path d="m469.359375 440h-181.542969l.183594 16h184l-2.230469-13.382812c-.144531-.875-.265625-1.746094-.410156-2.617188zm0 0" fill="#ecc19c"/><path d="m312 312h16v-64h-41.59375c-.230469 5.335938-.351562 10.671875-.628906 16l2.222656 192h24zm0 0" fill="#ecc19c"/><path d="m80 264 16-128h32l16 128zm0 0" fill="#e6e9ed"/><path d="m132 168h-40l-4 32h48zm0 0" fill="#ff826e"/><path d="m176 264 16-128h32l16 128zm0 0" fill="#e6e9ed"/><path d="m228 168h-40l-4 32h48zm0 0" fill="#ff826e"/><path d="m82 248-2 16h64l-2-16zm0 0" fill="#ccd1d9"/><path d="m178 248-2 16h64l-2-16zm0 0" fill="#ccd1d9"/><path d="m8 264h304v32h-304zm0 0" fill="#cf9e76"/><path d="m24 296h272v160h-272zm0 0" fill="#e6e9ed"/><path d="m24 440h272v16h-272zm0 0" fill="#ccd1d9"/><path d="m56 328h48v128h-48zm0 0" fill="#fcd770"/><path d="m136 328h48v128h-48zm0 0" fill="#fcd770"/><path d="m216 328h48v128h-48zm0 0" fill="#fcd770"/><path d="m8 456h480v32h-480zm0 0" fill="#b27946"/><path d="m288 144h160v32h-160zm0 0" fill="#e6e9ed"/><g fill="#ccd1d9"><path d="m320 144h32v32h-32zm0 0"/><path d="m384 144h32v32h-32zm0 0"/><path d="m24 296h272v16h-272zm0 0"/></g><path d="m56 440h48v16h-48zm0 0" fill="#ffc729"/><path d="m136 440h48v16h-48zm0 0" fill="#ffc729"/><path d="m216 440h48v16h-48zm0 0" fill="#ffc729"/><path d="m478.777344 448-1.113282-6.695312c-14.375-86.234376-21.664062-174.289063-21.664062-261.730469v-43.574219h-176v43.574219c0 25.386719-.695312 51.042969-1.921875 76.425781h-31.023437l-16-128h-46.125l-16 128h-17.882813l-16-128h-46.125l-16 128h-72.921875v48h16v144h-16v48h496v-48zm-38.777344-280h-16v-16h16zm-112 0v-16h16v16zm32-16h16v16h-16zm32 0h16v16h-16zm-80 0v16h-16v-16zm-16.054688 32h144.101563c.015625 5.328125.097656 10.664062.167969 16h-48.214844v16h48.449219c1.742187 76.289062 8.902343 152.800781 21.4375 227.929688l.671875 4.070312h-158.558594v-104h48v-16h-48v-24h16v-48h-25.902344c1.132813-23.921875 1.773438-48.046875 1.847656-72zm-73.007812 8h-29.875l2-16h25.875zm-6-48 2 16h-21.875l2-16zm-25.875 64h33.875l6 48h-45.882812zm-64.125-16h-29.875l2-16h25.875zm-6-48 2 16h-21.875l2-16zm-25.875 64h33.875l6 48h-45.882812zm-79.0625 64h288v16h-288zm16 32h256v144h-16v-128h-64v128h-16v-128h-64v128h-16v-128h-64v128h-16zm224 144h-32v-112h32zm-80 0h-32v-112h32zm-80 0h-32v-112h32zm384 32h-464v-16h464zm0 0"/><path d="m400 400h32v16h-32zm0 0"/><path d="m392 232h32v16h-32zm0 0"/><path d="m320 360h32v16h-32zm0 0"/><path d="m112 75.3125v1.375c0 5.160156-2.007812 10.007812-5.65625 13.65625l-8 8 11.3125 11.3125 8-8c6.671875-6.671875 10.34375-15.535156 10.34375-24.96875v-1.375c0-9.433594-3.671875-18.296875-10.34375-24.96875-3.648438-3.648438-5.65625-8.503906-5.65625-13.65625v-1.375c0-5.160156 2.007812-10.007812 5.65625-13.65625l8-8-11.3125-11.3125-8 8c-6.671875 6.671875-10.34375 15.535156-10.34375 24.96875v1.375c0 9.433594 3.671875 18.296875 10.34375 24.96875 3.648438 3.648438 5.65625 8.503906 5.65625 13.65625zm0 0"/><path d="m216 75.3125v1.375c0 5.160156-2.007812 10.007812-5.65625 13.65625l-8 8 11.3125 11.3125 8-8c6.671875-6.671875 10.34375-15.535156 10.34375-24.96875v-1.375c0-9.433594-3.671875-18.296875-10.34375-24.96875-3.648438-3.648438-5.65625-8.503906-5.65625-13.65625v-1.375c0-5.160156 2.007812-10.007812 5.65625-13.65625l8-8-11.3125-11.3125-8 8c-6.671875 6.671875-10.34375 15.535156-10.34375 24.96875v1.375c0 9.433594 3.671875 18.296875 10.34375 24.96875 3.648438 3.648438 5.65625 8.503906 5.65625 13.65625zm0 0"/><path d="m168 91.3125v1.375c0 5.160156-2.007812 10.007812-5.65625 13.65625l-8 8 11.3125 11.3125 8-8c6.671875-6.671875 10.34375-15.535156 10.34375-24.96875v-1.375c0-9.433594-3.671875-18.296875-10.34375-24.96875-3.648438-3.648438-5.65625-8.503906-5.65625-13.65625v-1.375c0-5.160156 2.007812-10.007812 5.65625-13.65625l8-8-11.3125-11.3125-8 8c-6.671875 6.671875-10.34375 15.535156-10.34375 24.96875v1.375c0 9.433594 3.671875 18.296875 10.34375 24.96875 3.648438 3.648438 5.65625 8.503906 5.65625 13.65625zm0 0"/><path d="m302.878906 25.921875 34.496094 4.308594c3.785156.472656 6.625 3.699219 6.625 7.503906 0 3.035156-1.800781 5.761719-4.574219 6.953125l-37.144531 15.914062c-8.671875 3.710938-14.28125 12.222657-14.28125 21.664063 0 11.855469 8.871094 21.910156 20.640625 23.375l34.496094 4.3125c5.046875.632813 8.863281 4.949219 8.863281 10.046875h16c0-13.152344-9.832031-24.296875-22.878906-25.921875l-34.496094-4.308594c-3.785156-.472656-6.625-3.699219-6.625-7.503906 0-3.035156 1.800781-5.761719 4.574219-6.953125l37.144531-15.914062c8.671875-3.710938 14.28125-12.222657 14.28125-21.664063 0-11.855469-8.871094-21.910156-20.640625-23.375l-34.496094-4.3125c-5.046875-.632813-8.863281-4.949219-8.863281-10.046875h-16c0 13.152344 9.832031 24.296875 22.878906 25.921875zm0 0"/><path d="m390.878906 25.921875 34.496094 4.308594c3.785156.472656 6.625 3.699219 6.625 7.503906 0 3.035156-1.800781 5.761719-4.574219 6.953125l-37.144531 15.914062c-8.671875 3.710938-14.28125 12.222657-14.28125 21.664063 0 11.855469 8.871094 21.910156 20.640625 23.375l34.496094 4.3125c5.046875.632813 8.863281 4.949219 8.863281 10.046875h16c0-13.152344-9.832031-24.296875-22.878906-25.921875l-34.496094-4.308594c-3.785156-.472656-6.625-3.699219-6.625-7.503906 0-3.035156 1.800781-5.761719 4.574219-6.953125l37.144531-15.914062c8.671875-3.710938 14.28125-12.222657 14.28125-21.664063 0-11.855469-8.871094-21.910156-20.640625-23.375l-34.496094-4.3125c-5.046875-.632813-8.863281-4.949219-8.863281-10.046875h-16c0 13.152344 9.832031 24.296875 22.878906 25.921875zm0 0"/></svg>