<svg id="Layer_1" enable-background="new 0 0 512 512" height="512" viewBox="0 0 512 512" width="512" xmlns="http://www.w3.org/2000/svg"><g><path d="m464.411 251.01c-49.948 118.4-165.802 101.553-187.57 153.92-8.769 21.095-2.909 83.85-3.438 99.57h-111.068c2.485-36.568.12-83.33-9.815-91.411-27.667-22.5-110.577-36.79-118.043-124.44-2.219-26 5.707-52.06 18.031-75.06 17.872-33.34 86.029-117.54 128.039-152.85 30.765-25.86 67.318-46.271 107.139-51.8 59.901-8.33 122.941 20.09 158.045 69.32 35.102 49.231 42.179 117.046 18.68 172.751z" fill="#fa6f5f"/><path d="m445.729 78.26c-33.939-47.598-93.993-75.737-152.077-70.022 47.967 4.559 93.975 30.61 122.077 70.021 35.103 49.23 42.18 117.045 18.681 172.75-49.948 118.4-165.802 101.553-187.57 153.92-8.769 21.095-2.909 83.85-3.438 99.57h30c.53-15.72-5.331-78.475 3.438-99.57 21.768-52.367 137.623-35.52 187.57-153.92 23.5-55.704 16.423-123.519-18.681-172.749z" fill="#eb5e4e"/><path d="m436.77 239.35c-25.2 59.74-68.54 77.77-110.45 95.2-31.33 13.03-63.73 26.5-77.18 58.86-5.63 13.54-7.2 33.16-7.15 56.29.02 13.7-11.12 24.8-24.81 24.8-13.01 0-23.87-10.04-24.75-23.02-.13-2.05-.29-4.05-.46-6-2.59-29.43-8.73-46.08-20.52-55.66-21.313-17.333-57.765-26.848-82.47-50.48-25.781-24.64-35.089-64.814-10.03-111.58 10.881-20.307 47.562-68.076 82.277-105.969 12.55-13.699 32.445-18.197 49.474-10.769 25.868 11.283 49.458 39.364 63.982 65.332 4.171 7.457 13.81 9.777 20.938 5.066 6.191-4.091 8.373-12.147 5.081-18.798-7.225-14.597-21.89-39.508-44.562-56.801-3.402-2.596-6.323-5.25-8.824-7.925-15.191-16.245-8.969-42.492 11.754-50.57 66.815-26.044 131.006 4.55 162.23 48.355 29.04 40.719 35.11 97.109 15.47 143.669z" fill="#fedd7a"/><g fill="#f5d269"><path d="m180.701 111.021c25.868 11.283 49.458 39.364 63.982 65.332 4.171 7.458 13.81 9.777 20.938 5.066 3.481-2.301 5.694-5.854 6.38-9.707-14.652-24.601-36.968-50.078-61.3-60.691-10.42-4.545-21.911-4.618-32.137-.856.716.267 1.43.547 2.137.856z"/><path d="m421.3 95.68c-25.699-36.053-73.73-63.149-127.174-57.093 41.027 4.657 76.399 27.947 97.174 57.093 29.04 40.72 35.11 97.11 15.47 143.67-25.2 59.74-68.54 77.77-110.45 95.2-31.33 13.03-63.73 26.5-77.18 58.86-5.63 13.54-7.2 33.16-7.15 56.29.012 8.067-3.849 15.23-9.819 19.759 4.184 3.168 9.395 5.041 15.009 5.041 13.69 0 24.83-11.1 24.81-24.8-.05-23.13 1.52-42.75 7.15-56.29 13.45-32.36 45.85-45.83 77.18-58.86 41.91-17.43 85.25-35.46 110.45-95.2 19.64-46.56 13.57-102.95-15.47-143.67z"/></g><path d="m230.631 318.786c-19.152 17.317-43.072 33.968-68.568 29.891-36.268-5.799-67.165-56.868-52.542-92.344 5.421-13.153 29.953-20.656 42.064-28.12 15-9.244 19.095-17.707 36.655-16.248s34.889 10.983 43.21 26.514c8.869-2.309 9.72-16.286 9.874-25.449.6-35.723-15.708-33.262-18.109-53.33-1.538-12.855 10.026-21.261 22.17-16.705 11.682 4.383 26.157 17.091 34.524 28.745 2.697 3.756 8.609.83 7.301-3.606-4.567-15.488-12.979-39.122 4.867-48.674 17.193-9.202 17.954-50.156 44-35.385 31.692 17.974-8 41.846-2.462 59.385 8.983 28.447 32.615 6.769 51.374 27.692 14.76 16.463 15.703 44.39 2.472 67.692-44.624 78.596-120.218 46.839-156.83 79.942z" fill="#fdba91"/><g><path d="m384.99 171.154c-18.759-20.923-42.391.755-51.374-27.692-5.538-17.539 34.154-41.411 2.462-59.384-11.286-6.401-17.824-2.336-23.009 5.073 17.811 17.217-14.484 38.377-9.452 54.311 8.983 28.448 32.615 6.77 51.374 27.692 14.76 16.462 15.703 44.39 2.472 67.692-44.624 78.594-120.218 46.837-156.83 79.94-13.193 11.929-28.649 23.54-45.324 28.279 2.224.706 4.479 1.248 6.756 1.612 25.496 4.076 49.416-12.575 68.568-29.892 36.612-33.103 112.206-1.346 156.83-79.94 13.229-23.302 12.286-51.229-2.473-67.691z" fill="#fc997d"/></g><g><path d="m223.021 496.999h-52.845c.818-17.181.572-34.856-.724-49.549-2.569-29.137-8.252-36.888-12.305-40.183-18.421-14.981-56.118-25.172-83.827-51.666-18.846-18.02-29.144-40.13-31.484-67.597-1.87-21.917 4.068-46.428 17.17-70.881 3.647-6.802 9.779-16.296 17.736-27.456 2.405-3.372 1.62-8.056-1.753-10.46-3.375-2.407-8.058-1.619-10.461 1.753-8.439 11.834-14.745 21.617-18.744 29.077-14.478 27.022-21.012 54.424-18.894 79.242 2.663 31.267 14.46 56.508 36.064 77.164 29.326 28.041 68.667 39.4 84.723 52.458.046.04 4.609 4.272 6.858 30.164 1.407 16.192 1.484 36.211.213 54.926-.296 4.333 3.145 8.009 7.483 8.009h60.79c4.143 0 7.5-3.358 7.5-7.5s-3.357-7.501-7.5-7.501z"/><path d="m451.751 73.889c-37.005-51.896-103.394-80.99-165.193-72.397-37.6 5.222-74.926 23.219-110.941 53.49-29.094 24.453-67.586 69.211-91.71 100.107-2.549 3.265-1.969 7.978 1.297 10.528 3.264 2.548 7.978 1.97 10.528-1.297 31.178-39.933 66.324-78.344 89.538-97.855 33.82-28.427 68.591-45.288 103.352-50.115 56.415-7.848 117.064 18.777 150.915 66.248 33.47 46.937 40.487 111.895 17.878 165.486-28.787 68.238-80.776 89.858-122.55 107.23-29.597 12.308-55.157 22.937-65.048 46.731-6.596 15.871-5.898 48.19-4.511 82.733.183 4.527.351 8.721.447 12.219h-9.851c-4.143 0-7.5 3.358-7.5 7.5s3.358 7.5 7.5 7.5h17.403c4.044 0 7.36-3.206 7.497-7.248.146-4.33-.143-11.498-.507-20.574-.935-23.279-2.499-62.243 3.374-76.373 7.515-18.078 29.333-27.151 56.956-38.639 60.215-25.041 103.353-50.633 130.611-115.25 24.588-58.278 16.939-128.943-19.485-180.024z"/><path d="m255.968 396.285c12.26-29.497 43.199-42.365 73.14-54.816 43.308-18.01 88.09-36.633 114.487-99.214 13.494-31.987 15.723-68.592 6.274-103.072-1.094-3.992-5.215-6.344-9.216-5.251-3.994 1.095-6.346 5.221-5.251 9.216 8.563 31.249 6.565 64.375-5.627 93.277-24.01 56.919-65.908 74.343-106.446 91.202-32.731 13.613-66.575 27.689-81.21 62.9-5.403 12.993-7.786 31.247-7.725 59.183.014 9.427-7.633 17.29-17.312 17.29-9.074 0-16.659-7.04-17.266-15.994-1.528-24.131-5.552-52.234-23.734-67.007-22.264-18.105-58.316-27.414-82.026-50.086-12.173-11.634-19.72-26.51-21.824-43.019-2.386-18.721 2.063-38.774 13.223-59.601 9.862-18.41 44.846-64.773 81.205-104.449 10.501-11.465 26.956-15.065 40.944-8.962 8.333 3.634 16.868 9.417 25.279 17.044-11.55 2.803-18.664 13.527-17.213 25.655 1.203 10.057 5.388 15.781 9.08 20.83 4.779 6.536 9.294 12.711 8.978 31.486-.111 6.645-.703 10.887-1.424 13.593-10.147-12.365-26.036-20.552-43.543-22.008-15.662-1.299-23.376 4.476-31.54 10.591-9.171 6.871-11.328 7.969-21.627 12.888-13.188 6.298-28.138 13.436-33.112 25.506-7.484 18.154-4.914 41.551 6.871 62.589 12.253 21.872 31.478 36.834 51.425 40.024 28.117 4.491 53.755-12.721 74.787-31.736 12.328-11.146 30.353-14.071 51.224-17.458 34.633-5.619 77.736-12.614 107.11-64.346 14.86-26.172 13.458-57.59-3.411-76.404-10.589-11.81-22.922-12.681-31.929-13.317-9.978-.705-14.532-1.026-17.88-11.627-1.102-3.488 2.771-10.133 6.188-15.996 5.252-9.011 11.205-19.224 8.255-30.151-1.877-6.955-6.925-12.682-15.434-17.506-7.017-3.98-13.574-5.107-19.497-3.35-10.049 2.982-15.191 12.904-20.164 22.5-3.508 6.769-7.135 13.767-11.581 16.147-3.197 1.711-5.763 3.731-7.805 5.982-13.807-15.841-20.687-18.292-27.937-26.066-5.45-5.826-7.564-13.615-5.8-21.368 1.796-7.893 7.188-14.119 14.798-17.083 64.961-25.323 125.058 5.945 153.408 45.718 3.345 4.691 6.428 9.696 9.164 14.876 1.933 3.662 6.471 5.064 10.134 3.13s5.065-6.471 3.13-10.134c-3.046-5.77-6.483-11.348-10.214-16.58-31.616-44.355-98.637-79.232-171.07-50.986-12.139 4.728-21.104 15.095-23.978 27.731-2.844 12.499.697 25.562 9.464 34.934 9.493 10.174 16.858 11.8 32.206 31.249-.86 6.978.228 14.434 1.837 21.265-4.435-4.482-9.494-8.849-14.768-12.482-10.644-13.101-27.272-30.109-47.412-38.892-19.863-8.666-43.173-3.609-58.002 12.578-33.638 36.707-71.815 85.936-83.367 107.499-24.319 45.383-20.035 90.449 11.458 120.547 25.775 24.647 62.508 34.277 82.929 50.882 14.044 11.411 17.002 37.122 18.228 56.349 1.141 16.831 15.3 30.014 32.235 30.014 17.869 0 32.339-14.467 32.313-32.318-.06-25.508 2.029-42.475 6.571-53.396zm17.752-220.181c7.613 10.602 24.281 2.417 20.588-10.102-4.207-14.306-10.919-33.449 1.213-39.942 8.546-4.573 13.474-14.082 17.82-22.471 3.365-6.493 7.18-13.854 11.113-15.02 4.038-1.204 14.702 4.901 16.182 10.383 1.316 4.877-2.776 11.898-6.734 18.688-4.984 8.552-10.634 18.245-7.533 28.066 6.42 20.329 20.702 21.338 31.129 22.074 8.2.579 15.282 1.079 21.817 8.367 12.627 14.083 13.258 38.337 1.534 58.984-25.825 45.483-61.737 51.31-96.466 56.945-22.251 3.61-43.268 7.022-58.883 21.137-15.339 13.869-38.492 31.865-62.358 28.05-15.228-2.435-30.825-14.904-40.706-32.542-9.564-17.071-11.84-35.591-6.089-49.541 2.776-6.737 15.49-12.808 25.707-17.687 11.011-5.257 14.026-6.829 24.157-14.418 7.667-5.744 11.412-8.473 21.304-7.648 15.974 1.328 30.584 10.192 37.222 22.583 1.637 3.053 5.153 4.594 8.502 3.716 15.001-3.904 15.34-24.001 15.484-32.582.399-23.812-6.403-33.115-11.868-40.591-3.226-4.412-5.557-7.601-6.293-13.757-.397-3.321.608-6.113 2.834-7.859 5.305-4.163 12.692.174 18.3 3.923.052.036.106.07.159.105 7.801 5.248 16.147 13.174 21.865 21.139z"/></g></g></svg>