<svg xmlns="http://www.w3.org/2000/svg" width="623.686" height="566.001" viewBox="0 0 623.686 566.001">
  <g id="pink-blob" transform="translate(-1385.314 -1516.624)">
    <path id="big-pink-blob" d="M311.83,0c172.2,0,311.8,118.776,311.8,265.295S606.8,561.423,434.6,561.423c-90.749,0-300.888,22.107-358.18-30.833C25.595,483.622.035,334.6.035,265.295c0-73.259-4.692-142.482,52.012-190.729C108.191,26.795,225.73,0,311.83,0Z" transform="translate(1385.374 1516.624)" fill="rgba(250,199,194,0.55)"/>
    <g id="small-pink-blob" transform="translate(1469.046 1656.86)" fill="rgba(250,199,194,0.29)">
      <path d="M 173.3790130615234 344.4422607421875 C 143.4804229736328 344.4422607421875 119.668586730957 343.0704956054688 100.5828018188477 340.24853515625 C 89.34574890136719 338.5870666503906 79.61495971679688 336.3829956054688 71.66074371337891 333.6976013183594 C 63.07758712768555 330.7998352050781 56.29353713989258 327.2536926269531 51.49706268310547 323.1576538085938 C 43.75490188598633 316.5461730957031 36.45542907714844 306.1181030273438 29.80142974853516 292.1630554199219 C 23.90358734130859 279.7937927246094 18.62300872802734 264.9208374023438 14.10637760162354 247.957275390625 C 10.15485095977783 233.1161651611328 6.886429786682129 216.9160614013672 4.654482841491699 201.1083221435547 C 2.622009038925171 186.7132263183594 1.502640604972839 172.8772735595703 1.502640604972839 162.149169921875 C 1.502640604972839 158.9503173828125 1.486587882041931 155.7209625244141 1.471114277839661 152.597900390625 C 1.368114233016968 131.8545379638672 1.270851016044617 112.2616424560547 5.510008811950684 94.25090026855469 C 7.768640518188477 84.65458679199219 11.06448268890381 76.33948516845703 15.5857458114624 68.83037567138672 C 18.02332496643066 64.78200531005859 20.86674499511719 60.91653442382813 24.03695678710938 57.34127044677734 C 27.35742950439453 53.59664154052734 31.1563777923584 50.03458786010742 35.32832336425781 46.75400924682617 C 44.14606094360352 39.82027053833008 55.63827133178711 33.34848022460938 69.48580169677734 27.51837730407715 C 82.4002685546875 22.08111381530762 97.12074279785156 17.29532432556152 113.2383804321289 13.29400825500488 C 128.5297393798828 9.497797966003418 144.5154876708984 6.540218830108643 160.7514801025391 4.503429412841797 C 176.6380157470703 2.510534524917603 191.9329071044922 1.500008225440979 206.2112731933594 1.500008225440979 C 220.1226959228516 1.500008225440979 234.0247497558594 2.601955652236938 247.5312194824219 4.775271415710449 C 260.6914367675781 6.892850399017334 273.6354370117188 10.05227184295654 286.0036010742188 14.16585063934326 C 298.1431579589844 18.20332336425781 309.8505859375 23.2000617980957 320.8008117675781 29.01721954345703 C 331.6414184570313 34.77616500854492 341.8341064453125 41.38885116577148 351.0956420898438 48.67153549194336 C 360.3506469726563 55.94900894165039 368.7515258789063 63.95516586303711 376.0650024414063 72.46753692626953 C 383.4421691894531 81.05400848388672 389.7771606445313 90.23111724853516 394.8940124511719 99.74395751953125 C 400.10107421875 109.4243774414063 404.0997009277344 119.5529022216797 406.7788391113281 129.8482208251953 C 409.5267028808594 140.4073181152344 410.9199523925781 151.2749481201172 410.9199523925781 162.149169921875 C 410.9199523925781 174.7510070800781 410.6913757324219 185.6818542480469 410.2211608886719 195.5663757324219 C 409.6536865234375 207.4951171875 408.7359008789063 218.10791015625 407.415283203125 228.0112762451172 C 405.9261169433594 239.1782684326172 403.9738464355469 249.1108551025391 401.4468383789063 258.3764953613281 C 398.7236938476563 268.3614196777344 395.3029479980469 277.5066833496094 391.2796020507813 285.5582275390625 C 389.1532592773438 289.8133850097656 386.8059997558594 293.8710632324219 384.3029174804688 297.6185913085938 C 381.7183837890625 301.4880065917969 378.8890075683594 305.1448364257813 375.893310546875 308.4874267578125 C 372.8064880371094 311.931640625 369.4497985839844 315.1464233398438 365.9164733886719 318.0423278808594 C 362.2806396484375 321.0222778320313 358.3487854003906 323.7541198730469 354.2300109863281 326.161865234375 C 349.9960632324219 328.636962890625 345.4387512207031 330.84326171875 340.6846008300781 332.7195739746094 C 335.802490234375 334.6463317871094 330.5689697265625 336.2818908691406 325.1292724609375 337.5808410644531 C 319.5501098632813 338.9131164550781 313.5909423828125 339.9302062988281 307.4173889160156 340.6039428710938 C 301.0941772460938 341.2940063476563 294.3621215820313 341.6438903808594 287.4083862304688 341.6438903808594 C 275.2716979980469 341.6438903808594 260.2515258789063 342.1830749511719 242.8595886230469 342.807373046875 C 221.5111083984375 343.5736999511719 197.3141632080078 344.4422607421875 173.3790130615234 344.4422607421875 Z" stroke="none"/>
      <path d="M 206.2112884521484 3.000030517578125 C 191.9951324462891 3.000030517578125 176.7630157470703 4.006561279296875 160.9381866455078 5.991790771484375 C 144.7607421875 8.021240234375 128.8338012695313 10.96786499023438 113.5997314453125 14.74984741210938 C 97.5572509765625 18.73251342773438 82.91094970703125 23.49362182617188 70.06781005859375 28.90084838867188 C 56.34390258789063 34.67889404296875 44.96786499023438 41.08230590820313 36.25558471679688 47.93313598632813 C 32.15380859375 51.158447265625 28.42047119140625 54.65869140625 25.1593017578125 58.33645629882813 C 22.0498046875 61.84323120117188 19.26113891601563 65.63424682617188 16.87078857421875 69.6041259765625 C 12.43106079101563 76.97775268554688 9.1925048828125 85.15219116210938 6.970062255859375 94.59457397460938 C 2.771728515625 112.43212890625 2.868560791015625 131.9386291503906 2.9710693359375 152.5904541015625 C 2.986572265625 155.7153472900391 3.00262451171875 158.9466247558594 3.00262451171875 162.1491851806641 C 3.00262451171875 172.8093566894531 4.116729736328125 186.57080078125 6.139739990234375 200.8986206054688 C 8.36346435546875 216.6480102539063 11.61947631835938 232.7871856689453 15.55584716796875 247.5713500976563 C 20.04873657226563 264.4458618164063 25.29718017578125 279.2314453125 31.1553955078125 291.5174560546875 C 37.71829223632813 305.2814636230469 44.88995361328125 315.54296875 52.47119140625 322.0170288085938 C 57.12164306640625 325.9883422851563 63.73934936523438 329.4401245117188 72.14056396484375 332.2763977050781 C 80.01025390625 334.9332885742188 89.65341186523438 337.1162414550781 100.8021850585938 338.7646789550781 C 119.8146362304688 341.5758056640625 143.5546875 342.9422912597656 173.3789672851563 342.9422912597656 C 197.2872924804688 342.9422912597656 221.4699096679688 342.0742492675781 242.8058471679688 341.308349609375 C 260.2121887207031 340.6835327148438 275.2448120117188 340.1439208984375 287.4083557128906 340.1439208984375 C 294.3079528808594 340.1439208984375 300.9852294921875 339.7970275878906 307.254638671875 339.11279296875 C 313.365966796875 338.4458923339844 319.2626342773438 337.4395751953125 324.7808532714844 336.1219177246094 C 330.1519165039063 334.83935546875 335.3174133300781 333.2251892089844 340.1339111328125 331.3242797851563 C 344.8170166015625 329.4760131835938 349.3049621582031 327.303466796875 353.4730224609375 324.8668518066406 C 357.5238952636719 322.498779296875 361.3905639648438 319.8123474121094 364.9656372070313 316.8821716308594 C 368.4397277832031 314.0347900390625 371.7405090332031 310.8735656738281 374.7762451171875 307.4862976074219 C 377.7247314453125 304.1964111328125 380.5102844238281 300.5960693359375 383.0555725097656 296.785400390625 C 385.5238952636719 293.0899047851563 387.8394165039063 289.0869750976563 389.937744140625 284.8877563476563 C 393.9171142578125 276.9242553710938 397.3024597167969 267.8717956542969 399.9997253417969 257.9818115234375 C 402.4740600585938 248.9091186523438 404.4687805175781 238.7589111328125 405.9284057617188 227.8130187988281 C 407.2433471679688 217.9522399902344 408.157470703125 207.3809661865234 408.7228393554688 195.4951324462891 C 409.1919555664063 185.6345672607422 409.4199523925781 174.7270202636719 409.4199523925781 162.1491851806641 C 409.4199523925781 151.40234375 408.04296875 140.6618499755859 405.3272399902344 130.2260131835938 C 402.6781311035156 120.0462951660156 398.7234497070313 110.0297393798828 393.5730285644531 100.4545288085938 C 388.5072937011719 91.036865234375 382.2339477539063 81.9495849609375 374.92724609375 73.44500732421875 C 367.6771240234375 65.00640869140625 359.3470764160156 57.06808471679688 350.16845703125 49.85061645507813 C 340.9767456054688 42.62286376953125 330.8593139648438 36.05917358398438 320.0970764160156 30.3419189453125 C 309.2205810546875 24.56390380859375 297.5906372070313 19.600341796875 285.5302429199219 15.58917236328125 C 273.238525390625 11.50106811523438 260.3736267089844 8.36102294921875 247.29296875 6.256195068359375 C 233.8650207519531 4.0955810546875 220.0431213378906 3.000030517578125 206.2112884521484 3.000030517578125 M 206.2112884521484 3.0517578125e-05 C 320.09716796875 3.0517578125e-05 412.4199523925781 72.59661865234375 412.4199523925781 162.1491851806641 C 412.4199523925781 251.7016906738281 401.2942504882813 343.1439208984375 287.4083557128906 343.1439208984375 C 260.0955505371094 343.1439208984375 216.4276733398438 345.9422607421875 173.3789672851563 345.9422607421875 C 121.8313903808594 345.9422607421875 71.17031860351563 341.9305725097656 50.52294921875 324.29833984375 C 16.90707397460938 295.5919189453125 0.00262451171875 204.5075225830078 0.00262451171875 162.1491851806641 C 0.00262451171875 117.3729095458984 -3.100250244140625 75.06341552734375 34.40118408203125 45.57492065429688 C 71.53256225585938 16.37689208984375 149.2683410644531 3.0517578125e-05 206.2112884521484 3.0517578125e-05 Z" stroke="none" fill="#fff"/>
    </g>
  </g>
</svg>
