<?xml version="1.0" encoding="UTF-8" standalone="no"?>
<!-- Copyright 2017 mathsisfun.com -->
<svg xmlns="http://www.w3.org/2000/svg" width="360" height="80" version="1.1" style="font-family:'Comic Sans MS'; font-size:12px; stroke-width:0.25px;">
<defs>
	<linearGradient>
		<stop offset="0" style="stop-color:white; stop-opacity:1;"/>
		<stop offset="0.5" style="stop-color:#9dff4f; stop-opacity:0.5;"/>
		<stop offset="1" style="stop-color:white; stop-opacity:1;"/>
	</linearGradient>
	<marker id="id1" style="overflow:visible;" orient="auto">
		<path transform="matrix(-0.8,0,0,-0.8,-10,0)" style="stroke:black; stroke-width:1pt;" d="M 0,0 5,-5 -12.5,0 5,5 Z"/>
	</marker>
	<marker id="id2" style="overflow:visible;" orient="auto">
		<path transform="matrix(0.8,0,0,0.8,10,0)" style="stroke:black; stroke-width:1pt;" d="M 0,0 5,-5 -12.5,0 5,5 Z"/>
	</marker>
	<marker style="overflow:visible;" orient="auto">
		<path transform="matrix(0.4,0,0,0.4,4,0)" style="fill:#8d5fd3; stroke:#8d5fd3; stroke-width:1pt;" d="M 0,0 5,-5 -12.5,0 5,5 Z"/>
	</marker>
	<marker style="overflow:visible;" orient="auto">
		<path transform="matrix(-0.4,0,0,-0.4,-4,0)" style="fill:#8d5fd3; stroke:#8d5fd3; stroke-width:1pt;" d="M 0,0 5,-5 -12.5,0 5,5 Z"/>
	</marker>
</defs>
<g transform="translate(-964.956,-2785.07)">
	<path style="fill:none; stroke:black; stroke-width:0.75;" d="m 975.9,2789 v 18.3"/>
	<path style="fill:none; stroke:#0000ff;" d="m 995,2789 v 18.3"/>
	<path style="fill:none; stroke:#0000ff;" d="m 1014,2789 v 18.3"/>
	<path style="fill:none; stroke:#0000ff;" d="m 1033,2789 v 18.3"/>
	<path style="fill:none; stroke:#0000ff;" d="m 1052,2789 v 18.3"/>
	<path style="fill:none; stroke:#0000ff;" d="m 1071,2789 v 18.3"/>
	<path style="fill:none; stroke:#0000ff;" d="m 1090,2789 v 18.3"/>
	<path style="fill:none; stroke:#0000ff;" d="m 1109.1,2789 v 18.3"/>
	<path style="fill:none; stroke:#0000ff;" d="m 1128.1,2789 v 18.3"/>
	<path style="fill:none; stroke:#0000ff;" d="m 1147.1,2789 v 18.3"/>
	<text x="992.5" y="2822.2" style="fill:#0000ff;">1</text>
	<text x="1011.2" y="2822.2" style="fill:#0000ff;">2</text>
	<text x="1030.1" y="2822.2" style="fill:#0000ff;">3</text>
	<text x="1049.3" y="2822.2" style="fill:#0000ff;">4</text>
	<text x="1068" y="2822.1" style="fill:#0000ff;">5</text>
	<text x="1087.1" y="2822.2" style="fill:#0000ff;">6</text>
	<text x="1106" y="2822.2" style="fill:#0000ff;">7</text>
	<text x="1125.1" y="2822.2" style="fill:#0000ff;">8</text>
	<text x="1144.1" y="2822.2" style="fill:#0000ff;">9</text>
	<path style="fill:none; stroke:#0000ff;" d="m 1166.1,2789 v 18.3"/>
	<text x="1159.4" y="2822.2" style="fill:#0000ff;">10</text>
	<path style="marker-end:url(#id1); fill:#0000ff; fill-opacity:0.75; stroke:#0000ff; stroke-width:0.95;" d="M 975.4,2799.2 H 1316.5"/>
	<path style="marker-start:url(#id2); fill:#ff0000; fill-opacity:0.75; stroke:#ff0000; stroke-width:0.95;" d="m 928.5,2799.2 h 46.9"/>
	<text x="971.7" y="2823.3" style="font-size:17.4px; fill:black;">0</text>
	<path style="fill:none; stroke:#0000ff;" d="m 1185.1,2789 v 18.3"/>
	<path style="fill:none; stroke:#0000ff;" d="m 1204.2,2789 v 18.3"/>
	<path style="fill:none; stroke:#0000ff;" d="m 1223.2,2789 v 18.3"/>
	<path style="fill:none; stroke:#0000ff;" d="m 1242.2,2789 v 18.3"/>
	<path style="fill:none; stroke:#0000ff;" d="m 1261.2,2789 v 18.3"/>
	<path style="fill:none; stroke:#0000ff;" d="m 1280.2,2789 v 18.3"/>
	<path style="fill:none; stroke:#0000ff;" d="m 1299.2,2789 v 18.3"/>
	<text x="1178.5" y="2822.2" style="fill:#0000ff;">11</text>
	<text x="1197.2" y="2822.2" style="fill:#0000ff;">12</text>
	<text x="1216.1" y="2822.2" style="fill:#0000ff;">13</text>
	<text x="1235.3" y="2822.2" style="fill:#0000ff;">14</text>
	<text x="1254" y="2822.1" style="fill:#0000ff;">15</text>
	<text x="1273.6" y="2822.2" style="fill:#0000ff;">16</text>
	<text x="1292.5" y="2822.2" style="fill:#0000ff;">17</text>
	<g style="stroke-width:1.02;" transform="matrix(0.963756,0.032737,-0.031567,0.999464,160.114,-32.0567)">
		<path style="fill:#204a87; stroke-width:0.58;" d="m 1003.6,2828.1 c 0.2,0.5 0.6,1.1 0.9,1.6 0.6,0.8 1.3,1.5 2,2.3 0.7,0.8 1.5,1.5 2.3,2.2 0.9,0.7 1.9,1.4 3,2 1.4,0.9 3,1.5 4.7,2.2 2.2,0.9 4.5,1.7 6.9,2.4 2.2,0.7 4.6,1.2 6.9,1.6 2.6,0.4 5.3,0.6 8.1,0.8 2.6,0.2 5.2,0.1 7.8,0.1 2.3,0 4.5,-0.2 6.8,-0.5 2.2,-0.4 4.5,-0.8 6.7,-1.2 2,-0.4 3.9,-1.1 5.9,-1.6 1.2,-0.4 2.4,-0.8 3.5,-1.3 0.3,-0.1 1.1,-0.4 0.8,-0.3 -0.7,0.3 -1.3,0.5 -2,0.8 1.5,-0.6 2.9,-1.3 4.3,-2 1.3,-0.7 2.6,-1.4 3.7,-2.1 1.2,-0.8 2.3,-1.5 3.5,-2.3 0.9,-0.7 1.9,-1.4 2.8,-2.2 0.9,-0.6 1.4,-1.3 2.1,-2 0,-0.1 0.2,-0.2 0.3,-0.3 0,0 5.7,0.1 5.7,0.1 v 0 c -0.2,0.1 -0.2,0.3 -0.3,0.4 -0.7,0.8 -1.3,1.6 -2.1,2.3 -0.9,0.8 -1.9,1.5 -2.8,2.2 -1.1,0.9 -2.3,1.7 -3.5,2.5 -1.3,0.8 -2.5,1.6 -3.8,2.3 -1.4,0.8 -2.9,1.5 -4.4,2.2 -2.7,1.1 -5.4,2.2 -8.3,3 -2,0.6 -4.1,1.2 -6.3,1.6 -2.4,0.5 -4.7,0.9 -7.1,1.2 -2.4,0.2 -4.9,0.4 -7.3,0.4 -2.8,0 -5.5,0 -8.3,-0.2 -2.9,-0.2 -5.8,-0.5 -8.5,-1 -2.6,-0.5 -5.1,-1.1 -7.5,-1.9 -2.4,-0.8 -4.8,-1.6 -7.2,-2.6 -1.8,-0.7 -3.6,-1.5 -5.1,-2.5 -1.2,-0.7 -2.3,-1.5 -3.3,-2.3 -0.9,-0.8 -1.8,-1.6 -2.6,-2.4 -0.7,-0.8 -1.4,-1.6 -2,-2.4 -0.5,-0.7 -1,-1.3 -1.3,-2 0,0 5.4,-1.1 5.4,-1.1 z"/>
		<path style="fill:#204a87; stroke-width:0.58;" d="m 1074.3,2828.3 c 0.9,0 1.8,-0.1 2.7,-0.3 -5.5,0.9 -1.3,0.2 0,-0.2 1.1,-0.2 2.1,-0.5 3.2,-0.8 1,-0.2 2,-0.7 3,-1 1,-0.3 1.9,-0.6 2.8,-1 0.9,-0.4 1.8,-0.7 2.6,-1.1 0.2,0 0.3,-0.2 0.4,-0.3 0,0 4.6,2.7 4.6,2.7 v 0 c -0.2,0.2 -0.3,0.2 -0.4,0.2 -0.9,0.6 -1.8,1 -2.8,1.4 -1,0.5 -2,0.9 -3,1.2 -1,0.4 -2.1,0.6 -3.1,1.1 -1.1,0.3 -2.2,0.6 -3.3,0.9 -2.1,0.4 -4.1,1 -6.2,1.2 -0.9,0.2 -1.8,0.2 -2.7,0.3 0,0 2.3,-4.4 2.3,-4.4 z"/>
		<path style="fill:#204a87; stroke-width:0.58;" d="m 1082.9,2838.3 c 0.3,-0.8 0.5,-1.6 0.8,-2.3 0.4,-0.9 0.7,-1.8 1.3,-2.6 0.4,-0.9 0.9,-1.7 1.5,-2.6 0.6,-0.8 1,-1.6 1.6,-2.4 0.6,-0.9 1.2,-1.8 1.8,-2.6 0.4,-0.6 0.3,-0.3 0.6,-0.9 0,0 5.1,1.4 5.1,1.4 v 0 c -0.4,0.6 -0.2,0.4 -0.7,1 -0.6,0.8 -1.3,1.6 -1.8,2.5 -0.5,0.8 -1,1.6 -1.6,2.5 -0.5,0.7 -1,1.5 -1.4,2.3 -0.3,0.8 -0.9,1.6 -1.2,2.4 -0.3,0.7 -0.6,1.4 -0.9,2.1 0,0 -5.2,-0.7 -5.2,-0.7 z"/>
	</g>
	<rect x="-108" y="4146.4" width="70" height="88" style="stroke-width:1;"/>
	<text x="1176.9" y="2863.9" style="font-size:18px; fill:#204a87;">5</text>
	<text x="1065.7" y="2861.9" style="font-size:18px; fill:#204a87;">+</text>
	<text x="1075.7" y="2863.9" style="font-size:18px; fill:#204a87;">5</text>
	<text x="1260.1" y="2861.9" style="font-size:18px; fill:#204a87;">+</text>
	<text x="1270.1" y="2863.9" style="font-size:18px; fill:#204a87;">5</text>
	<g style="stroke-width:1.02;" transform="matrix(0.963756,0.032737,-0.031567,0.999464,256.027,-32.0567)">
		<path style="fill:#204a87; stroke-width:0.58;" d="m 1003.6,2828.1 c 0.2,0.5 0.6,1.1 0.9,1.6 0.6,0.8 1.3,1.5 2,2.3 0.7,0.8 1.5,1.5 2.3,2.2 0.9,0.7 1.9,1.4 3,2 1.4,0.9 3,1.5 4.7,2.2 2.2,0.9 4.5,1.7 6.9,2.4 2.2,0.7 4.6,1.2 6.9,1.6 2.6,0.4 5.3,0.6 8.1,0.8 2.6,0.2 5.2,0.1 7.8,0.1 2.3,0 4.5,-0.2 6.8,-0.5 2.2,-0.4 4.5,-0.8 6.7,-1.2 2,-0.4 3.9,-1.1 5.9,-1.6 1.2,-0.4 2.4,-0.8 3.5,-1.3 0.3,-0.1 1.1,-0.4 0.8,-0.3 -0.7,0.3 -1.3,0.5 -2,0.8 1.5,-0.6 2.9,-1.3 4.3,-2 1.3,-0.7 2.6,-1.4 3.7,-2.1 1.2,-0.8 2.3,-1.5 3.5,-2.3 0.9,-0.7 1.9,-1.4 2.8,-2.2 0.9,-0.6 1.4,-1.3 2.1,-2 0,-0.1 0.2,-0.2 0.3,-0.3 0,0 5.7,0.1 5.7,0.1 v 0 c -0.2,0.1 -0.2,0.3 -0.3,0.4 -0.7,0.8 -1.3,1.6 -2.1,2.3 -0.9,0.8 -1.9,1.5 -2.8,2.2 -1.1,0.9 -2.3,1.7 -3.5,2.5 -1.3,0.8 -2.5,1.6 -3.8,2.3 -1.4,0.8 -2.9,1.5 -4.4,2.2 -2.7,1.1 -5.4,2.2 -8.3,3 -2,0.6 -4.1,1.2 -6.3,1.6 -2.4,0.5 -4.7,0.9 -7.1,1.2 -2.4,0.2 -4.9,0.4 -7.3,0.4 -2.8,0 -5.5,0 -8.3,-0.2 -2.9,-0.2 -5.8,-0.5 -8.5,-1 -2.6,-0.5 -5.1,-1.1 -7.5,-1.9 -2.4,-0.8 -4.8,-1.6 -7.2,-2.6 -1.8,-0.7 -3.6,-1.5 -5.1,-2.5 -1.2,-0.7 -2.3,-1.5 -3.3,-2.3 -0.9,-0.8 -1.8,-1.6 -2.6,-2.4 -0.7,-0.8 -1.4,-1.6 -2,-2.4 -0.5,-0.7 -1,-1.3 -1.3,-2 0,0 5.4,-1.1 5.4,-1.1 z"/>
		<path style="fill:#204a87; stroke-width:0.58;" d="m 1074.3,2828.3 c 0.9,0 1.8,-0.1 2.7,-0.3 -5.5,0.9 -1.3,0.2 0,-0.2 1.1,-0.2 2.1,-0.5 3.2,-0.8 1,-0.2 2,-0.7 3,-1 1,-0.3 1.9,-0.6 2.8,-1 0.9,-0.4 1.8,-0.7 2.6,-1.1 0.2,0 0.3,-0.2 0.4,-0.3 0,0 4.6,2.7 4.6,2.7 v 0 c -0.2,0.2 -0.3,0.2 -0.4,0.2 -0.9,0.6 -1.8,1 -2.8,1.4 -1,0.5 -2,0.9 -3,1.2 -1,0.4 -2.1,0.6 -3.1,1.1 -1.1,0.3 -2.2,0.6 -3.3,0.9 -2.1,0.4 -4.1,1 -6.2,1.2 -0.9,0.2 -1.8,0.2 -2.7,0.3 0,0 2.3,-4.4 2.3,-4.4 z"/>
		<path style="fill:#204a87; stroke-width:0.58;" d="m 1082.9,2838.3 c 0.3,-0.8 0.5,-1.6 0.8,-2.3 0.4,-0.9 0.7,-1.8 1.3,-2.6 0.4,-0.9 0.9,-1.7 1.5,-2.6 0.6,-0.8 1,-1.6 1.6,-2.4 0.6,-0.9 1.2,-1.8 1.8,-2.6 0.4,-0.6 0.3,-0.3 0.6,-0.9 0,0 5.1,1.4 5.1,1.4 v 0 c -0.4,0.6 -0.2,0.4 -0.7,1 -0.6,0.8 -1.3,1.6 -1.8,2.5 -0.5,0.8 -1,1.6 -1.6,2.5 -0.5,0.7 -1,1.5 -1.4,2.3 -0.3,0.8 -0.9,1.6 -1.2,2.4 -0.3,0.7 -0.6,1.4 -0.9,2.1 0,0 -5.2,-0.7 -5.2,-0.7 z"/>
	</g>
	<g style="stroke-width:1.02;" transform="matrix(0.963756,0.032737,-0.031567,0.999464,351.245,-32.0567)">
		<path style="fill:#204a87; stroke-width:0.58;" d="m 1003.6,2828.1 c 0.2,0.5 0.6,1.1 0.9,1.6 0.6,0.8 1.3,1.5 2,2.3 0.7,0.8 1.5,1.5 2.3,2.2 0.9,0.7 1.9,1.4 3,2 1.4,0.9 3,1.5 4.7,2.2 2.2,0.9 4.5,1.7 6.9,2.4 2.2,0.7 4.6,1.2 6.9,1.6 2.6,0.4 5.3,0.6 8.1,0.8 2.6,0.2 5.2,0.1 7.8,0.1 2.3,0 4.5,-0.2 6.8,-0.5 2.2,-0.4 4.5,-0.8 6.7,-1.2 2,-0.4 3.9,-1.1 5.9,-1.6 1.2,-0.4 2.4,-0.8 3.5,-1.3 0.3,-0.1 1.1,-0.4 0.8,-0.3 -0.7,0.3 -1.3,0.5 -2,0.8 1.5,-0.6 2.9,-1.3 4.3,-2 1.3,-0.7 2.6,-1.4 3.7,-2.1 1.2,-0.8 2.3,-1.5 3.5,-2.3 0.9,-0.7 1.9,-1.4 2.8,-2.2 0.9,-0.6 1.4,-1.3 2.1,-2 0,-0.1 0.2,-0.2 0.3,-0.3 0,0 5.7,0.1 5.7,0.1 v 0 c -0.2,0.1 -0.2,0.3 -0.3,0.4 -0.7,0.8 -1.3,1.6 -2.1,2.3 -0.9,0.8 -1.9,1.5 -2.8,2.2 -1.1,0.9 -2.3,1.7 -3.5,2.5 -1.3,0.8 -2.5,1.6 -3.8,2.3 -1.4,0.8 -2.9,1.5 -4.4,2.2 -2.7,1.1 -5.4,2.2 -8.3,3 -2,0.6 -4.1,1.2 -6.3,1.6 -2.4,0.5 -4.7,0.9 -7.1,1.2 -2.4,0.2 -4.9,0.4 -7.3,0.4 -2.8,0 -5.5,0 -8.3,-0.2 -2.9,-0.2 -5.8,-0.5 -8.5,-1 -2.6,-0.5 -5.1,-1.1 -7.5,-1.9 -2.4,-0.8 -4.8,-1.6 -7.2,-2.6 -1.8,-0.7 -3.6,-1.5 -5.1,-2.5 -1.2,-0.7 -2.3,-1.5 -3.3,-2.3 -0.9,-0.8 -1.8,-1.6 -2.6,-2.4 -0.7,-0.8 -1.4,-1.6 -2,-2.4 -0.5,-0.7 -1,-1.3 -1.3,-2 0,0 5.4,-1.1 5.4,-1.1 z"/>
		<path style="fill:#204a87; stroke-width:0.58;" d="m 1074.3,2828.3 c 0.9,0 1.8,-0.1 2.7,-0.3 -5.5,0.9 -1.3,0.2 0,-0.2 1.1,-0.2 2.1,-0.5 3.2,-0.8 1,-0.2 2,-0.7 3,-1 1,-0.3 1.9,-0.6 2.8,-1 0.9,-0.4 1.8,-0.7 2.6,-1.1 0.2,0 0.3,-0.2 0.4,-0.3 0,0 4.6,2.7 4.6,2.7 v 0 c -0.2,0.2 -0.3,0.2 -0.4,0.2 -0.9,0.6 -1.8,1 -2.8,1.4 -1,0.5 -2,0.9 -3,1.2 -1,0.4 -2.1,0.6 -3.1,1.1 -1.1,0.3 -2.2,0.6 -3.3,0.9 -2.1,0.4 -4.1,1 -6.2,1.2 -0.9,0.2 -1.8,0.2 -2.7,0.3 0,0 2.3,-4.4 2.3,-4.4 z"/>
		<path style="fill:#204a87; stroke-width:0.58;" d="m 1082.9,2838.3 c 0.3,-0.8 0.5,-1.6 0.8,-2.3 0.4,-0.9 0.7,-1.8 1.3,-2.6 0.4,-0.9 0.9,-1.7 1.5,-2.6 0.6,-0.8 1,-1.6 1.6,-2.4 0.6,-0.9 1.2,-1.8 1.8,-2.6 0.4,-0.6 0.3,-0.3 0.6,-0.9 0,0 5.1,1.4 5.1,1.4 v 0 c -0.4,0.6 -0.2,0.4 -0.7,1 -0.6,0.8 -1.3,1.6 -1.8,2.5 -0.5,0.8 -1,1.6 -1.6,2.5 -0.5,0.7 -1,1.5 -1.4,2.3 -0.3,0.8 -0.9,1.6 -1.2,2.4 -0.3,0.7 -0.6,1.4 -0.9,2.1 0,0 -5.2,-0.7 -5.2,-0.7 z"/>
	</g>
</g>
</svg>