<svg id="Capa_1" enable-background="new 0 0 512 512" height="512" viewBox="0 0 512 512" width="512" xmlns="http://www.w3.org/2000/svg"><g><g><g><g><g><g><g><circle cx="256" cy="256" fill="#7584f2" r="256"/></g></g></g></g></g></g><path d="m512 256c0-14.59-1.221-28.896-3.565-42.819l-89.005-89.005-60.5 48.663-61.566-61.566-186.244 288.812 109.703 109.518c11.499 1.58 23.243 2.397 35.177 2.397 141.385 0 256-114.615 256-256z" fill="#4253ce"/><g><g><path d="m60.4 288.061c6.143 91.568 82.365 163.939 175.49 163.939 97.141 0 175.89-78.749 175.89-175.89 0-12.673-1.352-25.029-3.899-36.942l-167.982 33.892 57.464-161.788c-19.137-7.14-39.847-11.052-61.473-11.052-91.047 0-165.937 69.178-174.975 157.84z" fill="#ffce00"/></g><g><path d="m235.89 452c97.141 0 175.89-78.749 175.89-175.89 0-12.673-1.352-25.029-3.899-36.942l-167.982 33.892 57.464-161.788c-19.137-7.14-39.847-11.052-61.473-11.052z" fill="#fdba12"/></g><g><path d="m455.258 198.563c-12.628-59.073-54.909-107.148-110.518-127.896l-57.464 161.788z" fill="#e9edf5"/></g></g><g fill="#fff"><path d="m206.899 258.061h28.991v30h-28.991z"/><path d="m106.899 258.061h33v30h-33z"/><path d="m89.899 288.061v-30h-28.984c-.605 5.934-.915 11.956-.915 18.049 0 4.017.135 8.001.4 11.95h29.499z"/><path d="m156.899 258.061h33v30h-33z"/></g><g><path d="m149.077 232.456v-65.026h22.771v7.943c4.731-5.25 13.75-9.693 22.326-9.693v19.925c-1.331-.27-3.253-.539-5.619-.539-5.914 0-13.75 2.289-16.707 5.924v41.465h-22.771z" fill="#fff"/></g></g></svg>