<svg id="Layer_1" enable-background="new 0 0 510 510" height="512" viewBox="0 0 510 510" width="512" xmlns="http://www.w3.org/2000/svg"><g><path id="XMLID_1601_" d="m15 255c0 132.641 107.34 240 240 240l15-240-15-240c-132.641 0-240 107.342-240 240z" fill="#edf5ff"/><path id="XMLID_1598_" d="m233.787 276.213c5.429 5.43 12.929 8.787 21.213 8.787l15-30-15-30c-8.284 0-15.784 3.357-21.213 8.787-11.708 11.707-11.727 30.699 0 42.426z" fill="#72bbff"/><path id="XMLID_1595_" d="m240 75v105h15l15-52.5-15-52.5c-5.246 0-9.754 0-15 0z" fill="#ff884d"/><path id="XMLID_1580_" d="m30 255c0-124.062 100.931-225 225-225l15-15-15-15c-140.931 0-255 114.051-255 255 0 140.931 114.049 255 255 255l15-15-15-15c-124.062 0-225-100.931-225-225z" fill="#ff884d"/><path id="XMLID_1577_" d="m495 255c0-132.659-107.359-240-240-240v480c132.66 0 240-107.358 240-240z" fill="#b5dbff"/><g fill="#66f"><path id="XMLID_1574_" d="m285 255c0-16.568-13.432-30-30-30v60c16.568 0 30-13.432 30-30z"/><path id="XMLID_1572_" d="m330 240h30v30h-30z"/><path id="XMLID_1568_" d="m390 240h30v30h-30z"/><path id="XMLID_1559_" d="m450 240h45v30h-45z"/></g><path id="XMLID_1558_" d="m270 147.246c0-5.018 9.502-42.246 45-42.246v-30c-18.794 0-33.642 6.314-45 15.422v-15.422h-15v105h15z" fill="#ff4d4d"/><path id="XMLID_1044_" d="m510 255c0-140.95-114.069-255-255-255v30c124.065 0 225 100.935 225 225s-100.935 225-225 225v30c140.951 0 255-114.068 255-255z" fill="#ff4d4d"/></g></svg>