<svg id="Layer_1" enable-background="new 0 0 511.967 511.967" height="512" viewBox="0 0 511.967 511.967" width="512" xmlns="http://www.w3.org/2000/svg"><g><g><g><g><path d="m255.974 186.827v256.514l114.99-61.143z" fill="#1ee3a5"/></g><path d="m332.882 402.447 38.082-20.249-114.99-195.371z" fill="#1cd198"/><path d="m255.974 186.827v256.514l-114.989-61.143z" fill="#15aa78"/></g></g><path d="m511.967 462.025c.002-.705-.086-1.429-.28-2.109l-12.957-45.46c-2.658-9.323-17.084-5.216-14.426 4.111l7.76 27.224-115.956-69.639-112.634-191.369v-125.191l19.125 20.643c6.648 7.173 17.557-3.121 11.003-10.195l-32.126-34.676c-2.88-3.117-8.123-3.116-11.003 0l-32.126 34.676c-6.591 7.114 4.412 17.308 11.003 10.195l19.125-20.643v125.191l-47.768 81.16c-4.918 8.357 8.009 15.968 12.927 7.609l34.841-59.196v216.503l-97.053-51.606 42.123-71.567c4.919-8.358-8.007-15.965-12.927-7.609l-44.776 76.076-115.957 69.638 7.76-27.224c2.658-9.327-11.768-13.434-14.426-4.111l-12.957 45.46c-1.166 4.09 1.68 8.921 6.252 9.514l45.777 9.345c9.199 1.881 12.35-12.787 3-14.697l-27.405-5.594 112.983-67.853 111.585 59.333c2.169 1.153 4.873 1.152 7.042 0l44.707-23.771c8.562-4.552 1.52-17.798-7.042-13.244l-33.686 17.911v-216.504l97.053 164.896-28.433 15.119c-8.563 4.552-1.52 17.798 7.042 13.244l31.944-16.986 112.983 67.853-27.405 5.594c-9.365 1.913-6.069 16.553 3 14.697l45.782-9.346c3.653-.475 6.499-3.899 6.526-7.402z"/></g></svg>