<svg height="512pt" viewBox="-25 0 512 512.002" width="512pt" xmlns="http://www.w3.org/2000/svg"><path d="m307.921875 475.683594h42.964844l-35.457031-140.445313h-44.246094l35.472656 140.507813c.417969-.039063.839844-.0625 1.265625-.0625zm0 0" fill="#ac6a51"/><path d="m301.1875 335.238281h-30.003906l35.472656 140.507813c.417969-.039063.839844-.0625 1.265625-.0625h28.71875zm0 0" fill="#945b44"/><path d="m150.65625 335.238281c-.28125 4.992188-3.15625 9.28125-7.242188 11.433594l-32.566406 129.011719h42.964844c.425781 0 .847656.023437 1.265625.0625l35.46875-140.507813zm0 0" fill="#ac6a51"/><path d="m140.847656 473.964844 32.570313-129.007813c3.609375-1.898437 6.269531-5.46875 7.035156-9.71875h-29.796875c-.28125 4.992188-3.152344 9.28125-7.238281 11.433594l-32.570313 129.011719h42.964844c.425781 0 .847656.023437 1.265625.0625l.449219-1.78125zm0 0" fill="#945b44"/><path d="m435.488281 7.210938h-409.246093c-10.386719 0-18.886719 8.496093-18.886719 18.886718v293.019532c0 10.386718 8.5 18.886718 18.886719 18.886718h31.828124c-.015624-.257812-.039062-.515625-.039062-.777344v-30.371093c0-3.75 3.070312-6.816407 6.816406-6.816407h79.03125c3.75 0 6.816406 3.066407 6.816406 6.816407v30.371093c0 .261719-.023437.519532-.039062.777344h284.832031c10.390625 0 18.886719-8.5 18.886719-18.886718v-293.019532c0-10.390625-8.496094-18.886718-18.886719-18.886718zm0 0" fill="#bd7c63"/><path d="m38.417969 319.117188v-293.019532c0-10.390625 8.5-18.886718 18.886719-18.886718h-31.0625c-10.386719 0-18.886719 8.496093-18.886719 18.886718v293.019532c0 10.386718 8.5 18.886718 18.886719 18.886718h31.0625c-10.386719 0-18.886719-8.5-18.886719-18.886718zm0 0" fill="#ac6a51"/><path d="m416.820312 38.273438h-371.910156c-3.585937 0-6.492187 2.90625-6.492187 6.492187v255.683594c0 3.585937 2.90625 6.492187 6.492187 6.492187h13.121094v-.085937c0-3.75 3.070312-6.816407 6.816406-6.816407h79.03125c3.75 0 6.816406 3.066407 6.816406 6.816407v.085937h266.125c3.585938 0 6.492188-2.90625 6.492188-6.492187v-255.683594c0-3.585937-2.90625-6.492187-6.492188-6.492187zm0 0" fill="#43cd8e"/><path d="m68.421875 44.765625c0-3.585937 2.90625-6.492187 6.492187-6.492187h-30.003906c-3.585937 0-6.492187 2.90625-6.492187 6.492187v255.683594c0 3.585937 2.90625 6.492187 6.492187 6.492187h13.121094v-.085937c0-3.75 3.070312-6.816407 6.816406-6.816407h3.574219zm0 0" fill="#00b965"/><path d="m358.507812 473.144531h-50.585937c-7.191406 0-13.019531 5.828125-13.019531 13.019531v5.027344c0 7.1875 5.828125 13.015625 13.019531 13.015625h50.585937c7.1875 0 13.015626-5.828125 13.015626-13.015625v-5.027344c0-7.191406-5.828126-13.019531-13.015626-13.019531zm0 0" fill="#945b44"/><path d="m153.808594 473.144531h-50.582032c-7.191406 0-13.019531 5.828125-13.019531 13.019531v5.027344c0 7.1875 5.828125 13.015625 13.019531 13.015625h50.582032c7.191406 0 13.019531-5.828125 13.019531-13.015625v-5.027344c0-7.191406-5.828125-13.019531-13.019531-13.019531zm0 0" fill="#945b44"/><path d="m144.878906 299.035156h-81.03125c-3.746094 0-6.816406 3.070313-6.816406 6.820313v31.371093c0 7.261719 5.941406 13.199219 13.199219 13.199219h68.265625c7.261718 0 13.199218-5.9375 13.199218-13.199219v-31.371093c0-3.75-3.066406-6.820313-6.816406-6.820313zm0 0" fill="#685e68"/><path d="m358.507812 484.789062h-50.585937c-4.527344 0-8.511719-2.316406-10.84375-5.824218-1.371094 2.0625-2.175781 4.535156-2.175781 7.199218v5.027344c0 7.1875 5.828125 13.015625 13.019531 13.015625h50.582031c7.191406 0 13.019532-5.828125 13.019532-13.015625v-5.027344c0-2.664062-.800782-5.136718-2.175782-7.199218-2.328125 3.507812-6.3125 5.824218-10.839844 5.824218zm0 0" fill="#87523e"/><path d="m153.808594 484.789062h-50.582032c-4.53125 0-8.511718-2.316406-10.847656-5.824218-1.371094 2.0625-2.171875 4.535156-2.171875 7.199218v5.027344c0 7.1875 5.828125 13.015625 13.015625 13.015625h50.585938c7.191406 0 13.019531-5.828125 13.019531-13.015625v-5.027344c0-2.664062-.804687-5.136718-2.175781-7.199218-2.328125 3.507812-6.3125 5.824218-10.84375 5.824218zm0 0" fill="#87523e"/><path d="m138.5 320.925781h-68.269531c-7.257813 0-13.199219-5.9375-13.199219-13.199219v29.503907c0 7.257812 5.941406 13.199219 13.199219 13.199219h68.265625c7.261718 0 13.199218-5.941407 13.199218-13.199219v-29.503907c0 7.257813-5.9375 13.199219-13.195312 13.199219zm0 0" fill="#554e56"/><path d="m326.195312 102.015625c0-4.144531-3.359374-7.5-7.503906-7.5h-110.511718c-3.304688 0-6.21875 2.160156-7.175782 5.320313l-37.382812 123.15625-22.941406-48.546876c-1.238282-2.621093-3.878907-4.292968-6.78125-4.292968h-32.15625c-4.140626 0-7.5 3.355468-7.5 7.5 0 4.144531 3.359374 7.5 7.5 7.5h27.40625l29.222656 61.832031c2.925781 6.191406 11.972656 5.511719 13.957031-1.027344l41.414063-136.445312h104.949218c4.144532.003906 7.503906-3.355469 7.503906-7.496094zm0 0"/><path d="m323.996094 154.027344c-2.929688-2.929688-7.675782-2.929688-10.605469 0l-36.921875 36.917968-36.917969-36.917968c-2.929687-2.929688-7.679687-2.929688-10.609375 0-2.929687 2.929687-2.929687 7.675781 0 10.605468l36.921875 36.921876-36.921875 36.917968c-2.929687 2.933594-2.929687 7.679688 0 10.609375 2.929688 2.929688 7.679688 2.929688 10.609375 0l36.917969-36.921875 36.921875 36.921875c2.929687 2.929688 7.679687 2.929688 10.605469 0 2.929687-2.929687 2.929687-7.679687 0-10.609375l-36.917969-36.917968 36.917969-36.921876c2.929687-2.929687 2.929687-7.675781 0-10.605468zm0 0"/><path d="m26.386719 15h187.125c4.140625 0 7.5-3.355469 7.5-7.5s-3.359375-7.5-7.5-7.5h-187.125c-14.546875 0-26.386719 11.835938-26.386719 26.386719v293.019531c0 14.550781 11.839844 26.390625 26.386719 26.390625h26.027343c3.203126 7.300781 10.492188 12.421875 18.960938 12.421875h62.089844l-28.257813 107.71875h-1.835937c-11.3125 0-20.519532 9.203125-20.519532 20.519531v5.023438c0 11.316406 9.207032 20.519531 20.519532 20.519531h50.585937c11.3125 0 20.519531-9.203125 20.519531-20.519531v-5.023438c0-7.570312-4.132812-14.179687-10.246093-17.734375l32.25-122.925781h69.066406l32.246094 122.925781c-6.113281 3.554688-10.242188 10.164063-10.242188 17.734375v5.027344c0 11.3125 9.203125 20.519531 20.515625 20.519531h50.585938c11.3125 0 20.519531-9.207031 20.519531-20.519531v-5.027344c0-11.3125-9.203125-20.519531-20.519531-20.519531h-1.832032l-31.519531-120.140625h110.335938c14.550781 0 26.386719-11.839844 26.386719-26.386719v-293.023437c-.003907-14.550781-11.839844-26.386719-26.386719-26.386719h-187.125c-4.144531 0-7.5 3.355469-7.5 7.5s3.355469 7.5 7.5 7.5h187.121093c6.277344 0 11.386719 5.109375 11.386719 11.386719v293.019531c0 6.28125-5.105469 11.386719-11.386719 11.386719-3.429687 0-238.332031 0-244.941406 0h-32.347656v-16.0625h258.621094c7.71875 0 13.992187-6.273438 13.992187-13.992188v-108c0-4.144531-3.355469-7.5-7.5-7.5s-7.5 3.355469-7.5 7.5v106.992188h-259.6875c-2.523437-4.160157-7.132812-6.902344-12.242187-6.902344h-79.03125c-5.089844 0-9.707032 2.734375-12.230469 6.902344h-6.699219v-253.667969h369.890625v111.675781c0 4.140625 3.359375 7.5 7.5 7.5 4.144531 0 7.503907-3.359375 7.503907-7.5v-112.683593c0-7.714844-6.277344-13.992188-13.992188-13.992188h-371.914062c-7.714844 0-13.992188 6.277344-13.992188 13.992188v255.683593c0 7.71875 6.277344 13.992188 13.992188 13.992188h5.621093v16.0625h-24.289062c-6.277344 0-11.386719-5.105469-11.386719-11.386719v-293.019531c0-6.277344 5.109375-11.386719 11.386719-11.386719zm133.085937 476.480469c0 3.042969-2.476562 5.519531-5.515625 5.519531h-50.585937c-3.042969 0-5.519532-2.476562-5.519532-5.519531v-5.027344c0-3.039063 2.476563-5.515625 5.519532-5.515625h50.585937c3.027344 0 5.515625 2.460938 5.515625 5.515625zm204.699219-5.027344v5.027344c0 3.042969-2.476563 5.519531-5.519531 5.519531h-50.585938c-3.042968 0-5.515625-2.476562-5.515625-5.519531v-5.027344c0-3.050781 2.488281-5.515625 5.515625-5.515625h50.585938c3.042968 0 5.519531 2.476562 5.519531 5.515625zm-54.382813-140.660156 31.519532 120.140625h-28.738282l-31.515624-120.140625zm-128.820312 0-31.515625 120.140625h-28.738281l29.355468-111.898438c2.78125-2.105468 5.074219-4.90625 6.535157-8.242187zm-37.628906-37.964844v29.617187l-.023438.394532v.003906.011719c-.175781 2.9375-2.664062 5.363281-5.671875 5.363281h-66.269531c-2.949219 0-5.386719-2.257812-5.667969-5.136719-.003906-.070312 0-.140625-.003906-.214843l-.023437-30.039063zm0 0"/></svg>