<svg id="Layer_1_1_" enable-background="new 0 0 64 64" height="512" viewBox="0 0 64 64" width="512" xmlns="http://www.w3.org/2000/svg"><path d="m61 59c-8.36 0-14.93-2.71-20.17-6.95-1.75-5.38-2.58-13.21-3.21-21.05 5.88-14 7.88-28 11.38-28 7 0 1 56 12 56z" fill="#91cbd7"/><path d="m26.38 31c-.63 7.84-1.46 15.67-3.21 21.05-5.24 4.24-11.81 6.95-20.17 6.95 11 0 5-56 12-56 3.5 0 5.5 14 11.38 28z" fill="#91cbd7"/><path d="m47 59h-6-6-6-6-6c2.86 0 4.8-2.71 6.17-6.95 3.49-2.81 6.39-6.31 8.83-10.13 2.44 3.82 5.34 7.32 8.83 10.13 1.37 4.24 3.31 6.95 6.17 6.95z" fill="#4b425a"/><path d="m37.62 31c-1.56 3.73-3.4 7.46-5.62 10.92-2.22-3.46-4.06-7.19-5.62-10.92 1.12-14 1.62-28 5.62-28s4.5 14 5.62 28z" fill="#ed6571"/><path d="m40.83 52.05c5.24 4.24 11.81 6.95 20.17 6.95h-14c-2.86 0-4.8-2.71-6.17-6.95z" fill="#4e9bb9"/><path d="m3 59c8.36 0 14.93-2.71 20.17-6.95-1.37 4.24-3.31 6.95-6.17 6.95z" fill="#4e9bb9"/><g fill="#68607c"><path d="m37.62 31c.63 7.84 1.46 15.67 3.21 21.05-3.49-2.81-6.39-6.31-8.83-10.13 2.22-3.46 4.06-7.19 5.62-10.92z"/><path d="m26.38 31c1.56 3.73 3.4 7.46 5.62 10.92-2.44 3.82-5.34 7.32-8.83 10.13 1.75-5.38 2.58-13.21 3.21-21.05z"/><path d="m62 58h-60v2h2v2h2v-2h4v2h2v-2h4v2h2v-2h4v2h2v-2h4v2h2v-2h4v2h2v-2h4v2h2v-2h4v2h2v-2h4v2h2v-2h4v2h2v-2h2z"/></g></svg>