<svg xmlns="http://www.w3.org/2000/svg" height="511.99998pt" version="1.1" viewBox="1 1 511.99998 511.99998" width="511.99998pt">
<g id="surface1">
<path d="M 512 256 C 512 345.410156 466.160156 424.125 396.695312 469.910156 C 356.320312 496.515625 307.972656 512 256 512 C 114.613281 512 0 397.386719 0 256 C 0 114.613281 114.613281 0 256 0 C 305.234375 0 351.222656 13.898438 390.25 37.980469 C 463.308594 83.070312 512 163.851562 512 256 Z M 512 256 " style=" stroke:none;fill-rule:nonzero;fill:rgb(27.058824%,69.411765%,85.882353%);fill-opacity:1;" />
<path d="M 289.949219 274.472656 C 187.945312 274.472656 104.960938 357.460938 104.960938 459.460938 C 104.960938 460.558594 104.96875 461.644531 104.992188 462.734375 C 111.136719 467.238281 117.488281 471.46875 124.039062 475.40625 C 124.960938 475.960938 125.878906 476.503906 126.796875 477.039062 C 126.171875 471.257812 125.859375 465.398438 125.859375 459.460938 C 125.859375 368.984375 199.460938 295.371094 289.949219 295.371094 C 367.917969 295.371094 433.371094 350.039062 449.964844 423.070312 C 455.636719 416.496094 460.976562 409.632812 465.960938 402.496094 C 441.886719 328.277344 372.089844 274.472656 289.949219 274.472656 Z M 289.949219 274.472656 " style=" stroke:none;fill-rule:nonzero;fill:rgb(16.470588%,25.098039%,47.843137%);fill-opacity:1;" />
<path d="M 381.566406 71.292969 L 277.765625 511.082031 C 270.585938 511.6875 263.335938 512 256 512 C 254.109375 512 252.226562 511.980469 250.359375 511.925781 C 240.199219 511.71875 230.191406 510.902344 220.367188 509.535156 C 215.113281 508.800781 209.910156 507.914062 204.769531 506.871094 C 194.96875 504.875 185.363281 502.324219 176.011719 499.253906 C 170.964844 497.589844 165.980469 495.773438 161.070312 493.808594 C 151.613281 490.035156 142.429688 485.699219 133.570312 480.863281 C 131.292969 479.617188 129.035156 478.34375 126.796875 477.039062 C 125.878906 476.503906 124.960938 475.960938 124.039062 475.40625 C 122.453125 474.457031 120.882812 473.484375 119.316406 472.492188 C 114.425781 469.398438 109.652344 466.148438 104.992188 462.734375 C 102.902344 461.207031 100.832031 459.640625 98.796875 458.050781 C 84.40625 446.839844 71.25 434.132812 59.558594 420.152344 L 54.617188 418.984375 L 55.515625 415.191406 C 51.199219 409.765625 47.105469 404.175781 43.238281 398.410156 C 39.988281 393.550781 36.894531 388.585938 33.96875 383.507812 C 29.527344 375.785156 25.476562 367.816406 21.839844 359.613281 C 21.484375 358.808594 21.128906 358.003906 20.78125 357.199219 C 14.492188 342.582031 9.519531 327.273438 6.007812 311.410156 L 57.144531 94.78125 L 79.515625 0 L 159.398438 18.851562 Z M 381.566406 71.292969 " style=" stroke:none;fill-rule:nonzero;fill:rgb(86.27451%,92.54902%,97.647059%);fill-opacity:1;" />
<path d="M 96.113281 44.972656 L 125.054688 51.800781 L 108.40625 122.34375 L 79.464844 115.515625 Z M 96.113281 44.972656 " style=" stroke:none;fill-rule:nonzero;fill:rgb(38.431373%,75.686275%,83.921569%);fill-opacity:1;" />
<path d="M 140.425781 55.429688 L 169.367188 62.261719 L 152.71875 132.804688 L 123.78125 125.972656 Z M 140.425781 55.429688 " style=" stroke:none;fill-rule:nonzero;fill:rgb(38.431373%,75.686275%,83.921569%);fill-opacity:1;" />
<path d="M 184.742188 65.890625 L 213.683594 72.71875 L 197.035156 143.261719 L 168.09375 136.433594 Z M 184.742188 65.890625 " style=" stroke:none;fill-rule:nonzero;fill:rgb(38.431373%,75.686275%,83.921569%);fill-opacity:1;" />
<path d="M 229.058594 76.347656 L 257.996094 83.179688 L 241.351562 153.71875 L 212.410156 146.890625 Z M 229.058594 76.347656 " style=" stroke:none;fill-rule:nonzero;fill:rgb(38.431373%,75.686275%,83.921569%);fill-opacity:1;" />
<path d="M 273.371094 86.808594 L 302.3125 93.636719 L 285.664062 164.179688 L 256.722656 157.347656 Z M 273.371094 86.808594 " style=" stroke:none;fill-rule:nonzero;fill:rgb(38.431373%,75.686275%,83.921569%);fill-opacity:1;" />
<path d="M 317.6875 97.265625 L 346.628906 104.097656 L 329.980469 174.636719 L 301.039062 167.808594 Z M 317.6875 97.265625 " style=" stroke:none;fill-rule:nonzero;fill:rgb(38.431373%,75.686275%,83.921569%);fill-opacity:1;" />
<path d="M 73.058594 142.644531 L 102 149.476562 L 85.351562 220.019531 L 56.410156 213.1875 Z M 73.058594 142.644531 " style=" stroke:none;fill-rule:nonzero;fill:rgb(38.431373%,75.686275%,83.921569%);fill-opacity:1;" />
<path d="M 117.375 153.105469 L 146.316406 159.933594 L 129.667969 230.476562 L 100.726562 223.648438 Z M 117.375 153.105469 " style=" stroke:none;fill-rule:nonzero;fill:rgb(38.431373%,75.686275%,83.921569%);fill-opacity:1;" />
<path d="M 161.691406 163.5625 L 190.632812 170.394531 L 173.984375 240.933594 L 145.042969 234.105469 Z M 161.691406 163.5625 " style=" stroke:none;fill-rule:nonzero;fill:rgb(38.431373%,75.686275%,83.921569%);fill-opacity:1;" />
<path d="M 206.003906 174.023438 L 234.945312 180.851562 L 218.296875 251.394531 L 189.355469 244.566406 Z M 206.003906 174.023438 " style=" stroke:none;fill-rule:nonzero;fill:rgb(38.431373%,75.686275%,83.921569%);fill-opacity:1;" />
<path d="M 250.320312 184.480469 L 279.261719 191.3125 L 262.613281 261.855469 L 233.671875 255.023438 Z M 250.320312 184.480469 " style=" stroke:none;fill-rule:nonzero;fill:rgb(38.431373%,75.686275%,83.921569%);fill-opacity:1;" />
<path d="M 294.636719 194.941406 L 323.574219 201.769531 L 306.929688 272.3125 L 277.988281 265.484375 Z M 294.636719 194.941406 " style=" stroke:none;fill-rule:nonzero;fill:rgb(38.431373%,75.686275%,83.921569%);fill-opacity:1;" />
<path d="M 50.007812 240.320312 L 78.949219 247.152344 L 62.300781 317.691406 L 33.359375 310.863281 Z M 50.007812 240.320312 " style=" stroke:none;fill-rule:nonzero;fill:rgb(38.431373%,75.686275%,83.921569%);fill-opacity:1;" />
<path d="M 94.324219 250.777344 L 123.265625 257.609375 L 106.617188 328.152344 L 77.675781 321.320312 Z M 94.324219 250.777344 " style=" stroke:none;fill-rule:nonzero;fill:rgb(38.431373%,75.686275%,83.921569%);fill-opacity:1;" />
<path d="M 138.636719 261.238281 L 167.578125 268.066406 L 150.929688 338.609375 L 121.988281 331.78125 Z M 138.636719 261.238281 " style=" stroke:none;fill-rule:nonzero;fill:rgb(38.431373%,75.686275%,83.921569%);fill-opacity:1;" />
<path d="M 182.953125 271.695312 L 211.894531 278.527344 L 195.246094 349.070312 L 166.304688 342.238281 Z M 182.953125 271.695312 " style=" stroke:none;fill-rule:nonzero;fill:rgb(38.431373%,75.686275%,83.921569%);fill-opacity:1;" />
<path d="M 227.269531 282.15625 L 256.210938 288.984375 L 239.5625 359.527344 L 210.621094 352.699219 Z M 227.269531 282.15625 " style=" stroke:none;fill-rule:nonzero;fill:rgb(38.431373%,75.686275%,83.921569%);fill-opacity:1;" />
<path d="M 271.582031 292.613281 L 300.523438 299.445312 L 283.875 369.984375 L 254.9375 363.15625 Z M 271.582031 292.613281 " style=" stroke:none;fill-rule:nonzero;fill:rgb(38.431373%,75.686275%,83.921569%);fill-opacity:1;" />
<path d="M 55.890625 344.804688 L 43.238281 398.410156 C 39.988281 393.550781 36.894531 388.585938 33.96875 383.507812 C 29.527344 375.785156 25.476562 367.816406 21.839844 359.613281 L 26.949219 337.984375 Z M 55.890625 344.804688 " style=" stroke:none;fill-rule:nonzero;fill:rgb(38.431373%,75.686275%,83.921569%);fill-opacity:1;" />
<path d="M 100.207031 355.265625 L 83.550781 425.804688 L 59.558594 420.152344 L 54.617188 418.984375 L 55.515625 415.191406 L 71.261719 348.441406 Z M 100.207031 355.265625 " style=" stroke:none;fill-rule:nonzero;fill:rgb(38.431373%,75.686275%,83.921569%);fill-opacity:1;" />
<path d="M 115.585938 358.910156 L 144.527344 365.742188 L 127.878906 436.285156 L 98.9375 429.453125 Z M 115.585938 358.910156 " style=" stroke:none;fill-rule:nonzero;fill:rgb(38.431373%,75.686275%,83.921569%);fill-opacity:1;" />
<path d="M 159.902344 369.371094 L 188.84375 376.203125 L 172.195312 446.742188 L 143.253906 439.914062 Z M 159.902344 369.371094 " style=" stroke:none;fill-rule:nonzero;fill:rgb(38.431373%,75.686275%,83.921569%);fill-opacity:1;" />
<path d="M 204.214844 379.828125 L 233.15625 386.660156 L 216.507812 457.203125 L 187.566406 450.371094 Z M 204.214844 379.828125 " style=" stroke:none;fill-rule:nonzero;fill:rgb(38.431373%,75.686275%,83.921569%);fill-opacity:1;" />
<path d="M 248.53125 390.289062 L 277.472656 397.117188 L 260.824219 467.660156 L 231.882812 460.832031 Z M 248.53125 390.289062 " style=" stroke:none;fill-rule:nonzero;fill:rgb(38.431373%,75.686275%,83.921569%);fill-opacity:1;" />
<path d="M 121.457031 463.402344 L 119.316406 472.492188 C 114.425781 469.398438 109.652344 466.148438 104.992188 462.734375 C 102.902344 461.207031 100.832031 459.640625 98.796875 458.050781 Z M 121.457031 463.402344 " style=" stroke:none;fill-rule:nonzero;fill:rgb(38.431373%,75.686275%,83.921569%);fill-opacity:1;" />
<path d="M 165.773438 473.859375 L 161.070312 493.808594 C 151.613281 490.035156 142.429688 485.699219 133.570312 480.863281 L 136.839844 467.027344 Z M 165.773438 473.859375 " style=" stroke:none;fill-rule:nonzero;fill:rgb(38.431373%,75.686275%,83.921569%);fill-opacity:1;" />
<path d="M 210.085938 484.320312 L 204.769531 506.871094 C 194.96875 504.875 185.363281 502.324219 176.011719 499.253906 L 181.144531 477.488281 Z M 210.085938 484.320312 " style=" stroke:none;fill-rule:nonzero;fill:rgb(38.431373%,75.686275%,83.921569%);fill-opacity:1;" />
<path d="M 254.402344 494.78125 L 250.359375 511.925781 C 240.199219 511.71875 230.191406 510.902344 220.367188 509.535156 L 225.457031 487.945312 Z M 254.402344 494.78125 " style=" stroke:none;fill-rule:nonzero;fill:rgb(38.431373%,75.686275%,83.921569%);fill-opacity:1;" />
<path d="M 411.386719 459.460938 C 406.613281 463.109375 401.710938 466.597656 396.683594 469.910156 C 362.015625 492.761719 321.453125 507.414062 277.765625 511.082031 C 270.585938 511.6875 263.335938 512 256 512 C 254.109375 512 252.226562 511.980469 250.359375 511.925781 C 240.199219 511.71875 230.191406 510.902344 220.367188 509.535156 C 215.113281 508.800781 209.910156 507.914062 204.769531 506.871094 C 194.96875 504.875 185.363281 502.324219 176.011719 499.253906 C 170.964844 497.589844 165.980469 495.773438 161.070312 493.808594 C 151.613281 490.035156 142.429688 485.699219 133.570312 480.863281 C 131.292969 479.617188 129.035156 478.34375 126.796875 477.039062 C 125.878906 476.503906 124.960938 475.960938 124.039062 475.40625 C 122.453125 474.457031 120.882812 473.484375 119.316406 472.492188 C 114.425781 469.398438 109.652344 466.148438 104.992188 462.734375 C 103.527344 461.667969 102.074219 460.570312 100.632812 459.460938 Z M 411.386719 459.460938 " style=" stroke:none;fill-rule:nonzero;fill:rgb(85.882353%,46.666667%,20.392157%);fill-opacity:1;" />
<path d="M 424.175781 449.011719 C 420.027344 452.628906 415.765625 456.117188 411.386719 459.460938 C 406.613281 463.109375 401.710938 466.597656 396.683594 469.910156 L 276.742188 469.910156 L 380.09375 32.035156 L 385.484375 9.195312 L 405.828125 14 L 398.859375 43.53125 L 303.144531 449.011719 Z M 424.175781 449.011719 " style=" stroke:none;fill-rule:nonzero;fill:rgb(16.470588%,25.098039%,47.843137%);fill-opacity:1;" />
</g>
</svg>