<svg id="Capa_1" enable-background="new 0 0 512 512" height="512" viewBox="0 0 512 512" width="512" xmlns="http://www.w3.org/2000/svg"><g><g><path d="m504.5 87.958v391.762c0 13.295-10.772 24.067-24.067 24.067h-448.866c-13.284 0-24.067-10.772-24.067-24.067v-391.762c0-13.295 10.783-24.078 24.067-24.078h448.867c13.294.001 24.066 10.783 24.066 24.078z" fill="#6c7fd8"/><path d="m480.433 63.881h-24.238c13.295 0 24.067 10.783 24.067 24.078v391.762c0 13.295-10.772 24.067-24.067 24.067h24.238c13.295 0 24.067-10.772 24.067-24.067v-391.763c0-13.295-10.772-24.077-24.067-24.077z" fill="#4f66d0"/><path d="m504.5 381.643v98.078c0 13.295-10.772 24.067-24.067 24.067h-448.866c-13.284 0-24.067-10.772-24.067-24.067v-98.078z" fill="#c4e3ff"/><path d="m7.5 259.509h497v122.134h-497z" fill="#e2f1fe"/><path d="m7.5 137.364h497v122.145h-497z" fill="#c4e3ff"/><path d="m504.5 381.639v98.08c0 13.3-10.77 24.07-24.07 24.07h-448.86c-13.29 0-24.07-10.77-24.07-24.07v-98.08z" fill="#c4e3ff"/><path d="m504.5 381.639v98.08c0 13.3-10.77 24.07-24.07 24.07h-199.9v-122.15z" fill="#8ac9fe"/><path d="m280.527 259.509h223.973v122.134h-223.973z" fill="#c4e3ff"/><path d="m280.527 137.364h223.973v122.145h-223.973z" fill="#8ac9fe"/><path d="m304.721 503.787h175.713c13.295 0 24.067-10.772 24.067-24.067v-342.356h-199.78z" fill="#fd6930"/><path d="m480.262 137.364v342.357c0 13.295-10.772 24.067-24.067 24.067h24.238c13.295 0 24.067-10.772 24.067-24.067v-342.357z" fill="#fd5426"/><g fill="#5c798e"><path d="m92.218 94.426h-2.205c-7.78 0-14.086-6.307-14.086-14.086v-58.043c0-7.78 6.307-14.086 14.086-14.086h2.205c7.78 0 14.086 6.307 14.086 14.086v58.043c0 7.779-6.307 14.086-14.086 14.086z"/><path d="m420.901 94.426h-2.205c-7.78 0-14.086-6.307-14.086-14.086v-58.043c0-7.78 6.307-14.086 14.086-14.086h2.205c7.78 0 14.086 6.307 14.086 14.086v58.043c.001 7.779-6.306 14.086-14.086 14.086z"/></g></g><g><path d="m74.912 229.839c11.722 0 21.569-7.508 23.416-17.853 1.396-7.814-2.113-18.009-16.145-23.185-6.484-2.392-12.53-4.994-14.521-5.863-1.042-.892-1.06-2.072-.965-2.735.116-.804.712-2.774 3.744-3.688 7.172-2.162 13.896 3.114 14.112 3.287 3.17 2.625 7.87 2.204 10.523-.952 2.665-3.171 2.255-7.902-.915-10.567-.522-.438-12.941-10.68-28.047-6.13-7.724 2.327-13.189 8.426-14.266 15.918-1.012 7.048 2.045 13.83 7.977 17.697.331.216.679.405 1.04.567.313.139 7.751 3.45 16.126 6.539 1.7.627 7.199 2.948 6.569 6.475-.481 2.698-3.849 5.489-8.649 5.489-5.14 0-10.077-2.063-13.208-5.518-2.781-3.07-7.524-3.304-10.594-.522s-3.303 7.524-.521 10.594c6.016 6.64 14.882 10.447 24.324 10.447z"/><path d="m163.165 228.961c4.143 0 7.5-3.358 7.5-7.5v-26.34c0-12.276 5.009-20.208 12.761-20.208 3.793 0 5.479 1.282 6.416 2.246 2.711 2.787 4.08 8.756 3.857 16.808-.002.069-.003.138-.003.208v27.028c0 4.142 3.357 7.5 7.5 7.5s7.5-3.358 7.5-7.5v-26.927c.327-12.434-2.398-21.711-8.102-27.575-4.319-4.44-10.256-6.787-17.169-6.787-4.655 0-9.322 1.241-13.468 3.81-1.194-2.559-3.783-4.336-6.793-4.336-4.143 0-7.5 3.358-7.5 7.5v54.575c.001 4.141 3.358 7.498 7.501 7.498z"/><path d="m126.499 229.839c4.143 0 7.5-3.358 7.5-7.5v-56.331c0-4.142-3.357-7.5-7.5-7.5s-7.5 3.358-7.5 7.5v56.331c0 4.142 3.357 7.5 7.5 7.5z"/><path d="m106.167 335.81c-3.176-2.662-7.905-2.245-10.565.929-.465.554-.967 1.073-1.49 1.54-2.688 2.394-6.132 3.607-10.233 3.607-11.155 0-20.231-9.076-20.231-20.232s9.076-20.232 20.231-20.232c4.055 0 7.965 1.193 11.308 3.451 3.432 2.319 8.094 1.416 10.413-2.017 2.318-3.433 1.416-8.095-2.017-10.413-5.832-3.939-12.646-6.021-19.704-6.021-19.427 0-35.231 15.805-35.231 35.232s15.805 35.232 35.231 35.232c7.78 0 14.769-2.561 20.212-7.409 1.066-.951 2.078-1.995 3.006-3.102 2.66-3.174 2.244-7.904-.93-10.565z"/><path d="m244.993 315.051c-6.656-2.455-12.861-5.127-14.877-6.008-1.191-1.008-1.148-2.385-1.065-2.965.123-.854.753-2.946 3.946-3.908 7.435-2.237 14.379 3.226 14.585 3.391 3.171 2.625 7.871 2.206 10.524-.951 2.665-3.171 2.256-7.902-.915-10.567-.53-.445-13.16-10.862-28.521-6.235-7.834 2.36-13.378 8.544-14.468 16.139-1.025 7.142 2.071 14.012 8.081 17.929.331.216.679.405 1.04.566.319.143 7.92 3.526 16.478 6.683 1.77.653 7.492 3.073 6.825 6.809-.505 2.827-4.013 5.751-9.011 5.751-5.301 0-10.396-2.13-13.631-5.699-2.783-3.07-7.526-3.301-10.594-.52-3.068 2.782-3.302 7.525-.52 10.594 6.12 6.752 15.14 10.625 24.744 10.625 11.903 0 21.903-7.619 23.777-18.115 1.418-7.924-2.148-18.262-16.398-23.519z"/><path d="m159.525 286.422c-19.427 0-35.232 15.805-35.232 35.232s15.806 35.232 35.232 35.232 35.231-15.805 35.231-35.232-15.804-35.232-35.231-35.232zm0 55.464c-11.156 0-20.232-9.076-20.232-20.232s9.076-20.232 20.232-20.232c11.155 0 20.231 9.076 20.231 20.232s-9.075 20.232-20.231 20.232z"/><path d="m80.006 430.463h-4.483v-14.005c0-4.142-3.357-7.5-7.5-7.5s-7.5 3.358-7.5 7.5v14.005h-4.376c-4.143 0-7.5 3.358-7.5 7.5s3.357 7.5 7.5 7.5h4.376v29.978c0 4.142 3.357 7.5 7.5 7.5s7.5-3.358 7.5-7.5v-29.978h4.483c4.143 0 7.5-3.358 7.5-7.5s-3.358-7.5-7.5-7.5z"/><path d="m230.863 419.344c-4.384-4.506-10.412-6.888-17.434-6.888-4.788 0-9.59 1.291-13.842 3.969-1.156-2.652-3.797-4.507-6.875-4.507-4.143 0-7.5 3.358-7.5 7.5v55.803c0 4.142 3.357 7.5 7.5 7.5s7.5-3.358 7.5-7.5v-26.933c0-12.655 5.188-20.832 13.217-20.832 3.942 0 5.701 1.34 6.682 2.347 2.803 2.882 4.221 9.029 3.992 17.309-.002.069-.003.138-.003.208v27.636c0 4.142 3.357 7.5 7.5 7.5s7.5-3.358 7.5-7.5v-27.536c.334-12.668-2.437-22.114-8.237-28.076z"/><path d="m156.647 411.696c-4.143 0-7.5 3.358-7.5 7.5v.855c-5.011-3.194-10.951-5.054-17.321-5.054-17.822 0-32.322 14.5-32.322 32.322s14.5 32.322 32.322 32.322c6.37 0 12.311-1.86 17.321-5.054v.855c0 4.142 3.357 7.5 7.5 7.5s7.5-3.358 7.5-7.5v-56.245c0-4.143-3.357-7.501-7.5-7.501zm-24.821 52.945c-9.552 0-17.322-7.771-17.322-17.322s7.771-17.322 17.322-17.322 17.321 7.771 17.321 17.322-7.77 17.322-17.321 17.322z"/><path d="m387.579 368.178c19.915 0 32.124-16.44 33.544-18.455l8.166-10.936c4.751 9.303 8.432 16.939 8.84 17.787 1.987 4.368 7.802 11.604 17.301 11.604 9.158 0 16.056-8.041 16.774-19.553.258-4.134-2.884-7.695-7.019-7.953-4.134-.271-7.694 2.885-7.952 7.018-.206 3.301-1.396 5.121-1.867 5.486-2.039-.049-3.4-2.479-3.607-2.872-.026-.064-.011-.021-.067-.139-.063-.131-5.755-11.988-12.423-24.743l19.748-26.447c2.478-3.319 1.797-8.019-1.522-10.497s-8.019-1.796-10.497 1.522l-37.964 50.843c-.066.089-.131.179-.192.271-.082.121-8.557 12.063-21.262 12.063-19.803 0-26.829-16.399-26.829-30.442 0-21.633 14.727-32.248 24.68-32.611 8.133-.304 14.604 2.559 20.338 8.988 2.758 3.091 7.499 3.364 10.59.606 3.091-2.757 3.362-7.498.605-10.589-8.69-9.746-19.498-14.453-32.08-13.995-9.644.352-19.374 5.208-26.697 13.324-5.673 6.288-12.436 17.338-12.436 34.277-.001 26.756 17.2 45.443 41.828 45.443z"/><path d="m335.471 107.71c4.143 0 7.5-3.358 7.5-7.5s-3.357-7.5-7.5-7.5h-145.409c-4.143 0-7.5 3.358-7.5 7.5s3.357 7.5 7.5 7.5z"/><path d="m480.43 56.379h-37.942v-34.082c0-11.902-9.684-21.586-21.586-21.586h-2.205c-11.902 0-21.586 9.684-21.586 21.586v34.082h-255.474c-4.143 0-7.5 3.358-7.5 7.5s3.357 7.5 7.5 7.5h255.473v8.961c0 11.903 9.684 21.586 21.586 21.586h2.205c11.902 0 21.586-9.684 21.586-21.586v-8.961h37.942c9.137 0 16.57 7.438 16.57 16.58v41.9h-481.999v-41.9c0-9.142 7.434-16.58 16.57-16.58h36.856v8.961c0 11.903 9.684 21.586 21.586 21.586h2.205c11.902 0 21.586-9.684 21.586-21.586v-58.043c0-11.902-9.684-21.586-21.586-21.586h-2.205c-11.902 0-21.586 9.684-21.586 21.586v34.082h-36.856c-17.408 0-31.57 14.166-31.57 31.58v391.76c0 17.408 14.162 31.57 31.57 31.57h448.86c9.792 0 18.557-4.481 24.353-11.5 4.507-5.459 7.218-12.453 7.218-20.068v-.001-391.761c-.001-17.414-14.163-31.58-31.571-31.58zm-52.943 23.961c0 3.632-2.954 6.586-6.586 6.586h-2.205c-3.632 0-6.586-2.955-6.586-6.586v-58.043c0-3.631 2.954-6.586 6.586-6.586h2.205c3.632 0 6.586 2.955 6.586 6.586zm-337.474-64.629h2.205c3.632 0 6.586 2.955 6.586 6.586v58.043c0 3.632-2.954 6.586-6.586 6.586h-2.205c-3.632 0-6.586-2.955-6.586-6.586v-16.403c0-.02.003-.039.003-.058s-.003-.038-.003-.058v-41.524c0-3.631 2.954-6.586 6.586-6.586zm-75.013 251.298h282.221v107.13h-282.221zm282.221-122.15v107.15h-282.221v-107.15zm-282.221 334.86v-90.58h282.221v52.824c0 4.142 3.357 7.5 7.5 7.5s7.5-3.358 7.5-7.5v-297.1h184.779v114.645 122.13 98.08c0 5.139-2.352 9.739-6.036 12.781-2.865 2.365-6.535 3.787-10.531 3.787h-168.212v-18.265c0-4.142-3.357-7.5-7.5-7.5s-7.5 3.358-7.5 7.5v18.267h-265.651c-9.136.001-16.57-7.432-16.57-16.569z"/></g></g></svg>