<?xml version="1.0" encoding="iso-8859-1"?>
<!-- Generator: Adobe Illustrator 19.0.0, SVG Export Plug-In . SVG Version: 6.00 Build 0)  -->
<svg version="1.1" id="Capa_1" xmlns="http://www.w3.org/2000/svg" xmlns:xlink="http://www.w3.org/1999/xlink" x="0px" y="0px"
	 viewBox="0 0 480 480" style="enable-background:new 0 0 480 480;" xml:space="preserve">
<path style="fill:#FFA442;" d="M104,200c-53.02,0-96-10.745-96-24v271.998V448c0,13.255,42.98,24,96,24s96-10.745,96-24v-8.107V176
	C200,189.255,157.02,200,104,200z"/>
<polygon style="fill:#97DAF7;" points="432,472 472,432 472,72 432,104 "/>
<path style="fill:#FFA442;" d="M104,200c53.02,0,96-10.745,96-24h-0.002H200c0-0.744-0.18-1.478-0.445-2.204
	c-0.079-0.216-0.189-0.431-0.292-0.646c-0.253-0.534-0.576-1.061-0.967-1.583c-0.157-0.208-0.297-0.418-0.475-0.625
	c-0.59-0.687-1.268-1.366-2.087-2.029c-0.128-0.104-0.293-0.203-0.427-0.306c-0.728-0.562-1.541-1.115-2.427-1.658
	c-0.378-0.231-0.783-0.459-1.188-0.687c-0.751-0.422-1.555-0.836-2.399-1.246c-0.462-0.223-0.906-0.449-1.395-0.668
	c-1.254-0.563-2.581-1.115-4.005-1.648c-0.551-0.207-1.161-0.401-1.737-0.603c-0.988-0.347-1.997-0.689-3.056-1.021
	c-0.794-0.249-1.614-0.493-2.447-0.734c-0.939-0.272-1.912-0.536-2.898-0.797c-0.907-0.24-1.8-0.483-2.745-0.713
	c-1.441-0.352-2.943-0.687-4.471-1.016c-1.354-0.291-2.753-0.567-4.17-0.839c-0.966-0.186-1.932-0.371-2.927-0.547
	c-1.245-0.221-2.513-0.433-3.8-0.639c-0.951-0.152-1.925-0.296-2.898-0.44c-3.315-0.49-6.729-0.943-10.285-1.332l0,0
	C130.677,152.728,117.686,152,104,152c-53.02,0-96,10.745-96,24S50.98,200,104,200z"/>
<path style="fill:#3581C4;" d="M192,8l-49.542,146.018c3.557,0.39,6.968,0.842,10.285,1.332c0.974,0.144,1.946,0.289,2.898,0.44
	c1.288,0.206,2.554,0.418,3.8,0.639c0.995,0.176,1.96,0.361,2.927,0.547c1.417,0.272,2.817,0.548,4.17,0.839
	c1.528,0.328,3.028,0.665,4.471,1.016c0.946,0.23,1.838,0.474,2.745,0.713c0.987,0.261,1.958,0.525,2.898,0.797
	c0.833,0.242,1.653,0.484,2.447,0.734c1.06,0.333,2.066,0.675,3.056,1.021c0.576,0.202,1.186,0.396,1.737,0.603
	c1.427,0.534,2.75,1.086,4.005,1.648c0.489,0.219,0.933,0.445,1.395,0.668c0.845,0.409,1.647,0.824,2.399,1.246
	c0.406,0.228,0.811,0.455,1.188,0.687c0.887,0.543,1.698,1.096,2.427,1.658c0.134,0.103,0.298,0.202,0.427,0.306
	c0.82,0.664,1.497,1.343,2.087,2.029c0.178,0.207,0.318,0.417,0.475,0.625c0.391,0.522,0.713,1.05,0.967,1.583
	c0.102,0.215,0.212,0.429,0.292,0.646c0.266,0.727,0.445,1.46,0.445,2.204v263.893c28.895-0.31,52.588-2.259,72-4.892V222.737L192,8
	z"/>
<g>
	<polygon style="fill:#97DAF7;" points="272,104 272,222.737 272,435.001 272,472 432,472 432,104 	"/>
	<polygon style="fill:#97DAF7;" points="272,104 432,104 472,72 312,72 	"/>
</g>
<path d="M21.188,427.234l5.625,14.984c2.125-0.797,4.445-1.555,6.953-2.273l-4.391-15.391
	C26.414,425.398,23.688,426.297,21.188,427.234z"/>
<path d="M111.891,432.086c5.438,0.109,10.75,0.344,15.883,0.672l1.016-15.969c-5.352-0.344-10.883-0.578-16.555-0.703
	L111.891,432.086z"/>
<path d="M143.523,434.172c5.5,0.641,10.703,1.414,15.555,2.297l2.875-15.734c-5.195-0.953-10.773-1.773-16.57-2.453L143.523,434.172
	z"/>
<path d="M79.086,416.789l1.047,15.969c5.125-0.336,10.43-0.57,15.867-0.68l-0.344-16C89.984,416.203,84.445,416.438,79.086,416.789z
	"/>
<path d="M45.945,420.75l2.875,15.734c4.852-0.883,10.055-1.656,15.555-2.297l-1.859-15.891
	C56.719,418.977,51.141,419.797,45.945,420.75z"/>
<path d="M174.242,439.945c2.5,0.711,4.813,1.469,6.938,2.273l5.656-14.969c-2.5-0.945-5.234-1.844-8.203-2.695L174.242,439.945z"/>
<path d="M479.547,69.352C478.422,66.148,475.398,64,472,64H312c-1.82,0-3.578,0.617-5,1.75l-40,32l0.077,0.096
	C265.246,99.312,264,101.469,264,104v74.34L199.5,5.211C198.328,2.07,195.336,0,192,0c-0.039,0-0.078,0-0.117,0
	c-3.383,0.055-6.375,2.227-7.461,5.43l-47.517,140.055C125.22,144.435,113.756,144,104,144c-38.625,0-104,6.742-104,32v272
	c0,25.258,65.375,32,104,32s104-6.742,104-32v-0.3c19.771-0.428,38.521-1.67,56-3.704V472c0,4.422,3.578,8,8,8h160
	c2.216,0,4.219-0.901,5.667-2.354l39.99-39.99c1.5-1.5,2.344-3.531,2.344-5.656V72h-0.03
	C479.97,71.113,479.852,70.221,479.547,69.352z M314.805,80h134.391l-20.007,16h-134.38L314.805,80z M104,160
	c51.727,0,83.25,9.969,87.75,16c-4.5,6.031-36.023,16-87.75,16s-83.25-9.969-87.75-16C20.75,169.969,52.273,160,104,160z M104,464
	c-53.398,0-85.266-10.625-88-16V194.431C37.832,204.767,77.296,208,104,208c26.707,0,66.176-3.234,88.007-13.573l0.095,253.002
	C189.266,453.375,157.398,464,104,464z M208,431.707V176c0-15.917-25.966-24.471-54.835-28.628l39.187-115.512L264,224.18v203.781
	C246.63,430.044,227.812,431.267,208,431.707z M424,464H280v-29V222.734V112h144V464z M440,452.688V107.85l24-19.2v340.038
	L440,452.688z"/>
<g>
</g>
<g>
</g>
<g>
</g>
<g>
</g>
<g>
</g>
<g>
</g>
<g>
</g>
<g>
</g>
<g>
</g>
<g>
</g>
<g>
</g>
<g>
</g>
<g>
</g>
<g>
</g>
<g>
</g>
</svg>
