<svg id="Capa_1" enable-background="new 0 0 512.52 512.52" height="512" viewBox="0 0 512.52 512.52" width="512" xmlns="http://www.w3.org/2000/svg"><g><g><g><g id="XMLID_424_"><g><path d="m351.451 115.062v143.99c0 9.04-2.41 17.92-6.97 25.72l-8.17 13.94c-.71 1.21-1.08 2.59-1.08 3.99v127.267c0 6.149-5.023 11.114-11.172 11.042l-105.864-1.241c-6.048-.071-10.913-4.994-11.702-11.129l-.107-130.806.789-182.773z" fill="#eb9c8d"/></g></g></g><g><g id="XMLID_423_"><g><path d="m253.411 140.842c0 22.282 18.128 40.41 40.41 40.41 5.596 0 10.928-1.145 15.778-3.212 6.889 5.453 15.583 8.721 25.031 8.721 6.001 0 11.695-1.325 16.82-3.681v-68.018h-98.04v25.78z" fill="#d78878"/><path d="m289.385 187.952-1.429-1.72c3.146-5.486 4.824-11.815 4.702-18.412-.112-6.352-1.928-12.572-5.232-17.959-3.304-5.404-8.003-9.843-13.575-12.83l-40.923-21.969h-6.338v158.637h26.77c26.92 0 48.91-21.512 49.49-48.426 0-.021.001-.031.001-.031 0-13.586-4.781-26.827-13.466-37.29z" fill="#d78878"/><g fill="#9b8e99"><path d="m206.385 120.062h-178.521c-10.704 0-19.382 8.677-19.382 19.381s8.677 19.381 19.382 19.381h178.522v-38.762z"/><path d="m485.638 120.062h-151.007v38.763h151.008c10.704 0 19.382-8.677 19.382-19.381-.001-10.705-8.678-19.382-19.383-19.382z"/></g><path d="m273.412 98.783v33.533c0 11.271-9.131 20.412-20.402 20.412s-20.412-9.141-20.412-20.412v-40.374c0-11.271 9.141-20.402 20.412-20.402 5.63 0 10.731 2.28 14.431 5.971 3.69 3.7 5.971 8.801 5.971 14.431z" fill="#eb9c8d"/><path d="m234.295 95.938v36.32c0 12.208-9.89 22.108-22.098 22.108s-22.108-9.901-22.108-26.058v-43.729c0-8.258 9.901-18.148 22.108-18.148 6.098 0 11.623 2.47 15.631 6.467 3.997 4.008 6.467 9.532 6.467 15.631z" fill="#eb9c8d"/><path d="m206.385 127.939v-43.729c0-6.17 5.537-13.251 13.424-16.437-2.372-.868-4.941-1.341-7.612-1.341-12.208 0-22.108 9.89-22.108 18.148v43.729c0 16.157 9.9 26.058 22.108 26.058 3.076 0 6.004-.63 8.665-1.766-8.449-3.257-14.477-12.054-14.477-24.662z" fill="#d78878"/><path d="m260.451 184.422 13.55 16.31c5.72 6.89 8.85 15.56 8.85 24.51v31.01c0 22.025-17.855 39.88-39.88 39.88l-36.58.78-55.86-63.27c-16.41-18.59-20.08-45.21-9.31-67.54l15.49-32.13c7.75-16.08 27.34-22.45 43.06-14.01l64.62 34.69c2.5 1.34 4.54 3.3 5.97 5.64 1.43 2.33 2.25 5.05 2.3 7.88.11 5.88-3.08 11.33-8.26 14.12z" fill="#eb9c8d"/><g fill="#d78878"><path d="m211.63 261.071-24.216-27.429c-16.41-18.59-20.08-45.21-9.31-67.54l15.49-32.13c2.384-4.945 5.89-8.968 10.056-11.928l-3.878-2.082c-15.72-8.44-35.31-2.07-43.06 14.01l-15.49 32.13c-10.77 22.33-7.1 48.95 9.31 67.54l55.86 63.27 5.239-.112v-35.729z"/><path d="m255.063 440.141c-7.19-3.665-11.687-11.084-11.694-19.154l-.094-120.555c-.002-2.27-.832-4.462-2.334-6.163l-34.371-38.931-.183 42.497.107 130.806c.789 6.135 5.654 11.058 11.702 11.129l36.992.434c-.001 0-.045-.021-.125-.063z"/></g></g></g><g id="XMLID_425_"><g fill="#eb9c8d"><path d="m314.221 107.312v33.53c0 11.27-9.13 20.41-20.4 20.41s-20.41-9.14-20.41-20.41v-40.37c0-11.27 9.14-20.4 20.41-20.4 5.63 0 10.73 2.28 14.43 5.97 3.69 3.7 5.97 8.8 5.97 14.43z"/><path d="m355.041 107.312v39.04c0 11.27-9.14 20.41-20.41 20.41s-20.41-9.14-20.41-20.41v-5.51-33.53c0-11.27 9.14-20.41 20.41-20.41 5.64 0 10.74 2.28 14.43 5.98 3.69 3.69 5.98 8.8 5.98 14.43z"/></g></g><g id="XMLID_426_"><g fill="#d78878"><path d="m289.707 140.473v-40.37c0-8.21 4.873-15.271 11.864-18.507-2.389-.98-5.011-1.523-7.751-1.523-11.27 0-20.41 9.13-20.41 20.4v40.37c0 11.27 9.14 20.394 20.41 20.41 3.062.004 5.985-.675 8.585-1.89-7.429-3.051-12.698-10.362-12.698-18.89z"/><path d="m330.517 145.983v-5.51-33.53c0-8.212 4.882-15.277 11.876-18.515-2.388-.98-5.018-1.526-7.762-1.526-11.27 0-20.41 9.14-20.41 20.41v33.53 5.51c0 11.27 9.14 20.401 20.41 20.41 3.061.003 6.006-.677 8.605-1.898-7.431-3.051-12.719-10.352-12.719-18.881z"/></g></g></g><path d="m248.895 131.946v-40.373c0-8.211 4.878-15.271 11.87-18.508-2.389-.98-5.015-1.524-7.755-1.524-11.271 0-20.412 9.131-20.412 20.402v40.374c0 11.271 9.141 20.412 20.412 20.412 3.06 0 5.951-.693 8.555-1.9-7.431-3.052-12.67-10.353-12.67-18.883z" fill="#d78878"/><g><path d="m267.941 148.047-64.694-34.73-5.149-2.69v16.95l62.748 33.687c2.604 1.398 4.257 4.102 4.313 7.057.06 3.083-1.591 5.906-4.309 7.366l-8.478 4.558c-11.434 6.147-25.197 6.359-36.814.566l-19.59-9.767c-3.709-1.849-8.21-.341-10.059 3.366s-.342 8.21 3.365 10.058l19.59 9.767c7.728 3.853 16.141 5.772 24.551 5.772 8.976 0 17.945-2.188 26.061-6.551l8.477-4.558c7.695-4.136 12.372-12.132 12.204-20.866-.161-8.368-4.842-16.026-12.216-19.985z" fill="#d78878"/></g><g fill="#fee97d"><path d="m88.022 412.09h-23.716c-31.373 0-56.806-25.433-56.806-56.806v-17.978c0-4.28 3.47-7.75 7.75-7.75h121.827c4.28 0 7.75 3.47 7.75 7.75v17.978c.001 31.373-25.432 56.806-56.805 56.806z"/><path d="m424.48 412.09h23.716c31.373 0 56.806-25.433 56.806-56.806v-19.482c0-3.45-2.797-6.246-6.246-6.246h-124.835c-3.45 0-6.246 2.797-6.246 6.246v19.482c-.001 31.373 25.432 56.806 56.805 56.806z"/></g></g><g><path d="m207.276 357.583c-4.143 0-7.5 3.358-7.5 7.5v74.56c0 4.142 3.357 7.5 7.5 7.5s7.5-3.358 7.5-7.5v-74.56c0-4.143-3.357-7.5-7.5-7.5z"/><path d="m351.453 228.816c-4.143 0-7.5 3.358-7.5 7.5v22.731c0 7.703-2.058 15.288-5.95 21.935l-8.161 13.941c-1.381 2.358-2.11 5.049-2.11 7.782v141.937c0 4.142 3.357 7.5 7.5 7.5s7.5-3.358 7.5-7.5v-141.936c0-.072.02-.143.056-.205l8.16-13.939c5.237-8.943 8.006-19.149 8.006-29.514v-22.731c-.001-4.143-3.358-7.501-7.501-7.501z"/><path d="m501.616 322.056h-1.44l-38.803-155.731h24.266c14.822 0 26.881-12.059 26.881-26.882 0-14.822-12.059-26.881-26.881-26.881h-37.868c-1.867-4.145-5.91-6.808-10.636-6.808-4.727 0-8.77 2.666-10.634 6.808h-63.962v-5.251c0-15.388-12.519-27.907-27.906-27.907-6.544 0-12.562 2.274-17.325 6.061-4.964-7.743-13.628-12.897-23.489-12.897-6.704 0-12.852 2.388-17.667 6.343-5.016-7.449-13.511-12.37-23.147-12.37-6.672 0-12.795 2.363-17.599 6.285-5.007-7.498-13.542-12.449-23.215-12.449-15.388 0-27.906 12.519-27.906 27.907v20.438c-3.801.072-7.617.705-11.35 1.919-1.654.538-3.248 1.187-4.788 1.92h-82.147c-1.867-4.144-5.907-6.807-10.633-6.808-.001 0-.001 0-.001 0-4.726 0-8.77 2.665-10.636 6.808h-36.867c-14.822 0-26.881 12.059-26.881 26.881 0 14.823 12.059 26.882 26.881 26.882h23.267l-38.804 155.732h-3.539c-4.846 0-8.787 3.942-8.787 8.787v24.441c0 35.458 28.848 64.306 64.306 64.306h23.717c35.458 0 64.306-28.847 64.306-64.306v-24.441c0-4.845-3.941-8.787-8.787-8.787h-5.135l-38.805-155.731h33.315c-10.142 24.345-5.615 52.333 11.993 72.282l54.867 62.157v32.356c0 4.142 3.357 7.5 7.5 7.5s7.5-3.358 7.5-7.5v-35.193c0-1.828-.668-3.593-1.877-4.963l-56.744-64.284c-14.449-16.369-17.659-39.655-8.177-59.323l15.492-32.131c2.852-5.914 7.86-10.29 14.104-12.32 6.245-2.032 12.869-1.438 18.652 1.667l64.619 34.691c2.604 1.398 4.257 4.101 4.313 7.057.06 3.083-1.591 5.906-4.309 7.366l-3.916 2.105c-.011.006-.022.012-.033.018l-4.528 2.435c-11.434 6.147-25.197 6.359-36.814.566l-19.589-9.766c-3.709-1.849-8.21-.341-10.059 3.366s-.342 8.21 3.365 10.058l19.589 9.766c15.672 7.815 34.174 7.661 49.715-.33l9.654 11.621c4.594 5.529 7.123 12.533 7.123 19.722v31.007c0 4.142 3.357 7.5 7.5 7.5s7.5-3.358 7.5-7.5v-31.007c0-10.682-3.759-21.09-10.584-29.307l-7.992-9.62c5.382-4.448 8.514-11.116 8.376-18.286-.02-1.021-.108-2.031-.259-3.025 4.101 2.374 8.852 3.744 13.922 3.744 6.808 0 13.043-2.462 17.89-6.528 5.044 7.263 13.43 12.039 22.923 12.039 3.268 0 6.404-.57 9.32-1.606v31.697c0 4.142 3.357 7.5 7.5 7.5s7.5-3.358 7.5-7.5v-38.029h53.947l-38.804 155.731h-3.037c-6.002 0-10.886 4.883-10.886 10.885v22.343c0 35.458 28.848 64.306 64.306 64.306h23.717c35.458 0 64.306-28.847 64.306-64.306v-22.343c0-6.004-4.884-10.887-10.886-10.887zm-485.634-182.613c0-6.551 5.33-11.881 11.881-11.881h46.621l5.921 23.763h-52.542c-6.55 0-11.881-5.33-11.881-11.882zm121.346 215.841c0 27.187-22.118 49.306-49.306 49.306h-23.716c-27.188-.001-49.306-22.119-49.306-49.306v-18.228h122.328zm-14.381-33.228h-95.163l38.803-155.731h17.555zm-33.004-194.494h61.721c-.609 1.019-1.183 2.066-1.705 3.149l-9.939 20.614h-44.156zm407.577 11.881c0 6.552-5.33 11.882-11.881 11.882h-28.003l-5.921-23.763h33.925c6.549 0 11.88 5.33 11.88 11.881zm-61.265-11.881 5.921 23.763h-80.089c.291-1.614.452-3.272.452-4.968v-18.795zm-236.97-16.081v-23.197c0-7.117 5.79-12.907 12.906-12.907 7.117 0 12.907 5.79 12.907 12.907v36.763l-21.776-11.691c-1.32-.708-2.669-1.328-4.037-1.875zm40.814 21.619v-38.652c0-7.117 5.79-12.907 12.907-12.907 7.116 0 12.906 5.79 12.906 12.907v46.397c0 1.905-.432 3.763-1.224 5.456zm66.627 7.745c0 7.117-5.79 12.907-12.906 12.907-7.117 0-12.907-5.79-12.907-12.907v-40.37c0-7.117 5.79-12.907 12.907-12.907 7.116 0 12.906 5.79 12.906 12.907zm27.907 18.418c-7.117 0-12.907-5.79-12.907-12.907v-39.046c0-7.117 5.79-12.907 12.907-12.907 7.116 0 12.906 5.79 12.906 12.907v39.046c0 7.117-5.79 12.907-12.906 12.907zm162.869 196.021c0 27.187-22.118 49.306-49.306 49.306h-23.717c-27.188 0-49.306-22.119-49.306-49.306v-18.228h61.164c4.143 0 7.5-3.358 7.5-7.5s-3.357-7.5-7.5-7.5h-46.783l38.803-155.731h17.555l38.804 155.731h-16.416c-4.143 0-7.5 3.358-7.5 7.5s3.357 7.5 7.5 7.5h29.202z"/></g></g></svg>