<svg xmlns="http://www.w3.org/2000/svg" width="468" height="479" viewBox="0 0 468 479">
  <g id="Economic_Sectors" data-name="Economic Sectors" transform="translate(-281 -161)">
    <g id="Ellipse_12" data-name="Ellipse 12" transform="translate(281 161)" fill="#fff" stroke="#000" stroke-width="5">
      <circle cx="100" cy="100" r="100" stroke="none"/>
      <circle cx="100" cy="100" r="97.5" fill="none"/>
    </g>
    <g id="Ellipse_13" data-name="Ellipse 13" transform="translate(419 440)" fill="#fff" stroke="#000" stroke-width="5">
      <circle cx="100" cy="100" r="100" stroke="none"/>
      <circle cx="100" cy="100" r="97.5" fill="none"/>
    </g>
    <g id="Ellipse_14" data-name="Ellipse 14" transform="translate(549 161)" fill="#fff" stroke="#000" stroke-width="5">
      <circle cx="100" cy="100" r="100" stroke="none"/>
      <circle cx="100" cy="100" r="97.5" fill="none"/>
    </g>
    <g id="Fill_out_line" data-name="Fill out line" transform="translate(438.294 459.023)">
      <path id="Path_1" data-name="Path 1" d="M270.68,79.13H208V64h56.2Z" transform="translate(-140.127 -35.032)" fill="#ab693d"/>
      <path id="Path_2" data-name="Path 2" d="M208,120h62.68v21.614H208Z" transform="translate(-140.127 -75.902)" fill="#8c5428"/>
      <path id="Path_3" data-name="Path 3" d="M264.2,34.807H208V24h36.744Z" transform="translate(-140.127 -5.839)" fill="#da9065"/>
      <path id="Path_4" data-name="Path 4" d="M163.873,49.937l-6.484-15.13L137.937,24,118.484,34.807,112,49.937V71.55h51.873Z" transform="translate(-70.063 -5.839)" fill="#e04446"/>
      <path id="Path_5" data-name="Path 5" d="M152,80h4.323v4.323H152Z" transform="translate(-99.257 -46.709)" fill="#68737f"/>
      <path id="Path_6" data-name="Path 6" d="M248,80h4.323v4.323H248Z" transform="translate(-169.32 -46.709)" fill="#68737f"/>
      <path id="Path_7" data-name="Path 7" d="M176,136h8.646v17.291H176Z" transform="translate(-116.772 -87.579)" fill="#da9065"/>
      <path id="Path_8" data-name="Path 8" d="M200,48h4.323v4.323H200Z" transform="translate(-134.288 -23.354)" fill="#68737f"/>
      <path id="Path_9" data-name="Path 9" d="M340.744,120l12.968,8.646H316.968L304,120Z" transform="translate(-210.19 -75.902)" fill="#da9065"/>
      <path id="Path_10" data-name="Path 10" d="M440,152h12.968v12.968H440Z" transform="translate(-309.447 -99.256)" fill="#9f764a"/>
      <path id="Path_11" data-name="Path 11" d="M304,120l12.968,8.646v12.968H304Z" transform="translate(-210.19 -75.902)" fill="#ba8b5d"/>
      <path id="Path_12" data-name="Path 12" d="M47.775,148.323H41.291V144H36.968v4.323H30.484V144H26.161v4.323H24v4.323h2.161v6.484h4.323v-6.484h6.484v6.484h4.323v-6.484h6.484Z" transform="translate(-5.839 -93.418)" fill="#da9065"/>
      <path id="Path_13" data-name="Path 13" d="M24,200H149.36v77.81H24Z" transform="translate(-5.839 -134.288)" fill="#7ab355"/>
      <g id="Group_1" data-name="Group 1" transform="translate(18.161 89.487)">
        <path id="Path_14" data-name="Path 14" d="M24,288H149.36v4.323H24Z" transform="translate(-24 -288)" fill="#699949"/>
        <path id="Path_15" data-name="Path 15" d="M24,336H149.36v4.323H24Z" transform="translate(-24 -323.032)" fill="#699949"/>
        <path id="Path_16" data-name="Path 16" d="M24,384H149.36v4.323H24Z" transform="translate(-24 -358.063)" fill="#699949"/>
      </g>
      <path id="Path_17" data-name="Path 17" d="M128,288h8.646l4.323,21.614H128Z" transform="translate(-81.741 -198.513)" fill="#68737f"/>
      <path id="Path_18" data-name="Path 18" d="M208.845,300.422l3.866,1.933" transform="translate(-140.744 -207.579)" fill="#4f5761"/>
      <path id="Path_19" data-name="Path 19" d="M196.711,334.355l-3.866-1.933" transform="translate(-129.066 -230.933)" fill="#4f5761"/>
      <path id="Path_20" data-name="Path 20" d="M143.13,343.775l-4.323-17.291L128,320v23.775Z" transform="translate(-81.741 -221.867)" fill="#ce2337"/>
      <path id="Path_21" data-name="Path 21" d="M188.744,330.161v19.452H152V338.807h21.614V328Z" transform="translate(-99.257 -227.706)" fill="#e04446"/>
      <circle id="Ellipse_1" data-name="Ellipse 1" cx="13" cy="13" r="13" transform="translate(28.706 104.977)" fill="#68737f"/>
      <path id="Path_22" data-name="Path 22" d="M71.13,366.259a15.13,15.13,0,1,1,15.13-15.13A15.13,15.13,0,0,1,71.13,366.259Zm0-25.937A10.807,10.807,0,1,0,81.937,351.13,10.807,10.807,0,0,0,71.13,340.323Z" transform="translate(-29.193 -233.545)" fill="#4f5761"/>
      <ellipse id="Ellipse_2" data-name="Ellipse 2" cx="4" cy="4.5" rx="4" ry="4.5" transform="translate(37.706 112.977)" fill="#d4e4f0"/>
      <path id="Path_23" data-name="Path 23" d="M112.922,340.817l-4.076-1.441a17.3,17.3,0,0,0-22.072-22.072l-1.441-4.076a21.628,21.628,0,0,1,27.588,27.588Z" transform="translate(-50.602 -216.028)" fill="#d6323f"/>
      <ellipse id="Ellipse_3" data-name="Ellipse 3" cx="8.5" cy="9" rx="8.5" ry="9" transform="translate(78.706 112.977)" fill="#68737f"/>
      <path id="Path_24" data-name="Path 24" d="M250.807,389.614a10.807,10.807,0,1,1,10.807-10.807A10.807,10.807,0,0,1,250.807,389.614Zm0-17.291a6.484,6.484,0,1,0,6.484,6.484A6.484,6.484,0,0,0,250.807,372.323Z" transform="translate(-163.481 -256.899)" fill="#4f5761"/>
      <path id="Path_25" data-name="Path 25" d="M144.721,50.945l-12.434-8.289-6.231-14.539a2.162,2.162,0,0,0-.937-1.038L105.667,16.272a2.161,2.161,0,0,0-1.05-.272H67.874a2.156,2.156,0,0,0-1.049.273h0L47.372,27.079a2.161,2.161,0,0,0-.937,1.038L39.95,43.247a2.161,2.161,0,0,0-.175.851V54.905H35.453V50.582H31.13v4.323H24.646V50.582H20.323v4.323H16v4.323h4.323v4.323H16v4.323H143.522a2.161,2.161,0,0,0,2.161-2.161V52.744a2.161,2.161,0,0,0-.962-1.8ZM95.972,48.137l8.646,5.764v9.65H95.972Zm12.968,6.768h19.452v8.646H108.94Zm-1.507-4.323-6.484-4.323H129.9l6.484,4.323Zm19.843-8.646H95.235L90.6,31.13h32.041ZM104.057,20.323l11.672,6.484H87.886L76.215,20.323ZM50.117,30.5l17.757-9.865L85.631,30.5l6.018,14.043V63.551H78.681V48.421a2.161,2.161,0,0,0-2.161-2.161H59.228a2.161,2.161,0,0,0-2.161,2.161v15.13H44.1V44.542ZM70.035,50.582h4.323V63.551H70.035ZM65.712,63.551H61.389V50.582h4.323ZM39.776,59.228v4.323H35.453V59.228Zm-15.13,0H31.13v4.323H24.646Zm108.069,4.323V54.905h8.646v8.646Z" transform="translate(0)"/>
      <path id="Path_26" data-name="Path 26" d="M152,80h4.323v4.323H152Z" transform="translate(-99.257 -46.709)"/>
      <path id="Path_27" data-name="Path 27" d="M248,80h4.323v4.323H248Z" transform="translate(-169.32 -46.709)"/>
      <path id="Path_28" data-name="Path 28" d="M200,48h4.323v4.323H200Z" transform="translate(-134.288 -23.354)"/>
      <path id="Path_29" data-name="Path 29" d="M94.484,368a6.484,6.484,0,1,0,6.484,6.484A6.484,6.484,0,0,0,94.484,368Zm0,8.646a2.161,2.161,0,1,1,2.161-2.161A2.161,2.161,0,0,1,94.484,376.646Z" transform="translate(-52.548 -256.899)"/>
      <circle id="Ellipse_4" data-name="Ellipse 4" cx="2.5" cy="2.5" r="2.5" transform="translate(84.706 118.977)"/>
      <path id="Path_30" data-name="Path 30" d="M98.132,314.582a10.821,10.821,0,0,0-6.484-9.9V295.13a2.161,2.161,0,0,0-1.856-2.14l-2.467-.352v-6.153H83v5.536l-8.34-1.191a2.16,2.16,0,0,0-1.722.507c-.054.047-.106.1-.155.15l-2.127-1.418,1.308-2.616L68.1,285.518l-4.323,8.646,3.866,1.933,1.066-2.133,3.485,2.323v5.327H61.743a21.545,21.545,0,0,0-1.218-2.372l-3.5-17.5A2.161,2.161,0,0,0,54.9,280H46.259a2.161,2.161,0,0,0-2.161,2.161v6.594c-.719-.072-1.44-.11-2.161-.11a21.524,21.524,0,0,0-7.206,1.232l1.443,4.075a17.31,17.31,0,0,1,22.069,10.542h0v0a17.381,17.381,0,0,1,.554,9.6,2.162,2.162,0,0,0,2.108,2.641H76.736a10.762,10.762,0,0,0,1.95,4.323H52.511a15.13,15.13,0,1,0-21.148,0H16v4.323H145.683v-4.323H95.965a10.75,10.75,0,0,0,2.167-6.484Zm-67-4.323a10.807,10.807,0,1,1,10.807,10.807A10.807,10.807,0,0,1,31.13,310.259Zm17.291-20.616v-5.321h4.712l1.727,8.631a21.71,21.71,0,0,0-6.439-3.31Zm14.7,16.293H74.357a2.161,2.161,0,0,0,2.161-2.161V295.46L87.326,297v6.771a10.825,10.825,0,0,0-10.589,8.646H63.443c.072-.717.108-1.439.108-2.161a21.7,21.7,0,0,0-.432-4.323Zm17.723,8.646a6.484,6.484,0,1,1,6.484,6.484,6.484,6.484,0,0,1-6.484-6.484Z" transform="translate(0 -192.674)"/>
      <path id="Path_31" data-name="Path 31" d="M16,480H145.683v4.323H16Z" transform="translate(0 -338.64)"/>
      <path id="Path_32" data-name="Path 32" d="M16,240H145.683v4.323H16Z" transform="translate(0 -163.481)"/>
      <path id="Path_33" data-name="Path 33" d="M296,288h54.035v4.323H296Z" transform="translate(-204.352 -198.513)"/>
      <path id="Path_34" data-name="Path 34" d="M16,288H39.775v4.323H16Z" transform="translate(0 -198.513)"/>
      <path id="Path_35" data-name="Path 35" d="M312,336h49.712v4.323H312Z" transform="translate(-216.029 -233.545)"/>
      <path id="Path_36" data-name="Path 36" d="M16,336H26.807v4.323H16Z" transform="translate(0 -233.545)"/>
      <path id="Path_37" data-name="Path 37" d="M336,384h43.228v4.323H336Z" transform="translate(-233.545 -268.576)"/>
      <path id="Path_38" data-name="Path 38" d="M16,384h6.484v4.323H16Z" transform="translate(0 -268.576)"/>
    </g>
    <g id="secondary" transform="translate(311 195.239)">
      <path id="Path_39" data-name="Path 39" d="M98.525,60.552V46.973H84.2A31.489,31.489,0,0,0,79.921,36.7L90.06,26.56l-9.6-9.6L70.326,27.1a31.489,31.489,0,0,0-10.275-4.278V8.5H46.473V22.826A31.489,31.489,0,0,0,36.2,27.1L26.06,16.965l-9.6,9.6L26.6,36.7a31.489,31.489,0,0,0-4.278,10.275H8V60.552H22.326A31.488,31.488,0,0,0,26.6,70.826L16.465,80.965l9.6,9.6L36.2,80.421A31.489,31.489,0,0,0,46.473,84.7V99.025H60.052V84.7a31.488,31.488,0,0,0,10.275-4.278L80.465,90.56l9.6-9.6L79.921,70.826A31.489,31.489,0,0,0,84.2,60.552ZM53.262,69.6a15.831,15.831,0,1,1,11.205-4.637A15.841,15.841,0,0,1,53.262,69.6Zm0,0" transform="translate(-5.737 -5.737)" fill="#3e3d42"/>
      <path id="Path_40" data-name="Path 40" d="M110.631,88.5a22.631,22.631,0,1,0,22.631,22.631A22.631,22.631,0,0,0,110.631,88.5Zm0,38.473a15.831,15.831,0,1,1,11.205-4.637A15.841,15.841,0,0,1,110.631,126.973Zm0,0" transform="translate(-63.106 -63.106)" fill="#d80027"/>
      <path id="Path_41" data-name="Path 41" d="M17.052,376.5H134.735a9.053,9.053,0,0,1,9.052,9.052v4.526a9.053,9.053,0,0,1-9.052,9.052H17.052A9.053,9.053,0,0,1,8,390.079v-4.526A9.053,9.053,0,0,1,17.052,376.5Zm0,0" transform="translate(-5.737 -269.633)" fill="#787680"/>
      <path id="Path_42" data-name="Path 42" d="M241.052,405.026a4.526,4.526,0,1,1-4.526-4.526A4.526,4.526,0,0,1,241.052,405.026Zm0,0" transform="translate(-166.37 -286.844)" fill="#acabb1"/>
      <path id="Path_43" data-name="Path 43" d="M161.052,405.026a4.526,4.526,0,1,1-4.526-4.526A4.526,4.526,0,0,1,161.052,405.026Zm0,0" transform="translate(-109.001 -286.844)" fill="#acabb1"/>
      <path id="Path_44" data-name="Path 44" d="M321.052,405.026a4.526,4.526,0,1,1-4.526-4.526A4.526,4.526,0,0,1,321.052,405.026Zm0,0" transform="translate(-223.738 -286.844)" fill="#acabb1"/>
      <path id="Path_45" data-name="Path 45" d="M81.052,405.026a4.526,4.526,0,1,1-4.526-4.526A4.526,4.526,0,0,1,81.052,405.026Zm0,0" transform="translate(-51.632 -286.844)" fill="#acabb1"/>
      <path id="Path_46" data-name="Path 46" d="M401.052,405.026a4.526,4.526,0,1,1-4.526-4.526A4.526,4.526,0,0,1,401.052,405.026Zm0,0" transform="translate(-281.107 -286.844)" fill="#acabb1"/>
      <path id="Path_47" data-name="Path 47" d="M396.368,324.868H376V304.5h20.368Zm0,0" transform="translate(-269.633 -218.001)" fill="#ffd422"/>
      <path id="Path_48" data-name="Path 48" d="M372.368,252.868H352V232.5h20.368Zm0,0" transform="translate(-252.423 -166.37)" fill="#ffcd00"/>
      <path id="Path_49" data-name="Path 49" d="M324.368,324.868H304V304.5h20.368Zm0,0" transform="translate(-218.002 -218.001)" fill="#cca400"/>
      <g id="Group_2" data-name="Group 2" transform="translate(0 0.5)">
        <path id="Path_50" data-name="Path 50" d="M2.263,57.078H14.819a33.7,33.7,0,0,0,3.187,7.668L9.12,73.628a2.265,2.265,0,0,0,0,3.2l9.6,9.6a2.264,2.264,0,0,0,3.2,0l8.887-8.888a33.635,33.635,0,0,0,7.666,3.187V93.288a2.263,2.263,0,0,0,2.263,2.263H54.315a2.263,2.263,0,0,0,2.263-2.263V80.732a33.636,33.636,0,0,0,7.666-3.187l8.887,8.888a2.329,2.329,0,0,0,3.2,0l9.6-9.6a2.265,2.265,0,0,0,0-3.2l-8.888-8.882a33.7,33.7,0,0,0,3.187-7.668H92.788a2.263,2.263,0,0,0,2.263-2.263V41.236a2.263,2.263,0,0,0-2.263-2.263H80.232a33.7,33.7,0,0,0-3.187-7.668l8.886-8.882a2.265,2.265,0,0,0,0-3.2l-9.6-9.6a2.264,2.264,0,0,0-3.2,0l-8.887,8.888a33.754,33.754,0,0,0-7.666-3.187V2.763A2.263,2.263,0,0,0,54.315.5H40.736a2.263,2.263,0,0,0-2.263,2.263V15.319a33.756,33.756,0,0,0-7.666,3.187L21.921,9.618a2.329,2.329,0,0,0-3.2,0l-9.6,9.6a2.265,2.265,0,0,0,0,3.2l8.888,8.882a33.7,33.7,0,0,0-3.187,7.668H2.263A2.263,2.263,0,0,0,0,41.236V54.815a2.263,2.263,0,0,0,2.263,2.263ZM4.526,43.5H16.589A2.264,2.264,0,0,0,18.8,41.72a29.111,29.111,0,0,1,3.965-9.536,2.264,2.264,0,0,0-.306-2.822l-8.541-8.541,6.4-6.4,8.539,8.541a2.264,2.264,0,0,0,2.824.306A29.169,29.169,0,0,1,41.22,19.3,2.264,2.264,0,0,0,43,17.089V5.026h9.052V17.089A2.264,2.264,0,0,0,53.831,19.3a29.169,29.169,0,0,1,9.536,3.965,2.264,2.264,0,0,0,2.824-.306l8.539-8.541,6.4,6.4-8.539,8.539a2.264,2.264,0,0,0-.306,2.824,29.094,29.094,0,0,1,3.963,9.539A2.264,2.264,0,0,0,78.46,43.5H90.525v9.052H78.46a2.264,2.264,0,0,0-2.211,1.779,29.085,29.085,0,0,1-3.963,9.534,2.264,2.264,0,0,0,.306,2.822l8.541,8.539-6.4,6.4-8.539-8.541a2.264,2.264,0,0,0-2.824-.306,29.091,29.091,0,0,1-9.534,3.965,2.263,2.263,0,0,0-1.781,2.211V91.025H43V78.962a2.263,2.263,0,0,0-1.781-2.211,29.09,29.09,0,0,1-9.534-3.965,2.264,2.264,0,0,0-2.824.306l-8.539,8.541-6.4-6.4,8.539-8.539a2.264,2.264,0,0,0,.306-2.824A29.123,29.123,0,0,1,18.8,54.329a2.263,2.263,0,0,0-2.211-1.777H4.526Zm0,0" transform="translate(0 -0.5)" fill="#231f20"/>
        <path id="Path_51" data-name="Path 51" d="M122.1,140.71A18.1,18.1,0,1,0,104,122.6,18.1,18.1,0,0,0,122.1,140.71Zm0-31.684A13.579,13.579,0,1,1,108.526,122.6,13.579,13.579,0,0,1,122.1,109.026Zm0,0" transform="translate(-74.579 -75.079)" fill="#231f20"/>
        <path id="Path_52" data-name="Path 52" d="M104.894,130.289A24.894,24.894,0,1,0,80,105.394,24.894,24.894,0,0,0,104.894,130.289Zm0-45.262a20.368,20.368,0,1,1-20.368,20.368A20.368,20.368,0,0,1,104.894,85.026Zm0,0" transform="translate(-57.369 -57.869)" fill="#231f20"/>
        <path id="Path_53" data-name="Path 53" d="M129,265.236v-18.1a2.263,2.263,0,0,0-2.263-2.263h-4.526v-18.1a2.263,2.263,0,0,0-2.263-2.263H99.577a2.263,2.263,0,0,0-2.263,2.263v18.1H86a2.263,2.263,0,0,0-2.263,2.263v18.1H11.316A11.329,11.329,0,0,0,0,276.552v4.526a11.329,11.329,0,0,0,11.316,11.316H129a11.329,11.329,0,0,0,11.316-11.316v-4.526A11.329,11.329,0,0,0,129,265.236Zm-4.526,0H108.63V249.394h15.842Zm-22.631-36.21h15.842v15.842H101.84ZM88.262,249.394H104.1v15.842H88.262Zm47.525,31.684A6.79,6.79,0,0,1,129,287.867H11.316a6.79,6.79,0,0,1-6.789-6.789v-4.526a6.79,6.79,0,0,1,6.789-6.789H129a6.79,6.79,0,0,1,6.789,6.789Zm0,0" transform="translate(0 -161.133)" fill="#231f20"/>
        <path id="Path_54" data-name="Path 54" d="M230.789,392.5a6.789,6.789,0,1,0,6.789,6.789A6.79,6.79,0,0,0,230.789,392.5Zm0,9.052a2.263,2.263,0,1,1,2.263-2.263A2.263,2.263,0,0,1,230.789,401.552Zm0,0" transform="translate(-160.633 -281.607)" fill="#231f20"/>
        <path id="Path_55" data-name="Path 55" d="M150.789,392.5a6.789,6.789,0,1,0,6.789,6.789A6.79,6.79,0,0,0,150.789,392.5Zm0,9.052a2.263,2.263,0,1,1,2.263-2.263A2.263,2.263,0,0,1,150.789,401.552Zm0,0" transform="translate(-103.264 -281.607)" fill="#231f20"/>
        <path id="Path_56" data-name="Path 56" d="M310.789,392.5a6.789,6.789,0,1,0,6.789,6.789A6.79,6.79,0,0,0,310.789,392.5Zm0,9.052a2.263,2.263,0,1,1,2.263-2.263A2.263,2.263,0,0,1,310.789,401.552Zm0,0" transform="translate(-218.002 -281.607)" fill="#231f20"/>
        <path id="Path_57" data-name="Path 57" d="M70.789,392.5a6.789,6.789,0,1,0,6.789,6.789A6.79,6.79,0,0,0,70.789,392.5Zm0,9.052a2.263,2.263,0,1,1,2.263-2.263A2.263,2.263,0,0,1,70.789,401.552Zm0,0" transform="translate(-45.895 -281.607)" fill="#231f20"/>
        <path id="Path_58" data-name="Path 58" d="M390.789,392.5a6.789,6.789,0,1,0,6.789,6.789A6.79,6.79,0,0,0,390.789,392.5Zm0,9.052a2.263,2.263,0,1,1,2.263-2.263A2.263,2.263,0,0,1,390.789,401.552Zm0,0" transform="translate(-275.37 -281.607)" fill="#231f20"/>
      </g>
    </g>
    <g id="tertiary" transform="translate(567.8 185.762)">
      <path id="Path_59" data-name="Path 59" d="M115.271,138.63a2.609,2.609,0,0,1-2.035-.99,20.382,20.382,0,0,1-7.04,1.21,20.991,20.991,0,0,1-10.4-2.75v7.205l4.455,9.9a2.124,2.124,0,0,0,1.98,1.265h7.535a2.146,2.146,0,0,0,1.925-1.21l4.84-9.955v-4.73c-.385,0-.825.055-1.265.055Z" transform="translate(-32.219 -61.108)" fill="#f9d0b4"/>
      <path id="Path_60" data-name="Path 60" d="M122.237,200.342a1.586,1.586,0,0,1-2.145-.55,1.263,1.263,0,0,1-.22-.77v-7.975a1.6,1.6,0,0,0-1.6-1.6H96.606a9.812,9.812,0,0,1-9.79-9.79V161.235a9.843,9.843,0,0,1,5.28-8.69L85.5,149.3l-4.84,9.955a2.21,2.21,0,0,1-1.925,1.21H71.2a2.243,2.243,0,0,1-1.98-1.265l-4.455-9.9-10.505,5.17-17.491,4.4a8.853,8.853,0,0,0-6.71,8.14L26.7,203.422a3.124,3.124,0,0,0,3.135,3.245h90.533a3.192,3.192,0,0,0,3.19-3.19v-.055l-.33-3.63a4.458,4.458,0,0,0-.99.55Z" transform="translate(-1.124 -67.048)" fill="#c7d7e5"/>
      <path id="Path_61" data-name="Path 61" d="M118.541,62.575a1.191,1.191,0,0,0-1.155-1.1c-8.745-.275-13.31-3.74-15.125-5.445a1.129,1.129,0,0,0-1.6,0c-.055.055-.055.055-.055.11-7.7,9.68-19.031,8.305-22.826,7.48a1.247,1.247,0,0,0-1.485.935V81.606a21.222,21.222,0,0,0,21.176,21.011,20.382,20.382,0,0,0,7.04-1.21,2.635,2.635,0,0,1,.33-3.74,2.8,2.8,0,0,1,1.705-.605c.99,0,1.925-.055,2.915-.11a2.5,2.5,0,0,1,1.76.55,20.877,20.877,0,0,0,7.315-15.84V62.575Z" transform="translate(-23.444 -24.93)" fill="#f9d0b4"/>
      <path id="Path_62" data-name="Path 62" d="M68.48,64.4h1.375a1.972,1.972,0,0,1,1.98,1.98V88.656a1.972,1.972,0,0,1-1.98,1.98H68.48a1.972,1.972,0,0,1-1.98-1.98V66.38A1.972,1.972,0,0,1,68.48,64.4Z" transform="translate(-19.034 -28.844)" fill="#fc657e"/>
      <path id="Path_63" data-name="Path 63" d="M57.32,68.855c-.22,0-.44-.055-.66-.055a10.671,10.671,0,0,0,0,21.341,2.678,2.678,0,0,0,.66-.055Z" transform="translate(-9.854 -30.824)" fill="#ef4460"/>
      <path id="Path_64" data-name="Path 64" d="M155.08,64.4h1.375a1.972,1.972,0,0,1,1.98,1.98V88.656a1.972,1.972,0,0,1-1.98,1.98H155.08a1.972,1.972,0,0,1-1.98-1.98V66.38A1.972,1.972,0,0,1,155.08,64.4Z" transform="translate(-58.003 -28.844)" fill="#fc657e"/>
      <path id="Path_65" data-name="Path 65" d="M162.8,68.855c.22,0,.44-.055.66-.055a10.643,10.643,0,0,1,0,21.286,2.678,2.678,0,0,1-.66-.055Z" transform="translate(-62.368 -30.824)" fill="#ef4460"/>
      <path id="Path_66" data-name="Path 66" d="M129,136.194a2.7,2.7,0,1,1,0-5.39c.99,0,1.925-.055,2.915-.11a2.622,2.622,0,0,1,2.805,2.53,2.68,2.68,0,0,1-2.475,2.805,31.257,31.257,0,0,1-3.245.165Z" transform="translate(-45.943 -58.672)" fill="#fc657e"/>
      <path id="Path_67" data-name="Path 67" d="M61.565,39.021a2.678,2.678,0,0,1,.66.055v-.55a1.972,1.972,0,0,1,1.98-1.98H65.58a1.972,1.972,0,0,1,1.98,1.98v2.255a1.246,1.246,0,0,1,1.375-1.1h.11c3.8.77,15.125,2.145,22.826-7.48a1.133,1.133,0,0,1,1.6-.165c.055,0,.055.055.11.055,1.76,1.76,6.38,5.17,15.125,5.445a1.191,1.191,0,0,1,1.155,1.1v-.11a1.972,1.972,0,0,1,1.98-1.98h1.375a1.972,1.972,0,0,1,1.98,1.98v.5c.22,0,.44-.055.66-.055a11.124,11.124,0,0,1,4.62,1.045V34.236a31.736,31.736,0,1,0-63.472,0v5.83A10.1,10.1,0,0,1,61.565,39.021Z" transform="translate(-14.759 -0.99)" fill="#fff"/>
      <path id="Path_68" data-name="Path 68" d="M68.615,40.866H69.99a1.972,1.972,0,0,1,1.98,1.98V45.1A1.246,1.246,0,0,1,73.345,44h.11c3.8.77,15.125,2.145,22.826-7.48a1.133,1.133,0,0,1,1.6-.165c.055,0,.055.055.11.055,1.76,1.76,6.38,5.17,15.125,5.445a1.191,1.191,0,0,1,1.155,1.1v-.11a1.972,1.972,0,0,1,1.98-1.98h1.375a1.9,1.9,0,0,1,1.87,1.375V38.556a26.346,26.346,0,1,0-52.692-.22v3.74a1.854,1.854,0,0,1,1.815-1.21Z" transform="translate(-19.169 -5.31)" fill="#818182"/>
      <g id="Group_3" data-name="Group 3" transform="translate(53.131 82.197)">
        <path id="Path_69" data-name="Path 69" d="M130.86,161.135a9.843,9.843,0,0,1,5.28-8.69l-6.6-3.245-4.84,9.955,6.105,7.645Z" transform="translate(-98.354 -149.2)" fill="#edf4fc"/>
        <path id="Path_70" data-name="Path 70" d="M81.97,167.186a1.9,1.9,0,0,0,2.53,1.045,1.654,1.654,0,0,0,.77-.605l6.655-8.25a1.2,1.2,0,0,0-.165-.275l-4.455-9.9-6.985,3.465L76.8,154.37Z" transform="translate(-76.8 -149.2)" fill="#edf4fc"/>
        <path id="Path_71" data-name="Path 71" d="M109.8,215.7h5.335V169.5H109.8Z" transform="translate(-91.649 -158.335)" fill="#edf4fc"/>
      </g>
      <path id="Path_72" data-name="Path 72" d="M201.73,125.6h-1.155V124.44a1.54,1.54,0,1,0-3.08,0V125.6H196.34a1.54,1.54,0,0,0,0,3.08H197.5v1.155a1.54,1.54,0,1,0,3.08,0v-1.155h1.155a1.54,1.54,0,0,0,0-3.08Z" transform="translate(-76.767 -55.168)" fill="#f5c84c"/>
      <path id="Path_73" data-name="Path 73" d="M52.165,16.371a5.4,5.4,0,0,1-4.345-4.235c0-.055-.055-.11-.11-.055a.054.054,0,0,0-.055.055,5.328,5.328,0,0,1-4.345,4.235.118.118,0,0,0-.11.11c0,.055.055.055.11.11a5.4,5.4,0,0,1,4.345,4.235c0,.055.055.11.11.055a.054.054,0,0,0,.055-.055,5.328,5.328,0,0,1,4.345-4.235.118.118,0,0,0,.11-.11C52.22,16.371,52.22,16.371,52.165,16.371Z" transform="translate(-8.55 -5.292)" fill="#70d6f9"/>
      <circle id="Ellipse_5" data-name="Ellipse 5" cx="1.65" cy="1.65" r="1.65" transform="translate(31.57 22.685)" fill="#f5c84c"/>
      <circle id="Ellipse_6" data-name="Ellipse 6" cx="1.65" cy="1.65" r="1.65" transform="translate(114.623 58.436)" fill="#fc657e"/>
      <circle id="Ellipse_7" data-name="Ellipse 7" cx="1.65" cy="1.65" r="1.65" transform="translate(29.92 80.437)" fill="#87d147"/>
      <path id="Path_74" data-name="Path 74" d="M108.79,154.721h-7.535a3.493,3.493,0,0,1-3.19-2.09l-4.455-9.9a1.954,1.954,0,0,1-.11-.55v-7.205a1.362,1.362,0,0,1,1.375-1.375,1.306,1.306,0,0,1,.66.165,19.525,19.525,0,0,0,16.226,1.43,1.385,1.385,0,0,1,1.54.44,1.176,1.176,0,0,0,.99.5h1.265a1.439,1.439,0,0,1,1.43,1.32v4.785a1.978,1.978,0,0,1-.11.605l-4.84,9.955A3.888,3.888,0,0,1,108.79,154.721ZM96.14,141.85l4.345,9.625a.737.737,0,0,0,.715.44h7.535a.858.858,0,0,0,.715-.44l4.675-9.68V138.77a3.886,3.886,0,0,1-2.31-.77,22.327,22.327,0,0,1-15.675-.88Z" transform="translate(-31.184 -59.983)"/>
      <path id="Path_75" data-name="Path 75" d="M119.188,206.756H28.765a4.554,4.554,0,0,1-4.565-4.565v-.22l3.355-36.411a10.315,10.315,0,0,1,7.755-9.35l17.326-4.345,10.4-5.115a1.365,1.365,0,0,1,1.815.605v.055l4.455,9.9a.737.737,0,0,0,.715.44h7.535a.858.858,0,0,0,.715-.44l4.84-9.955a1.387,1.387,0,0,1,1.815-.66l6.6,3.245a1.365,1.365,0,0,1,.605,1.815,1.09,1.09,0,0,1-.605.605,8.414,8.414,0,0,0-4.565,7.48v18.426a8.415,8.415,0,0,0,8.415,8.415h21.671a2.958,2.958,0,0,1,2.97,2.97v7.975c0,.055.055.165.11.165a.167.167,0,0,0,.22,0c.33-.165.605-.385.88-.55a1.364,1.364,0,0,1,1.925.385,1.18,1.18,0,0,1,.22.66l.33,3.63v.11a4.555,4.555,0,0,1-4.455,4.675c.055.055,0,.055-.055.055ZM26.95,202.191a1.831,1.831,0,0,0,1.815,1.815h90.478a1.831,1.831,0,0,0,1.815-1.815l-.165-1.54a2.942,2.942,0,0,1-3.465-2.31,2.062,2.062,0,0,1-.055-.605V189.76a.237.237,0,0,0-.22-.22H95.482a11.173,11.173,0,0,1-11.165-11.165V159.949a11.243,11.243,0,0,1,3.905-8.525l-3.245-1.6-4.235,8.745a3.545,3.545,0,0,1-3.19,1.98H70.016a3.493,3.493,0,0,1-3.19-2.09l-3.905-8.635-9.24,4.565c-.11.055-.165.055-.275.11l-17.491,4.4a7.448,7.448,0,0,0-5.665,6.875Z" transform="translate(0 -65.817)"/>
      <path id="Path_76" data-name="Path 76" d="M96.251,102.955A22.547,22.547,0,0,1,73.7,80.569V63.629a2.318,2.318,0,0,1,.935-1.87,2.719,2.719,0,0,1,2.255-.55c4.07.88,14.355,1.87,21.451-6.985a2.472,2.472,0,0,1,3.52-.385.759.759,0,0,0,.22.165c1.485,1.43,5.775,4.785,14.19,5.06a2.627,2.627,0,0,1,2.53,2.475h-.055v.055h.055V80.569a22.23,22.23,0,0,1-7.81,16.886,1.331,1.331,0,0,1-1.705.055,1.522,1.522,0,0,0-.88-.275c-.99.055-2.035.11-3.025.11a1.338,1.338,0,0,0-1.32,1.32,1.119,1.119,0,0,0,.33.825,1.381,1.381,0,0,1-.165,1.925,1.105,1.105,0,0,1-.44.22,22.188,22.188,0,0,1-7.535,1.32ZM76.45,63.9V80.514a19.718,19.718,0,0,0,19.8,19.636,20.079,20.079,0,0,0,5.115-.66,4.275,4.275,0,0,1-.11-.88,4.061,4.061,0,0,1,4.07-4.07c.935,0,1.87-.055,2.805-.11a4.141,4.141,0,0,1,1.65.22,19.52,19.52,0,0,0,6.16-14.19v-18.7c-8.635-.275-13.475-3.575-15.675-5.665C92.181,66.1,80.19,64.674,76.45,63.9Z" transform="translate(-22.274 -23.838)"/>
      <path id="Path_77" data-name="Path 77" d="M106.883,116.708a11,11,0,0,1-9.35-5.17,1.417,1.417,0,0,1,.44-1.925,1.369,1.369,0,0,1,1.925.44,8.3,8.3,0,0,0,11.44,2.64,8.074,8.074,0,0,0,2.64-2.64,1.4,1.4,0,1,1,2.365,1.485A11.329,11.329,0,0,1,106.883,116.708Z" transform="translate(-32.906 -49.086)"/>
      <circle id="Ellipse_8" data-name="Ellipse 8" cx="2.475" cy="2.475" r="2.475" transform="translate(62.426 47.876)"/>
      <circle id="Ellipse_9" data-name="Ellipse 9" cx="2.475" cy="2.475" r="2.475" transform="translate(80.962 47.876)"/>
      <path id="Path_78" data-name="Path 78" d="M68.73,90.886H67.355A3.333,3.333,0,0,1,64,87.531V65.255A3.333,3.333,0,0,1,67.355,61.9H68.73a3.333,3.333,0,0,1,3.355,3.355V87.531A3.333,3.333,0,0,1,68.73,90.886ZM67.355,64.65a.61.61,0,0,0-.605.605V87.531a.61.61,0,0,0,.605.605H68.73a.61.61,0,0,0,.605-.605V65.255a.61.61,0,0,0-.605-.605Z" transform="translate(-17.909 -27.719)"/>
      <path id="Path_79" data-name="Path 79" d="M55.445,90.391a12.045,12.045,0,0,1,0-24.091,3.631,3.631,0,0,1,.77.055A1.378,1.378,0,0,1,57.48,67.73V89.016a1.378,1.378,0,0,1-1.265,1.375h-.77ZM54.73,69.105a9.3,9.3,0,0,0,0,18.536Z" transform="translate(-8.64 -29.699)"/>
      <path id="Path_80" data-name="Path 80" d="M155.33,90.886h-1.375a3.333,3.333,0,0,1-3.355-3.355V65.255a3.333,3.333,0,0,1,3.355-3.355h1.375a3.333,3.333,0,0,1,3.355,3.355V87.531A3.333,3.333,0,0,1,155.33,90.886ZM153.955,64.65a.61.61,0,0,0-.605.605V87.531a.61.61,0,0,0,.605.605h1.375a.61.61,0,0,0,.605-.605V65.255a.61.61,0,0,0-.605-.605Z" transform="translate(-56.878 -27.719)"/>
      <path id="Path_81" data-name="Path 81" d="M162.38,90.391a2.906,2.906,0,0,1-.715-.055,1.378,1.378,0,0,1-1.265-1.375V67.73a1.378,1.378,0,0,1,1.265-1.375c.22,0,.5-.055.77-.055a12.045,12.045,0,1,1-.055,24.091Zm.715-21.286V87.641a9.3,9.3,0,0,0,0-18.536Z" transform="translate(-61.288 -29.699)"/>
      <path id="Path_82" data-name="Path 82" d="M127.87,136.446a4.07,4.07,0,1,1,0-8.14c.935,0,1.87-.055,2.805-.11a4.019,4.019,0,0,1,4.235,3.85,4.1,4.1,0,0,1-3.685,4.235,33.435,33.435,0,0,1-3.355.165Zm3.135-5.5h-.11c-.99.055-2.035.11-3.025.11a1.32,1.32,0,1,0,0,2.64c1.045,0,2.145-.055,3.19-.11a1.293,1.293,0,0,0,1.21-1.375,1.317,1.317,0,0,0-1.265-1.265Z" transform="translate(-44.818 -57.549)"/>
      <path id="Path_83" data-name="Path 83" d="M141.675,122.326a1.362,1.362,0,0,1-1.375-1.375,1.412,1.412,0,0,1,1.155-1.375,29.273,29.273,0,0,0,10.065-3.52,7.976,7.976,0,0,0,4.07-6.985v-3.8a1.375,1.375,0,1,1,2.75,0v3.8a10.774,10.774,0,0,1-5.5,9.405,32.8,32.8,0,0,1-11,3.85Z" transform="translate(-52.243 -46.619)"/>
      <path id="Path_84" data-name="Path 84" d="M66.48,41.166a1.362,1.362,0,0,1-1.375-1.375V37.536a.61.61,0,0,0-.605-.605H63.125a.61.61,0,0,0-.605.605v.5a1.288,1.288,0,0,1-.44.99,1.452,1.452,0,0,1-1.045.385,9.087,9.087,0,0,0-4.51.88,1.341,1.341,0,0,1-1.815-.66,1.088,1.088,0,0,1-.11-.605V33.246a33.084,33.084,0,0,1,66.167,0v5.83a1.362,1.362,0,0,1-1.375,1.375,2.339,2.339,0,0,1-.605-.11,8.721,8.721,0,0,0-4.565-.88,1.367,1.367,0,0,1-1.485-1.265v-.66a.61.61,0,0,0-.605-.605h-1.375a.61.61,0,0,0-.605.605v.11a1.362,1.362,0,0,1-1.375,1.375,1.408,1.408,0,0,1-1.375-1.1c-8.69-.275-13.475-3.575-15.675-5.665-8.14,10.065-20.186,8.58-23.871,7.81a1.408,1.408,0,0,1-1.375,1.1Zm1.375-3.85a.816.816,0,0,1,.385.055c4.07.88,14.355,1.87,21.451-6.985A2.472,2.472,0,0,1,93.211,30a.759.759,0,0,0,.22.165c1.485,1.43,5.775,4.785,14.19,5.06a1.977,1.977,0,0,1,.605.11,3.339,3.339,0,0,1,2.475-1.1h1.375a3.3,3.3,0,0,1,3.245,2.475,11.043,11.043,0,0,1,2.64.44V33.3A30.334,30.334,0,0,0,57.3,33.246V37.1a13.366,13.366,0,0,1,2.585-.44,3.3,3.3,0,0,1,3.245-2.475H64.5a3.366,3.366,0,0,1,3.355,3.135Z" transform="translate(-13.679 0)"/>
      <path id="Path_85" data-name="Path 85" d="M70.845,45.441a1.362,1.362,0,0,1-1.375-1.375V41.811a.61.61,0,0,0-.605-.605H67.49a.662.662,0,0,0-.55.385,1.332,1.332,0,0,1-1.815.715,1.39,1.39,0,0,1-.825-1.265v-3.52a27.721,27.721,0,0,1,55.442,0v3.685a1.385,1.385,0,0,1-2.7.44.579.579,0,0,0-.55-.44h-1.375a.61.61,0,0,0-.605.605v.11a1.362,1.362,0,0,1-1.375,1.375,1.408,1.408,0,0,1-1.375-1.1c-8.69-.275-13.475-3.575-15.675-5.665-8.14,10.065-20.186,8.58-23.871,7.81a1.408,1.408,0,0,1-1.375,1.1Zm1.375-3.85a.816.816,0,0,1,.385.055c4.07.88,14.355,1.87,21.451-6.985a2.472,2.472,0,0,1,3.52-.385.759.759,0,0,0,.22.165c1.485,1.43,5.775,4.785,14.19,5.06a1.977,1.977,0,0,1,.605.11,3.339,3.339,0,0,1,2.475-1.1h1.375a1.523,1.523,0,0,1,.5.055v-.99a24.943,24.943,0,0,0-49.887-.055v.99c.165,0,.275-.055.44-.055h1.375a3.366,3.366,0,0,1,3.355,3.135Z" transform="translate(-18.044 -4.275)"/>
      <path id="Path_86" data-name="Path 86" d="M129.807,167.035a1.208,1.208,0,0,1-1.045-.495l-6.105-7.645a1.45,1.45,0,0,1-.165-1.485l4.84-9.955a1.387,1.387,0,0,1,1.815-.66l6.6,3.245a1.365,1.365,0,0,1,.605,1.815,1.09,1.09,0,0,1-.605.605,8.413,8.413,0,0,0-4.565,7.48V165.6a1.375,1.375,0,0,1-1.375,1.43Zm-4.51-9.185,3.135,3.905v-1.76a11.243,11.243,0,0,1,3.905-8.525l-3.245-1.6Z" transform="translate(-44.17 -65.862)"/>
      <path id="Path_87" data-name="Path 87" d="M82.619,168.621a1.523,1.523,0,0,1-.5-.055,3.286,3.286,0,0,1-2.585-2.035l-5.225-12.815a1.374,1.374,0,0,1,.66-1.76l10.505-5.17a1.365,1.365,0,0,1,1.815.605v.055l4.455,9.9c0,.055.055.055.055.11a1.407,1.407,0,0,1-.055,1.6l-6.655,8.25A2.851,2.851,0,0,1,82.619,168.621Zm-.55-3.08a.572.572,0,0,0,.715.33.759.759,0,0,0,.22-.165l6.105-7.59-3.685-8.2-8.085,4.015Z" transform="translate(-22.503 -65.854)"/>
      <path id="Path_88" data-name="Path 88" d="M114.11,215.952h-5.335a1.362,1.362,0,0,1-1.375-1.375v-46.2A1.362,1.362,0,0,1,108.775,167h5.335a1.362,1.362,0,0,1,1.375,1.375v46.2A1.4,1.4,0,0,1,114.11,215.952ZM110.1,213.2h2.585V169.75H110.1Z" transform="translate(-37.439 -75.013)"/>
      <path id="Path_89" data-name="Path 89" d="M177.481,153H145.69a9.812,9.812,0,0,0-9.79,9.79v18.426a9.812,9.812,0,0,0,9.79,9.79h21.671a1.6,1.6,0,0,1,1.6,1.6v7.975a1.6,1.6,0,0,0,1.6,1.6,1.263,1.263,0,0,0,.77-.22,17.158,17.158,0,0,0,7.755-9.57,3.624,3.624,0,0,1,2.035-2.09,9.866,9.866,0,0,0,6.16-9.075V162.79A9.848,9.848,0,0,0,177.481,153Z" transform="translate(-50.263 -68.713)" fill="#f5c84c"/>
      <path id="Path_90" data-name="Path 90" d="M169.426,202.567a3.5,3.5,0,0,1-1.485-.385,2.848,2.848,0,0,1-1.485-2.53v-7.975a.237.237,0,0,0-.22-.22H144.565A11.173,11.173,0,0,1,133.4,180.291V161.865A11.173,11.173,0,0,1,144.565,150.7h31.791a11.173,11.173,0,0,1,11.165,11.165v18.426a11.157,11.157,0,0,1-7.04,10.4,2.179,2.179,0,0,0-1.21,1.21,18.645,18.645,0,0,1-8.36,10.285,3.3,3.3,0,0,1-1.485.385ZM144.62,153.34a8.415,8.415,0,0,0-8.415,8.415v18.426a8.415,8.415,0,0,0,8.415,8.415h21.671a2.958,2.958,0,0,1,2.97,2.97v7.975c0,.055.055.165.11.165a.167.167,0,0,0,.22,0,16.155,16.155,0,0,0,7.15-8.8,5.046,5.046,0,0,1,2.805-2.915,8.428,8.428,0,0,0,5.28-7.81V161.755a8.415,8.415,0,0,0-8.415-8.415Z" transform="translate(-49.138 -67.678)"/>
      <path id="Path_91" data-name="Path 91" d="M176.238,200.018a8.559,8.559,0,0,1-7.205-3.96,1.4,1.4,0,0,1,2.365-1.485,5.746,5.746,0,0,0,9.735,0,1.4,1.4,0,0,1,2.365,1.485A8.725,8.725,0,0,1,176.238,200.018Z" transform="translate(-65.08 -87.13)"/>
      <circle id="Ellipse_10" data-name="Ellipse 10" cx="2.53" cy="2.53" r="2.53" transform="translate(101.642 96.497)"/>
      <circle id="Ellipse_11" data-name="Ellipse 11" cx="2.53" cy="2.53" r="2.53" transform="translate(115.998 96.497)"/>
      <path id="Path_92" data-name="Path 92" d="M57.875,234.426a1.362,1.362,0,0,1-1.375-1.375V211.875a1.375,1.375,0,0,1,2.75,0v21.176A1.362,1.362,0,0,1,57.875,234.426Z" transform="translate(-14.534 -94.587)"/>
    </g>
    <text id="Economic_Sectors-2" data-name="Economic Sectors" transform="translate(404 409)" font-size="28" font-family="SegoeUI-Bold, Segoe UI" font-weight="700"><tspan x="0" y="0">Economic Sectors</tspan></text>
  </g>
</svg>
