<svg id="Layer_3" enable-background="new 0 0 64 64" height="512" viewBox="0 0 64 64" width="512" xmlns="http://www.w3.org/2000/svg"><g><g><circle cx="32" cy="8" fill="#f5b953" r="6"/></g><g><circle cx="14" cy="14" fill="#f5b953" r="6"/></g><g><circle cx="50" cy="14" fill="#f5b953" r="6"/></g><g><circle cx="14" cy="50" fill="#f5b953" r="6"/></g><g><circle cx="50" cy="50" fill="#f5b953" r="6"/></g><g><circle cx="32" cy="56" fill="#f5b953" r="6"/></g><g><circle cx="8" cy="32" fill="#f5b953" r="6"/></g><g><circle cx="56" cy="32" fill="#f5b953" r="6"/></g><g><circle cx="32" cy="32" fill="#3d98f7" r="15"/></g><g><path d="m29.439 30.561 1.96-1.96c.373-.373.913-.522 1.424-.395l2.04.51c.669.167 1.137.767 1.137 1.455v1.329c0 .828-.672 1.5-1.5 1.5h-1c-.828 0-1.5.672-1.5 1.5 0 .828-.672 1.5-1.5 1.5-.828 0-1.5-.672-1.5-1.5v-2.879c0-.398.158-.779.439-1.06z" fill="#96cc7f"/></g><g><path d="m32.621 20.621.757.757c.398.398.621.937.621 1.5.001 1.172.951 2.122 2.122 2.122h1c.563 0 1.102.223 1.5.621l1.757 1.757c.398.398.937.621 1.5.621h4.565c-1.751-6.338-7.546-10.999-14.443-10.999v2.121c0 .563.224 1.102.621 1.5z" fill="#96cc7f"/></g><g><path d="m23 31c-.64-.64-1-1.509-1-2.414v-.172c0-.906-.36-1.774-1-2.414l-1.797-1.797c-1.388 2.274-2.203 4.937-2.203 7.797 0 4.903 2.363 9.242 6 11.98v-3.565c0-.906.36-1.774 1-2.414s1-1.509 1-2.414v-1.172c0-.906-.36-1.774-1-2.414z" fill="#96cc7f"/></g><g><path d="m46.851 34h-2.68c-.75 0-1.47.298-2 .828l-.343.343c-.53.53-1.25.828-2 .828-1.562.001-2.828 1.267-2.828 2.829 0 .75-.298 1.47-.828 2l-1.343 1.343c-.53.53-.828 1.25-.828 2v2.68c6.679-.892 11.958-6.171 12.85-12.851z" fill="#96cc7f"/></g><g><path d="m32 48c-8.822 0-16-7.178-16-16s7.178-16 16-16 16 7.178 16 16-7.178 16-16 16zm0-30c-7.72 0-14 6.28-14 14s6.28 14 14 14 14-6.28 14-14-6.28-14-14-14z"/></g><g><path d="m47 29h-5.121c-.834 0-1.618-.325-2.207-.914l-1.758-1.758c-.212-.211-.493-.328-.793-.328h-1c-1.721 0-3.121-1.4-3.121-3.121 0-.3-.117-.581-.328-.793l-.758-.758c-.589-.589-.914-1.373-.914-2.207v-2.121h2v2.121c0 .3.117.581.328.793l.758.758c.589.589.914 1.373.914 2.207 0 .618.503 1.121 1.121 1.121h1c.834 0 1.618.325 2.207.914l1.758 1.758c.212.211.493.328.793.328h5.121z"/></g><g><path d="m35 47h-2v-2.829c0-1.022.398-1.984 1.122-2.707l1.343-1.343c.345-.345.535-.804.535-1.292 0-2.112 1.717-3.829 3.829-3.829.488 0 .947-.19 1.293-.536l.343-.343c.723-.723 1.684-1.121 2.706-1.121h2.829v2h-2.829c-.488 0-.947.19-1.293.536l-.343.343c-.723.723-1.684 1.121-2.706 1.121-1.009 0-1.829.82-1.829 1.829 0 1.022-.398 1.984-1.122 2.707l-1.343 1.343c-.345.345-.535.804-.535 1.292z"/></g><g><path d="m24 44h-2v-3.586c0-1.179.459-2.288 1.293-3.121.449-.449.707-1.072.707-1.707v-1.172c0-.635-.258-1.258-.707-1.707l-1-1c-.834-.833-1.293-1.942-1.293-3.121v-.172c0-.635-.258-1.258-.707-1.707l-2-2 1.414-1.414 2 2c.834.833 1.293 1.942 1.293 3.121v.172c0 .635.258 1.258.707 1.707l1 1c.834.833 1.293 1.942 1.293 3.121v1.172c0 1.179-.459 2.288-1.293 3.121-.449.449-.707 1.072-.707 1.707z"/></g><g><path d="m30.5 37c-1.378 0-2.5-1.122-2.5-2.5v-2.879c0-.658.267-1.302.732-1.768l1.96-1.96c.617-.619 1.527-.869 2.375-.658l2.039.51c1.115.279 1.894 1.277 1.894 2.426v1.329c0 1.378-1.122 2.5-2.5 2.5h-1c-.276 0-.5.224-.5.5 0 1.378-1.122 2.5-2.5 2.5zm1.961-7.838c-.131 0-.26.052-.354.146l-1.96 1.96c-.094.093-.147.222-.147.353v2.879c0 .276.224.5.5.5s.5-.224.5-.5c0-1.378 1.122-2.5 2.5-2.5h1c.276 0 .5-.224.5-.5v-1.329c0-.23-.156-.43-.379-.485l-2.04-.51c-.039-.009-.08-.014-.12-.014z"/></g><g><path d="m32 15c-3.86 0-7-3.14-7-7s3.14-7 7-7 7 3.14 7 7-3.14 7-7 7zm0-12c-2.757 0-5 2.243-5 5s2.243 5 5 5 5-2.243 5-5-2.243-5-5-5z"/></g><g><path d="m34 10h-5v-2h2l-1.6-1.2c-.344-.258-.485-.708-.349-1.116.137-.409.518-.684.949-.684h5v2h-2l1.6 1.2c.344.258.485.708.349 1.116-.137.409-.518.684-.949.684z"/></g><g><path d="m31 4h2v2h-2z"/></g><g><path d="m31 9h2v2h-2z"/></g><g><path d="m14 21c-3.86 0-7-3.14-7-7s3.14-7 7-7 7 3.14 7 7-3.14 7-7 7zm0-12c-2.757 0-5 2.243-5 5s2.243 5 5 5 5-2.243 5-5-2.243-5-5-5z"/></g><g><path d="m16 16h-5v-2h2l-1.6-1.2c-.344-.258-.485-.708-.349-1.116.137-.409.518-.684.949-.684h5v2h-2l1.6 1.2c.344.258.485.708.349 1.116-.137.409-.518.684-.949.684z"/></g><g><path d="m13 10h2v2h-2z"/></g><g><path d="m13 15h2v2h-2z"/></g><g><path d="m50 21c-3.86 0-7-3.14-7-7s3.14-7 7-7 7 3.14 7 7-3.14 7-7 7zm0-12c-2.757 0-5 2.243-5 5s2.243 5 5 5 5-2.243 5-5-2.243-5-5-5z"/></g><g><path d="m52 16h-5v-2h2l-1.6-1.2c-.344-.258-.485-.708-.349-1.116.137-.409.518-.684.949-.684h5v2h-2l1.6 1.2c.344.258.485.708.349 1.116-.137.409-.518.684-.949.684z"/></g><g><path d="m49 10h2v2h-2z"/></g><g><path d="m49 15h2v2h-2z"/></g><g><path d="m14 57c-3.86 0-7-3.14-7-7s3.14-7 7-7 7 3.14 7 7-3.14 7-7 7zm0-12c-2.757 0-5 2.243-5 5s2.243 5 5 5 5-2.243 5-5-2.243-5-5-5z"/></g><g><path d="m16 52h-5v-2h2l-1.6-1.2c-.344-.258-.485-.708-.349-1.116.137-.409.518-.684.949-.684h5v2h-2l1.6 1.2c.344.258.485.708.349 1.116-.137.409-.518.684-.949.684z"/></g><g><path d="m13 46h2v2h-2z"/></g><g><path d="m13 51h2v2h-2z"/></g><g><path d="m50 57c-3.86 0-7-3.14-7-7s3.14-7 7-7 7 3.14 7 7-3.14 7-7 7zm0-12c-2.757 0-5 2.243-5 5s2.243 5 5 5 5-2.243 5-5-2.243-5-5-5z"/></g><g><path d="m52 52h-5v-2h2l-1.6-1.2c-.344-.258-.485-.708-.349-1.116.137-.409.518-.684.949-.684h5v2h-2l1.6 1.2c.344.258.485.708.349 1.116-.137.409-.518.684-.949.684z"/></g><g><path d="m49 46h2v2h-2z"/></g><g><path d="m49 51h2v2h-2z"/></g><g><path d="m32 63c-3.86 0-7-3.14-7-7s3.14-7 7-7 7 3.14 7 7-3.14 7-7 7zm0-12c-2.757 0-5 2.243-5 5s2.243 5 5 5 5-2.243 5-5-2.243-5-5-5z"/></g><g><path d="m34 58h-5v-2h2l-1.6-1.2c-.344-.258-.485-.708-.349-1.116.137-.409.518-.684.949-.684h5v2h-2l1.6 1.2c.344.258.485.708.349 1.116-.137.409-.518.684-.949.684z"/></g><g><path d="m31 52h2v2h-2z"/></g><g><path d="m31 57h2v2h-2z"/></g><g><path d="m8 39c-3.86 0-7-3.14-7-7s3.14-7 7-7 7 3.14 7 7-3.14 7-7 7zm0-12c-2.757 0-5 2.243-5 5s2.243 5 5 5 5-2.243 5-5-2.243-5-5-5z"/></g><g><path d="m10 34h-5v-2h2l-1.6-1.2c-.344-.258-.485-.708-.349-1.116.137-.409.518-.684.949-.684h5v2h-2l1.6 1.2c.344.258.485.708.349 1.116-.137.409-.518.684-.949.684z"/></g><g><path d="m7 28h2v2h-2z"/></g><g><path d="m7 33h2v2h-2z"/></g><g><path d="m56 39c-3.86 0-7-3.14-7-7s3.14-7 7-7 7 3.14 7 7-3.14 7-7 7zm0-12c-2.757 0-5 2.243-5 5s2.243 5 5 5 5-2.243 5-5-2.243-5-5-5z"/></g><g><path d="m58 34h-5v-2h2l-1.6-1.2c-.344-.258-.485-.708-.349-1.116.137-.409.518-.684.949-.684h5v2h-2l1.6 1.2c.344.258.485.708.349 1.116-.137.409-.518.684-.949.684z"/></g><g><path d="m55 28h2v2h-2z"/></g><g><path d="m55 33h2v2h-2z"/></g><g><path d="m19.521 11.496-1.041-1.708c2.264-1.38 4.714-2.401 7.281-3.034l.479 1.942c-2.369.583-4.63 1.525-6.719 2.8z"/></g><g><path d="m44.479 11.496c-2.089-1.274-4.35-2.216-6.719-2.8l.479-1.942c2.567.633 5.018 1.654 7.281 3.034z"/></g><g><path d="m55.304 26.239c-.583-2.369-1.525-4.629-2.8-6.719l1.708-1.041c1.38 2.264 2.401 4.714 3.034 7.281z"/></g><g><path d="m54.212 45.521-1.708-1.041c1.274-2.089 2.216-4.35 2.8-6.719l1.942.479c-.632 2.567-1.653 5.017-3.034 7.281z"/></g><g><path d="m38.239 57.247-.479-1.942c2.369-.583 4.629-1.525 6.719-2.8l1.041 1.708c-2.263 1.38-4.713 2.401-7.281 3.034z"/></g><g><path d="m25.761 57.247c-2.567-.633-5.018-1.654-7.281-3.034l1.041-1.708c2.089 1.274 4.35 2.216 6.719 2.8z"/></g><g><path d="m9.788 45.521c-1.38-2.264-2.401-4.714-3.034-7.281l1.942-.479c.583 2.369 1.525 4.629 2.8 6.719z"/></g><g><path d="m8.696 26.239-1.942-.479c.633-2.567 1.654-5.018 3.034-7.281l1.708 1.041c-1.275 2.09-2.217 4.351-2.8 6.719z"/></g></g></svg>