<svg height="512pt" viewBox="0 -46 512 512" width="512pt" xmlns="http://www.w3.org/2000/svg"><path d="m249.5 36.261719 225 364.328125h30v-364.328125zm0 0" fill="#ff4815"/><path d="m7.5 37.5v363.089844h218.765625l13.660156 12.414062 32.152344-.003906 13.652344-12.410156h188.769531v-30l-105-333.089844zm0 0" fill="#ff6a2e"/><path d="m414.5 310.589844 60 30v30h-30zm0 0" fill="#ffd175"/><path d="m226 281 30 105c6.179688-9.289062 16.738281-15.410156 28.730469-15.410156h159.769531v-30zm0 0" fill="#ffe1a3"/><path d="m37.5 340.589844v30h189.769531c11.992188 0 22.550781 6.121094 28.730469 15.410156v-105zm0 0" fill="#fff0d1"/><path d="m444.5 7.5-80 166.546875 80 166.542969h30v-333.089844zm0 0" fill="#ffe1a3"/><path d="m444.5 7.5v333.089844h-159.769531c-11.992188 0-22.550781 6.121094-28.730469 15.410156l-90-196.539062 90-136.539063c6.179688-9.292969 16.738281-15.421875 28.730469-15.421875zm0 0" fill="#fff0d1"/><path d="m256 22.921875v333.078125c-6.179688-9.289062-16.738281-15.410156-28.730469-15.410156h-189.769531v-333.089844h189.769531c11.992188 0 22.550781 6.128906 28.730469 15.421875zm0 0" fill="#fff"/><path d="m67.5 83.796875h158.5v210.5h-158.5zm0 0" fill="#ccc3ae"/><path d="m144.519531 113.796875-22.5 45 30 30h30v-37.5c0-20.710937-16.789062-37.5-37.5-37.5zm0 0" fill="#4e4b44"/><path d="m152.019531 151.296875c0-20.710937-3.359375-37.5-7.5-37.5-20.710937 0-37.5 16.789063-37.5 37.5v37.5h45s0-16.789063 0-37.5zm0 0" fill="#68645b"/><path d="m176 218.796875h-30l20 45.5h30v-25.5c0-11-9-20-20-20zm0 0" fill="#4e4b44"/><path d="m146 218.796875h-28.5c-11 0-20 9-20 20v25.5h68.5v-25.5c0-11-9-20-20-20zm0 0" fill="#68645b"/><path d="m256 324.828125c4.140625 0 7.5-3.359375 7.5-7.5v-264.40625c0-4.140625-3.359375-7.5-7.5-7.5s-7.5 3.359375-7.5 7.5v264.40625c0 4.140625 3.355469 7.5 7.5 7.5zm0 0"/><path d="m504.5 30h-22.5v-22.5c0-4.144531-3.359375-7.5-7.5-7.5h-189.765625c-10.816406 0-21.035156 4.136719-28.734375 11.371094-7.699219-7.234375-17.914062-11.371094-28.730469-11.371094h-189.769531c-4.140625 0-7.5 3.355469-7.5 7.5v22.5h-22.5c-4.140625 0-7.5 3.355469-7.5 7.5v363.089844c0 4.144531 3.359375 7.5 7.5 7.5h215.867188l11.515624 10.464844c1.378907 1.253906 3.179688 1.949218 5.042969 1.949218l32.152344-.003906c1.863281 0 3.664063-.695312 5.042969-1.949219l11.507812-10.460937h215.871094c4.140625 0 7.5-3.355469 7.5-7.5v-363.089844c0-4.144531-3.359375-7.5-7.5-7.5zm-277.234375 333.089844h-182.265625v-15h182.265625c8.34375 0 16.128906 3.835937 21.234375 10.34375v10.421875c-6.339844-3.71875-13.636719-5.765625-21.234375-5.765625zm36.234375-4.65625c5.101562-6.507813 12.886719-10.34375 21.234375-10.34375h182.265625v15h-182.265625c-7.597656 0-14.894531 2.046875-21.234375 5.761718zm-218.5-343.433594h182.265625c9.058594 0 17.464844 4.515625 22.488281 12.074219 1.390625 2.089843 3.734375 3.347656 6.246094 3.347656s4.855469-1.257813 6.246094-3.347656c5.023437-7.5625 13.429687-12.074219 22.488281-12.074219h182.265625v318.089844h-182.265625c-10.820313 0-21.039063 4.132812-28.734375 11.363281-7.699219-7.230469-17.917969-11.363281-28.734375-11.363281h-182.265625zm452 378.089844h-211.269531c-1.863281 0-3.664063.695312-5.042969 1.949218l-11.507812 10.460938-26.355469.003906-11.511719-10.464844c-1.378906-1.253906-3.179688-1.949218-5.042969-1.949218h-211.269531v-348.089844h15v325.589844c0 4.144531 3.359375 7.5 7.5 7.5h189.765625c9.058594 0 17.464844 4.511718 22.488281 12.0625.167969.25.339844.472656.523438.691406.050781.0625.109375.117188.164062.175781.132813.152344.277344.296875.421875.4375.070313.0625.136719.125.207031.1875.15625.136719.320313.265625.488282.386719.054687.042969.113281.089844.171875.128906.234375.164063.472656.3125.726562.449219.25.132813.503907.25.765625.355469.0625.023437.128906.046875.191406.066406.203126.078125.410157.144531.621094.199219.078125.023437.15625.042969.238282.058593.207031.050782.417968.089844.632812.121094.074219.011719.148438.027344.226562.035156.285157.03125.574219.054688.867188.054688s.582031-.023438.867188-.054688c.078124-.007812.152343-.023437.230468-.035156.210938-.03125.421875-.070312.628906-.117187.078126-.019531.160157-.039063.238282-.0625.210937-.058594.414062-.121094.613281-.195313.066406-.023437.136719-.046875.199219-.074218.257812-.101563.507812-.214844.75-.34375.269531-.144532.507812-.292969.742187-.457032.058594-.039062.117188-.089844.179688-.132812.164062-.121094.324219-.25.476562-.382813.074219-.0625.140625-.125.210938-.191406.148437-.136719.289062-.28125.421875-.433594.054687-.058593.113281-.117187.164062-.175781.183594-.21875.355469-.445312.515625-.679688 5.03125-7.5625 13.4375-12.074218 22.496094-12.074218h189.765625c4.140625 0 7.5-3.355469 7.5-7.5v-325.589844h15zm0 0"/><path d="m316 61.296875h98.5c4.140625 0 7.5-3.359375 7.5-7.5 0-4.144531-3.359375-7.5-7.5-7.5h-98.5c-4.140625 0-7.5 3.355469-7.5 7.5 0 4.140625 3.355469 7.5 7.5 7.5zm0 0"/><path d="m316 91.296875h98.5c4.140625 0 7.5-3.359375 7.5-7.5 0-4.144531-3.359375-7.5-7.5-7.5h-98.5c-4.140625 0-7.5 3.355469-7.5 7.5 0 4.140625 3.355469 7.5 7.5 7.5zm0 0"/><path d="m316 121.296875h98.5c4.140625 0 7.5-3.359375 7.5-7.5 0-4.144531-3.359375-7.5-7.5-7.5h-98.5c-4.140625 0-7.5 3.355469-7.5 7.5 0 4.140625 3.355469 7.5 7.5 7.5zm0 0"/><path d="m316 151.296875h98.5c4.140625 0 7.5-3.359375 7.5-7.5 0-4.144531-3.359375-7.5-7.5-7.5h-98.5c-4.140625 0-7.5 3.355469-7.5 7.5 0 4.140625 3.355469 7.5 7.5 7.5zm0 0"/><path d="m316 181.296875h98.5c4.140625 0 7.5-3.359375 7.5-7.5 0-4.144531-3.359375-7.5-7.5-7.5h-98.5c-4.140625 0-7.5 3.355469-7.5 7.5 0 4.140625 3.355469 7.5 7.5 7.5zm0 0"/><path d="m316 211.296875h98.5c4.140625 0 7.5-3.359375 7.5-7.5 0-4.144531-3.359375-7.5-7.5-7.5h-98.5c-4.140625 0-7.5 3.355469-7.5 7.5 0 4.140625 3.355469 7.5 7.5 7.5zm0 0"/><path d="m67.5 301.796875h158.5c4.140625 0 7.5-3.359375 7.5-7.5v-210.5c0-4.144531-3.359375-7.5-7.5-7.5h-158.5c-4.140625 0-7.5 3.355469-7.5 7.5v210.5c0 4.140625 3.359375 7.5 7.5 7.5zm7.5-210.5h143.5v195.5h-143.5zm0 0"/><path d="m97.5 61.296875h98.5c4.140625 0 7.5-3.359375 7.5-7.5 0-4.144531-3.359375-7.5-7.5-7.5h-98.5c-4.140625 0-7.5 3.355469-7.5 7.5 0 4.140625 3.359375 7.5 7.5 7.5zm0 0"/><path d="m107.019531 196.296875h75c4.140625 0 7.5-3.359375 7.5-7.5v-37.5c0-24.816406-20.1875-45-45-45-24.816406 0-45 20.183594-45 45v37.5c0 4.140625 3.355469 7.5 7.5 7.5zm7.5-45c0-16.542969 13.457031-30 30-30 16.539063 0 30 13.457031 30 30v30h-60zm0 0"/><path d="m176 211.296875h-58.5c-15.164062 0-27.5 12.335937-27.5 27.5v25.5c0 4.140625 3.359375 7.5 7.5 7.5h98.5c4.140625 0 7.5-3.359375 7.5-7.5v-25.5c0-15.164063-12.335938-27.5-27.5-27.5zm12.5 45.5h-83.5v-18c0-6.894531 5.605469-12.5 12.5-12.5h58.5c6.894531 0 12.5 5.605469 12.5 12.5zm0 0"/></svg>