<?xml version="1.0" encoding="iso-8859-1"?>
<!-- Generator: Adobe Illustrator 19.0.0, SVG Export Plug-In . SVG Version: 6.00 Build 0)  -->
<svg version="1.1" id="Capa_1" xmlns="http://www.w3.org/2000/svg" xmlns:xlink="http://www.w3.org/1999/xlink" x="0px" y="0px"
	 viewBox="0 0 512 512" style="enable-background:new 0 0 512 512;" xml:space="preserve">
<circle style="fill:#FDD844;" cx="256" cy="236.039" r="228.554"/>
<circle style="fill:#FF9017;" cx="256" cy="236.039" r="144.717"/>
<path style="fill:#90A4AE;" d="M223.064,105.294V78.347c0-11.024,8.937-19.961,19.961-19.961h25.949
	c11.024,0,19.961,8.937,19.961,19.961v26.947H223.064z"/>
<path style="fill:#B0BEC5;" d="M268.648,58.386c1.463-2.312,2.322-5.045,2.322-7.984c0-8.268-14.971-22.955-14.971-22.955
	s-14.971,14.687-14.971,22.955c0,2.939,0.859,5.672,2.322,7.984H268.648z"/>
<g>
	<path style="fill:#90A4AE;" d="M302.532,120.621c-0.808,3.58-2.035,7.123-3.723,10.559c-1.904,3.875-4.623,7.179-7.878,9.771v27.22
		l7.878-16.032C303.803,141.978,304.851,130.887,302.532,120.621z"/>
	<path style="fill:#90A4AE;" d="M221.068,140.952c-3.255-2.593-5.973-5.895-7.878-9.771c-1.689-3.435-2.914-6.978-3.723-10.559
		c-2.318,10.266-1.271,21.356,3.723,31.518l7.878,16.032V140.952z"/>
</g>
<path style="fill:#CCA766;" d="M357.801,427.665H155.197c-20.395,0-36.928-16.533-36.928-36.928l0,0
	c0-20.395,16.533-36.928,36.928-36.928h202.604c20.395,0,36.928,16.533,36.928,36.928l0,0
	C394.729,411.132,378.196,427.665,357.801,427.665z"/>
<rect x="7.485" y="458.604" style="fill:#B0BEC5;" width="497.029" height="45.91"/>
<g>
	<rect x="91.322" y="427.665" style="fill:#D8D7DA;" width="329.357" height="30.94"/>
	<path style="fill:#D8D7DA;" d="M334.846,246.02v87.828c0,11.028-8.933,19.961-19.961,19.961h-117.77
		c-11.028,0-19.961-8.933-19.961-19.961V246.02c0-11.028,8.933-19.961,19.961-19.961h43.914v-23.953h29.942v23.953h43.914
		C325.913,226.058,334.846,234.991,334.846,246.02z"/>
</g>
<polygon style="fill:#CCA766;" points="270.971,226.058 209.092,269.973 209.092,323.867 302.908,323.867 302.908,226.058 "/>
<path style="fill:#ACABB1;" d="M273.875,226.058c-5.609,1.946-11.617,2.994-17.875,2.994c-6.258,0-12.266-1.048-17.875-2.994h2.904
	v-23.953h29.942v23.953H273.875z"/>
<path style="fill:#CCA766;" d="M277.995,88.78L277.995,88.78c-13.788-7.166-30.202-7.166-43.991,0l0,0
	c-23.003,11.955-32.247,40.093-20.814,63.36l7.879,16.032v-32.936h11.977c12.678,0,22.955,10.277,22.955,22.955
	c0-12.678,10.277-22.955,22.955-22.955h11.977v32.936l7.878-16.032C310.242,128.872,300.999,100.734,277.995,88.78z"/>
<path style="fill:#B7945C;" d="M300.982,115.275h-22.027c-8.437,0-16.313,2.447-22.955,6.669
	c-6.642-4.221-14.519-6.669-22.955-6.669h-22.027c-4.106,11.671-3.703,24.909,2.173,36.865l7.878,16.032v-32.936h11.977
	c12.678,0,22.955,10.277,22.955,22.955c0-12.678,10.277-22.955,22.955-22.955h11.977v32.936l7.878-16.032
	C304.684,140.184,305.087,126.946,300.982,115.275z"/>
<path style="fill:#D8D7DA;" d="M278.955,135.236c-12.678,0-22.955,10.277-22.955,22.955l0,0l0,0
	c0-12.678-10.277-22.955-22.955-22.955h-11.977v38.924c0,19.292,15.639,34.932,34.932,34.932l0,0
	c19.292,0,34.932-15.639,34.932-34.932v-38.924H278.955z"/>
<path style="fill:#ACABB1;" d="M278.955,135.236c-12.678,0-22.955,10.277-22.955,22.955c0-12.678-10.277-22.955-22.955-22.955
	h-11.977v17.965h11.977c5.918,0,8.686,2.153,9.955,5.814c1.89,5.456,6.977,9.157,12.752,9.157l0,0
	c5.471,0,10.505-3.269,12.465-8.378c1.504-3.924,4.639-6.593,10.74-6.593h11.977v-17.965H278.955z"/>
<g>
	<path style="fill:#B7945C;" d="M357.801,405.708H155.197c-16.572,0-30.594-10.916-35.268-25.949
		c-1.079,3.468-1.66,7.155-1.66,10.979l0,0c0,20.395,16.533,36.928,36.928,36.928h202.604c20.395,0,36.928-16.533,36.928-36.928l0,0
		c0-3.824-0.581-7.51-1.66-10.979C388.395,394.792,374.373,405.708,357.801,405.708z"/>
	<rect x="209.092" y="303.906" style="fill:#B7945C;" width="93.817" height="19.961"/>
</g>
<path style="fill:#ACABB1;" d="M314.885,331.852h-117.77c-11.028,0-19.961-8.933-19.961-19.961v21.957
	c0,11.028,8.933,19.961,19.961,19.961h117.77c11.028,0,19.961-8.933,19.961-19.961v-21.957
	C334.846,322.919,325.913,331.852,314.885,331.852z"/>
<path d="M428.164,451.119v-30.94h-24.468c55.704-44.63,88.343-111.884,88.343-184.14c0-63.047-24.553-122.321-69.136-166.903
	C378.321,24.553,319.047,0,256,0S133.679,24.553,89.097,69.136c-44.583,44.582-69.136,103.856-69.136,166.903
	c0,72.256,32.639,139.511,88.343,184.14H83.836v30.94H0V512h512v-60.881H428.164z M125.754,390.737
	c0-16.235,13.207-29.443,29.442-29.443h41.918h1.996h115.774c0.672,0,1.336-0.033,1.996-0.081v0.081h40.92
	c16.235,0,29.442,13.207,29.442,29.443s-13.207,29.443-29.442,29.443H155.197C138.962,420.179,125.754,406.972,125.754,390.737z
	 M184.639,333.848V246.02c0-6.88,5.596-12.476,12.476-12.476h50.375l-45.883,32.562v65.247h24.472
	c-3.276,4.354-5.626,9.443-6.753,14.971h-20.215h-1.996C190.235,346.324,184.639,340.728,184.639,333.848z M248.515,50.418
	c0.094-2.018,3.27-6.944,7.481-11.945c4.181,4.978,7.397,9.954,7.489,11.929c0,0.168-0.024,0.332-0.035,0.499h-14.902
	C248.539,50.739,248.515,50.579,248.515,50.418z M243.025,65.871h25.949c6.88,0,12.476,5.596,12.476,12.476v3.793
	c-0.001,0-0.002-0.001-0.003-0.002c-15.937-8.282-34.961-8.282-50.894,0c-0.001,0.001-0.003,0.001-0.004,0.002v-3.793
	C230.55,71.467,236.146,65.871,243.025,65.871z M216.001,127.75c1.174-13.303,8.888-25.798,21.456-32.329
	c11.609-6.033,25.473-6.035,37.087,0c12.568,6.531,20.282,19.025,21.455,32.329h-17.044c-9.151,0-17.37,4.057-22.955,10.469
	c-5.585-6.411-13.804-10.469-22.955-10.469H216.001z M228.554,142.721h4.491c8.53,0,15.47,6.939,15.47,15.47h14.971
	c0-8.53,6.939-15.47,15.47-15.47h4.491v31.439c0,15.134-12.313,27.446-27.446,27.446c-15.133,0-27.446-12.312-27.446-27.446V142.721
	z M327.361,333.848c0,6.88-5.596,12.476-12.476,12.476h-80.054c3.09-8.712,11.411-14.971,21.169-14.971h54.394v-97.809h4.491
	c6.88,0,12.476,5.596,12.476,12.476V333.848z M295.423,316.382h-78.846v-42.543l56.78-40.295h22.066V316.382z M256,216.577
	c2.555,0,5.053-0.24,7.485-0.675v6.29l-14.971,10.624v-16.914C250.947,216.337,253.445,216.577,256,216.577z M34.932,236.039
	c0-121.898,99.17-221.068,221.068-221.068s221.068,99.17,221.068,221.068c0,65.023-28.236,125.712-76.728,167.448
	c1.214-4.041,1.874-8.319,1.874-12.75c0-24.49-19.924-44.413-44.413-44.413h-18.482c1.92-3.746,3.012-7.984,3.012-12.476V246.02
	c0-15.134-12.313-27.446-27.446-27.446h-4.491h-31.938v-8.452c11.976-7.505,19.961-20.814,19.961-35.961v-4.248l7.111-14.471
	c6.397-13.019,7.427-27.779,2.899-41.56c-2.528-7.695-6.634-14.605-12.007-20.375V78.347c0-11.846-7.544-21.962-18.08-25.799
	c0.068-0.712,0.115-1.426,0.115-2.147c0-10.583-13.175-24.334-17.213-28.298L256,16.959l-5.243,5.145
	c-4.038,3.963-17.213,17.714-17.213,28.298c0,0.721,0.047,1.435,0.115,2.147c-10.535,3.837-18.08,13.953-18.08,25.799v15.159
	c-5.372,5.77-9.479,12.68-12.007,20.375c-4.527,13.781-3.497,28.541,2.899,41.56l7.111,14.471v4.248
	c0,15.146,7.985,28.455,19.961,35.961v8.452h-36.429c-15.133,0-27.446,12.312-27.446,27.446v87.828c0,4.491,1.091,8.73,3.012,12.476
	h-17.484c-24.489,0-44.413,19.923-44.413,44.413c0,4.875,0.801,9.565,2.26,13.958C63.695,362.927,34.932,301.684,34.932,236.039z
	 M98.807,435.15h314.386v15.969H98.807V435.15z M497.029,497.029H14.971v-30.94h482.058V497.029z"/>
<g>
	<path style="fill:#FFFFFF;" d="M443.033,196.659c-3.956-18.821-10.743-36.897-20.169-53.726l13.06-7.316
		c10.168,18.153,17.489,37.654,21.759,57.962L443.033,196.659z M415.354,130.639c-2.643-3.984-5.472-7.92-8.41-11.696l11.819-9.19
		c3.166,4.072,6.217,8.314,9.066,12.609L415.354,130.639z M397.683,107.906c-3.208-3.544-6.592-7.013-10.06-10.313l10.32-10.847
		c3.736,3.555,7.384,7.295,10.84,11.113L397.683,107.906z M376.822,88.061c-12.799-10.472-26.887-19.242-41.873-26.068l6.205-13.623
		c16.159,7.361,31.35,16.816,45.148,28.105L376.822,88.061z"/>
	<path style="fill:#FFFFFF;" d="M88.226,355.61c-7.717-10.797-14.411-22.377-19.896-34.418l13.623-6.206
		c5.086,11.165,11.293,21.904,18.451,31.918L88.226,355.61z"/>
	<path style="fill:#FFFFFF;" d="M64.873,236.039H49.903c0-38.293,10.625-75.7,30.729-108.176l12.729,7.881
		C74.724,165.85,64.873,200.531,64.873,236.039z M101.397,123.788l-12.103-8.812c3.037-4.171,6.268-8.276,9.604-12.202l11.408,9.695
		C107.212,116.11,104.213,119.919,101.397,123.788z M120.038,101.844l-10.655-10.516c3.623-3.67,7.428-7.248,11.313-10.634
		l9.838,11.284C126.931,95.12,123.399,98.44,120.038,101.844z M141.739,82.922l-8.968-11.988
		c17.959-13.436,37.814-23.783,59.014-30.752l4.675,14.222C176.804,60.866,158.394,70.46,141.739,82.922z"/>
	<path style="fill:#FFFFFF;" d="M422.618,357.221l-12.095-8.821c12.151-16.663,21.464-35.025,27.678-54.573l14.267,4.535
		C445.764,319.45,435.721,339.253,422.618,357.221z M456.608,283.389l-14.572-3.437c1.097-4.648,2.029-9.401,2.773-14.128
		l14.789,2.325C458.797,273.248,457.791,278.376,456.608,283.389z M461.428,252.729l-14.922-1.203
		c0.383-4.761,0.591-9.601,0.617-14.387l14.971,0.081C462.066,242.381,461.841,247.598,461.428,252.729z"/>
	<path style="fill:#FFFFFF;" d="M102.53,322.551c-7.157-12.704-12.714-26.307-16.52-40.43l14.456-3.893
		c3.479,12.919,8.562,25.359,15.106,36.976L102.53,322.551z M82.619,266.864c-0.9-5.108-1.585-10.32-2.033-15.492l14.914-1.293
		c0.411,4.736,1.037,9.508,1.861,14.185L82.619,266.864z M94.894,235.785l-14.971-0.023c0.008-5.194,0.248-10.445,0.713-15.609
		l14.91,1.341C95.121,226.222,94.902,231.03,94.894,235.785z M97.452,207.316l-14.735-2.646c2.586-14.399,6.954-28.424,12.983-41.69
		l13.629,6.195C103.814,181.308,99.818,194.141,97.452,207.316z M115.818,156.442l-13.022-7.389
		c2.56-4.511,5.357-8.962,8.312-13.233l12.31,8.519C120.715,148.245,118.158,152.318,115.818,156.442z M132.069,132.965
		l-11.503-9.581c3.314-3.979,6.853-7.866,10.518-11.55l10.614,10.556C138.343,125.764,135.103,129.322,132.069,132.965z"/>
	<path style="fill:#FFFFFF;" d="M412.292,317.338l-13.285-6.902c2.59-4.985,4.942-10.179,6.994-15.438l13.948,5.441
		C417.703,306.194,415.127,311.88,412.292,317.338z M424.975,285.638l-14.377-4.178c1.323-4.554,2.462-9.231,3.383-13.9
		l14.688,2.896C427.664,275.556,426.42,280.664,424.975,285.638z M431.021,255.018l-14.883-1.61
		c0.511-4.724,0.822-9.532,0.927-14.293l14.967,0.327C431.919,244.629,431.579,249.87,431.021,255.018z M416.751,224.815
		c-2.58-38.676-19.192-75.167-46.776-102.751l10.584-10.585c30.15,30.148,48.308,70.045,51.129,112.342L416.751,224.815z"/>
	<path style="fill:#FFFFFF;" d="M357.801,398.222H342.83v-14.971h14.971V398.222z M327.86,398.222h-14.971v-14.971h14.971V398.222z
		 M297.918,398.222h-33.934v-14.971h33.934V398.222z M249.014,398.222h-14.971v-14.971h14.971V398.222z M219.072,398.222h-14.971
		v-14.971h14.971V398.222z M189.131,398.222h-33.934v-14.971h33.934V398.222z"/>
	<rect x="265.481" y="261.489" style="fill:#FFFFFF;" width="14.971" height="14.971"/>
	<rect x="232.047" y="289.435" style="fill:#FFFFFF;" width="24.951" height="14.971"/>
</g>
<g>
</g>
<g>
</g>
<g>
</g>
<g>
</g>
<g>
</g>
<g>
</g>
<g>
</g>
<g>
</g>
<g>
</g>
<g>
</g>
<g>
</g>
<g>
</g>
<g>
</g>
<g>
</g>
<g>
</g>
</svg>
