<svg id="Capa_1" enable-background="new 0 0 512 512" height="512" viewBox="0 0 512 512" width="512" xmlns="http://www.w3.org/2000/svg"><g><g><g><g><g><path d="m462.729 504.5c5.688 0 9.644-5.599 7.783-10.961-18.96-54.626-20.188-97.869-17.256-128.435 4.432-46.208 20.866-89.474-3.863-123.054-9.013-12.238-20.067-18.536-21.245-33.647-1.766-22.651 21.27-31.602 19.313-54.796-1.167-13.817-11.088-31.338-27.039-33.647-14.127-2.046-30.028 8.268-36.695 25.956-6.667-17.689-22.568-28.002-36.695-25.956-15.951 2.309-25.873 19.83-27.039 33.647-1.957 23.194 21.079 32.145 19.313 54.796-1.178 15.111-12.232 21.409-21.245 33.647-24.729 33.58-8.295 76.846-3.863 123.054 2.932 30.565 1.704 73.808-17.256 128.435-1.861 5.362 2.095 10.961 7.783 10.961z" fill="#f58a97"/><g><path d="m470.512 493.539c-18.961-54.626-20.188-97.869-17.256-128.435 4.432-46.208 20.866-89.474-3.863-123.054-9.013-12.238-20.066-18.537-21.244-33.647-1.766-22.651 21.27-31.602 19.313-54.796-1.167-13.817-11.088-31.337-27.039-33.647-6.367-.922-13.092.673-19.172 4.316 9.551 6.557 15.337 18.982 16.211 29.331 1.957 23.194-21.08 32.145-19.313 54.796 1.178 15.111 12.232 21.409 21.244 33.647 24.729 33.58 8.295 76.845 3.863 123.054-2.932 30.565-1.705 73.808 17.256 128.435 1.861 5.362-2.095 10.961-7.783 10.961h30c5.688 0 9.644-5.599 7.783-10.961z" fill="#f07281"/></g></g></g></g><g><g><g><path d="m207.273 504.5c5.688 0 9.644-5.599 7.783-10.961-18.96-54.626-20.188-97.869-17.256-128.435 4.432-46.208 20.866-89.474-3.863-123.054-9.013-12.238-20.067-18.536-21.245-33.647-1.766-22.651 21.27-31.602 19.313-54.796-1.166-13.817-11.088-31.338-27.039-33.647-14.127-2.046-30.028 8.268-36.695 25.956-6.667-17.689-22.568-28.002-36.695-25.956-15.951 2.309-25.873 19.83-27.039 33.647-1.957 23.194 21.079 32.145 19.313 54.796-1.178 15.111-12.232 21.409-21.245 33.647-24.729 33.58-8.295 76.846-3.863 123.054 2.932 30.565 1.704 73.808-17.256 128.435-1.861 5.362 2.095 10.961 7.783 10.961z" fill="#aca6d6"/><g><path d="m215.056 493.539c-18.96-54.626-20.188-97.869-17.256-128.435 4.432-46.208 20.866-89.474-3.863-123.054-9.013-12.238-20.066-18.537-21.244-33.647-1.766-22.651 21.27-31.602 19.313-54.796-1.167-13.817-11.088-31.337-27.039-33.647-6.367-.922-13.092.673-19.172 4.316 9.551 6.557 15.337 18.982 16.211 29.331 1.957 23.194-21.08 32.145-19.313 54.796 1.178 15.111 12.232 21.409 21.244 33.647 24.729 33.58 8.295 76.845 3.863 123.054-2.932 30.565-1.705 73.808 17.256 128.435 1.861 5.362-2.095 10.961-7.783 10.961h30c5.688 0 9.644-5.599 7.783-10.961z" fill="#978ecb"/></g></g></g></g></g><path d="m221.564 101.623-86.478-30.856v-14.704c14.577-.746 25.488-13.603 25.488-28.592.001-15.147-12.362-27.471-27.559-27.471-15.749 0-29.156 11.637-29.156 27.471 0 4.142 3.357 7.5 7.5 7.5s7.5-3.358 7.5-7.5c0-7.495 6.717-12.471 14.156-12.471 6.926 0 12.561 5.595 12.561 12.471 0 7.027-4.258 13.624-11.815 13.624-7.539 0-13.673 6.121-13.673 13.645v16.517l-85.107 30.367c-3.901 1.392-5.936 5.683-4.543 9.585 1.409 3.947 5.769 5.911 9.584 4.544l39.109-13.955v14.64c-4.762 2.682-9.052 6.594-12.696 11.639-5.229 7.24-8.645 16.315-9.369 24.9-1.206 14.295 5.247 24.007 10.94 32.576 4.853 7.305 9.044 13.613 8.369 22.269-.63 8.086-5.027 12.885-11.114 19.527-2.719 2.968-5.802 6.331-8.691 10.256-20.671 28.069-15.365 61.108-9.748 96.087 1.682 10.472 3.42 21.3 4.459 32.13 3.821 39.843-1.856 81.986-16.876 125.259-1.671 4.814-.908 10.163 2.042 14.31 2.945 4.14 7.739 6.611 12.826 6.611h158.002c5.086 0 9.88-2.471 12.825-6.61 2.95-4.147 3.713-9.496 2.042-14.31-4.961-14.295-8.954-28.622-11.866-42.583-.847-4.055-4.826-6.656-8.873-5.811-4.055.846-6.656 4.818-5.811 8.873 3.043 14.588 7.208 29.54 12.38 44.44.032.094.131.378-.095.696-.219.303-.498.303-.604.303h-158.002c-.105 0-.386 0-.604-.306-.226-.317-.127-.602-.095-.695 15.733-45.325 21.667-89.604 17.638-131.61-1.085-11.305-2.862-22.373-4.581-33.076-5.325-33.165-9.925-61.809 7.017-84.814 2.414-3.277 5.087-6.195 7.673-9.016 5.581-6.09 11.316-12.349 13.826-21.579h76.253c2.511 9.229 8.245 15.488 13.826 21.579 2.586 2.821 5.259 5.739 7.673 9.016 16.941 23.005 12.342 51.648 7.017 84.813-1.719 10.704-3.496 21.772-4.58 33.077-1.834 19.119-1.619 38.844.64 58.629.47 4.116 4.189 7.069 8.302 6.601 4.115-.47 7.071-4.187 6.601-8.302-2.14-18.746-2.345-37.417-.61-55.496 1.039-10.83 2.777-21.659 4.459-32.131 5.616-34.979 10.921-68.017-9.749-96.086-2.89-3.925-5.973-7.288-8.691-10.256-6.087-6.642-10.484-11.441-11.114-19.527-.675-8.655 3.516-14.964 8.369-22.268 5.693-8.568 12.146-18.28 10.941-32.576-.726-8.585-4.141-17.66-9.37-24.899-3.645-5.046-7.937-8.959-12.7-11.642v-14.639l39.113 13.956c3.897 1.389 8.191-.643 9.584-4.544 1.391-3.902-.643-8.193-4.545-9.586zm-127.434-5.178 34.143-12.183 34.138 12.181v15.797c-12.82-.429-25.548 6.515-34.138 18.11-8.591-11.597-21.311-18.544-34.143-18.11zm90.403 57.792c.767 9.086-3.521 15.54-8.487 23.014-4.42 6.653-9.292 14.018-10.6 23.652h-74.347c-1.307-9.634-6.18-16.999-10.601-23.652-4.965-7.474-9.253-13.928-8.486-23.014 1.259-14.924 11.694-25.56 20.641-26.855 11.146-1.614 23.442 7.491 28.603 21.179 1.101 2.921 3.896 4.855 7.018 4.855s5.917-1.934 7.018-4.855c5.158-13.688 17.454-22.791 28.602-21.179 8.944 1.296 19.379 11.932 20.639 26.855zm292.488-52.614-86.478-30.856v-14.704c14.569-.746 25.454-13.603 25.487-28.592.035-15.872-13.405-27.471-29.155-27.471-15.197 0-27.561 12.324-27.561 27.471 0 4.142 3.357 7.5 7.5 7.5s7.5-3.358 7.5-7.5c0-6.877 5.635-12.471 12.561-12.471 7.436 0 14.155 4.983 14.155 12.471 0 7.072-4.35 13.624-11.815 13.624-7.539 0-13.673 6.121-13.673 13.645v16.516l-85.108 30.367c-3.901 1.392-5.935 5.683-4.543 9.585 1.392 3.901 5.683 5.932 9.584 4.544l39.113-13.956v14.639c-12.49 7-20.878 22.417-22.069 36.542-1.206 14.295 5.247 24.007 10.94 32.576 4.853 7.304 9.044 13.613 8.369 22.267-.952 12.204-12.42 19.753-19.807 29.784-20.671 28.069-15.365 61.108-9.748 96.087 1.682 10.472 3.42 21.3 4.459 32.13 3.821 39.843-1.857 81.986-16.875 125.259-1.671 4.814-.908 10.163 2.042 14.31 2.945 4.139 7.739 6.61 12.825 6.61h158.002c5.087 0 9.881-2.471 12.826-6.611 2.95-4.146 3.713-9.496 2.042-14.31-15.019-43.271-20.696-85.414-16.875-125.259 1.039-10.832 2.777-21.661 4.46-32.134 1.95-12.148 3.793-23.622 4.609-34.989.297-4.131-2.811-7.721-6.943-8.018-4.125-.294-7.721 2.811-8.018 6.943-.77 10.712-2.562 21.871-4.459 33.686-1.719 10.705-3.496 21.773-4.581 33.08-4.029 42.007 1.904 86.287 17.637 131.61.129.373-.28 1.046-.698 1.001h-157.999c-.418.044-.826-.63-.697-1.001 15.731-45.325 21.666-89.605 17.637-131.61-1.085-11.305-2.861-22.372-4.58-33.075-5.326-33.166-9.926-61.81 7.016-84.815 7.693-10.447 17.76-16.939 21.5-30.595h76.253c3.689 13.502 13.884 20.252 21.5 30.595 5.52 7.495 9.013 15.919 10.679 25.751.692 4.084 4.569 6.837 8.647 6.142 4.084-.692 6.834-4.564 6.142-8.647-2.067-12.199-6.447-22.712-13.39-32.14-7.395-10.043-18.858-17.615-19.807-29.783-.675-8.655 3.517-14.963 8.369-22.268 5.693-8.569 12.147-18.281 10.94-32.576-1.189-14.095-9.683-29.58-22.065-36.539v-14.64l39.109 13.955c3.804 1.364 8.175-.595 9.584-4.544 1.392-3.902-.642-8.193-4.543-9.586zm-127.431-5.18 34.138-12.181 34.143 12.183v15.795c-12.824-.431-25.552 6.514-34.143 18.11-8.59-11.595-21.316-18.544-34.138-18.111zm90.398 57.794c.767 9.086-3.522 15.54-8.486 23.014-4.421 6.653-9.294 14.018-10.601 23.652h-74.347c-1.307-9.634-6.18-16.999-10.6-23.652-4.965-7.473-9.253-13.927-8.486-23.014 1.259-14.924 11.693-25.56 20.64-26.855 11.147-1.614 23.442 7.491 28.602 21.179 1.101 2.921 3.896 4.855 7.018 4.855s5.917-1.934 7.018-4.855c5.16-13.688 17.452-22.791 28.603-21.179 8.945 1.296 19.38 11.932 20.639 26.855z"/></g></svg>