<svg id="Capa_1" enable-background="new 0 0 512 512" height="512" viewBox="0 0 512 512" width="512" xmlns="http://www.w3.org/2000/svg"><g><g><path d="m457.719 195.821c-21.718-18.08-53.578-17.798-74.966.868-24.409 21.304-63.386 19.329-86.09-3.784l-.082-.083c-22.643-23.05-59.987-23.338-82.496-.157-22.552 23.226-60.018 29.605-82.984 6.178-.597-.606-1.207-1.19-1.825-1.76-.568-.529-1.147-1.037-1.731-1.538-.016-.014-.031-.028-.047-.042v.001c-22.855-19.606-57.479-18.593-79.087 3.339l-.061.062c-11.24 11.412-26.026 11.17-40.85 11.295v61.197 64.384 46.15c0 33.137 26.863 60 60 60h60 60 257c33.137 0 60-26.863 60-60v-16.108-94.908-60.728c-15.96.272-33.958-3.691-46.781-14.366z" fill="#7ce3ff"/><path d="m127.5 381.932v-46.15-54.227c0-27.467 10.911-47.809 30.333-67.231-10.336-2.69-19.505-8.107-26.731-15.479-22.672-23.01-59.915-23.115-82.689 0l-.061.062c-11.242 11.41-26.028 11.168-40.852 11.293v61.197 64.384 46.15c0 33.137 26.863 60 60 60h120c-33.137.001-60-20.584-60-59.999z" fill="#55dafe"/></g><g><path d="m370.035 78.979c-4.36 1.076-7.953 3.641-10.392 7.014-5.454-4.109-12.991-4.989-19.44-1.608-6.335 3.322-9.886 9.845-9.747 16.542-3.844.248-7.642 1.69-10.774 4.411-7.603 6.604-8.412 18.122-1.807 25.725l67.505 77.705c5.525 6.36 14.688 8.107 22.166 4.227.023-.012.045-.024.068-.036 7.432-3.897 11.249-12.369 9.234-20.523l-24.737-100.128c-2.415-9.777-12.299-15.744-22.076-13.329z" fill="#c77464"/><path d="m454.759 88.946c-4.361-1.071-8.734-.468-12.46 1.387-2.922-6.171-9.189-10.451-16.471-10.451-7.153 0-13.327 4.129-16.314 10.124-3.52-1.566-7.553-2.052-11.59-1.096-9.8 2.319-15.865 12.144-13.545 21.944l23.705 100.165c1.94 8.199 9.244 14 17.668 14.036h.077c8.392 0 15.706-5.732 17.708-13.889l24.585-100.165c2.4-9.78-3.582-19.655-13.363-22.055z" fill="#ce857a"/></g><g><path d="m451.727 207.54c-.486-11.292-3.884-24.024-7.572-34.684-10.878-31.443-52.485-38.481-72.823-12.155-3.974 5.145-10.11 9.031-17.477 9.031-26.028 0-72.838 0-101.385 0-13.661 0-27.536 8.533-36.852 18.525-10.844 11.632-14.831 29.618-12.286 45.316 8.607 53.086 58.246 97.958 128.557 94.932 68.918-2.966 122.86-50.76 119.838-120.965z" fill="#ce857a"/><path d="m363.068 293.838c-34.776-31.895-54.574-76.918-54.574-124.106v-10.202c0-9.809-8.027-18.139-17.834-17.956-9.511.178-17.166 7.943-17.166 17.497v10.66c-7.612 0-14.758 0-21.023 0-13.661 0-27.536 8.533-36.852 18.525-10.844 11.632-14.831 29.618-12.286 45.316 8.15 50.265 51.923 87.427 99.811 93.413 26.797 4.113 57.124.829 83.328-11.553z" fill="#c77464"/></g><g><path d="m502.501 272.844-.061.062c-22.734 23.075-59.956 23.075-82.689 0l-.061-.062c-22.734-23.075-59.956-23.075-82.689 0l-.061.062c-22.734 23.075-59.955 23.075-82.689 0l-.061-.062c-22.734-23.075-59.955-23.075-82.689 0l-.061.062c-12.023 12.203-28.098 17.948-43.939 17.244-14.112-.627-28.039-6.372-38.75-17.244l-.061-.062c-22.243-22.577-58.348-23.049-81.189-1.447v64.384c13.196 1.189 26.062 6.872 36.102 17.063l.061.062c22.734 23.075 59.956 23.075 82.689 0l.061-.062c.355-.361.725-.699 1.087-1.048 22.817-22.004 59.224-21.666 81.603 1.048l.061.062c22.734 23.075 59.955 23.075 82.689 0l.061-.062c22.734-23.075 59.956-23.075 82.689 0l.061.062c22.734 23.075 59.956 23.075 82.689 0l.061-.062c12.82-13.013 30.248-18.684 47.086-17.02v-64.908c-.678.625-1.346 1.264-2 1.928z" fill="#b9f0ff"/><path d="m88.75 272.906-.061-.062c-22.243-22.577-58.348-23.049-81.189-1.447v64.384c13.196 1.189 26.062 6.872 36.102 17.063l.061.062c22.734 23.075 59.956 23.075 82.689 0l.061-.062c.355-.361.725-.699 1.087-1.048v-61.646c-14.112-.628-28.039-6.373-38.75-17.244z" fill="#7ce3ff"/></g><g><ellipse cx="61.655" cy="211.689" fill="#c77464" rx="14.155" ry="25.043"/><ellipse cx="189.145" cy="84.199" fill="#ce857a" rx="25.043" ry="14.155"/></g><g><g><path d="m235.934 97.129c-31.749-20.084-76.468-16.775-113.748 7.91-7.647 5.064-14.983 11.02-21.827 17.864-40.204 40.204-49.99 97.312-25.791 135.574 3.075 4.862 6.693 9.422 10.873 13.602 36.599 36.599 102.152 30.556 147.419-13.197.588-.569 1.175-1.139 1.757-1.721 45.313-45.313 51.992-112.101 14.918-149.176-4.178-4.178-8.743-7.782-13.601-10.856z" fill="#f2d4d3"/><path d="m193.38 215.924c32.495-32.495 46.679-76.367 42.554-118.795-31.749-20.084-76.468-16.775-113.748 7.91-7.647 5.064-14.983 11.02-21.827 17.864-40.204 40.204-49.99 97.312-25.791 135.574 42.433 4.129 86.312-10.053 118.812-42.553z" fill="#ce857a"/></g><g><path d="m122.186 105.039c-7.647 5.064-14.983 11.02-21.827 17.864-40.204 40.204-49.99 97.312-25.791 135.574 28.123 2.737 56.877-2.578 82.536-15.93-5.323-3.531-10.341-7.602-14.976-12.237-31.321-31.322-37.288-79.859-19.942-125.271z" fill="#c77464"/><path d="m74.568 258.476c3.075 4.862 6.693 9.422 10.873 13.602 36.599 36.599 102.152 30.556 147.419-13.197-27.44 3.295-54.156-2.008-75.756-16.335-25.659 13.352-54.413 18.667-82.536 15.93z" fill="#e8b5b1"/></g></g><path d="m201.237 193.548c-6.179-6.179-17.867-4.509-26.106 3.729-8.239 8.239-9.908 19.927-3.729 26.106s20.85 7.493 29.089-.746 6.925-22.91.746-29.089z" fill="#ac6757"/><g><path d="m191.242 244.066c-2.93-2.93-7.679-2.929-10.606.001-2.929 2.929-2.929 7.678.001 10.606 13.137 13.137 36.17 4.93 37.422-14.071 18.689-1.231 27.422-24.072 14.071-37.423-2.93-2.928-7.678-2.928-10.607 0-2.929 2.93-2.929 7.678 0 10.607 1.314 1.313 2.038 3.061 2.038 4.918 0 3.843-3.112 6.956-6.956 6.956-3.485 0-5.118-2.257-6.396-3.621 6.131-11.135 3.992-26.135-3.667-33.796h-.001c-9.248-9.246-25.373-7.605-36.713 3.729-11.338 11.339-12.977 27.465-3.729 36.713 7.733 7.733 22.524 9.646 33.414 3.876 2.019 2.156 3.605 3.54 3.605 6.586-.001 6.17-7.503 9.292-11.876 4.919zm-14.537-25.987c-2.784-2.783-1.937-9.833 3.729-15.498 5.664-5.662 12.713-6.515 15.501-3.729 3.42 3.422 4.468 13.268-.747 18.481-5.214 5.216-15.061 4.167-18.483.746z"/><path d="m107.63 218.494c-2.929 2.93-2.929 7.678 0 10.607l8.485 8.485c2.931 2.929 7.678 2.928 10.607 0 2.929-2.93 2.929-7.678 0-10.607l-8.485-8.485c-2.929-2.928-7.677-2.928-10.607 0z"/><path d="m215.039 149.271c2.929-2.93 2.929-7.678 0-10.607l-8.485-8.485c-2.93-2.928-7.678-2.928-10.607 0-2.929 2.93-2.929 7.678 0 10.607l8.485 8.485c2.93 2.929 7.677 2.928 10.607 0z"/><path d="m504.373 202.689c-28.991.462-40.841-12.312-46.987-16.481l18.02-73.419c4.608-18.776-12.177-35.027-30.041-31.384-10.303-12.001-28.779-12.005-38.993-.127-3.672-.626-7.407-.434-10.964.537-8.626-12.254-25.723-14.405-37.174-5.142-14.72-5.87-31.083 2.734-34.613 17.98-17.41 5.658-23.497 27.412-11.407 41.33l22.805 26.25h-19.023v-2.701c0-13.753-11.192-25.689-25.474-25.455-5.249.098-10.113 1.853-14.106 4.747-2.695-8.651-6.55-16.752-11.532-24.07-2.33-3.423-6.995-4.31-10.42-1.979-3.424 2.331-4.31 6.997-1.979 10.42 22.74 33.403 17.753 87.738-23.171 128.664-55.767 55.779-139.741 46.282-157.301-17.73-1.179-4.302-5.845-6.636-10-4.986-1.97.79-7.012-6.057-7.012-17.452 0-11.543 5.092-18.074 6.907-17.49 4.192 1.353 8.651-1.193 9.617-5.494 10.224-45.487 49.142-84.396 94.641-94.617 4.31-.969 6.854-5.437 5.489-9.636-.585-1.769 5.831-6.908 17.49-6.908 11.538 0 18.215 5.106 17.458 7-1.656 4.157.676 8.828 4.981 10.009 7.95 2.182 15.27 5.46 21.756 9.746 3.456 2.284 8.108 1.333 10.392-2.124 2.283-3.456 1.332-8.108-2.124-10.392-6.137-4.054-12.865-7.353-20.065-9.842-3.552-25.359-59.471-25.957-64.618-.997-46.396 12.836-85.71 52.144-98.545 98.531-6.222 1.292-11.429 6.287-14.695 13.567-.233.186-.459.382-.673.6-8.994 9.127-21.276 8.944-35.574 9.058-4.119.033-7.438 3.381-7.438 7.498v171.731c0 37.22 30.28 67.5 67.5 67.5h300.502c4.143 0 7.5-3.357 7.5-7.5s-3.357-7.5-7.5-7.5h-300.502c-28.948 0-52.5-23.552-52.5-52.5v-37.247c8.771 2.288 16.846 6.913 23.32 13.485 24.427 24.792 64.734 27.639 94.386-.976 19.836-19.127 51.709-18.72 71.01.868.015.015.09.093.104.107 25.371 25.75 67.344 26.421 93.436-.063 19.776-20.072 52.125-20.177 72.065.063 25.38 25.759 67.35 26.413 93.436-.063 9.171-9.309 21.378-14.593 34.243-15.023v38.847c0 28.948-23.552 52.5-52.5 52.5h-46.41c-4.143 0-7.5 3.357-7.5 7.5s3.357 7.5 7.5 7.5h46.41c37.22 0 67.5-30.28 67.5-67.5 0-6.898 0-164.568 0-171.743 0-4.303-3.621-7.63-7.627-7.497zm-109.075-104.279c3.204-2.657 7.377-3.237 11.168-1.552 3.666 1.632 7.97.086 9.761-3.508 4.026-8.078 15.476-7.87 19.294.191 1.802 3.805 6.372 5.369 10.12 3.505 8.111-4.035 17.387 3.246 15.196 12.167l-13.093 53.345c-10.084-18.421-30.03-27.445-49.389-25.214l-6.679-28.218c-.954-4.037.399-8.043 3.622-10.716zm-71.762 27.734c-5.75-6.621-1.543-17.156 7.402-17.732 4.006-.258 7.099-3.625 7.016-7.64-.187-9.021 10.054-14.157 17.177-8.789 3.371 2.539 8.142 1.789 10.591-1.596 4.131-5.716 12.52-5.935 16.954-.53-5.387 6.195-7.528 14.561-5.595 22.724l6.81 28.776c-7.102 3.238-13.442 8.222-18.494 14.759-1.342 1.737-4.961 5.647-10.545 6.073zm-42.542 43.322v-10.395c0-5.412 4.399-9.897 9.807-9.998 5.49-.118 10.193 4.743 10.193 10.457v10.201 20.306c0 4.143 3.357 7.5 7.5 7.5s7.5-3.357 7.5-7.5v-12.806h37.861c9.015 0 17.548-4.354 23.411-11.946 16.646-21.542 50.833-15.898 59.801 10.022 3.005 8.685 6.687 21.381 7.167 32.555.992 23.061-4.627 44.484-16.268 62.446-1.006-.873-1.992-1.773-2.934-2.729-25.505-25.886-67.5-26.263-93.436.063-19.288 19.577-51.325 20.677-72.064-.063-4.249-4.312-8.981-7.952-14.136-10.898 22.69-25.207 35.598-56.588 35.598-87.215zm-265.994 48.144c8.292-.193 16.939-.911 25.026-4.246.507 16.602 8.529 29.2 19.37 30.72.642 1.862 1.349 3.677 2.093 5.465-15.738-3.504-32.319-1.066-46.489 7.021zm482 110.448c-16.875.434-32.917 7.33-44.99 19.584-19.775 20.072-52.125 20.176-72.064-.063-25.505-25.886-67.5-26.263-93.436.063-19.961 20.26-52.357 19.941-71.96.045-.015-.015-.09-.093-.104-.107-25.086-25.461-66.424-25.994-92.153-1.181-25.075 24.197-55.848 18.942-73.348 1.181-9.252-9.391-21.113-15.744-33.944-18.287v-54.534c16.649-13.925 40.251-15.684 58.83-4.211 34.335 43.085 106.781 45.679 160.446-2.731 5.416 2.526 10.302 5.958 14.527 10.246 26.775 26.775 68.292 25.672 93.54.045 19.776-20.072 52.125-20.177 72.065.063 22.106 22.434 56.741 25.663 82.592 8.805v41.082zm0-60.322c-14.866 15.008-37.515 18.973-56.38 10.628 14.018-21.665 19.991-47.223 18.534-72.28 10.416 6.555 23.627 10.559 37.846 11.434z"/></g></g></svg>