<svg id="Layer_1" enable-background="new 0 0 512.002 512.002" height="512" viewBox="0 0 512.002 512.002" width="512" xmlns="http://www.w3.org/2000/svg"><g><g clip-rule="evenodd" fill-rule="evenodd"><circle cx="256.001" cy="255.995" fill="#ffea60" r="180"/><path d="m351.116 471.864c14.609-34.163 22.776-70.957 37.233-124.913l-20.4-11.891 2.914-63.452c1.917-41.74.004-53.726-14.308-93.359-19.898-55.101-52.814-135.136-58.805-152.926-9.008-25.88-45.845-17.585-39.007 14.344l24.335 104.646c-2.394-1.08-5.084-1.579-8.119-1.306-10.887.979-18.999 10.723-18.027 21.652.932 10.473 7.896 73.982 8.828 84.454 4.111 46.188-40.148 137.536 40.529 196.127 13.478 9.789 30.265 18.45 44.827 26.624z" fill="#ffdcd5"/><path d="m388.349 346.951c-14.457 53.956-22.624 90.75-37.233 124.913-4.34 10.149-9.249 20.066-15.061 30.132h60.403c15.425-35.006 23.642-72.352 38.517-127.866z" fill="#fff2a0"/><path d="m434.975 374.13c-14.875 55.514-23.092 92.861-38.517 127.866h105.544v-88.797z" fill="#5cd0b3"/><path d="m160.886 471.864c-14.609-34.163-22.775-70.957-37.233-124.913l20.4-11.891-2.914-63.452c-1.917-41.74-.004-53.726 14.308-93.359 19.898-55.101 52.814-135.136 58.804-152.926 9.008-25.88 45.845-17.585 39.007 14.344l-24.335 104.646c2.394-1.08 5.084-1.579 8.119-1.306 10.887.979 18.999 10.723 18.027 21.652-.932 10.473-7.896 73.982-8.828 84.454-4.111 46.188 40.148 137.536-40.529 196.127-13.476 9.789-30.264 18.45-44.826 26.624z" fill="#ffdcd5"/><path d="m123.653 346.951c14.458 53.956 22.624 90.75 37.233 124.913 4.34 10.149 9.249 20.066 15.061 30.132h-60.403c-15.425-35.006-23.642-72.352-38.517-127.866z" fill="#fff2a0"/><path d="m77.027 374.13c14.875 55.514 23.092 92.861 38.517 127.866h-105.543v-88.797z" fill="#5cd0b3"/></g><g><path d="m507.038 404.56-87.871-51.22c15.868-26.579 24.954-56.465 26.57-87.344h30.264c5.522 0 10-4.477 10-10s-4.478-10-10-10h-30.265c-1.391-26.664-8.342-52.542-20.415-76.21l26.205-15.13c4.783-2.761 6.422-8.877 3.66-13.66-2.761-4.782-8.876-6.422-13.66-3.66l-26.214 15.135c-.415-.638-.827-1.278-1.25-1.912-14.448-21.659-32.975-39.91-54.524-53.894l15.123-26.194c2.762-4.783 1.123-10.899-3.66-13.66-4.784-2.761-10.9-1.123-13.66 3.66l-15.131 26.206c-3.984-2.025-8.052-3.914-12.196-5.666-1.217-3.09-2.421-6.144-3.591-9.112-8.968-22.747-16.712-42.391-19.195-49.769-.011-.032-.022-.064-.033-.096-6.532-18.768-23.688-24.744-37.265-20.942-5.099 1.428-10.029 4.369-13.93 8.691-3.9-4.322-8.83-7.263-13.93-8.691-13.577-3.801-30.731 2.174-37.265 20.942-.011.032-.022.064-.033.096-2.483 7.377-10.229 27.023-19.195 49.771-1.169 2.967-2.373 6.02-3.59 9.109-4.144 1.752-8.212 3.641-12.197 5.666l-15.129-26.206c-2.761-4.783-8.877-6.421-13.66-3.66s-6.422 8.877-3.66 13.66l15.123 26.194c-21.549 13.984-40.075 32.235-54.524 53.894-.423.634-.835 1.274-1.25 1.912l-26.214-15.135c-4.784-2.762-10.899-1.122-13.66 3.66-2.762 4.783-1.123 10.899 3.66 13.66l26.205 15.13c-12.073 23.668-19.023 49.546-20.415 76.21h-30.265c-5.522 0-10 4.477-10 10s4.478 10 10 10h30.264c1.616 30.879 10.701 60.765 26.57 87.345l-87.871 51.22c-3.073 1.792-4.964 5.082-4.964 8.639l.001 88.797c0 5.523 4.478 10 10 10h165.946c3.572 0 6.874-1.906 8.66-5s1.786-6.906 0-10c-4.021-6.966-7.598-13.863-10.851-20.837.306-.168.611-.337.918-.505 12.6-6.945 25.628-14.127 36.913-22.323 4.492-3.262 8.613-6.622 12.415-10.06 10.551 1.802 21.304 2.726 31.998 2.726 10.693 0 21.445-.924 31.997-2.726 3.802 3.438 7.923 6.798 12.415 10.061 11.284 8.196 24.312 15.376 36.911 22.321.308.169.614.338.921.507-3.253 6.975-6.829 13.872-10.851 20.838-1.786 3.094-1.786 6.906 0 10s5.088 5 8.66 5h165.947c5.522 0 10-4.477 10-10v-88.797c.002-3.559-1.889-6.849-4.962-8.641zm-81.037-148.565c0 30.854-8.321 60.889-24.114 87.272l-23.67-13.798 2.636-57.402c1.961-42.697-.126-56.326-14.892-97.215-7.294-20.2-16.283-43.612-25.088-66.172 52.333 30.055 85.128 85.78 85.128 147.315zm-170-114.656c-3.884-3.764-8.793-6.503-14.325-7.717l11.067-47.589c2.171-.041 4.346-.041 6.517 0l11.067 47.589c-5.533 1.214-10.443 3.953-14.326 7.717zm-236.001 277.606 50.73-29.57c1.637 6.207 3.199 12.187 4.727 18.034 8.569 32.812 15.609 59.724 25.171 84.587h-80.627zm102.147 73.051c-10.618-25.626-17.721-52.812-27.34-89.642-1.963-7.518-3.985-15.255-6.153-23.428l28.703-16.731c1.639 6.213 3.201 12.197 4.73 18.051 12.084 46.271 20.607 78.908 37.105 111.75zm77.688-54.849c-10.025 7.282-22.141 14.003-33.926 20.5-9.124-23.691-15.866-49.511-24.471-82.455-1.965-7.526-3.986-15.265-6.157-23.445l13.809-8.048c3.216-1.875 5.124-5.38 4.953-9.099l-2.914-63.442-.116-2.614c-.242-5.518-4.91-9.797-10.431-9.549-5.518.243-9.793 4.914-9.55 10.431l2.754 60.044-23.672 13.798c-15.793-26.383-24.114-56.418-24.114-87.273 0-61.536 32.795-117.261 85.13-147.316-8.806 22.559-17.794 45.971-25.088 66.168l-.896 2.495c-1.861 5.2.846 10.924 6.046 12.785 5.197 1.859 10.924-.846 12.784-6.046l.876-2.436c11.328-31.371 26.855-70.759 39.332-102.409 9.421-23.897 16.866-42.785 19.526-50.673 2.613-7.447 8.389-9.493 12.968-8.211 4.771 1.336 9.061 6.54 6.818 17.138l-23.355 100.44c-5.002 3.643-9.869 9.673-13.892 19.319-11.58 27.769-21.317 57.389-26.718 81.265-1.218 5.387 2.161 10.742 7.548 11.96 5.392 1.217 10.741-2.162 11.96-7.548 5.157-22.804 14.513-51.226 25.669-77.979 5.229-12.541 9.737-12.133 11.438-11.98 5.428.488 9.448 5.336 8.962 10.805-.458 5.151-2.461 23.918-4.398 42.068-2.034 19.061-3.956 37.064-4.43 42.386-1.164 13.088 1.135 28.968 3.569 45.781 6.661 45.989 14.949 103.223-40.014 143.14zm40.67-11.869c6.796-9.07 11.832-18.507 15.496-28.125 3.664 9.618 8.7 19.055 15.496 28.125-10.299.936-20.696.936-30.992 0zm71.661 11.869c-54.961-39.917-46.673-97.151-40.014-143.14 2.435-16.813 4.734-32.694 3.57-45.783-.474-5.314-2.392-23.286-4.422-42.312-1.941-18.182-3.947-36.983-4.406-42.142-.487-5.469 3.533-10.316 8.961-10.805.219-.02.483-.043.79-.043 2.08 0 6.092 1.096 10.648 12.023 11.158 26.758 20.514 55.181 25.669 77.979 1.218 5.387 6.572 8.766 11.959 7.548 5.388-1.218 8.767-6.573 7.549-11.959-5.397-23.872-15.136-53.492-26.718-81.265-4.022-9.647-8.89-15.678-13.892-19.321l-23.355-100.436c-2.242-10.598 2.047-15.802 6.818-17.138 4.577-1.282 10.354.765 12.968 8.211 2.66 7.888 10.105 26.774 19.525 50.671 12.478 31.65 28.005 71.039 39.334 102.411 13.899 38.493 15.566 49.368 13.724 89.504l-2.914 63.452c-.171 3.719 1.737 7.224 4.953 9.099l13.808 8.048c-2.17 8.178-4.19 15.914-6.155 23.438-8.604 32.946-15.348 58.769-24.472 82.461-11.786-6.498-23.902-13.219-33.928-20.501zm77.75-56.907c1.528-5.852 3.091-11.833 4.729-18.044l28.703 16.731c-2.17 8.176-4.191 15.916-6.155 23.436-9.618 36.826-16.72 64.01-27.338 89.633h-37.046c16.499-32.843 25.023-65.482 37.107-111.756zm102.086 111.756h-80.627c9.561-24.862 16.6-51.771 25.168-84.58 1.528-5.849 3.091-11.832 4.729-18.042l50.73 29.571z"/><path d="m25.381 327.791c.856 0 1.728-.111 2.594-.343l18.11-4.853c5.335-1.429 8.501-6.913 7.071-12.248-1.43-5.334-6.916-8.502-12.247-7.071l-18.11 4.853c-5.335 1.429-8.501 6.913-7.071 12.248 1.197 4.467 5.237 7.414 9.653 7.414z"/><path d="m489.203 308.129-18.11-4.853c-5.336-1.43-10.817 1.737-12.247 7.071-1.43 5.335 1.736 10.818 7.071 12.248l18.11 4.853c.867.232 1.737.343 2.594.343 4.416 0 8.456-2.947 9.653-7.414 1.43-5.335-1.736-10.819-7.071-12.248z"/><path d="m468.499 209.058c.856 0 1.728-.111 2.594-.343l18.11-4.853c5.335-1.429 8.501-6.913 7.071-12.248s-6.91-8.501-12.248-7.071l-18.11 4.853c-5.334 1.429-8.5 6.913-7.07 12.248 1.197 4.467 5.237 7.414 9.653 7.414z"/><path d="m411.564 110.432c2.56 0 5.118-.976 7.071-2.929l13.258-13.258c3.905-3.905 3.905-10.237 0-14.143-3.906-3.905-10.236-3.905-14.143 0l-13.257 13.258c-3.905 3.905-3.905 10.237 0 14.143 1.953 1.953 4.512 2.929 7.071 2.929z"/><path d="m93.366 107.503c1.953 1.953 4.512 2.929 7.071 2.929s5.118-.976 7.071-2.929c3.905-3.905 3.905-10.237 0-14.143l-13.257-13.257c-3.906-3.905-10.236-3.905-14.143 0-3.905 3.905-3.905 10.237 0 14.143z"/><path d="m22.799 203.861 18.11 4.853c.866.232 1.737.343 2.594.343 4.416 0 8.456-2.946 9.653-7.414 1.43-5.334-1.736-10.818-7.07-12.248l-18.11-4.853c-5.335-1.429-10.818 1.736-12.248 7.071s1.736 10.819 7.071 12.248z"/><path d="m142.235 214.001h-.007c-5.522 0-9.996 4.477-9.996 10s4.48 10 10.003 10 10-4.477 10-10-4.477-10-10-10z"/></g></g></svg>