<svg height="512" viewBox="0 0 512 512" width="512" xmlns="http://www.w3.org/2000/svg"><g id="Filled_outline" data-name="Filled outline"><path d="m191.339 120-16-40-24 16 16 32 8 48-28.724-40.213a18.954 18.954 0 0 0 -26.8-4.147 18.953 18.953 0 0 0 -2.794 27.756l36.712 41.3a31.051 31.051 0 0 0 33.025 8.828 31.049 31.049 0 0 0 19.921-38.378z" fill="#feb784"/><path d="m103.339 344v112h32l8-112" fill="#feb784"/><path d="m151.34 224 16 120h-96l5.05-50.53 1.1-10.95a83.385 83.385 0 0 1 11.42-34.48 83.029 83.029 0 0 0 11.33-51.91l-4.9-44.13v-32h40l27.68 27.68a14.786 14.786 0 0 1 4.32 10.43 28.957 28.957 0 0 1 -16 25.89z" fill="#f59898"/><path d="m167.34 344h-96l5.05-50.53a440.733 440.733 0 0 0 74.95-81.3v11.83z" fill="#ed9191"/><path d="m119.339 200 29.091 64 10.909 40h-40v-32l-32-64 6.449-70.945a18.754 18.754 0 0 1 18.676-17.055 18.753 18.753 0 0 1 18.389 22.431z" fill="#fec9a3"/><path d="m135.339 456 22.111 11.056a11.056 11.056 0 0 1 4.945 14.833 11.057 11.057 0 0 1 -9.889 6.111h-49.167v-32z" fill="#f59898"/><path d="m175.339 80.655-9.329 6.4-2.928 15.73-23.594-4.385-4.149 21.6h-40s9.68-59.116 12.143-68.249c4.081-15.149 13.72-30 37.315-25.6a33.509 33.509 0 0 1 14.934 6.649c8.781 6.985 12.976 18.273 10.671 30.66z" fill="#fec9a3"/><path d="m159.731 32.8c-5.446 23.144-18.969 44.59-40.392 55.2v80h-56a76.367 76.367 0 0 1 .173-32.342 83.534 83.534 0 0 1 10.856-26.058 83.675 83.675 0 0 0 7.17-14.147 83.5 83.5 0 0 0 4.374-15.253l4.376-23.516a40 40 0 0 1 46.644-32.006l7.865 1.464a33.509 33.509 0 0 1 14.934 6.658z" fill="#ffb531"/><path d="m87.339 344-48 88 24 16 72-104z" fill="#fec9a3"/><path d="m63.339 448 12.787 25.574a9.968 9.968 0 0 1 -1.867 11.506 9.968 9.968 0 0 1 -7.049 2.92h-.45a9.966 9.966 0 0 1 -6.121-2.1l-37.3-29.024 16-24.875z" fill="#f59898"/><path d="m424 488h-56.108a32 32 0 0 1 -31.238-38.942l23.346-105.058h40l-24 104h48z" fill="#804a32"/><path d="m373.953 128.479c-18.054-3-32.913 8.377-35.77 26.713l-10.183 14.639 7.333 5.5-3.352 19.659 23.108 3.845-3.089 41.165h40v-48s7.493-22.591 7.8-26.554c1.229-15.758-2.74-33.121-25.847-36.967z" fill="#fec9a3"/><path d="m400 344h-64v-88a32 32 0 0 1 32-32 32 32 0 0 1 32 32z" fill="#348fd9"/><path d="m272.294 382.705 15.706 73.295h40l-16-72h48a40 40 0 0 0 40-40h-96.416a32 32 0 0 0 -31.29 38.705z" fill="#92563a"/><path d="m288 456-26.534 13.267a9.888 9.888 0 0 0 -5.466 8.844 9.888 9.888 0 0 0 9.889 9.889h62.111v-32z" fill="#d6d6d4"/><path d="m424 448 24-8 35.944 28.755a10.806 10.806 0 0 1 4.056 8.439 10.806 10.806 0 0 1 -10.806 10.806h-53.194z" fill="#d6d6d4"/><path d="m376 121.471c-27.232-8.628-48 23.51-48 23.51s30.426 2.184 46.626-4.164l9.374-3.673c-1.745 5.128-8.667 7.51-9.333 23.836 5.666-4.9 13.926-6.823 17.333-1.632 3 4.571.667 12.408-9.667 14.693.869 2.468 3.776 6.418 4.981 8.778l4.686 9.181 7.855-15.389a38.953 38.953 0 0 0 -22.213-54.6q-.807-.275-1.642-.54z" fill="#92563a"/><path d="m368 296-23.457 35.186a28.778 28.778 0 0 1 -23.943 12.814 28.779 28.779 0 0 1 -25.218-14.914l-31.382-57.086-16.478-4.119a20.494 20.494 0 0 1 -15.522-19.881h48l40 56 16-24z" fill="#fec9a3"/><path d="m336 280 15.5-25.837a17.836 17.836 0 0 1 23.271-6.777 17.837 17.837 0 0 1 7.318 25.13l-14.089 23.484z" fill="#348fd9"/><path d="m232 216h48a0 0 0 0 1 0 0v24a8 8 0 0 1 -8 8h-32a8 8 0 0 1 -8-8v-24a0 0 0 0 1 0 0z" fill="#4d5e78"/><path d="m296 176-16 40 4.765 1.588a21.5 21.5 0 0 0 26.765-12.414 21.5 21.5 0 0 0 -13.165-28.386z" fill="#4d5e78"/><path d="m199.663 117.7c-.068-.227-.146-.452-.235-.673l-20.184-54.05c2.032-14.3-3.051-27.784-13.814-36.386-.013-.011-.023-.024-.036-.034a41.241 41.241 0 0 0 -18.472-8.276l-7.864-1.464a48.056 48.056 0 0 0 -55.974 38.407l-4.377 23.517a75.5 75.5 0 0 1 -3.954 13.784 75.854 75.854 0 0 1 -6.482 12.792 91.271 91.271 0 0 0 -11.9 28.557 83.8 83.8 0 0 0 -.211 35.731 8 8 0 0 0 7.84 6.395h18.879l-2.846 31.275a8 8 0 0 0 .813 4.3l8.719 17.43a74.953 74.953 0 0 1 -6.858 14.921 91.373 91.373 0 0 0 -12.517 37.798l-6.15 61.476a8 8 0 0 0 7.96 8.8h2.523l-41.408 75.915-15.844 24.632a8 8 0 0 0 1.816 10.641l37.3 29.023a18.05 18.05 0 0 0 11.035 3.789h.449a17.968 17.968 0 0 0 16.071-26l-10.668-21.341 22.726-32.827v72.168a8 8 0 0 0 8 8h49.167a19.056 19.056 0 0 0 8.522-36.1l-17.328-8.664 7.088-99.236h16.551a8 8 0 0 0 7.93-9.058l-15.93-119.473v-8.539a39.032 39.032 0 0 0 55-46.077zm-36.463-55.707a8 8 0 0 0 .175 3.676l3.349 11.654-4.575 3.14a7.992 7.992 0 0 0 -3.339 5.137l-1.463 7.855-1.332-.249-.167-.029-14.227-2.652a8 8 0 0 0 -9.322 6.356l-2.908 15.119h-9.391v-19.184c16.231-9.12 33.319-24.6 42.636-43.157a25.709 25.709 0 0 1 .564 12.334zm-12.47 113.513a20.5 20.5 0 0 1 -2.3 1.338 8 8 0 0 0 -4.43 7.156v40a7.966 7.966 0 0 0 .07 1.058l1.616 12.12-17.335-38.14 11-55.039a26.5 26.5 0 0 0 .248-9.083l18.42 18.421c.064.062.126.13.234.25a6.715 6.715 0 0 1 1.747 4.523 20.586 20.586 0 0 1 -.436 4.238 20.812 20.812 0 0 1 -8.839 13.158zm-26.845-36.8a10.958 10.958 0 0 1 -.215 2.151l-3.67 18.336v-28.682a10.794 10.794 0 0 1 1.987 2.165 10.572 10.572 0 0 1 1.893 6.034zm20.776-21.368 1.85-9.63 2.658.5 11.138 22.292.5 2.989zm-72.684 20.1a75.292 75.292 0 0 1 9.818-23.567 92.005 92.005 0 0 0 7.856-15.5 91.635 91.635 0 0 0 4.792-16.709l4.376-23.517a32.032 32.032 0 0 1 37.316-25.6l7.864 1.464a27.38 27.38 0 0 1 7.013 2.268c-6.243 17.122-22.985 34.858-42.558 44.551a8 8 0 0 0 -4.454 7.172v72h-33.188a66.451 66.451 0 0 1 1.16-22.558zm40.023 38.562a7.963 7.963 0 0 0 4.99-1.753l-4.835 24.185a8 8 0 0 0 .562 4.879l28.824 63.415 7.984 29.274h-21.525v-24a7.994 7.994 0 0 0 -.845-3.578l-21.719-43.44c-.04-.085-.08-.169-.122-.252l-9.14-18.273 2.771-30.457zm-19.251 176h27.982l-58.831 84.983-11.372-7.583zm-23.486 127.423a1.955 1.955 0 0 1 -1.392.577h-.449a1.977 1.977 0 0 1 -1.209-.415l-31.528-24.533 7.644-11.885 15.471 10.311 11.837 23.674a1.963 1.963 0 0 1 -.374 2.271zm65.6-119.719-6.312 88.296h-16.551v-55.279zm21.207 116.275a3.054 3.054 0 0 1 -2.9 4.021h-41.17v-16h22.111l20.422 10.211a3.032 3.032 0 0 1 1.532 1.768zm-75.23-139.979 5.27-52.686a75.417 75.417 0 0 1 10.319-31.155c.874-1.455 1.7-2.938 2.488-4.437l13.083 26.167v30.111a8 8 0 0 0 8 8h35.662l3.2 24zm104.06-134.061a23.032 23.032 0 0 1 -24.515-6.554l-.38-.427v-6.411a36.933 36.933 0 0 0 8.934-8.677l.556.779a8 8 0 0 0 14.4-5.964l-8-48a8 8 0 0 0 -.736-2.261l-7.368-14.743c.16-.094.321-.187.476-.292a8 8 0 0 0 3.34-5.133l1.743-9.349 11.092 27.733 15.238 50.808a23.007 23.007 0 0 1 -14.78 28.491z"/><path d="m488.942 462.509-35.942-28.756a8.009 8.009 0 0 0 -7.528-1.343l-22.772 7.59h-36.643l17.514-75.9a47.706 47.706 0 0 0 4.429-20.083v-88.017a39.951 39.951 0 0 0 -8-24v-38.076l6.981-13.676a46.955 46.955 0 0 0 -26.743-65.8q-.9-.308-1.829-.6c-13.818-4.376-28.221-.942-41.653 9.928a80.1 80.1 0 0 0 -15.475 16.868 8 8 0 0 0 6.146 12.321c.2.014 1.072.075 2.46.143l-8.455 12.16a8 8 0 0 0 1.766 10.966l3.426 2.57-2.53 14.847a8 8 0 0 0 6.572 9.236l15.9 2.648-1.319 17.592a39.933 39.933 0 0 0 -17.247 32.873v21.578l-8.228 12.34-32.431-45.4a15.951 15.951 0 0 0 .659-4.518v-13.546a29.189 29.189 0 0 0 3.543.239 29.5 29.5 0 0 0 9.357-57.493l-2.366-.788a8 8 0 0 0 -9.957 4.619l-9 22.494a24.07 24.07 0 0 0 -12.1-16.594l3.676-7.351a8 8 0 0 0 -7.153-11.58h-16a8 8 0 0 0 -7.155 11.578l3.676 7.351a23.98 23.98 0 0 0 -11.145 29.071h-1.376a8 8 0 0 0 -8 8v32a28.452 28.452 0 0 0 21.582 27.642l13.09 3.272 29.7 54.025a36.7 36.7 0 0 0 3.245 4.893 40 40 0 0 0 -27.144 46.549l14.407 67.235-20.992 10.5a17.889 17.889 0 0 0 8 33.888h62.112a8 8 0 0 0 8-8v-7.881c.229.3.449.611.688.908a39.807 39.807 0 0 0 31.202 14.969h109.3a18.806 18.806 0 0 0 11.749-33.491zm-188.668-275.655a13.512 13.512 0 0 1 -9.525 23.814zm56.426 47.965a24.026 24.026 0 0 1 28.271 4.208c.353.351 7.029 7.473 7.029 16.973v1.688c-.118-.527-.247-1.052-.4-1.573a25.832 25.832 0 0 0 -46.77-6.368 24 24 0 0 1 11.87-14.928zm1.66 23.459a9.885 9.885 0 0 1 12.832-3.736 9.834 9.834 0 0 1 4.038 13.858l-10.279 17.132-17.646-8.823zm30.589 18.353a25.788 25.788 0 0 0 3.051-7.666v67.035h-41.069c.087-.128.182-.248.268-.377zm1.851-135.037a61.823 61.823 0 0 1 4.335 9.607 15.122 15.122 0 0 0 -6.918-2.768 17.328 17.328 0 0 0 -1.957-.161 71.105 71.105 0 0 0 4.54-6.678zm-24.084-13.344a33.793 33.793 0 0 1 11.45 2.588l-6.459 2.531c-6.684 2.619-16.987 3.62-26.139 3.894.568-.017 6.1-5.1 12.584-7.67a21.264 21.264 0 0 1 8.564-1.343zm-25.5 60.168 2-11.744a8 8 0 0 0 -3.085-7.743l-1.158-.869 5.774-8.3a8.006 8.006 0 0 0 1.335-3.326 30.712 30.712 0 0 1 .693-3.2 131.779 131.779 0 0 0 21.133-2.236 51.831 51.831 0 0 0 -1.234 9.653 8 8 0 0 0 9.6 8.163 8.01 8.01 0 0 0 -1.486 7.881 38 38 0 0 0 3.788 7.072c.641 1.023 5.425 10.154 5.425 10.154v25.4a39.7 39.7 0 0 0 -22.213-2.822l1.28-17.066a8 8 0 0 0 -6.663-8.49zm-101.216 35.582h32l.007 16h-32.007zm8-24a8 8 0 1 1 8 8 8.009 8.009 0 0 1 -8-8zm23.011 68.146a8 8 0 0 0 -5.071-3.907l-16.477-4.119a12.472 12.472 0 0 1 -6.571-4.12h32.991l37.607 52.649a8 8 0 0 0 13.166-.211l12.083-18.124 17.577 8.789-18.429 27.645a20.776 20.776 0 0 1 -35.494-1.516zm13.909 92.765a23.9 23.9 0 0 1 18.664-8.911h86.358l-1.558 6.753a32.027 32.027 0 0 1 -28.384 17.247h-48a8 8 0 0 0 -7.81 9.735l13.837 62.265h-23.559l-14.352-66.971a23.9 23.9 0 0 1 4.804-20.118zm35.08 119.089h-54.111a1.889 1.889 0 0 1 -.846-3.578l24.846-12.422h30.111zm11.554-44.884-9.581-43.116h19.164zm17.614 35.9a23.885 23.885 0 0 1 -4.708-20.216l13.068-58.8h2.472a47.677 47.677 0 0 0 21.942-5.331l-13.737 59.531a8 8 0 0 0 7.795 9.8h40v24h-48.11a23.886 23.886 0 0 1 -18.722-8.984zm128.025 8.984h-45.193v-26.234l14.4-4.8 32.547 26.034a2.806 2.806 0 0 1 -1.754 5z"/><path d="m248 120h16v24h-16z"/><path d="m215.999 132.686h16.001v22.627h-16.001z" transform="matrix(.707 -.707 .707 .707 -36.215 200.569)"/><path d="m276.686 135.999h22.627v16.001h-22.627z" transform="matrix(.707 -.707 .707 .707 -17.47 245.823)"/></g></svg>