<svg id="Layer_1" enable-background="new 0 0 512 512" height="512" viewBox="0 0 512 512" width="512" xmlns="http://www.w3.org/2000/svg"><g><path d="m485.215 436.282h-458.43c-14.793 0-26.785-11.992-26.785-26.785v-306.994c0-14.793 11.992-26.785 26.785-26.785h458.431c14.793 0 26.785 11.992 26.785 26.785v306.994c-.001 14.793-11.993 26.785-26.786 26.785z" fill="#554e56"/><path d="m108.571 436.282 151.128-116.497c.36-.278.803-.429 1.258-.429h251.043v90.141c0 14.793-11.992 26.785-26.785 26.785z" fill="#3c87d0"/><path d="m481.095 319.356v90.141c0 14.793-11.992 26.785-26.785 26.785h30.905c14.793 0 26.785-11.992 26.785-26.785v-90.141z" fill="#0078c8"/><path d="m108.571 75.718 152.467 117.527c.36.278.803.429 1.258.429h249.704v-91.171c0-14.793-11.992-26.785-26.785-26.785z" fill="#e94444"/><path d="m485.215 75.718h-30.905c14.793 0 26.785 11.992 26.785 26.785v91.171h30.905v-91.171c0-14.793-11.992-26.785-26.785-26.785z" fill="#d83131"/><path d="m512 218.398v76.233h-259.46c-.455 0-.897.151-1.258.429l-183.208 141.222h-41.29c-14.792 0-26.784-11.992-26.784-26.785v-16.998l174.961-134.867c1.07-.825 1.07-2.439 0-3.264l-174.961-134.867v-16.998c0-14.793 11.992-26.785 26.785-26.785h41.279l184.547 142.252c.36.278.803.429 1.258.429h258.131z" fill="#22b37f"/><g><path d="m481.095 218.398h30.905v76.233h-30.905z" fill="#09a76d"/></g><path d="m0 119.501v31.214l134.465 103.653c1.07.825 1.07 2.439 0 3.264l-134.465 103.653v31.214l174.961-134.867c1.07-.825 1.07-2.439 0-3.264z" fill="#ffd15b"/><path d="m68.074 436.282h40.496l151.128-116.497c.36-.278.803-.429 1.258-.429h251.044v-24.724h-259.46c-.455 0-.897.151-1.258.429z" fill="#f3f0f3"/><path d="m261.038 193.246-152.467-117.528h-40.507l184.547 142.252c.36.278.803.429 1.258.429h258.131v-24.724h-249.704c-.455-.001-.898-.152-1.258-.429z" fill="#f3f0f3"/><g><g><g><path d="m481.095 193.674h30.905v24.724h-30.905z" fill="#e2dee2"/></g></g></g><g><g><g><path d="m481.095 294.632h30.905v24.724h-30.905z" fill="#e2dee2"/></g></g></g></g></svg>