<svg id="Layer_3" enable-background="new 0 0 64 64" height="512" viewBox="0 0 64 64" width="512" xmlns="http://www.w3.org/2000/svg"><g><path d="m20 6h40v26h-40z" fill="#c7e2fb"/><path d="m20 6v22.682c1.629.208 3.299.318 5 .318 16.424 0 29.95-10.055 31.781-23z" fill="#ebf7fe"/><path d="m38 32h4v6h-4z" fill="#88929f"/><path d="m2 38h54v20h-54z" fill="#4d5d79"/><circle cx="40" cy="48" fill="#88929f" r="12"/><path d="m47.996 39.07c-2.124-1.903-4.92-3.07-7.996-3.07-6.627 0-12 5.373-12 12 0 2.611.843 5.019 2.258 6.989.082.001.16.011.242.011 9.639 0 17.454-7.126 17.496-15.93z" fill="#a0a8b2"/><path d="m4 58h6v4h-6z" fill="#88929f"/><path d="m6 42h4v4h-4z" fill="#3c98f4"/><path d="m6 50h4v4h-4z" fill="#3c98f4"/><circle cx="40" cy="48" fill="#c1c8d1" r="8"/><path d="m48 58h6v4h-6z" fill="#88929f"/><path d="m18 2h44v4h-44z" fill="#a0a8b2"/><path d="m35 12v14l12-7z" fill="#e47c6f"/><path d="m47.037 44.192c-1.354-2.496-3.997-4.192-7.037-4.192-4.418 0-8 3.582-8 8 0 2.619 1.265 4.938 3.21 6.397 5.545-1.416 9.97-5.259 11.827-10.205z" fill="#d7dce1"/><g><path d="m10 41h-4c-.552 0-1 .447-1 1v4c0 .553.448 1 1 1h4c.552 0 1-.447 1-1v-4c0-.553-.448-1-1-1zm-1 4h-2v-2h2z"/><path d="m10 49h-4c-.552 0-1 .447-1 1v4c0 .553.448 1 1 1h4c.552 0 1-.447 1-1v-4c0-.553-.448-1-1-1zm-1 4h-2v-2h2z"/><path d="m13 41h12v2h-12z"/><path d="m13 45h12v2h-12z"/><path d="m13 49h12v2h-12z"/><path d="m13 53h12v2h-12z"/><path d="m40 39c-4.962 0-9 4.037-9 9s4.038 9 9 9 9-4.037 9-9-4.038-9-9-9zm0 16c-3.86 0-7-3.141-7-7s3.14-7 7-7 7 3.141 7 7-3.14 7-7 7z"/><path d="m62 1h-44c-.552 0-1 .447-1 1v4c0 .553.448 1 1 1h1v25c0 .553.448 1 1 1h17v2.363c-1.4.333-2.711.891-3.896 1.637h-31.104c-.552 0-1 .447-1 1v20c0 .553.448 1 1 1h1v3c0 .553.448 1 1 1h6c.552 0 1-.447 1-1v-3h22.104c2.002 1.26 4.362 2 6.896 2s4.895-.74 6.896-2h.104v3c0 .553.448 1 1 1h6c.552 0 1-.447 1-1v-3h1c.552 0 1-.447 1-1v-20c0-.553-.448-1-1-1h-9.104c-1.185-.746-2.496-1.304-3.896-1.637v-2.363h17c.552 0 1-.447 1-1v-25h1c.552 0 1-.447 1-1v-4c0-.553-.448-1-1-1zm-59 38h27.641c-2.249 2.338-3.641 5.507-3.641 9s1.392 6.662 3.641 9h-27.641zm6 22h-4v-2h4zm20-13c0-6.065 4.935-11 11-11s11 4.935 11 11-4.935 11-11 11-11-4.935-11-11zm24 13h-4v-2h4zm2-4h-5.641c2.249-2.338 3.641-5.507 3.641-9s-1.392-6.662-3.641-9h5.641zm-14-21.949c-.331-.026-.662-.051-1-.051s-.669.025-1 .051v-2.051h2zm18-4.051h-38v-24h38zm2-26h-42v-2h42z"/><path d="m34.502 26.867c.154.089.326.133.498.133.174 0 .348-.046.504-.136l12-7c.307-.179.496-.509.496-.864s-.189-.685-.496-.864l-12-7c-.31-.178-.691-.183-1.002-.003-.311.179-.502.509-.502.867v14c0 .358.191.688.502.867zm1.498-13.126 9.015 5.259-9.015 5.259z"/><path d="m13.707 23.121.586.586 1.414-1.414-.586-.586c-.712-.713-1.121-1.699-1.121-2.707s.409-1.994 1.121-2.707l.586-.586-1.414-1.414-.586.586c-1.085 1.085-1.707 2.587-1.707 4.121s.622 3.036 1.707 4.121z"/><path d="m11.292 26.706 1.416-1.412-.172-.173c-1.636-1.635-2.536-3.809-2.536-6.121s.9-4.486 2.537-6.122l.171-.172-1.416-1.412-.17.171c-2.014 2.013-3.122 4.688-3.122 7.535s1.108 5.522 3.121 7.534z"/></g></g></svg>