<svg xmlns="http://www.w3.org/2000/svg" height="650pt" version="1.1" viewBox="0 -10 650.001 650" width="650pt">
<g id="surface1">
<path d="M 482.257812 178.226562 L 10.484375 178.226562 L 10.484375 450.804688 L 639.515625 450.804688 L 639.515625 178.226562 Z M 188.710938 356.453125 C 188.710938 379.613281 169.933594 398.386719 146.773438 398.386719 L 104.839844 398.386719 L 104.839844 230.644531 L 136.289062 230.644531 C 159.449219 230.644531 188.710938 249.421875 188.710938 272.582031 Z M 304.03125 377.417969 C 304.03125 389 294.644531 398.386719 283.0625 398.386719 L 241.128906 398.386719 C 229.546875 398.386719 220.160156 389 220.160156 377.417969 L 220.160156 251.613281 C 220.160156 240.035156 229.546875 230.644531 241.128906 230.644531 L 283.0625 230.644531 C 294.644531 230.644531 304.03125 240.035156 304.03125 251.613281 Z M 387.902344 398.386719 C 364.742188 398.386719 345.96875 379.613281 345.96875 356.453125 L 345.96875 272.582031 C 345.96875 249.421875 364.742188 230.648438 387.902344 230.648438 C 364.742188 230.648438 345.96875 249.421875 345.96875 272.582031 L 345.96875 356.453125 C 345.96875 379.613281 364.742188 398.386719 387.902344 398.386719 Z M 545.160156 398.386719 L 503.226562 314.515625 L 461.289062 398.386719 L 503.226562 314.515625 L 461.289062 230.644531 L 503.226562 314.515625 L 545.160156 230.644531 L 503.226562 314.515625 Z M 545.160156 398.386719 " style=" stroke:none;fill-rule:nonzero;fill:rgb(40%,65.490196%,96.470588%);fill-opacity:1;" />
<path d="M 136.289062 230.644531 L 104.835938 230.644531 L 104.835938 398.386719 L 146.773438 398.386719 C 169.933594 398.386719 188.707031 379.613281 188.707031 356.453125 L 188.707031 272.582031 C 188.710938 249.421875 159.449219 230.644531 136.289062 230.644531 Z M 136.289062 230.644531 " style=" stroke:none;fill-rule:nonzero;fill:rgb(40%,65.490196%,96.470588%);fill-opacity:1;" />
<path d="M 241.128906 230.644531 L 283.0625 230.644531 C 294.644531 230.644531 304.03125 240.035156 304.03125 251.613281 L 304.03125 377.417969 C 304.03125 389 294.644531 398.386719 283.0625 398.386719 L 241.128906 398.386719 C 229.546875 398.386719 220.160156 389 220.160156 377.417969 L 220.160156 251.613281 C 220.160156 240.035156 229.546875 230.644531 241.128906 230.644531 Z M 241.128906 230.644531 " style=" stroke:none;fill-rule:nonzero;fill:rgb(40%,65.490196%,96.470588%);fill-opacity:1;" />
<path d="M 167.742188 450.804688 L 482.257812 450.804688 L 482.257812 503.226562 L 167.742188 503.226562 Z M 167.742188 450.804688 " style=" stroke:none;fill-rule:nonzero;fill:rgb(80%,88.627451%,98.823529%);fill-opacity:1;" />
<path d="M 167.742188 125.804688 L 482.257812 125.804688 L 482.257812 178.226562 L 167.742188 178.226562 Z M 167.742188 125.804688 " style=" stroke:none;fill-rule:nonzero;fill:rgb(80%,88.627451%,98.823529%);fill-opacity:1;" />
<path d="M 167.742188 450.804688 L 482.257812 450.804688 L 482.257812 503.226562 L 167.742188 503.226562 Z M 167.742188 450.804688 " style=" stroke:none;fill-rule:nonzero;fill:rgb(80%,88.627451%,98.823529%);fill-opacity:1;" />
<path d="M 167.742188 125.804688 L 482.257812 125.804688 L 482.257812 178.226562 L 167.742188 178.226562 Z M 167.742188 125.804688 " style=" stroke:none;fill-rule:nonzero;fill:rgb(80%,88.627451%,98.823529%);fill-opacity:1;" />
<path d="M 209.675781 83.871094 L 440.320312 83.871094 L 440.320312 104.839844 L 209.675781 104.839844 Z M 209.675781 83.871094 " style=" stroke:none;fill-rule:nonzero;fill:rgb(13.72549%,12.156863%,12.54902%);fill-opacity:1;" />
<path d="M 241.128906 52.417969 L 408.871094 52.417969 L 408.871094 73.386719 L 241.128906 73.386719 Z M 241.128906 52.417969 " style=" stroke:none;fill-rule:nonzero;fill:rgb(13.72549%,12.156863%,12.54902%);fill-opacity:1;" />
<path d="M 209.675781 524.195312 L 440.320312 524.195312 L 440.320312 545.160156 L 209.675781 545.160156 Z M 209.675781 524.195312 " style=" stroke:none;fill-rule:nonzero;fill:rgb(13.72549%,12.156863%,12.54902%);fill-opacity:1;" />
<path d="M 241.128906 555.644531 L 408.871094 555.644531 L 408.871094 576.613281 L 241.128906 576.613281 Z M 241.128906 555.644531 " style=" stroke:none;fill-rule:nonzero;fill:rgb(13.72549%,12.156863%,12.54902%);fill-opacity:1;" />
<path d="M 649.820312 177.34375 C 649.757812 176.632812 649.613281 175.929688 649.402344 175.25 C 649.230469 174.617188 648.992188 174.007812 648.699219 173.425781 C 648.402344 172.855469 648.050781 172.316406 647.652344 171.808594 C 647.210938 171.246094 646.714844 170.726562 646.175781 170.257812 C 645.933594 170.070312 645.808594 169.796875 645.554688 169.617188 L 545.160156 99.375 L 545.160156 10.484375 C 545.160156 4.695312 540.464844 0 534.675781 0 L 115.320312 0 C 109.53125 0 104.839844 4.695312 104.839844 10.484375 L 104.839844 99.378906 L 4.476562 169.617188 C 4.222656 169.796875 4.097656 170.070312 3.855469 170.257812 C 3.316406 170.726562 2.820312 171.25 2.378906 171.808594 C 1.980469 172.316406 1.628906 172.855469 1.332031 173.425781 C 1.035156 174.007812 0.800781 174.621094 0.628906 175.25 C 0.414062 175.929688 0.273438 176.632812 0.210938 177.347656 C 0.125 177.636719 0.0546875 177.929688 0 178.226562 L 0 450.804688 C 0 456.597656 4.695312 461.289062 10.484375 461.289062 L 104.839844 461.289062 L 104.839844 618.546875 C 104.839844 624.339844 109.53125 629.03125 115.324219 629.03125 L 534.679688 629.03125 C 540.46875 629.03125 545.160156 624.339844 545.160156 618.546875 L 545.160156 461.289062 L 639.515625 461.289062 C 645.308594 461.289062 650 456.597656 650 450.804688 L 650 178.226562 C 649.957031 177.929688 649.894531 177.636719 649.820312 177.34375 Z M 606.261719 167.742188 L 545.160156 167.742188 L 545.160156 124.976562 Z M 524.191406 20.96875 L 524.191406 167.742188 L 492.742188 167.742188 L 492.742188 125.804688 C 492.742188 120.015625 488.046875 115.324219 482.257812 115.324219 L 167.742188 115.324219 C 161.949219 115.324219 157.257812 120.015625 157.257812 125.804688 L 157.257812 167.742188 L 125.804688 167.742188 L 125.804688 20.96875 Z M 178.226562 167.742188 L 178.226562 136.289062 L 471.773438 136.289062 L 471.773438 167.742188 Z M 104.839844 167.742188 L 43.738281 167.742188 L 104.839844 124.976562 Z M 524.191406 608.066406 L 125.804688 608.066406 L 125.804688 461.289062 L 157.257812 461.289062 L 157.257812 503.226562 C 157.257812 509.015625 161.949219 513.710938 167.742188 513.710938 L 482.257812 513.710938 C 488.046875 513.710938 492.742188 509.015625 492.742188 503.226562 L 492.742188 461.289062 L 524.191406 461.289062 Z M 471.773438 461.289062 L 471.773438 492.742188 L 178.226562 492.742188 L 178.226562 461.289062 Z M 629.03125 440.324219 L 20.96875 440.324219 L 20.96875 188.710938 L 629.03125 188.710938 Z M 629.03125 440.324219 " style=" stroke:none;fill-rule:nonzero;fill:rgb(13.72549%,12.156863%,12.54902%);fill-opacity:1;" />
<path d="M 136.289062 220.160156 L 104.835938 220.160156 C 99.046875 220.160156 94.351562 224.855469 94.351562 230.644531 L 94.351562 398.386719 C 94.351562 404.175781 99.046875 408.871094 104.835938 408.871094 L 146.773438 408.871094 C 175.707031 408.835938 199.15625 385.386719 199.191406 356.453125 L 199.191406 272.582031 C 199.191406 243.058594 165.371094 220.160156 136.289062 220.160156 Z M 178.226562 356.453125 C 178.226562 373.820312 164.144531 387.902344 146.773438 387.902344 L 115.320312 387.902344 L 115.320312 241.128906 L 136.289062 241.128906 C 154.605469 241.128906 178.222656 256.382812 178.222656 272.582031 L 178.222656 356.453125 Z M 178.226562 356.453125 " style=" stroke:none;fill-rule:nonzero;fill:rgb(13.72549%,12.156863%,12.54902%);fill-opacity:1;" />
<path d="M 283.0625 220.160156 L 241.128906 220.160156 C 223.757812 220.160156 209.675781 234.242188 209.675781 251.613281 L 209.675781 377.417969 C 209.675781 394.789062 223.757812 408.871094 241.128906 408.871094 L 283.0625 408.871094 C 300.433594 408.871094 314.515625 394.789062 314.515625 377.417969 L 314.515625 251.613281 C 314.515625 234.242188 300.433594 220.160156 283.0625 220.160156 Z M 293.546875 377.417969 C 293.546875 383.210938 288.851562 387.902344 283.0625 387.902344 L 241.128906 387.902344 C 235.339844 387.902344 230.644531 383.210938 230.644531 377.417969 L 230.644531 251.613281 C 230.644531 245.824219 235.339844 241.128906 241.128906 241.128906 L 283.0625 241.128906 C 288.851562 241.128906 293.546875 245.824219 293.546875 251.613281 Z M 293.546875 377.417969 " style=" stroke:none;fill-rule:nonzero;fill:rgb(13.72549%,12.156863%,12.54902%);fill-opacity:1;" />
<path d="M 387.902344 241.128906 L 429.835938 241.128906 C 435.628906 241.128906 440.320312 236.433594 440.320312 230.644531 C 440.320312 224.855469 435.628906 220.160156 429.835938 220.160156 L 387.902344 220.160156 C 358.964844 220.195312 335.515625 243.644531 335.484375 272.582031 L 335.484375 356.453125 C 335.519531 385.386719 358.964844 408.835938 387.902344 408.871094 L 429.835938 408.871094 C 435.628906 408.871094 440.320312 404.175781 440.320312 398.386719 C 440.320312 392.597656 435.628906 387.902344 429.835938 387.902344 L 387.902344 387.902344 C 370.53125 387.902344 356.449219 373.820312 356.449219 356.449219 L 356.449219 272.578125 C 356.449219 255.210938 370.53125 241.128906 387.902344 241.128906 Z M 387.902344 241.128906 " style=" stroke:none;fill-rule:nonzero;fill:rgb(13.72549%,12.156863%,12.54902%);fill-opacity:1;" />
<path d="M 470.726562 225.960938 C 468.136719 220.777344 461.839844 218.675781 456.65625 221.261719 C 451.472656 223.851562 449.371094 230.148438 451.960938 235.332031 L 491.503906 314.515625 L 451.90625 393.703125 C 449.316406 398.882812 451.421875 405.183594 456.601562 407.769531 C 461.785156 410.359375 468.085938 408.253906 470.671875 403.074219 L 503.222656 337.957031 L 535.722656 403.074219 C 538.3125 408.253906 544.609375 410.359375 549.792969 407.769531 C 554.976562 405.183594 557.078125 398.882812 554.488281 393.703125 L 514.945312 314.515625 L 554.597656 235.332031 C 557.183594 230.148438 555.082031 223.851562 549.898438 221.261719 C 544.71875 218.675781 538.417969 220.777344 535.828125 225.960938 L 503.226562 291.074219 Z M 470.726562 225.960938 " style=" stroke:none;fill-rule:nonzero;fill:rgb(13.72549%,12.156863%,12.54902%);fill-opacity:1;" />
</g>
</svg>