<svg xmlns="http://www.w3.org/2000/svg" width="581.155" height="582.884" viewBox="0 0 581.155 582.884">
  <g id="democracy-challenges" transform="translate(-1030 -153.115)">
    <g id="civil-rights" transform="translate(1334 149.046)">
      <g id="Group_75" data-name="Group 75" transform="translate(4.061 12.112)">
        <g id="Group_72" data-name="Group 72">
          <g id="Group_6" data-name="Group 6" transform="translate(132.029 3.109)">
            <circle id="Ellipse_19" data-name="Ellipse 19" cx="54.562" cy="54.562" r="54.562" fill="#efe2dd"/>
            <path id="Path_168" data-name="Path 168" d="M325.93,51.432a40.514,40.514,0,1,0,31.642,47.762A40.557,40.557,0,0,0,325.93,51.432Zm-34.4,34.354a26.869,26.869,0,0,1,44.391-14.563L292.483,100a26.721,26.721,0,0,1-.956-14.213Zm21,31.691a26.718,26.718,0,0,1-12.426-6.172l43.271-28.667a26.871,26.871,0,0,1-30.845,34.839Z" transform="translate(-263.304 -36.572)" fill="#fb3a82"/>
          </g>
          <g id="Group_8" data-name="Group 8" transform="translate(14.067)">
            <g id="Group_7" data-name="Group 7">
              <path id="Path_169" data-name="Path 169" d="M127.616,84.25,59.459,107.538a5.543,5.543,0,0,1-7.038-3.453L33.788,49.552a5.543,5.543,0,0,1,3.453-7.038L105.4,19.226a5.543,5.543,0,0,1,7.038,3.453l18.633,54.533a5.543,5.543,0,0,1-3.453,7.038Z" transform="translate(-33.489 -18.927)" fill="#fcb44d"/>
              <path id="Path_170" data-name="Path 170" d="M161.556,22.683l18.632,54.53a5.538,5.538,0,0,1-3.453,7.038L162.8,89.013a5.541,5.541,0,0,0,3.453-7.038L147.62,27.445a5.545,5.545,0,0,0-7.038-3.453l13.937-4.762a5.542,5.542,0,0,1,7.038,3.453Z" transform="translate(-82.611 -18.929)" fill="#fb9927"/>
            </g>
          </g>
          <g id="Group_9" data-name="Group 9" transform="translate(0 76.646)">
            <path id="Path_171" data-name="Path 171" d="M276.536,166.053v51.631A5.536,5.536,0,0,1,271,223.216H13.04A5.536,5.536,0,0,1,7.5,217.684V166.053a5.536,5.536,0,0,1,5.538-5.532H271A5.537,5.537,0,0,1,276.536,166.053Z" transform="translate(-7.502 -160.52)" fill="#9ce6fb"/>
            <path id="Path_172" data-name="Path 172" d="M484.887,166.054v51.625a5.533,5.533,0,0,1-5.535,5.535H461.739a5.533,5.533,0,0,0,5.535-5.535V166.054a5.537,5.537,0,0,0-5.535-5.535h17.613A5.537,5.537,0,0,1,484.887,166.054Z" transform="translate(-215.853 -160.519)" fill="#68dbf9"/>
          </g>
          <g id="Group_71" data-name="Group 71" transform="translate(0 176.218)">
            <g id="Group_34" data-name="Group 34" transform="translate(33.629)">
              <g id="Group_17" data-name="Group 17" transform="translate(67.257)">
                <g id="Group_16" data-name="Group 16">
                  <g id="Group_15" data-name="Group 15">
                    <g id="Group_14" data-name="Group 14">
                      <g id="Group_13" data-name="Group 13">
                        <g id="Group_12" data-name="Group 12">
                          <g id="Group_11" data-name="Group 11">
                            <g id="Group_10" data-name="Group 10">
                              <path id="Path_173" data-name="Path 173" d="M261.133,424.134H193.875l4.884-58.124A19.024,19.024,0,0,1,211.884,349.5l15.62-5.032,15.62,5.032a19.025,19.025,0,0,1,13.125,16.516Z" transform="translate(-193.875 -344.463)" fill="#bcea73"/>
                              <path id="Path_174" data-name="Path 174" d="M296.479,426.346H282.528l-4.885-61.375c-.528-6.631-1.4-12.452-6.706-15.691l7.534,2.426a19.021,19.021,0,0,1,13.123,16.514Z" transform="translate(-229.222 -346.672)" fill="#a3e440"/>
                            </g>
                          </g>
                        </g>
                      </g>
                    </g>
                  </g>
                </g>
              </g>
              <g id="Group_25" data-name="Group 25" transform="translate(134.517)">
                <g id="Group_24" data-name="Group 24">
                  <g id="Group_23" data-name="Group 23">
                    <g id="Group_22" data-name="Group 22">
                      <g id="Group_21" data-name="Group 21">
                        <g id="Group_20" data-name="Group 20">
                          <g id="Group_19" data-name="Group 19">
                            <g id="Group_18" data-name="Group 18">
                              <path id="Path_175" data-name="Path 175" d="M385.385,424.134H318.128l4.884-58.124A19.024,19.024,0,0,1,336.137,349.5l15.62-5.032,15.62,5.032A19.025,19.025,0,0,1,380.5,366.011Z" transform="translate(-318.128 -344.463)" fill="#fcb44d"/>
                              <path id="Path_176" data-name="Path 176" d="M420.731,426.346H406.78L401.9,364.97c-.528-6.631-1.4-12.452-6.706-15.691l7.534,2.426a19.021,19.021,0,0,1,13.123,16.514Z" transform="translate(-353.475 -346.672)" fill="#fb9927"/>
                            </g>
                          </g>
                        </g>
                      </g>
                    </g>
                  </g>
                </g>
              </g>
              <g id="Group_33" data-name="Group 33">
                <g id="Group_32" data-name="Group 32">
                  <g id="Group_31" data-name="Group 31">
                    <g id="Group_30" data-name="Group 30">
                      <g id="Group_29" data-name="Group 29">
                        <g id="Group_28" data-name="Group 28">
                          <g id="Group_27" data-name="Group 27">
                            <g id="Group_26" data-name="Group 26">
                              <path id="Path_177" data-name="Path 177" d="M136.884,424.134H69.627l4.884-58.124A19.024,19.024,0,0,1,87.636,349.5l15.62-5.032,15.62,5.032A19.025,19.025,0,0,1,132,366.011Z" transform="translate(-69.627 -344.463)" fill="#fc5a95"/>
                              <path id="Path_178" data-name="Path 178" d="M172.242,426.346H158.286L153.4,364.97c-.528-6.631-1.4-12.448-6.7-15.691l7.524,2.426a19.026,19.026,0,0,1,13.127,16.514Z" transform="translate(-104.981 -346.672)" fill="#fb3a82"/>
                            </g>
                          </g>
                        </g>
                      </g>
                    </g>
                  </g>
                </g>
              </g>
            </g>
            <g id="Group_70" data-name="Group 70" transform="translate(0 44.478)">
              <g id="Group_51" data-name="Group 51">
                <g id="Group_42" data-name="Group 42">
                  <g id="Group_41" data-name="Group 41">
                    <g id="Group_40" data-name="Group 40">
                      <g id="Group_39" data-name="Group 39">
                        <g id="Group_38" data-name="Group 38">
                          <g id="Group_37" data-name="Group 37">
                            <g id="Group_36" data-name="Group 36">
                              <g id="Group_35" data-name="Group 35">
                                <path id="Path_179" data-name="Path 179" d="M74.759,466.579H7.5l4.174-21.785A15.888,15.888,0,0,1,22.409,432.66l18.722-6.031,18.722,6.031a15.888,15.888,0,0,1,10.733,12.134Z" transform="translate(-7.502 -426.629)" fill="#fb3a82"/>
                                <path id="Path_180" data-name="Path 180" d="M112.863,469.675H99.127l-4.171-24.557c-.837-4.914-.732-9.132-4.38-11.743l7.382,2.378a15.9,15.9,0,0,1,10.735,12.134Z" transform="translate(-45.606 -429.723)" fill="#fb1466"/>
                              </g>
                            </g>
                          </g>
                        </g>
                      </g>
                    </g>
                  </g>
                </g>
                <g id="Group_50" data-name="Group 50" transform="translate(67.257)">
                  <g id="Group_49" data-name="Group 49">
                    <g id="Group_48" data-name="Group 48">
                      <g id="Group_47" data-name="Group 47">
                        <g id="Group_46" data-name="Group 46">
                          <g id="Group_45" data-name="Group 45">
                            <g id="Group_44" data-name="Group 44">
                              <g id="Group_43" data-name="Group 43">
                                <path id="Path_181" data-name="Path 181" d="M199.008,466.579H131.75l4.174-21.785a15.888,15.888,0,0,1,10.733-12.134l18.722-6.031L184.1,432.66a15.888,15.888,0,0,1,10.733,12.134Z" transform="translate(-131.75 -426.629)" fill="#21c1f8"/>
                                <path id="Path_182" data-name="Path 182" d="M237.114,469.675H223.378l-4.171-24.557c-.837-4.914-.732-9.132-4.38-11.743l7.382,2.378a15.889,15.889,0,0,1,10.73,12.134Z" transform="translate(-169.856 -429.723)" fill="#1faaee"/>
                              </g>
                            </g>
                          </g>
                        </g>
                      </g>
                    </g>
                  </g>
                </g>
              </g>
              <g id="Group_60" data-name="Group 60" transform="translate(134.515)">
                <g id="Group_59" data-name="Group 59">
                  <g id="Group_58" data-name="Group 58">
                    <g id="Group_57" data-name="Group 57">
                      <g id="Group_56" data-name="Group 56">
                        <g id="Group_55" data-name="Group 55">
                          <g id="Group_54" data-name="Group 54">
                            <g id="Group_53" data-name="Group 53">
                              <g id="Group_52" data-name="Group 52">
                                <path id="Path_183" data-name="Path 183" d="M323.257,466.579H256l4.174-21.785a15.888,15.888,0,0,1,10.733-12.134l18.722-6.031,18.722,6.031a15.888,15.888,0,0,1,10.733,12.134Z" transform="translate(-255.999 -426.629)" fill="#5b5555"/>
                                <path id="Path_184" data-name="Path 184" d="M361.365,469.675H347.629l-4.176-24.557c-.833-4.914-.728-9.132-4.375-11.743l7.382,2.378a15.905,15.905,0,0,1,10.73,12.134Z" transform="translate(-294.106 -429.723)" fill="#444"/>
                              </g>
                            </g>
                          </g>
                        </g>
                      </g>
                    </g>
                  </g>
                </g>
              </g>
              <g id="Group_69" data-name="Group 69" transform="translate(201.774)">
                <g id="Group_68" data-name="Group 68">
                  <g id="Group_67" data-name="Group 67">
                    <g id="Group_66" data-name="Group 66">
                      <g id="Group_65" data-name="Group 65">
                        <g id="Group_64" data-name="Group 64">
                          <g id="Group_63" data-name="Group 63">
                            <g id="Group_62" data-name="Group 62">
                              <g id="Group_61" data-name="Group 61">
                                <path id="Path_185" data-name="Path 185" d="M447.507,466.579H380.249l4.174-21.785a15.888,15.888,0,0,1,10.733-12.134l18.722-6.031L432.6,432.66a15.888,15.888,0,0,1,10.733,12.134Z" transform="translate(-380.249 -426.629)" fill="#f3eae6"/>
                                <path id="Path_186" data-name="Path 186" d="M485.616,469.675H471.88L467.7,445.118c-.833-4.914-.728-9.132-4.375-11.743l7.382,2.378a15.905,15.905,0,0,1,10.73,12.134Z" transform="translate(-418.356 -429.723)" fill="#e0d3ce"/>
                              </g>
                            </g>
                          </g>
                        </g>
                      </g>
                    </g>
                  </g>
                </g>
              </g>
            </g>
          </g>
        </g>
        <g id="Group_74" data-name="Group 74" transform="translate(16.815 176.12)">
          <path id="Path_187" data-name="Path 187" d="M70.593,408.27V422.2a6.34,6.34,0,1,1-12.681,0V408.27Z" transform="translate(-47.439 -373.632)" fill="#873f30"/>
          <g id="Group_73" data-name="Group 73" transform="translate(0)">
            <path id="Path_188" data-name="Path 188" d="M55.378,344.285A16.813,16.813,0,0,0,38.565,361.1V368.4a16.815,16.815,0,0,0,33.627,0V361.1A16.813,16.813,0,0,0,55.378,344.285Z" transform="translate(-38.565 -344.283)" fill="#a34f41"/>
            <path id="Path_189" data-name="Path 189" d="M82,361.1v7.3A17.079,17.079,0,0,1,65.19,385a16.11,16.11,0,0,1-5.238-.877A17.111,17.111,0,0,0,71.526,368.4v-7.3a16.823,16.823,0,0,0-11.574-15.987A16.831,16.831,0,0,1,82,361.1Z" transform="translate(-48.375 -344.282)" fill="#873f30"/>
          </g>
        </g>
      </g>
      <g id="Group_77" data-name="Group 77" transform="translate(54.505 143.157)">
        <path id="Path_190" data-name="Path 190" d="M132.718,325v13.929a6.34,6.34,0,0,1-12.681,0V325Z" transform="translate(-109.564 -290.364)" fill="#f69583"/>
        <g id="Group_76" data-name="Group 76">
          <path id="Path_191" data-name="Path 191" d="M117.5,261.017A16.813,16.813,0,0,0,100.69,277.83v7.305a16.815,16.815,0,0,0,33.627,0V277.83A16.813,16.813,0,0,0,117.5,261.017Z" transform="translate(-100.69 -261.015)" fill="#fdb0a0"/>
          <path id="Path_192" data-name="Path 192" d="M144.127,277.831v7.3a17.079,17.079,0,0,1-16.813,16.6,16.111,16.111,0,0,1-5.238-.877,17.111,17.111,0,0,0,11.574-15.719v-7.3a16.824,16.824,0,0,0-11.574-15.988,16.831,16.831,0,0,1,22.05,15.988Z" transform="translate(-110.5 -261.013)" fill="#f69583"/>
        </g>
      </g>
      <g id="Group_79" data-name="Group 79" transform="translate(121.764 143.157)">
        <path id="Path_193" data-name="Path 193" d="M256.969,325v13.929a6.34,6.34,0,0,1-12.681,0V325Z" transform="translate(-233.815 -290.364)" fill="#873f30"/>
        <g id="Group_78" data-name="Group 78">
          <path id="Path_194" data-name="Path 194" d="M241.754,261.017a16.813,16.813,0,0,0-16.813,16.813v7.305a16.815,16.815,0,0,0,33.626,0V277.83A16.813,16.813,0,0,0,241.754,261.017Z" transform="translate(-224.941 -261.015)" fill="#a34f41"/>
          <path id="Path_195" data-name="Path 195" d="M268.378,277.831v7.3a17.079,17.079,0,0,1-16.813,16.6,16.111,16.111,0,0,1-5.238-.877A17.111,17.111,0,0,0,257.9,285.133v-7.3a16.824,16.824,0,0,0-11.574-15.988,16.831,16.831,0,0,1,22.051,15.988Z" transform="translate(-234.75 -261.013)" fill="#873f30"/>
        </g>
      </g>
      <g id="Group_81" data-name="Group 81" transform="translate(189.023 143.157)">
        <path id="Path_196" data-name="Path 196" d="M381.219,325v13.929a6.34,6.34,0,1,1-12.681,0V325Z" transform="translate(-358.066 -290.364)" fill="#fdb0a0"/>
        <g id="Group_80" data-name="Group 80">
          <path id="Path_197" data-name="Path 197" d="M366.005,261.017a16.813,16.813,0,0,0-16.813,16.813v7.305a16.815,16.815,0,0,0,33.627,0V277.83A16.813,16.813,0,0,0,366.005,261.017Z" transform="translate(-349.192 -261.015)" fill="#ffcec0"/>
          <path id="Path_198" data-name="Path 198" d="M392.628,277.831v7.3a17.079,17.079,0,0,1-16.813,16.6,16.11,16.11,0,0,1-5.238-.877,17.111,17.111,0,0,0,11.574-15.719v-7.3a16.824,16.824,0,0,0-11.574-15.988,16.831,16.831,0,0,1,22.05,15.988Z" transform="translate(-359.001 -261.013)" fill="#fdb0a0"/>
        </g>
      </g>
      <g id="Group_83" data-name="Group 83" transform="translate(88.136 188.232)">
        <path id="Path_199" data-name="Path 199" d="M194.847,408.27V422.2a6.34,6.34,0,1,1-12.681,0V408.27Z" transform="translate(-171.693 -373.632)" fill="#f69583"/>
        <g id="Group_82" data-name="Group 82">
          <path id="Path_200" data-name="Path 200" d="M179.632,344.285A16.813,16.813,0,0,0,162.819,361.1V368.4a16.815,16.815,0,0,0,33.627,0V361.1A16.813,16.813,0,0,0,179.632,344.285Z" transform="translate(-162.819 -344.283)" fill="#fdb0a0"/>
          <path id="Path_201" data-name="Path 201" d="M206.255,361.1v7.3A17.079,17.079,0,0,1,189.443,385a16.11,16.11,0,0,1-5.238-.877A17.111,17.111,0,0,0,195.779,368.4v-7.3A16.823,16.823,0,0,0,184.2,345.112,16.831,16.831,0,0,1,206.255,361.1Z" transform="translate(-172.628 -344.282)" fill="#f69583"/>
        </g>
      </g>
      <g id="Group_85" data-name="Group 85" transform="translate(155.397 188.232)">
        <path id="Path_202" data-name="Path 202" d="M319.1,408.27V422.2a6.34,6.34,0,1,1-12.681,0V408.27Z" transform="translate(-295.947 -373.632)" fill="#c86f5c"/>
        <g id="Group_84" data-name="Group 84">
          <path id="Path_203" data-name="Path 203" d="M303.886,344.285A16.813,16.813,0,0,0,287.073,361.1V368.4a16.815,16.815,0,0,0,33.627,0V361.1A16.813,16.813,0,0,0,303.886,344.285Z" transform="translate(-287.073 -344.283)" fill="#d5887a"/>
          <path id="Path_204" data-name="Path 204" d="M330.509,361.1v7.3A17.079,17.079,0,0,1,313.7,385a16.11,16.11,0,0,1-5.238-.877A17.111,17.111,0,0,0,320.033,368.4v-7.3a16.823,16.823,0,0,0-11.574-15.987,16.831,16.831,0,0,1,22.05,15.987Z" transform="translate(-296.882 -344.282)" fill="#c86f5c"/>
        </g>
      </g>
      <g id="Group_88" data-name="Group 88" transform="translate(0 4.069)">
        <path id="Path_205" data-name="Path 205" d="M443.354,408.27V422.2a6.34,6.34,0,1,1-12.681,0V408.27Z" transform="translate(-197.543 -189.47)" fill="#f69583"/>
        <g id="Group_87" data-name="Group 87">
          <path id="Path_206" data-name="Path 206" d="M428.139,344.285A16.813,16.813,0,0,0,411.326,361.1V368.4a16.815,16.815,0,0,0,33.627,0V361.1A16.813,16.813,0,0,0,428.139,344.285Z" transform="translate(-188.669 -160.121)" fill="#fdb0a0"/>
          <path id="Path_207" data-name="Path 207" d="M454.763,361.1v7.3A17.079,17.079,0,0,1,437.951,385a16.11,16.11,0,0,1-5.238-.877A17.111,17.111,0,0,0,444.287,368.4v-7.3a16.823,16.823,0,0,0-11.574-15.987,16.831,16.831,0,0,1,22.05,15.987Z" transform="translate(-198.479 -160.12)" fill="#f69583"/>
          <g id="Group_86" data-name="Group 86">
            <path id="Path_208" data-name="Path 208" d="M295.665,93.089a30.873,30.873,0,0,0,1.1,16.365,4.06,4.06,0,0,0,6.073,2.039l43.434-28.776a4.06,4.06,0,0,0,.489-6.388,30.928,30.928,0,0,0-51.1,16.76Zm30.314-16.668a22.86,22.86,0,0,1,10.91,2.777l-33.622,22.275a22.855,22.855,0,0,1,22.713-25.052Z" transform="translate(-135.331 -33.531)"/>
            <path id="Path_209" data-name="Path 209" d="M110.329,80.988a4.055,4.055,0,0,0,5.154,2.53l8.844-3.021a4.06,4.06,0,1,0-2.624-7.683l-.58.2L117.1,61.227A4.057,4.057,0,0,0,112.66,54.8l-14.7,5.02-.154-.452a4.06,4.06,0,0,0-7.684,2.624l.155.453-14.7,5.021A4.051,4.051,0,0,0,76,75.256l4.028,11.792-.58.2a4.06,4.06,0,1,0,2.624,7.683l8.844-3.021a4.06,4.06,0,1,0-2.624-7.683l-.58.2L83.883,73.21,92.9,70.128l8.2,24-5.4,1.843a4.06,4.06,0,1,0,2.625,7.683l18.474-6.311a4.06,4.06,0,1,0-2.625-7.683l-5.394,1.843-8.2-24,9.021-3.082,3.83,11.214-.58.2a4.06,4.06,0,0,0-2.532,5.154Z" transform="translate(-33.407 -27.238)"/>
            <path id="Path_210" data-name="Path 210" d="M267.559,155.516a9.607,9.607,0,0,0,9.6-9.6V94.293a9.606,9.606,0,0,0-9.6-9.6H247.351a58.649,58.649,0,0,0-44.284-72.21l.614-3.692a4.06,4.06,0,1,0-8.01-1.331l-.641,3.86q-2.168-.161-4.378-.163a58.642,58.642,0,0,0-56.7,73.538h-30.4l10.014-3.422a9.614,9.614,0,0,0,5.982-12.192l-9.785-28.638a4.06,4.06,0,1,0-7.683,2.625l9.785,28.638a1.484,1.484,0,0,1-.923,1.883L78.484,84.7H37.055L22.269,41.424a1.483,1.483,0,0,1,.924-1.883L91.35,16.254a1.483,1.483,0,0,1,1.883.924l2.687,7.862a4.06,4.06,0,1,0,7.683-2.625l-2.686-7.861A9.6,9.6,0,0,0,88.725,8.57L58.488,18.9l-.536-1.569a4.06,4.06,0,0,0-7.684,2.625l.536,1.569L20.568,31.858A9.6,9.6,0,0,0,14.586,44.05L28.475,84.7H9.6a9.607,9.607,0,0,0-9.6,9.6v12.194a4.06,4.06,0,0,0,8.12,0V94.295A1.477,1.477,0,0,1,9.6,92.819H267.559a1.478,1.478,0,0,1,1.476,1.476v51.627a1.478,1.478,0,0,1-1.476,1.476H222.482a20.847,20.847,0,0,0-33.292,0H155.224a20.847,20.847,0,0,0-33.291,0H87.966a20.847,20.847,0,0,0-33.292,0H9.6a1.477,1.477,0,0,1-1.476-1.476V125.649a4.06,4.06,0,1,0-8.12,0v20.273a9.606,9.606,0,0,0,9.6,9.6h8.528L22.7,190.543a20.8,20.8,0,0,0-5.885,14.506v7.305a20.853,20.853,0,0,0,10.473,17.808v1.734l-9.567,3.082A19.945,19.945,0,0,0,4.247,250.211L.073,272a4.06,4.06,0,1,0,7.975,1.528l4.174-21.785a11.826,11.826,0,0,1,7.991-9.033l7.672-2.471a10.384,10.384,0,0,0,19.611,0l7.672,2.471a11.823,11.823,0,0,1,7.99,9.033l4.174,21.785a4.059,4.059,0,0,0,7.97.014l4.178-21.8a11.826,11.826,0,0,1,7.991-9.033l7.674-2.472a10.384,10.384,0,0,0,19.611,0l7.67,2.471a11.823,11.823,0,0,1,7.99,9.033l4.174,21.785a4.059,4.059,0,0,0,7.97.014l4.178-21.8a11.826,11.826,0,0,1,7.991-9.033l7.676-2.473a10.384,10.384,0,0,0,19.611,0l7.668,2.47a11.824,11.824,0,0,1,7.99,9.033l4.174,21.785a4.059,4.059,0,0,0,7.969.02c0-.007,4.18-21.8,4.18-21.8a11.826,11.826,0,0,1,7.991-9.033l7.677-2.473a10.384,10.384,0,0,0,19.611,0l7.666,2.469a11.824,11.824,0,0,1,7.99,9.033l4.174,21.785a4.06,4.06,0,0,0,7.975-1.528l-4.174-21.785a19.943,19.943,0,0,0-13.475-15.234l-9.56-3.08v-1.735a20.852,20.852,0,0,0,10.473-17.808v-7.305a20.8,20.8,0,0,0-5.889-14.51l4.576-35.021h8.527ZM140.15,69.783A50.5,50.5,0,1,1,238.908,84.7h-6.254a44.548,44.548,0,0,0-31.143-58.141,4.06,4.06,0,1,0-1.974,7.876A36.462,36.462,0,0,1,223.92,84.7h-6.162A30.88,30.88,0,0,0,220,60,4.06,4.06,0,0,0,213.91,57.9L173.464,84.7H157.391a36.026,36.026,0,0,1-2.458-22.168A36.606,36.606,0,0,1,182.3,34.314a4.06,4.06,0,0,0-1.875-7.9,44.752,44.752,0,0,0-33.452,34.5A44.1,44.1,0,0,0,148.641,84.7H142.4A50.449,50.449,0,0,1,140.15,69.783ZM188.167,84.7,213.4,67.978a22.75,22.75,0,0,1-5.493,16.72Zm17.669,62.52a12.768,12.768,0,0,1,12.754,12.753v7.305c0,6.679-5.96,12.538-12.754,12.538s-12.754-5.859-12.754-12.538v-7.305A12.768,12.768,0,0,1,205.836,147.219ZM203.556,187.8a19.676,19.676,0,0,0,4.561,0v3.921a2.281,2.281,0,0,1-4.561,0Zm-8.12-2.718v2.33l-6.464,2.082c-.691.222-1.371.481-2.039.768a20.822,20.822,0,0,0-12.417-5.962l4.784-28.788h6.147a20.855,20.855,0,0,0-.484,4.457v7.305a20.85,20.85,0,0,0,10.473,17.808ZM172.21,224.89c-6.794,0-12.753-5.859-12.753-12.538v-7.305a12.754,12.754,0,1,1,25.507,0v7.305C184.964,219.031,179,224.89,172.21,224.89Zm-1.141-69.374-4.912,29.556a20.892,20.892,0,0,0-8.671,5.2c-.669-.288-1.351-.547-2.045-.77l-6.464-2.082v-2.33a20.853,20.853,0,0,0,10.473-17.807v-7.305a20.854,20.854,0,0,0-.484-4.457ZM136.3,187.8a19.671,19.671,0,0,0,4.561,0v3.921a2.28,2.28,0,1,1-4.561,0Zm2.28-40.584a12.768,12.768,0,0,1,12.754,12.753v7.305c0,6.679-5.959,12.538-12.753,12.538s-12.754-5.859-12.754-12.538v-7.305A12.768,12.768,0,0,1,138.577,147.219Zm-20.389,8.3a20.854,20.854,0,0,0-.484,4.457v7.305a20.852,20.852,0,0,0,10.473,17.807v2.33l-6.465,2.083c-.691.222-1.372.481-2.039.768a20.836,20.836,0,0,0-29.446,0c-.669-.287-1.35-.546-2.042-.769l-6.465-2.082v-2.33a20.852,20.852,0,0,0,10.473-17.807v-7.305a20.854,20.854,0,0,0-.484-4.457ZM104.95,224.89c-6.794,0-12.754-5.859-12.754-12.538v-7.305a12.754,12.754,0,1,1,25.507,0v7.305C117.7,219.031,111.744,224.89,104.95,224.89ZM69.038,187.8a19.676,19.676,0,0,0,4.561,0v3.921a2.281,2.281,0,1,1-4.561,0Zm2.281-40.583a12.768,12.768,0,0,1,12.754,12.753v7.305c0,6.679-5.96,12.538-12.754,12.538s-12.754-5.859-12.754-12.538v-7.305A12.768,12.768,0,0,1,71.319,147.219Zm-20.39,8.3a20.854,20.854,0,0,0-.484,4.457v7.305a20.852,20.852,0,0,0,10.473,17.807v2.33L54.454,189.5c-.692.223-1.373.482-2.04.769a20.827,20.827,0,0,0-22.176-4.712l-3.925-30.038ZM24.936,205.047a12.754,12.754,0,0,1,25.508,0v7.305c0,6.679-5.96,12.538-12.754,12.538s-12.754-5.859-12.754-12.538ZM37.69,239.079a2.283,2.283,0,0,1-2.281-2.28v-3.921a19.673,19.673,0,0,0,4.561,0V236.8A2.283,2.283,0,0,1,37.69,239.079Zm33.629,11.13a20.171,20.171,0,0,0-13.662-15.234l-9.567-3.082v-1.733a20.852,20.852,0,0,0,10.473-17.808v-7.305a20.744,20.744,0,0,0-1.537-7.847l4.682-1.508a10.394,10.394,0,0,0,19.22,0l4.685,1.509a20.756,20.756,0,0,0-1.536,7.847v7.305A20.853,20.853,0,0,0,94.55,230.16v1.733l-9.569,3.082a20.169,20.169,0,0,0-13.662,15.234Zm33.631-11.13a2.283,2.283,0,0,1-2.281-2.28v-3.921a19.669,19.669,0,0,0,4.561,0V236.8A2.283,2.283,0,0,1,104.95,239.079Zm33.628,11.13a20.172,20.172,0,0,0-13.663-15.234l-9.565-3.081v-1.734a20.853,20.853,0,0,0,10.473-17.808v-7.305a20.752,20.752,0,0,0-1.537-7.849l4.681-1.508a10.394,10.394,0,0,0,19.219,0l4.686,1.51a20.751,20.751,0,0,0-1.536,7.846v7.305a20.853,20.853,0,0,0,10.473,17.808v1.732l-9.572,3.083a20.169,20.169,0,0,0-13.661,15.234Zm33.632-11.13a2.283,2.283,0,0,1-2.28-2.28v-3.921a19.669,19.669,0,0,0,4.561,0V236.8A2.283,2.283,0,0,1,172.21,239.079Zm33.627,11.13a20.173,20.173,0,0,0-13.663-15.234l-9.562-3.08v-1.735a20.852,20.852,0,0,0,10.473-17.808v-7.305a20.752,20.752,0,0,0-1.537-7.849l4.68-1.508a10.394,10.394,0,0,0,19.22,0l4.687,1.51a20.751,20.751,0,0,0-1.536,7.846v7.305a20.853,20.853,0,0,0,10.473,17.808v1.731l-9.574,3.084a20.169,20.169,0,0,0-13.662,15.234Zm33.634-11.13a2.283,2.283,0,0,1-2.281-2.28v-3.921a19.674,19.674,0,0,0,4.561,0V236.8A2.283,2.283,0,0,1,239.47,239.079Zm12.754-26.727c0,6.679-5.96,12.538-12.754,12.538s-12.754-5.859-12.754-12.538v-7.305a12.754,12.754,0,1,1,25.508,0Zm-5.307-26.8a20.829,20.829,0,0,0-22.172,4.716c-.669-.287-1.351-.547-2.044-.77l-6.465-2.082v-2.33a20.852,20.852,0,0,0,10.473-17.807v-7.305a20.853,20.853,0,0,0-.484-4.457h24.617Z" transform="translate(0 -4.069)"/>
            <path id="Path_211" data-name="Path 211" d="M314.222,212.826a4.06,4.06,0,1,0,0,8.12h11.739a4.06,4.06,0,1,0,0-8.12h-1.81V196.119h1.81a4.06,4.06,0,1,0,0-8.12H314.222a4.06,4.06,0,1,0,0,8.12h1.81v16.708Z" transform="translate(-142.266 -88.435)"/>
            <path id="Path_212" data-name="Path 212" d="M402.432,189a4.06,4.06,0,0,0-4.06,4.06v24.286a4.06,4.06,0,0,0,8.12,0V208.99h3.619v8.354a4.06,4.06,0,0,0,8.12,0V193.058a4.06,4.06,0,0,0-8.12,0v7.813h-3.619v-7.813A4.06,4.06,0,0,0,402.432,189Z" transform="translate(-182.727 -88.893)"/>
            <path id="Path_213" data-name="Path 213" d="M449.484,220.946a4.06,4.06,0,0,0,4.06-4.06V196.119h1.81a4.06,4.06,0,1,0,0-8.12H443.615a4.06,4.06,0,0,0,0,8.12h1.81v20.768a4.06,4.06,0,0,0,4.06,4.06Z" transform="translate(-201.617 -88.435)"/>
            <path id="Path_214" data-name="Path 214" d="M286.7,194.791A6.8,6.8,0,0,0,279.906,188H270.9a5.432,5.432,0,0,0-5.426,5.426v23.461a4.06,4.06,0,1,0,8.12,0V196.117h4.986v4.86a4.06,4.06,0,0,0-2.632,4.733l2.733,12.07a4.06,4.06,0,1,0,7.919-1.793l-2.03-8.967a6.8,6.8,0,0,0,2.131-4.94v-7.29Z" transform="translate(-121.768 -88.435)"/>
            <path id="Path_215" data-name="Path 215" d="M359.722,196.118h3.539a.04.04,0,0,1,.039.04,4.06,4.06,0,0,0,8.12,0A8.169,8.169,0,0,0,363.261,188h-3.539a8.168,8.168,0,0,0-8.159,8.159v16.63a8.168,8.168,0,0,0,8.159,8.159h3.539a8.168,8.168,0,0,0,8.159-8.159v-5.579a4.059,4.059,0,0,0-4.06-4.06h-1.649a4.06,4.06,0,0,0-2.412,7.326v2.313a.039.039,0,0,1-.039.04h-3.539a.04.04,0,0,1-.039-.04v-16.63a.04.04,0,0,1,.039-.039Z" transform="translate(-161.256 -88.435)"/>
            <path id="Path_216" data-name="Path 216" d="M123.387,188a4.06,4.06,0,0,0-4.06,4.06v16.1c0,3.8,4.213,12.79,10.856,12.79s10.855-8.994,10.855-12.791v-16.1a4.06,4.06,0,0,0-8.12,0V208.1a9.146,9.146,0,0,1-2.735,4.666,9.147,9.147,0,0,1-2.736-4.666V192.058a4.06,4.06,0,0,0-4.06-4.06Z" transform="translate(-54.733 -88.435)"/>
            <path id="Path_217" data-name="Path 217" d="M43.922,196.117h3.539a.04.04,0,0,1,.04.04,4.06,4.06,0,0,0,8.12,0A8.169,8.169,0,0,0,47.461,188h-3.54a8.159,8.159,0,0,0-8.159,8.159v16.63a8.168,8.168,0,0,0,8.159,8.159h3.539a8.168,8.168,0,0,0,8.159-8.159,4.06,4.06,0,0,0-8.12,0,.039.039,0,0,1-.04.04H43.922a.04.04,0,0,1-.04-.04v-16.63a.043.043,0,0,1,.04-.04Z" transform="translate(-16.404 -88.434)"/>
            <path id="Path_218" data-name="Path 218" d="M81.985,212.825a4.06,4.06,0,0,0,0,8.12H93.723a4.06,4.06,0,0,0,0-8.12h-1.81V196.118h1.809a4.06,4.06,0,0,0,0-8.12H81.985a4.06,4.06,0,0,0,0,8.12h1.81v16.708Z" transform="translate(-35.743 -88.435)"/>
            <path id="Path_219" data-name="Path 219" d="M170.195,212.825a4.06,4.06,0,0,0,0,8.12h11.739a4.06,4.06,0,0,0,0-8.12h-1.81V196.118h1.81a4.06,4.06,0,0,0,0-8.12H170.195a4.06,4.06,0,0,0,0,8.12H172v16.708Z" transform="translate(-76.203 -88.435)"/>
            <path id="Path_220" data-name="Path 220" d="M211.379,189a4.06,4.06,0,0,0-4.06,4.06v24.288a4.06,4.06,0,0,0,4.06,4.06h11.739a4.06,4.06,0,1,0,0-8.12h-7.679V193.058A4.06,4.06,0,0,0,211.379,189Z" transform="translate(-95.094 -88.893)"/>
          </g>
        </g>
      </g>
    </g>
    <g id="corruption" transform="translate(1020.783 170.107)">
      <g id="Group_96" data-name="Group 96" transform="translate(9.217 0)">
        <path id="Path_221" data-name="Path 221" d="M9.217,293.825v5.961l8.674,2.438,8.74-2.438v-5.961l-8.74-1.638Z" transform="translate(-9.217 -146.199)" fill="#fff"/>
        <circle id="Ellipse_20" data-name="Ellipse 20" cx="18.887" cy="18.887" r="18.887" transform="translate(26.789 26.277)" fill="#ffb69e"/>
        <g id="XMLID_4737_" transform="translate(48.463 146.487)">
          <g id="Group_89" data-name="Group 89">
            <path id="Path_222" data-name="Path 222" d="M117.132,402.436a10.92,10.92,0,0,1-10.92-10.92V304.1a10.92,10.92,0,1,1,21.839,0v87.412A10.919,10.919,0,0,1,117.132,402.436Z" transform="translate(-106.212 -293.185)" fill="#1e2124"/>
          </g>
        </g>
        <g id="XMLID_4736_" transform="translate(22.031 146.487)">
          <path id="Path_223" data-name="Path 223" d="M64.231,402.436a10.92,10.92,0,0,1-10.92-10.92V304.1a10.92,10.92,0,1,1,21.839,0v87.412A10.919,10.919,0,0,1,64.231,402.436Z" transform="translate(-53.311 -293.185)" fill="#373c41"/>
        </g>
        <path id="Path_224" data-name="Path 224" d="M55.357,227.093l4.46-40.8-4.46-44.607-13.023-1.524H30.508A21.319,21.319,0,0,0,9.217,161.218v56.54H26.631V161.305a3.869,3.869,0,0,1,3.877-3.727h.74v69.514H55.357Z" transform="translate(-9.217 -70.132)" fill="#0f1446"/>
        <path id="Path_225" data-name="Path 225" d="M9.217,307.4a8.707,8.707,0,1,0,17.414,0Z" transform="translate(-9.217 -153.809)" fill="#ffb69e"/>
        <path id="Path_226" data-name="Path 226" d="M167.6,205.186l-15.167-13.5L144.8,161.012c-2.561-13.06-11.706-20.846-24.511-20.846h-5.808l-12.914,3.555v83.374h24.162V159.616a10.33,10.33,0,0,1,2.008,4.882q.047.249.108.494l8.348,33.518a8.708,8.708,0,0,0,2.661,4.4l16.432,14.623,8.347-3.725Z" transform="translate(-55.423 -70.133)" fill="#1e2d64"/>
        <path id="Path_227" data-name="Path 227" d="M225.73,274.153,221.4,270.3,209.08,282.648l5.073,4.515a8.707,8.707,0,0,0,11.577-13.009Z" transform="translate(-109.22 -135.248)" fill="#fff"/>
        <path id="Path_228" data-name="Path 228" d="M230.811,278.011,219.234,291.02a8.707,8.707,0,0,0,11.577-13.009Z" transform="translate(-114.301 -139.105)" fill="#ffb69e"/>
        <g id="Group_92" data-name="Group 92" transform="translate(18.683 0)">
          <g id="Group_90" data-name="Group 90" transform="translate(0)">
            <path id="Path_229" data-name="Path 229" d="M100.6,20.3c0-4.764-3.089-9.983-8.263-13.963a30.832,30.832,0,0,0-37.461,0c-5.176,3.981-8.266,9.2-8.266,13.963,0,5.5,3.552,8.431,8.432,9.991v3.554c.007,4.219,8.308,9.718,18.562,9.718s18.562-5.5,18.569-9.718V30.294C97.05,28.733,100.6,25.8,100.6,20.3Z" transform="translate(-46.609 0)" fill="#1e2d64"/>
          </g>
          <g id="Group_91" data-name="Group 91" transform="translate(8.429 24.217)">
            <path id="Path_230" data-name="Path 230" d="M63.584,54.295c.575-1.549,8.578-5.826,18.458-5.826s17.89,4.277,18.458,5.826l.111,3.808C100.6,62.322,92.3,67.82,82.042,67.82S63.487,62.322,63.48,58.1V54.295Z" transform="translate(-63.48 -48.469)" fill="#1e2124"/>
          </g>
          <path id="Path_231" data-name="Path 231" d="M94.42,34.031c-3.43,0-6.208,4.071-6.208,9.091s2.778,9.09,6.208,9.09,6.208-4.071,6.208-9.09S97.85,34.031,94.42,34.031Z" transform="translate(-67.425 -17.028)" fill="#ffda52"/>
        </g>
        <path id="Path_232" data-name="Path 232" d="M75.5,140.165s2.937,17.548,9.456,22.508H91.98c6.519-4.96,9.456-22.508,9.456-22.508Z" transform="translate(-42.382 -70.133)" fill="#fff"/>
        <g id="Group_95" data-name="Group 95" transform="translate(41.13 70.032)">
          <g id="Group_93" data-name="Group 93">
            <path id="Path_233" data-name="Path 233" d="M100.025,140.165H92.958a1.421,1.421,0,0,0-1.4,1.679l1.164,6.3a1.422,1.422,0,0,0,1.4,1.164h4.74a1.421,1.421,0,0,0,1.4-1.164l1.164-6.3a1.421,1.421,0,0,0-1.4-1.679Z" transform="translate(-91.536 -140.165)" fill="#1e2124"/>
          </g>
          <g id="Group_94" data-name="Group 94" transform="translate(0.441 10.624)">
            <path id="Path_234" data-name="Path 234" d="M100.278,162.368a1.165,1.165,0,0,0-1.144-.94h-4.4a1.165,1.165,0,0,0-1.144.94L92.44,168.2a1.176,1.176,0,0,0,0,.465l.977,4.643a5.42,5.42,0,0,0,7.024,0l.977-4.643a1.158,1.158,0,0,0,0-.465Z" transform="translate(-92.418 -161.428)" fill="#1e2124"/>
          </g>
        </g>
      </g>
      <g id="Group_97" data-name="Group 97" transform="translate(115.915 119.172)">
        <path id="Path_235" data-name="Path 235" d="M261.342,249.179l-9.808-9.808a2.917,2.917,0,0,0-4.126,0l-23.786,23.786a2.918,2.918,0,0,0,0,4.127l9.808,9.808a2.917,2.917,0,0,0,4.126,0l23.786-23.786A2.918,2.918,0,0,0,261.342,249.179Z" transform="translate(-222.767 -238.516)" fill="#5a915a"/>
        <circle id="Ellipse_21" data-name="Ellipse 21" cx="6.321" cy="6.321" r="6.321" transform="translate(13.394 13.394)" fill="#6eaa50"/>
      </g>
      <g id="Group_99" data-name="Group 99" transform="translate(136.997 27.583)">
        <path id="Path_236" data-name="Path 236" d="M485.289,295.067v5.927l-8.625,2.424-8.69-2.424v-5.927l8.69-1.629Z" transform="translate(-366.54 -174.408)" fill="#fff"/>
        <circle id="Ellipse_22" data-name="Ellipse 22" cx="18.78" cy="18.78" r="18.78" transform="translate(54.552)" fill="#ffb69e"/>
        <g id="XMLID_14_" transform="translate(48.846 119.526)">
          <path id="Path_237" data-name="Path 237" d="M373.581,403.059A10.857,10.857,0,0,0,384.438,392.2V305.288a10.858,10.858,0,1,0-21.715,0V392.2A10.858,10.858,0,0,0,373.581,403.059Z" transform="translate(-362.723 -294.43)" fill="#1e1632"/>
        </g>
        <g id="XMLID_13_" transform="translate(75.127 119.526)">
          <path id="Path_238" data-name="Path 238" d="M426.181,403.059A10.857,10.857,0,0,0,437.038,392.2V305.288a10.858,10.858,0,1,0-21.715,0V392.2A10.858,10.858,0,0,0,426.181,403.059Z" transform="translate(-415.323 -294.43)" fill="#32285f"/>
        </g>
        <path id="Path_239" data-name="Path 239" d="M406.366,228.715l-4.435-40.565,4.435-44.354,12.949-1.515h11.759a21.2,21.2,0,0,1,21.17,20.934v56.219H434.929V163.3a3.847,3.847,0,0,0-3.855-3.706h-.736v69.119Z" transform="translate(-333.495 -98.775)" fill="#41378c"/>
        <path id="Path_240" data-name="Path 240" d="M485.289,308.56a8.658,8.658,0,1,1-17.316,0Z" transform="translate(-366.54 -181.974)" fill="#ffb69e"/>
        <path id="Path_241" data-name="Path 241" d="M279.384,206.932l15.08-13.42,7.6-30.5c2.546-12.986,11.639-20.728,24.371-20.728h5.775l12.84,3.535v82.9H321.024V161.621a10.276,10.276,0,0,0-2,4.855c-.089.472.422-1.654-8.408,33.818a8.661,8.661,0,0,1-2.646,4.375L290.7,219.986l-7.368-4.481Z" transform="translate(-272.177 -98.775)" fill="#32285f"/>
        <path id="Path_242" data-name="Path 242" d="M270.769,275.507l4.3-3.83,11.319,13.053-4.113,3.712-8.05-3.873Z" transform="translate(-267.867 -163.519)" fill="#fff"/>
        <path id="Path_243" data-name="Path 243" d="M267.863,279.343l11.511,12.935a8.658,8.658,0,1,1-11.511-12.935Z" transform="translate(-264.96 -167.355)" fill="#ffb69e"/>
        <path id="Path_244" data-name="Path 244" d="M410.9,142.281s-2.921,17.448-9.4,22.38H394.51c-6.481-4.932-9.4-22.38-9.4-22.38Z" transform="translate(-325.077 -98.775)" fill="#fff"/>
        <g id="Group_98" data-name="Group 98" transform="translate(67.998 43.506)">
          <path id="Path_245" data-name="Path 245" d="M409.495,142.281h-7.027a1.413,1.413,0,0,0-1.39,1.67l1.157,6.268a1.413,1.413,0,0,0,1.39,1.157h4.713a1.414,1.414,0,0,0,1.39-1.157l1.157-6.268A1.413,1.413,0,0,0,409.495,142.281Z" transform="translate(-401.053 -142.281)" fill="#1e1632"/>
          <path id="Path_246" data-name="Path 246" d="M403.095,164.359a1.159,1.159,0,0,1,1.137-.935h4.377a1.159,1.159,0,0,1,1.137.935l1.142,5.8a1.163,1.163,0,0,1,0,.463l-.972,4.616a5.389,5.389,0,0,1-6.984,0l-.972-4.616a1.163,1.163,0,0,1,0-.463Z" transform="translate(-401.493 -152.86)" fill="#1e1632"/>
        </g>
      </g>
    </g>
    <g id="freedom-of-speech" transform="translate(1317.425 470)">
      <g id="Group_109" data-name="Group 109" transform="translate(54.574 3.825)">
        <path id="Path_247" data-name="Path 247" d="M255.78,99.194l2.129-26.349A60.476,60.476,0,0,0,197.629,7.5h-3.792a60.476,60.476,0,0,0-60.279,65.345l2.129,26.349,5.935,27.758H250.446Z" transform="translate(-95.775 -7.5)" fill="#8b8089"/>
        <g id="Group_108" data-name="Group 108" transform="translate(0 42.912)">
          <path id="Path_248" data-name="Path 248" d="M135.173,215.619a15.412,15.412,0,1,1,0-30.824h28.9v30.823h-28.9Z" transform="translate(-89.112 -137.292)" fill="#d78878"/>
          <path id="Path_249" data-name="Path 249" d="M336.509,215.619a15.412,15.412,0,0,0,0-30.824H309.916v30.823h26.593Z" transform="translate(-182.294 -137.292)" fill="#d78878"/>
          <path id="Path_250" data-name="Path 250" d="M251.64,334.082l-7.446-3.039a1.217,1.217,0,0,1-.75-1.122l-.168-59.575H188.23v59.575a1.217,1.217,0,0,1-.75,1.122L179.6,334.26l-5.666,7.119,13.946,11.457,43.214,1.009,22.295-13.671Z" transform="translate(-115.657 -179.214)" fill="#eb9c8d"/>
          <path id="Path_251" data-name="Path 251" d="M203.529,330.376a5.282,5.282,0,0,1,5.958-5.239,48.013,48.013,0,0,0,22.13-2.36l.458-.16a63.072,63.072,0,0,0,11.333-5.344l-.133-46.925H188.23v59.575a1.217,1.217,0,0,1-.75,1.122L179.6,334.26l-5.666,7.119,7.445,6.117,13.52-5.512,3.957-1.625a7.535,7.535,0,0,0,4.672-6.958Z" transform="translate(-115.657 -179.214)" fill="#d78878"/>
          <g id="XMLID_486_" transform="translate(49.441 0)">
            <g id="Group_100" data-name="Group 100">
              <path id="Path_252" data-name="Path 252" d="M258.09,132.607v42.761a55.68,55.68,0,0,1-37.059,52.471l-.423.148a40.381,40.381,0,0,1-27.151-.056,55.674,55.674,0,0,1-36.845-52.394V132.6a3.572,3.572,0,0,1,.826-2.285l.046-.056A67.557,67.557,0,0,0,172.3,97.822l.02-.127a1.6,1.6,0,0,1,1.137-1.275,122.4,122.4,0,0,1,67.7,0,1.59,1.59,0,0,1,1.132,1.275v.01a67.6,67.6,0,0,0,14.962,32.607,3.56,3.56,0,0,1,.836,2.295Z" transform="translate(-156.611 -91.646)" fill="#eb9c8d"/>
            </g>
          </g>
          <g id="Group_101" data-name="Group 101" transform="translate(60.644)">
            <path id="Path_253" data-name="Path 253" d="M257.6,113.345A67.558,67.558,0,0,1,253.056,97.7v-.01a1.59,1.59,0,0,0-1.132-1.275,122.4,122.4,0,0,0-67.7,0,1.6,1.6,0,0,0-1.137,1.275l-.02.127a67.608,67.608,0,0,1-4.489,15.513A162.406,162.406,0,0,1,257.6,113.345Z" transform="translate(-178.579 -91.646)" fill="#d78878"/>
          </g>
          <g id="XMLID_490_" transform="translate(0 154.868)">
            <g id="Group_103" data-name="Group 103">
              <path id="Path_254" data-name="Path 254" d="M259.782,451.35a64.959,64.959,0,0,0-36.828-38.86l-9.419-3.84-8.859-1.027-12.618,9.563-42.241,8.358L116.9,411.463l-11.2-2.635-8.97,3.662A64.959,64.959,0,0,0,59.9,451.35a4.378,4.378,0,0,0,4.16,5.783H255.622a4.378,4.378,0,0,0,4.16-5.783Z" transform="translate(-59.662 -401.352)" fill="#ade194"/>
              <g id="Group_102" data-name="Group 102" transform="translate(0 7.476)">
                <path id="Path_255" data-name="Path 255" d="M112.03,421.371l8.97-3.662,3.992-1.627-8.091-3.461-11.2-2.635-8.97,3.662A64.959,64.959,0,0,0,59.9,452.508a4.378,4.378,0,0,0,4.16,5.783H75.914A64.95,64.95,0,0,1,112.03,421.371Z" transform="translate(-59.662 -409.986)" fill="#97da7b"/>
              </g>
              <path id="Path_256" data-name="Path 256" d="M239.884,395.326l17.89,7.3-6.283,5.681a73.562,73.562,0,0,1-95.477,0l-6.074-5.5,17.9-7.3a56.943,56.943,0,0,0,72.043-.178Z" transform="translate(-103.901 -395.326)" fill="#f9f7f8"/>
            </g>
          </g>
          <g id="Group_106" data-name="Group 106" transform="translate(46.04 155.046)">
            <g id="Group_105" data-name="Group 105">
              <g id="Group_104" data-name="Group 104">
                <path id="Path_257" data-name="Path 257" d="M161.053,412.407l4.187-1.709,16.45-6.707a56.067,56.067,0,0,1-13.849-8.315l-17.9,7.3,6.074,5.5q2.439,2.081,5.037,3.93Z" transform="translate(-149.942 -395.676)" fill="#efedef"/>
              </g>
            </g>
          </g>
          <g id="Group_107" data-name="Group 107" transform="translate(78.422 75.103)">
            <path id="Path_258" data-name="Path 258" d="M256.331,271.124a2.139,2.139,0,0,1,0,3.025l-7.657,7.657a2.139,2.139,0,0,1-3.025,0l-31.582-31.582a2.139,2.139,0,0,1,0-3.025l7.657-7.657a2.139,2.139,0,0,1,3.025,0Z" transform="translate(-213.44 -238.915)" fill="#f07281"/>
          </g>
          <path id="Path_259" data-name="Path 259" d="M256.33,250.224l-31.582,31.582a2.139,2.139,0,0,1-3.025,0l-7.657-7.657a2.139,2.139,0,0,1,0-3.025l31.582-31.582a2.139,2.139,0,0,1,3.025,0l7.657,7.657A2.139,2.139,0,0,1,256.33,250.224Z" transform="translate(-135.018 -163.813)" fill="#f07281"/>
        </g>
      </g>
      <g id="Group_110" data-name="Group 110" transform="translate(49.278 0)">
        <path id="Path_260" data-name="Path 260" d="M66.6,451.757a3.825,3.825,0,0,0-5.356.756A68.463,68.463,0,0,0,49.39,477.47a3.825,3.825,0,1,0,7.428,1.827,60.859,60.859,0,0,1,10.537-22.185A3.824,3.824,0,0,0,66.6,451.757Z" transform="translate(-49.278 -220.998)"/>
        <path id="Path_261" data-name="Path 261" d="M281.816,256.473A69,69,0,0,0,241.006,209.2l-33.125-13.515V177.569a59.419,59.419,0,0,0,13.3-14.363,3.825,3.825,0,0,0-6.386-4.211,51.458,51.458,0,0,1-25.949,20.328l-.421.149a36.641,36.641,0,0,1-24.579-.05,51.977,51.977,0,0,1-34.314-48.795V87.782a71.473,71.473,0,0,0,15.42-32.964,119.015,119.015,0,0,1,62.906,0,71.45,71.45,0,0,0,15.5,32.973v42.667a51.8,51.8,0,0,1-2.136,14.706,3.825,3.825,0,0,0,7.335,2.17,59.455,59.455,0,0,0,2.45-16.877v-1.582a19.227,19.227,0,0,0,9.291-35.754l1.91-23.643a63.63,63.63,0,0,0-4.437-29.214,3.825,3.825,0,1,0-7.093,2.865,56.057,56.057,0,0,1,3.905,25.734l-1.753,21.7q-.9-.11-1.823-.136V87.695a7.4,7.4,0,0,0-1.732-4.755,63.809,63.809,0,0,1-14.116-30.771,5.434,5.434,0,0,0-3.869-4.34,126.717,126.717,0,0,0-69.775,0,5.435,5.435,0,0,0-3.873,4.345l-.02.122a63.818,63.818,0,0,1-13.981,30.6l-.044.053a7.4,7.4,0,0,0-1.717,4.737v2.738a19.258,19.258,0,0,0-2.264.183l-1.757-21.748A56.649,56.649,0,0,1,174.333,7.65h3.792A56.28,56.28,0,0,1,223.109,29.87a3.825,3.825,0,0,0,6.071-4.653A63.874,63.874,0,0,0,178.124,0h-3.792a64.3,64.3,0,0,0-64.091,69.478l1.927,23.852a19.226,19.226,0,0,0,9.719,35.547v1.75a59.659,59.659,0,0,0,23.134,47.07v17.989L111.9,209.2a68.724,68.724,0,0,0-16.9,9.916,3.824,3.824,0,1,0,4.771,5.979,61.074,61.074,0,0,1,15.02-8.812l6.561-2.677,4.555,3.885a77.378,77.378,0,0,0,100.443,0l4.767-4.067,7.005,2.858A61.323,61.323,0,0,1,274.387,258.3a3.825,3.825,0,1,0,7.428-1.827ZM242.072,109.652a11.6,11.6,0,0,1-11.057,11.573V98.078A11.6,11.6,0,0,1,242.072,109.652Zm-131.328,0a11.6,11.6,0,0,1,11.143-11.576v23.151a11.6,11.6,0,0,1-11.143-11.575Zm50.519,76.968a44.307,44.307,0,0,0,29.726.061l.421-.149a60.122,60.122,0,0,0,8.822-3.949v14.861a5.013,5.013,0,0,0,3.132,4.661l1.421.579a52.706,52.706,0,0,1-57.068.164l1.821-.743a5.014,5.014,0,0,0,3.134-4.661V182.73a59.006,59.006,0,0,0,8.591,3.89Zm60.116,25.052a69.728,69.728,0,0,1-90.513,0l-1.546-1.319,10-4.08a60.279,60.279,0,0,0,73.834-.175l9.984,4.074Z" transform="translate(-70.975 0)"/>
        <path id="Path_262" data-name="Path 262" d="M207.687,273.181l7.657,7.657a5.972,5.972,0,0,0,8.434,0l7.746-7.746,7.746,7.746a5.972,5.972,0,0,0,8.434,0l7.657-7.657a5.966,5.966,0,0,0,0-8.435L247.616,257l7.745-7.745h0a5.972,5.972,0,0,0,0-8.434l-7.657-7.657a5.971,5.971,0,0,0-8.434,0l-7.746,7.746-7.746-7.746a5.971,5.971,0,0,0-8.434,0l-7.656,7.657a5.964,5.964,0,0,0,0,8.435L215.433,257l-7.746,7.746a5.972,5.972,0,0,0,0,8.434Zm41.072-4.217-5.273,5.273-6.554-6.554,5.273-5.273Zm-34.471-23.926,5.273-5.273,6.554,6.554-5.273,5.273Zm29.2-5.273,5.273,5.273-29.2,29.2-5.273-5.273Z" transform="translate(-126.048 -113.403)"/>
      </g>
    </g>
    <g id="Fill_out_line" data-name="Fill out line" transform="translate(1014 453.864)">
      <path id="Path_263" data-name="Path 263" d="M255.841,416H184.871A8.871,8.871,0,0,0,176,424.871V455.92h88.712V424.871A8.871,8.871,0,0,0,255.841,416Z" transform="translate(-71.288 -178.22)" fill="#ba8b5d"/>
      <path id="Path_264" data-name="Path 264" d="M205.307,368h44.356a13.307,13.307,0,0,1,13.307,13.307v13.307H192V381.307A13.307,13.307,0,0,1,205.307,368Z" transform="translate(-78.417 -156.834)" fill="#9f764a"/>
      <path id="Path_265" data-name="Path 265" d="M228.689,32.85,216,214.73h44.356L247.666,32.85a9.512,9.512,0,0,0-18.977,0Z" transform="translate(-89.11 -3.564)" fill="#ba8b5d"/>
      <path id="Path_266" data-name="Path 266" d="M360,288h0a35.485,35.485,0,0,0,35.485,35.485h0A35.485,35.485,0,0,0,430.969,288H360Z" transform="translate(-153.27 -121.19)" fill="#fab53f"/>
      <path id="Path_267" data-name="Path 267" d="M24,384h0a35.485,35.485,0,0,0,35.485,35.485h0A35.485,35.485,0,0,0,94.969,384H24Z" transform="translate(-3.564 -163.963)" fill="#fab53f"/>
      <path id="Path_268" data-name="Path 268" d="M56.691,132.113h0A52.415,52.415,0,0,0,90.966,95.1h0a23.516,23.516,0,0,1,30.85-16.4l24.27,8.825,31.049-8.871,9.51-12.227a32.652,32.652,0,0,1,47.617-4.224h0a40.49,40.49,0,0,0,41.3,7.816h0a13.307,13.307,0,0,0-9.344-24.919,13.878,13.878,0,0,1-14.156-2.679h0a59.264,59.264,0,0,0-86.426,7.666l-4.173,5.365L147.071,59.57l-16.16-5.877A50.129,50.129,0,0,0,65.147,88.646h0a25.8,25.8,0,0,1-16.872,18.219h0a13.307,13.307,0,1,0,8.416,25.248Z" transform="translate(-10.325 -4.995)" fill="#9f764a"/>
      <path id="Path_269" data-name="Path 269" d="M429.227,263.049V245.307A13.307,13.307,0,0,0,415.92,232H389.307A13.307,13.307,0,0,0,376,245.307v17.742Z" transform="translate(-160.399 -96.239)" fill="#529ddf"/>
      <path id="Path_270" data-name="Path 270" d="M414.178,184H396.436L392,197.307l4.436,4.436,4.436,8.871,8.871,8.871,8.871-8.871Z" transform="translate(-167.527 -74.852)" fill="#fdc5ca"/>
      <path id="Path_271" data-name="Path 271" d="M40,359.049V341.307A13.307,13.307,0,0,1,53.307,328H79.92a13.307,13.307,0,0,1,13.307,13.307v17.742Z" transform="translate(-10.693 -139.012)" fill="#529ddf"/>
      <path id="Path_272" data-name="Path 272" d="M76.436,280H94.178l4.436,13.307-4.436,4.436-4.436,8.871-8.871,8.871L72,306.614Z" transform="translate(-24.951 -117.625)" fill="#fdc5ca"/>
      <path id="Path_273" data-name="Path 273" d="M177.067,76.385l9.514-12.226a28.209,28.209,0,0,1,41.146-3.648A44.977,44.977,0,0,0,244.008,69.9L233.515,98.761l8.337,3.032,7.122-19.586,7.122,19.585,8.337-3.032-9.745-26.8h0a44.991,44.991,0,0,0,18.868-2.778A17.743,17.743,0,1,0,261.1,35.955a9.427,9.427,0,0,1-9.636-1.819,63.793,63.793,0,0,0-81.581-3.094l-.143-2.063a13.945,13.945,0,0,0-27.824,0l-1.38,19.8h0l-11.671-4.247A54.571,54.571,0,0,0,57.279,82.573,21.251,21.251,0,0,1,43.307,97.66a17.744,17.744,0,1,0,11.222,33.666c.078-.028.155-.05.233-.078l-7.54,20.742,8.339,3.027,7.119-19.583L69.8,155.017l8.339-3.027L68.2,124.65A56.581,56.581,0,0,0,91.7,91.184a19.071,19.071,0,0,1,25.028-13.307l21.23,7.718h0l-8.486,121.629a17.782,17.782,0,0,0-13.571,17.248v9.634a13.328,13.328,0,0,0-8.871,12.544V277.7a4.436,4.436,0,0,0,4.435,4.436h88.712a4.436,4.436,0,0,0,4.436-4.435V246.651a13.328,13.328,0,0,0-8.871-12.544v-9.634a17.782,17.782,0,0,0-13.571-17.248L173.187,78.386l1.6-.46a4.4,4.4,0,0,0,2.279-1.541Zm-24.7-50.153a5.075,5.075,0,0,1,8.52,3.361l.643,9.245h0q-1.539,1.7-2.961,3.537l-3.282,4.219-5.825,1.663,1.3-18.667a5.048,5.048,0,0,1,1.6-3.358Zm-32.6,43.306A27.954,27.954,0,0,0,83.1,89.027a47.912,47.912,0,0,1-11.322,20.986,47.331,47.331,0,0,1-9.764,8.062c-.915.571-1.846,1.114-2.8,1.613a47.645,47.645,0,0,1-7.491,3.221,8.872,8.872,0,1,1-5.611-16.833A30.09,30.09,0,0,0,65.884,84.724a45.717,45.717,0,0,1,59.947-31.859l16.157,5.877a4.39,4.39,0,0,0,2.733.094l14.393-4.108a4.431,4.431,0,0,0,2.284-1.541l4.175-5.367a54.827,54.827,0,0,1,79.957-7.091,18.241,18.241,0,0,0,18.679,3.532,8.873,8.873,0,0,1,6.232,16.617,35.943,35.943,0,0,1-36.782-6.964,37.078,37.078,0,0,0-54.081,4.8L170.957,69.8l-28.271,8.078Zm27.069,16.378,17.634-5.039,8.78,125.854H138.4Zm44.477,156.3a4.441,4.441,0,0,1,4.436,4.436v26.614H115.906V246.651a4.441,4.441,0,0,1,4.436-4.436Zm-4.436-17.742v8.871h-62.1v-8.871a8.883,8.883,0,0,1,8.871-8.871H178a8.883,8.883,0,0,1,8.871,8.871Z" transform="translate(-6.759)"/>
      <circle id="Ellipse_23" data-name="Ellipse 23" cx="4.5" cy="4.5" r="4.5" transform="translate(145 60.136)"/>
      <path id="Path_274" data-name="Path 274" d="M427.4,280H356.436A4.434,4.434,0,0,0,352,284.436a39.92,39.92,0,0,0,79.841,0A4.434,4.434,0,0,0,427.4,280ZM391.92,315.485a31.1,31.1,0,0,1-30.733-26.614h61.466a31.1,31.1,0,0,1-30.733,26.614Z" transform="translate(-149.705 -117.625)"/>
      <path id="Path_275" data-name="Path 275" d="M91.4,376H20.436A4.434,4.434,0,0,0,16,380.436a39.92,39.92,0,1,0,79.841,0A4.434,4.434,0,0,0,91.4,376ZM55.92,411.485a31.1,31.1,0,0,1-30.733-26.614H86.653A31.1,31.1,0,0,1,55.92,411.485Z" transform="translate(0 -160.398)"/>
      <path id="Path_276" data-name="Path 276" d="M56,352h8.871v8.871H56Z" transform="translate(-17.822 -149.705)"/>
      <path id="Path_277" data-name="Path 277" d="M104,352h8.871v8.871H104Z" transform="translate(-39.209 -149.705)"/>
      <path id="Path_278" data-name="Path 278" d="M89.663,272H58.614a4.436,4.436,0,0,0-4.375,3.7l-3.82,22.91h-.676A17.763,17.763,0,0,0,32,316.356v8.871h8.871v-8.871a8.881,8.881,0,0,1,8.871-8.871h2.595l7.574,7.574a4.444,4.444,0,0,0,6.276,0l7.574-7.574h2.595a8.881,8.881,0,0,1,8.871,8.871v8.871H94.1v-8.871A17.77,17.77,0,0,0,79,298.812l1-2.006,3.925-3.926A4.442,4.442,0,0,0,85,288.34l-2.489-7.468h7.152Zm-27.29,8.871H73.157l2.562,7.673-2.5,2.5a4.631,4.631,0,0,0-.832,1.153l-1.68,3.371-.083-.089a4.438,4.438,0,0,0-6.276,6.276l1.3,1.3-2.6,2.6-1.513-1.513-2.607-2.61Z" transform="translate(-7.129 -114.061)"/>
      <path id="Path_279" data-name="Path 279" d="M440,256h8.871v8.871H440Z" transform="translate(-188.914 -106.932)"/>
      <path id="Path_280" data-name="Path 280" d="M392,256h8.871v8.871H392Z" transform="translate(-167.527 -106.932)"/>
      <path id="Path_281" data-name="Path 281" d="M430.1,229.227v-8.871a17.763,17.763,0,0,0-17.742-17.742h-.676l-3.82-22.91a4.436,4.436,0,0,0-4.375-3.7H372.436v8.871h7.152L377.1,192.34a4.442,4.442,0,0,0,1.07,4.541l3.925,3.926,1,2.006A17.77,17.77,0,0,0,368,220.356v8.871h8.871v-8.871a8.881,8.881,0,0,1,8.871-8.871h2.595l7.574,7.574a4.444,4.444,0,0,0,6.276,0l7.574-7.574h2.595a8.881,8.881,0,0,1,8.871,8.871v8.871Zm-41.157-44.356h10.784l3.443,20.653-2.607,2.61-1.513,1.513-2.6-2.6,1.3-1.3a4.438,4.438,0,1,0-6.276-6.276l-.083.089-1.68-3.371a4.63,4.63,0,0,0-.832-1.153l-2.5-2.5Z" transform="translate(-156.834 -71.288)"/>
    </g>
  </g>
</svg>
