<svg id="Layer_1" enable-background="new 0 0 511.985 511.985" height="512" viewBox="0 0 511.985 511.985" width="512" xmlns="http://www.w3.org/2000/svg"><g><g clip-rule="evenodd" fill-rule="evenodd"><path d="m255.993 98.86 46.912 34.389c19.481 14.281 43.862-9.361 27.798-29.733l-57.476-72.893c-4.628-5.869-10.569-9.56-17.234-9.56s-12.606 3.691-17.234 9.56l-57.476 72.893c-16.064 20.373 8.317 44.014 27.798 29.733z" fill="#ffc144"/><path d="m286.38 177.303c0-16.783-13.605-30.388-30.388-30.388-40.309 1.601-40.297 59.181 0 60.775 16.783.001 30.388-13.604 30.388-30.387z" fill="#ffdcd5"/><path d="m84.862 223.194 47.203-33.989c19.602-14.115 4.652-44.608-19.688-35.626l-87.087 32.138c-7.012 2.587-12.358 7.098-14.417 13.437-2.06 6.339-.386 13.13 3.766 19.344l51.564 77.189c14.411 21.573 44.43 5.691 36.868-17.25z" fill="#ffad95"/><path d="m168.856 218.534c-38.841-10.932-56.605 43.839-18.781 57.801 15.962 5.186 33.105-3.549 38.291-19.51 5.187-15.962-3.548-33.105-19.51-38.291z" fill="#ffdcd5"/><path d="m214.197 336.323c-13.578-9.864-32.581-6.854-42.445 6.723-22.398 33.552 24.192 67.387 49.168 35.723 9.865-13.578 6.855-32.581-6.723-42.446z" fill="#ffdcd5"/><path d="m208.394 424.122-58.166.248-17.739-55.396c-7.366-23.004-40.987-18.209-39.966 7.715l3.654 92.756c.294 7.468 2.932 13.946 8.324 17.864s12.368 4.424 19.561 2.396l89.345-25.188c24.971-7.041 19.142-40.498-5.013-40.395z" fill="#a0e5a5"/><path d="m297.787 336.323c-13.577 9.865-16.587 28.868-6.722 42.445s28.868 16.588 42.446 6.723c31.674-24.997-2.195-71.561-35.724-49.168z" fill="#ffdcd5"/><path d="m361.757 424.37-58.166-.247c-24.155-.103-29.983 33.354-5.013 40.394l89.345 25.189c7.194 2.028 14.17 1.521 19.562-2.397 5.391-3.917 8.03-10.395 8.323-17.863l3.654-92.756c1.021-25.924-32.6-30.719-39.966-7.715z" fill="#dc72a9"/><path d="m323.618 256.825c5.186 15.961 22.329 24.696 38.291 19.51 37.85-13.986 20.027-68.738-18.78-57.801-15.962 5.186-24.697 22.329-19.511 38.291z" fill="#ffdcd5"/><path d="m427.123 223.194-18.21 55.243c-7.562 22.94 22.456 38.823 36.868 17.25l51.565-77.189c4.152-6.215 5.825-13.007 3.765-19.345-2.059-6.338-7.405-10.849-14.417-13.436l-87.087-32.138c-24.339-8.982-39.29 21.511-19.688 35.626z" fill="#33d6f5"/></g><g><path d="m214.993 141.316 40.999-30.056 41 30.056c5.779 4.236 12.302 6.322 18.723 6.322 7.922-.001 15.688-3.177 21.704-9.408 10.821-11.209 11.289-28.029 1.137-40.904l-57.477-72.894c-13.571-17.732-36.603-17.731-50.173 0l-57.476 72.893c-10.152 12.875-9.685 29.695 1.137 40.904 10.891 11.282 27.516 12.548 40.426 3.087zm-25.858-31.608 57.477-72.894c5.799-7.599 12.974-7.585 18.763 0l57.477 72.894c5.967 7.567 1.646 13.111.18 14.63-2.937 3.042-8.421 5.095-14.214.847l-46.912-34.39c-3.519-2.58-8.305-2.58-11.824 0l-46.911 34.39c-5.789 4.245-11.275 2.196-14.214-.847-1.469-1.519-5.789-7.062.178-14.63z"/><path d="m296.38 177.303c0-22.27-18.118-40.388-40.388-40.388-53.58 2.219-53.564 78.565 0 80.775 22.27.001 40.388-18.118 40.388-40.387zm-40.388 20.388c-11.242 0-20.388-9.146-20.388-20.388 1.119-27.047 39.66-27.039 40.775 0 .001 11.242-9.145 20.388-20.387 20.388z"/><path d="m97.144 312.8c14.094-6.872 20.438-22.29 15.426-37.494l-15.915-48.28 41.254-29.705c12.991-9.354 16.922-25.558 9.559-39.401-7.314-13.755-23.171-19.396-38.552-13.722-5.182 1.912-7.832 7.663-5.92 12.844 1.912 5.182 7.66 7.829 12.844 5.92 9.042-3.339 12.979 2.485 13.97 4.349 1.986 3.735 2.238 9.585-3.588 13.78l-47.202 33.988c-3.541 2.55-5.02 7.102-3.653 11.246l18.21 55.243c2.247 6.817-1.396 11.401-5.197 13.256-1.897.925-8.507 3.322-13.859-4.691l-51.564-77.19c-1.855-2.777-3.809-6.889-2.57-10.698 1.238-3.811 5.233-5.988 8.367-7.145 5.182-1.911 7.833-7.662 5.921-12.843-1.911-5.183-7.665-7.832-12.843-5.921-10.3 3.8-17.567 10.806-20.467 19.728-2.899 8.923-1.137 18.863 4.962 27.989l51.563 77.19c6.325 9.466 16.038 14.651 26.075 14.65 4.416 0 8.897-1.006 13.179-3.093z"/><path d="m121.055 234.954c-3.333 10.26-2.472 21.204 2.426 30.815 16.08 31.709 63.139 28.411 74.397-5.855 6.881-21.18-4.752-44.009-25.932-50.892-21.178-6.876-44.009 4.753-50.891 25.932zm19.021 6.18c3.474-10.691 14.999-16.567 25.689-13.09 10.692 3.474 16.564 14.999 13.091 25.689-3.474 10.692-14.997 16.565-25.69 13.09-5.18-1.683-9.394-5.281-11.865-10.134-2.473-4.851-2.907-10.375-1.225-15.555z"/><path d="m208.504 414.122h-.152l-50.835.216-15.504-48.414c-4.882-15.245-19.077-23.99-34.519-21.267-15.344 2.708-25.608 16.041-24.963 32.425l3.653 92.756c.432 10.969 4.849 20.047 12.438 25.562 7.863 5.818 18.578 6.724 28.151 3.93l89.347-25.188c35.318-9.825 28.636-59.807-7.616-60.02zm2.19 40.77-89.347 25.188c-3.216.908-7.729 1.492-10.969-.86-3.241-2.355-4.078-6.829-4.21-10.168l-3.653-92.756c-.379-9.63 6.374-11.574 8.453-11.941 4.859-.699 9.73 1.042 11.997 7.67l17.739 55.396c1.326 4.143 5.177 6.95 9.523 6.95h.042l58.167-.247h.067c7.131 0 10.347 4.863 10.934 9.039.295 2.089.533 9.114-8.743 11.729z"/><path d="m190.018 321.017c-10.655 1.688-20.015 7.424-26.355 16.151-13.124 17.298-8.892 44.018 8.935 56.413 17.379 13.145 43.995 8.879 56.413-8.935 13.124-17.298 8.892-44.018-8.935-56.413-8.727-6.34-19.398-8.907-30.058-7.216zm26.455 36.701c.853 5.379-.441 10.767-3.644 15.173-3.2 4.406-7.925 7.302-13.304 8.153-5.382.851-10.768-.441-15.173-3.643 0 0 0 0 0-.001-4.406-3.2-7.302-7.925-8.153-13.304-.853-5.378.441-10.767 3.643-15.173 3.201-4.405 7.927-7.301 13.305-8.153 5.319-.852 10.769.432 15.173 3.644 4.406 3.2 7.301 7.925 8.153 13.304z"/><path d="m404.491 344.657c-15.441-2.721-29.637 6.021-34.519 21.267l-15.504 48.414-50.835-.216h-.151c-36.272.221-42.918 50.206-7.618 60.02l89.345 25.188c9.574 2.794 20.292 1.889 28.154-3.931 7.589-5.515 12.006-14.593 12.438-25.561l3.653-92.756c.646-16.384-9.619-29.717-24.963-32.425zm4.979 31.638-3.653 92.756c-.132 3.339-.969 7.812-4.21 10.167-3.239 2.356-7.753 1.767-10.971.861l-89.344-25.188c-9.276-2.615-9.039-9.64-8.745-11.73.587-4.176 3.802-9.039 10.934-9.039h.068l58.166.247h.042c4.347 0 8.197-2.809 9.523-6.95l17.739-55.396c2.189-6.838 7.833-8.408 11.997-7.67 2.08.368 8.833 2.312 8.454 11.942z"/><path d="m321.968 321.017c-10.656-1.687-21.331.876-30.058 7.216-8.728 6.341-14.464 15.701-16.151 26.356-5.507 35.465 34.493 60.016 63.63 38.992 18.016-13.089 22.024-38.396 8.935-56.413-6.342-8.727-15.701-14.464-26.356-16.151zm5.665 56.385c-4.406 3.2-9.792 4.494-15.173 3.643-5.379-.852-10.104-3.747-13.306-8.153-3.2-4.405-4.494-9.794-3.642-15.173.852-5.378 3.747-10.104 8.153-13.305 4.405-3.211 9.854-4.495 15.173-3.643 5.378.853 10.104 3.748 13.304 8.153 6.608 9.095 4.586 21.87-4.509 28.478z"/><path d="m510.623 196.064c-2.899-8.922-10.168-15.929-20.467-19.729l-87.087-32.138c-15.384-5.676-31.234-.033-38.551 13.721-7.363 13.845-3.434 30.047 9.558 39.402l41.255 29.705-15.915 48.28c-5.012 15.204 1.332 30.622 15.427 37.494 14.074 6.846 30.157 2.042 39.254-11.559l51.564-77.188c6.099-9.128 7.861-19.068 4.962-27.988zm-21.593 16.879-51.564 77.189c-5.353 8.012-11.961 5.618-13.857 4.691-3.803-1.854-7.445-6.438-5.198-13.256l18.21-55.243c1.366-4.145-.112-8.696-3.653-11.246l-47.203-33.988c-5.826-4.195-5.573-10.045-3.587-13.78 1.984-3.994 7.294-7.027 13.969-4.349l87.088 32.138c3.134 1.156 7.13 3.335 8.368 7.146 1.237 3.808-.716 7.919-2.573 10.698z"/><path d="m388.505 265.77c4.897-9.612 5.759-20.556 2.425-30.816v.001c-3.333-10.26-10.463-18.608-20.075-23.506-9.611-4.897-20.556-5.758-30.815-2.426-21.18 6.882-32.812 29.712-25.932 50.893 3.334 10.26 10.464 18.606 20.076 23.505 9.631 4.91 20.596 5.749 30.815 2.425 10.261-3.334 18.608-10.464 23.506-20.076zm-55.376-12.035c-3.474-10.691 2.398-22.217 13.09-25.69 5.159-1.678 10.694-1.254 15.556 1.225 4.853 2.472 8.451 6.686 10.134 11.865v.001c1.684 5.179 1.249 10.703-1.224 15.555-2.472 4.853-6.686 8.451-11.866 10.134-10.693 3.473-22.216-2.4-25.69-13.09z"/><path d="m68.834 179.648c13.268-.529 13.258-19.476 0-20h-.008c-13.268.53-13.25 19.477.008 20z"/></g></g></svg>