<svg xmlns="http://www.w3.org/2000/svg" width="639" height="410" viewBox="0 0 639 410">
  <g id="federalism" transform="translate(-458 -394)">
    <g id="Ellipse_18" data-name="Ellipse 18" transform="translate(458 394)" fill="#f1f2e8" stroke="#000" stroke-width="5" opacity="0.5">
      <circle cx="205" cy="205" r="205" stroke="none"/>
      <circle cx="205" cy="205" r="202.5" fill="none"/>
    </g>
    <g id="Path_167" data-name="Path 167" transform="translate(687 394)" fill="#f2e8e8" opacity="0.5">
      <path d="M 205 407.5 C 191.2590026855469 407.5 177.5273742675781 406.1157836914063 164.1865234375 403.3858947753906 C 151.1860504150391 400.7255859375 138.3983154296875 396.7560424804688 126.1786346435547 391.5875854492188 C 114.1802139282227 386.5126953125 102.6075286865234 380.231201171875 91.78205108642578 372.9176940917969 C 81.05879211425781 365.6731567382813 70.97505187988281 357.353271484375 61.81089401245117 348.1891174316406 C 52.64673614501953 339.0249328613281 44.32684326171875 328.9412231445313 37.08231735229492 318.2179565429688 C 29.76878929138184 307.3924865722656 23.4873161315918 295.8197937011719 18.41242027282715 283.8213806152344 C 13.24394702911377 271.6016845703125 9.274420738220215 258.8139343261719 6.614105224609375 245.8134765625 C 3.884210586547852 232.4726257324219 2.5 218.7409973144531 2.5 205 C 2.5 191.2590026855469 3.884210586547852 177.5273742675781 6.614105224609375 164.1865234375 C 9.274420738220215 151.1860504150391 13.24394702911377 138.3983154296875 18.41242027282715 126.1786346435547 C 23.4873161315918 114.1802139282227 29.76878929138184 102.6075286865234 37.08231735229492 91.78205108642578 C 44.32684326171875 81.05879211425781 52.64673614501953 70.97505187988281 61.81089401245117 61.81089401245117 C 70.97505187988281 52.64673614501953 81.05879211425781 44.32684326171875 91.78205108642578 37.08231735229492 C 102.6075286865234 29.76878929138184 114.1802139282227 23.4873161315918 126.1786346435547 18.41242027282715 C 138.3983154296875 13.24394702911377 151.1860504150391 9.274420738220215 164.1865234375 6.614105224609375 C 177.5273742675781 3.884210586547852 191.2590026855469 2.5 205 2.5 C 218.7409973144531 2.5 232.4726257324219 3.884210586547852 245.8134765625 6.614105224609375 C 258.8139343261719 9.274420738220215 271.6016845703125 13.24394702911377 283.8213806152344 18.41242027282715 C 295.8197937011719 23.4873161315918 307.3924865722656 29.76878929138184 318.2179565429688 37.08231735229492 C 328.9412231445313 44.32684326171875 339.0249328613281 52.64673614501953 348.1891174316406 61.81089401245117 C 357.353271484375 70.97505187988281 365.6731567382813 81.05879211425781 372.9176940917969 91.78205108642578 C 380.231201171875 102.6075286865234 386.5126953125 114.1802139282227 391.5875854492188 126.1786346435547 C 396.7560424804688 138.3983154296875 400.7255859375 151.1860504150391 403.3858947753906 164.1865234375 C 406.1157836914063 177.5273742675781 407.5 191.2590026855469 407.5 205 C 407.5 218.7409973144531 406.1157836914063 232.4726257324219 403.3858947753906 245.8134765625 C 400.7255859375 258.8139343261719 396.7560424804688 271.6016845703125 391.5875854492188 283.8213806152344 C 386.5126953125 295.8197937011719 380.231201171875 307.3924865722656 372.9176940917969 318.2179565429688 C 365.6731567382813 328.9412231445313 357.353271484375 339.0249328613281 348.1891174316406 348.1891174316406 C 339.0249328613281 357.353271484375 328.9412231445313 365.6731567382813 318.2179565429688 372.9176940917969 C 307.3924865722656 380.231201171875 295.8197937011719 386.5126953125 283.8213806152344 391.5875854492188 C 271.6016845703125 396.7560424804688 258.8139343261719 400.7255859375 245.8134765625 403.3858947753906 C 232.4726257324219 406.1157836914063 218.7409973144531 407.5 205 407.5 Z" stroke="none"/>
      <path d="M 205 5 C 191.427001953125 5 177.8639984130859 6.367095947265625 164.6877288818359 9.063385009765625 C 151.848876953125 11.6905517578125 139.22021484375 15.6107177734375 127.1524963378906 20.71493530273438 C 115.3027648925781 25.72695922851563 103.8733215332031 31.93072509765625 93.18161010742188 39.15390014648438 C 82.59017944335938 46.309326171875 72.63034057617188 54.52700805664063 63.57867431640625 63.57867431640625 C 54.52700805664063 72.63034057617188 46.309326171875 82.59017944335938 39.15390014648438 93.18161010742188 C 31.93072509765625 103.8733215332031 25.72695922851563 115.3027648925781 20.71493530273438 127.1524963378906 C 15.6107177734375 139.22021484375 11.6905517578125 151.848876953125 9.063385009765625 164.6877288818359 C 6.367095947265625 177.8639984130859 5 191.427001953125 5 205 C 5 218.572998046875 6.367095947265625 232.1360015869141 9.063385009765625 245.3122711181641 C 11.6905517578125 258.151123046875 15.6107177734375 270.77978515625 20.71493530273438 282.8475036621094 C 25.72695922851563 294.6972045898438 31.93072509765625 306.1266479492188 39.15390014648438 316.8183898925781 C 46.309326171875 327.4098510742188 54.52700805664063 337.3696594238281 63.57867431640625 346.4213256835938 C 72.63034057617188 355.4729919433594 82.59017944335938 363.690673828125 93.18161010742188 370.8460998535156 C 103.8733215332031 378.0692749023438 115.3027648925781 384.2730712890625 127.1524963378906 389.2850646972656 C 139.22021484375 394.3892822265625 151.848876953125 398.3094482421875 164.6877288818359 400.9366149902344 C 177.8639984130859 403.6328735351563 191.427001953125 405 205 405 C 218.572998046875 405 232.1360015869141 403.6328735351563 245.3122711181641 400.9366149902344 C 258.151123046875 398.3094482421875 270.77978515625 394.3892822265625 282.8475036621094 389.2850646972656 C 294.6972045898438 384.2730712890625 306.1266479492188 378.0692749023438 316.8183898925781 370.8460998535156 C 327.4098510742188 363.690673828125 337.3696594238281 355.4729919433594 346.4213256835938 346.4213256835938 C 355.4729919433594 337.3696594238281 363.690673828125 327.4098510742188 370.8460998535156 316.8183898925781 C 378.0692749023438 306.1266479492188 384.2730712890625 294.6972045898438 389.2850646972656 282.8475036621094 C 394.3892822265625 270.77978515625 398.3094482421875 258.151123046875 400.9366149902344 245.3122711181641 C 403.6328735351563 232.1360015869141 405 218.572998046875 405 205 C 405 191.427001953125 403.6328735351563 177.8639984130859 400.9366149902344 164.6877288818359 C 398.3094482421875 151.848876953125 394.3892822265625 139.22021484375 389.2850646972656 127.1524963378906 C 384.2730712890625 115.3027648925781 378.0692749023438 103.8733215332031 370.8460998535156 93.18161010742188 C 363.690673828125 82.59017944335938 355.4729919433594 72.63034057617188 346.4213256835938 63.57867431640625 C 337.3696594238281 54.52700805664063 327.4098510742188 46.309326171875 316.8183898925781 39.15390014648438 C 306.1266479492188 31.93072509765625 294.6972045898438 25.72695922851563 282.8475036621094 20.71493530273438 C 270.77978515625 15.6107177734375 258.151123046875 11.6905517578125 245.3122711181641 9.063385009765625 C 232.1360015869141 6.367095947265625 218.572998046875 5 205 5 M 205 0 C 318.2183227539063 0 410 91.78167724609375 410 205 C 410 318.2183227539063 318.2183227539063 410 205 410 C 91.78167724609375 410 0 318.2183227539063 0 205 C 0 91.78167724609375 91.78167724609375 0 205 0 Z" stroke="none"/>
    </g>
    <text id="Shared_Powers" data-name="Shared 
Powers" transform="translate(778 591)" font-size="30" font-family="SegoeUI-Bold, Segoe UI" font-weight="700"><tspan x="-52.961" y="0">Shared </tspan><tspan x="-50.596" y="40">Powers</tspan></text>
    <text id="National_Powers" data-name="NationalPowers" transform="translate(975 591)" font-size="30" font-family="SegoeUI-Bold, Segoe UI" font-weight="700"><tspan x="-60.601" y="0">National</tspan><tspan x="-50.596" y="40">Powers</tspan></text>
    <text id="State_Powers" data-name="State
Powers" transform="translate(597 591)" font-size="30" font-family="SegoeUI-Bold, Segoe UI" font-weight="700"><tspan x="-35.837" y="0">State</tspan><tspan x="-50.596" y="40">Powers</tspan></text>
  </g>
</svg>
