<svg height="512" viewBox="0 0 60 60" width="512" xmlns="http://www.w3.org/2000/svg"><g id="004---Gender-Equality" fill="none"><g id="Layer_3" transform="translate(1 1)"><path id="Shape" d="m55 6.75v1.7c-.0931178-.04042524-.1903563-.07060269-.29-.09-.4768483-.09986722-.9735348.01334808-1.36.31-.0012907-.17841701-.0819194-.34700427-.22-.46-.54-.42-3.33-1.96-4.8-3.1-.1944019-.15008773-.4655981-.15008773-.66 0-1.47 1.14-4.26 2.68-4.8 3.1-.1380806.11299573-.2187093.28158299-.22.46-.3864652-.29665192-.8831517-.40986722-1.36-.31-.0996437.01939731-.1968822.04957476-.29.09v-1.7c-.0685789-3.6587073 2.8413098-6.68051479 6.5-6.75h1c1.7401513.00042143 3.4035602.71641048 4.6 1.98 1.2264728 1.28438972 1.9074877 2.99409559 1.9 4.77z" fill="#91562d"/><path id="Shape" d="m53.1 1.98c-1.1964398-1.26358952-2.8598487-1.97957857-4.6-1.98h-1c-.335164.00225515-.6695933.03168492-1 .088 1.3745902.22008418 2.6391466.88467885 3.6 1.892 1.2264728 1.28438972 1.9074877 2.99409559 1.9 4.77v.74c.529.321.954.583 1.13.72.1380806.11299573.2187093.28158299.22.46.3864652-.29665192.8831517-.40986722 1.36-.31.0996437.01939731.1968822.04957476.29.09v-1.7c.0074877-1.77590441-.6735272-3.48561028-1.9-4.77z" fill="#6d4122"/><path id="Shape" d="m13 42c-.0060328 1.6543489-1.3456511 2.9939672-3 3-1.65685425 0-3-1.3431458-3-3 .00238854-1.181954.69855921-2.2523483 1.77802052-2.7337881 1.07946132-.4814397 2.34100338-.2841853 3.22197948.5037881.0815781.0715926.1584074.1484219.23.23.4970501.547345.7716714 1.2606472.77 2z" fill="#ffdc00"/><path id="Shape" d="m24.1 40c-.0688868.3288153-.1024107.6640549-.1 1v3h-11.77c1.0268535-1.1356281 1.0268535-2.8643719 0-4z" fill="#ff9801"/><path id="Shape" d="m34 41v11h-10v-11c-.0024107-.3359451.0311132-.6711847.1-1 .4731925-2.330324 2.5221184-4.0050126 4.9-4.0050126s4.4268075 1.6746886 4.9 4.0050126c.0688868.3288153.1024107.6640549.1 1z" fill="#ffdc00"/><path id="Shape" d="m33.9 40c-.2738926-1.3920903-1.1311577-2.6000951-2.3547783-3.3182074-1.2236205-.7181123-2.6962974-.8774922-4.0452217-.4377926 1.7315326.5413389 3.0331908 1.9792884 3.4 3.756.0688868.3288153.1024107.6640549.1 1v11h3v-11c.0024107-.3359451-.0311132-.6711847-.1-1z" fill="#fec108"/><path id="Shape" d="m43 56v1c0 .5522847-.4477153 1-1 1h-26c-.5522847 0-1-.4477153-1-1v-1c0-2.209139 1.790861-4 4-4h20c2.209139 0 4 1.790861 4 4z" fill="#ffdc00"/><path id="Shape" d="m39 52h-3c2.209139 0 4 1.790861 4 4v1c0 .5522847-.4477153 1-1 1h3c.5522847 0 1-.4477153 1-1v-1c0-2.209139-1.790861-4-4-4z" fill="#fec108"/><path id="Shape" d="m20 29v1c0 2.209139-1.790861 4-4 4h-12c-2.209139 0-4-1.790861-4-4v-1c0-.5522847.44771525-1 1-1h18c.5522847 0 1 .4477153 1 1z" fill="#ffdc00"/><path id="Shape" d="m19 28h-3c.5522847 0 1 .4477153 1 1v1c0 2.209139-1.790861 4-4 4h3c2.209139 0 4-1.790861 4-4v-1c0-.5522847-.4477153-1-1-1z" fill="#fec108"/><path id="Shape" d="m12 34v5.77c-1.1356281-1.0268535-2.86437195-1.0268535-4 0v-5.77z" fill="#ff9801"/><path id="Shape" d="m17 11.07c0 1.28-.79 2.33-1.75 2.33-.094159.000452-.1880741-.0096103-.28-.03-.0252002 1.0461182-.4345545 2.0463665-1.15 2.81-.3019701.2871518-.5764929.6018486-.82.94-.76 1.04-1.02 1.88-2.19 1.88h-1.62c-1.17 0-1.43-.84-2.19-1.88-.24350714-.3381514-.51802994-.6528482-.82-.94-.7154455-.7636335-1.12479979-1.7638818-1.15-2.81-.09192593.0203897-.18584102.030452-.28.03-.97 0-1.75-1.05-1.75-2.33-.01050262-.5826221.1646074-1.15348075.5-1.63.27484699-.42751854.74204323-.69288601 1.25-.71.02865587-.90389568.31298223-1.78114652.82-2.53.16966112-.25275595.3567839-.49334237.56-.72.24336882-.23540428.56218472-.37710024.9-.4.62-.04 1.76-.07 2.97-.07s2.35.03 2.97.07c.3378153.02289976.6566312.16459572.9.4.2032161.22665763.3903389.46724405.56.72.5070178.74885348.7913441 1.62610432.82 2.53.5072872.01947536.9734677.28426589 1.25.71.3353926.47651925.5105026 1.0473779.5 1.63z" fill="#ffe0b2"/><path id="Shape" d="m17 6c-.0087008 1.16412644-.1769333 2.32156628-.5 3.44-.2765323-.42573411-.7427128-.69052464-1.25-.71-.0286559-.90389568-.3129822-1.78114652-.82-2.53-.1696611-.25275595-.3567839-.49334237-.56-.72-.2433688-.23540428-.5621847-.37710024-.9-.4-.62-.04-1.76-.07-2.97-.07s-2.35.03-2.97.07c-.33781528.02289976-.65663118.16459572-.9.4-.2032161.22665763-.39033888.46724405-.56.72-.50701777.74885348-.79134413 1.62610432-.82 2.53-.50795677.01711399-.97515301.28248146-1.25.71-.32306667-1.11843372-.4912992-2.27587356-.5-3.44 0-3.3137085 2.6862915-6 6-6h2c3.3137085 0 6 2.6862915 6 6z" fill="#91562d"/><path id="Shape" d="m13 17.12v4.07s-.36 1.8-2.99 1.8-3.01-1.8-3.01-1.8v-4.07c.76 1.04 1.02 1.88 2.19 1.88h1.62c1.17 0 1.43-.84 2.19-1.88z" fill="#dfc49c"/><path id="Shape" d="m19 26c-.0032948 1.1032019-.8967981 1.9967052-2 2h-14c-1.10320187-.0032948-1.9967052-.8967981-2-2 0-2.7614237 2.23857625-5 5-5h1v.19s.38 1.8 3.01 1.8 2.99-1.8 2.99-1.8v-.19h1c2.7614237 0 5 2.2385763 5 5z" fill="#9d27b0"/><path id="Shape" d="m51 42c0 1.6568542-1.3431458 3-3 3-1.181954-.0023885-2.2523483-.6985592-2.7337881-1.7780205-.4814397-1.0794613-.2841853-2.3410034.5037881-3.2219795.0715926-.0815781.1484219-.1584074.23-.23.8809761-.7879734 2.1425182-.9852278 3.2219795-.5037881 1.0794613.4814398 1.775632 1.5518341 1.7780205 2.7337881z" fill="#ffdc00"/><path id="Shape" d="m45 42c-.0016714.7393528.2729499 1.452655.77 2h-11.77v-3c.0024107-.3359451-.0311132-.6711847-.1-1h11.87c-.4970501.547345-.7716714 1.2606472-.77 2z" fill="#ff9801"/><path id="Shape" d="m58 29v1c0 2.209139-1.790861 4-4 4h-12c-2.209139 0-4-1.790861-4-4v-1c0-.5522847.4477153-1 1-1h18c.5522847 0 1 .4477153 1 1z" fill="#ffdc00"/><path id="Shape" d="m57 28h-3c.5522847 0 1 .4477153 1 1v1c0 2.209139-1.790861 4-4 4h3c2.209139 0 4-1.790861 4-4v-1c0-.5522847-.4477153-1-1-1z" fill="#fec108"/><path id="Shape" d="m50 34v5.77c-1.1356281-1.0268535-2.8643719-1.0268535-4 0v-5.77z" fill="#ff9801"/><path id="Shape" d="m57 25v1c-.0032948 1.1032019-.8967981 1.9967052-2 2h-14c-1.1032019-.0032948-1.9967052-.8967981-2-2v-1c0-2.7614237 2.2385763-5 5-5h1c0 1.6568542 1.3431458 3 3 3s3-1.3431458 3-3h1c2.7614237 0 5 2.2385763 5 5z" fill="#9d27b0"/><path id="Shape" d="m51 17.15v2.85c0 1.6568542-1.3431458 3-3 3s-3-1.3431458-3-3v-2.85c.6597753 1.0477451 1.7675695 1.7308849 3 1.85 1.2324305-.1191151 2.3402247-.8022549 3-1.85z" fill="#dfc49c"/><path id="Shape" d="m55.36 12c-.001227.4233378-.2033188.8209639-.5445764 1.0714825-.3412577.2505186-.7811672.3241883-1.1854236.1985175-.3216726-.0875648-.6566886.0864695-.77.4-.2762431.7159453-.5968653 1.4139667-.96 2.09-.2670793.4838376-.5678196.9483143-.9 1.39-.6597753 1.0477451-1.7675695 1.7308849-3 1.85-1.2324305-.1191151-2.3402247-.8022549-3-1.85-.3321804-.4416857-.6329207-.9061624-.9-1.39-.3631347-.6760333-.6837569-1.3740547-.96-2.09-.1133114-.3135305-.4483274-.4875648-.77-.4-.1262595.0394273-.2577281.0596532-.39.06-.7346109-.0037592-1.3307382-.5954379-1.34-1.33 0-1.01-.84-1.72-.6-2.51.1508692-.47133542.5022207-.8519662.96-1.04.0931178-.04042524.1903563-.07060269.29-.09.4768483-.09986722.9735348.01334808 1.36.31.0012907-.17841701.0819194-.34700427.22-.46.54-.42 3.33-1.96 4.8-3.1.1944019-.15008773.4655981-.15008773.66 0 1.47 1.14 4.26 2.68 4.8 3.1.1380806.11299573.2187093.28158299.22.46.3864652-.29665192.8831517-.40986722 1.36-.31.0996437.01939731.1968822.04957476.29.09.4577793.1880338.8091308.56866458.96 1.04.24.79-.6 1.5-.6 2.51z" fill="#ffe0b2"/><path id="Shape" d="m45 17.15v2.85h-1c-1.5107865.0017631-2.9401047.6851903-3.89 1.86-1.4080723-.4458655-2.2821325-1.8502739-2.0603565-3.3105064.2217759-1.4602325 1.4733987-2.5417982 2.9503565-2.5494936v-3.1c.2524086.273725.6076623.4296017.98.43.1322719-.0003468.2637405-.0205727.39-.06.3216726-.0875648.6566886.0864695.77.4.2762431.7159453.5968653 1.4139667.96 2.09.2670793.4838376.5678196.9483143.9 1.39z" fill="#91562d"/><path id="Shape" d="m58 19c.006305 1.3149732-.8517231 2.4779876-2.11 2.86-.9498953-1.1748097-2.3792135-1.8582369-3.89-1.86h-1v-2.85c.3321804-.4416857.6329207-.9061624.9-1.39.3631347-.6760333.6837569-1.3740547.96-2.09.1133114-.3135305.4483274-.4875648.77-.4.1262595.0394273.2577281.0596532.39.06.3723377-.0003983.7275914-.156275.98-.43v3.1c1.6568542 0 3 1.3431458 3 3z" fill="#91562d"/><path id="Shape" d="m55 16v-3.1c-.2524086.273725-.6076623.4296017-.98.43-.1322719-.0003468-.2637405-.0205727-.39-.06-.3216726-.0875648-.6566886.0864695-.77.4-.2528606.6441907-.5399358 1.2744211-.86 1.888v.442c1.1091758-.0027068 2.1288984.6082135 2.6497659 1.5874864.5208675.9792728.4574598 2.1663015-.1647659 3.0845136.5367024.3072337 1.0128346.7098281 1.405 1.188 1.4080723-.4458655 2.2821325-1.8502739 2.0603565-3.3105064-.2217759-1.4602325-1.4733987-2.5417982-2.9503565-2.5494936z" fill="#6d4122"/></g><g id="Layer_2" fill="#000"><circle id="Oval" cx="30" cy="43" r="1"/><path id="Shape" d="m25 19h10c.5522847 0 1-.4477153 1-1s-.4477153-1-1-1h-10c-.5522847 0-1 .4477153-1 1s.4477153 1 1 1z"/><path id="Shape" d="m25 15h10c.5522847 0 1-.4477153 1-1s-.4477153-1-1-1h-10c-.5522847 0-1 .4477153-1 1s.4477153 1 1 1z"/><path id="Shape" d="m57 16.142v-1.942c.2324489-.3574362.3583545-.7736532.363-1.2 0-.687.921-1.563.552-2.794-.1636554-.51731588-.4832485-.97138254-.915-1.3v-1.157c.0331571-2.02218287-.7384238-3.97470007-2.1449758-5.42794964-1.4065521-1.45324957-3.3328369-2.28816718-5.3550242-2.32105036h-1c-4.2079331.07558497-7.5618409 3.5408425-7.5 7.749v1.157c-.4316088.32875493-.751167.78277208-.915 1.3-.368 1.227.552 2.109.552 2.793.004456.4266878.1303695.8432775.363 1.201v1.944c-1.4991636.3910135-2.6377015 1.6125918-2.9223828 3.1355296-.2846813 1.5229379.3356988 3.073309 1.5923828 3.9794704-.4395145.8468659-.669287 1.7868751-.67 2.741-.0825992.7263228-.00337 1.4619246.232 2.154-.7457249.3101354-1.231731 1.0383556-1.232 1.846v1c.0033061 2.7600532 2.2399468 4.9966939 5 5h3v4h-10.35c-.8532105-2.3873035-3.1148105-3.9807179-5.65-3.9807179s-4.7967895 1.5934144-5.65 3.9807179h-10.35v-4h3c2.7600532-.0033061 4.9966939-2.2399468 5-5v-1c-.000269-.8076444-.4862751-1.5358646-1.232-1.846.1533939-.3653839.2322698-.7577236.232-1.154-.0033074-3.3123376-2.6876624-5.9966926-6-6v-2.536c.9503379-.8119439 1.6013025-1.9188303 1.849-3.144 1.8-.488 2.757-3.013 1.729-5.009.2665517-1.08394741.4081401-2.19484602.422-3.311-.0044086-3.86416566-3.1358343-6.99559136-7-7h-2c-3.86416566.00440864-6.99559136 3.13583434-7 7 .01351056 1.11224713.15340861 2.21935399.417 3.3-.988 1.936-.149 4.54 1.734 5.028.24687371 1.2232369.89814799 2.3278319 1.849 3.136v2.536c-4.4 0-6.848 4.573-5.768 7.154-.74572485.3101354-1.23173096 1.0383556-1.232 1.846v1c.00330612 2.7600532 2.23994685 4.9966939 5 5h3v4.382c-1.39343919 1.5756565-1.32023392 3.9635521.16710701 5.450893 1.48734092 1.4873409 3.87523649 1.5605462 5.45089299.167107h10.382v6h-4c-2.7600532.0033061-4.9966939 2.2399468-5 5v1c0 1.1045695.8954305 2 2 2h26c1.1045695 0 2-.8954305 2-2v-1c-.0033061-2.7600532-2.2399468-4.9966939-5-5h-4v-6h10.382c1.5756565 1.3934392 3.9635521 1.3202339 5.450893-.167107s1.5605462-3.8752365.167107-5.450893v-4.382h3c2.7600532-.0033061 4.9966939-2.2399468 5-5v-1c-.000269-.8076444-.4862751-1.5358646-1.232-1.846.2362527-.69188.3155033-1.4276801.232-2.154-.0003928-.9548013-.2301743-1.8955338-.67-2.743 1.256684-.9061614 1.8770641-2.4565325 1.5923828-3.9794704-.2846813-1.5229378-1.4232192-2.7445161-2.9223828-3.1355296zm.12 5.508c-1.1102755-1.0590017-2.585661-1.6498721-4.12-1.65v-1.54c.6915565-.9771274 1.2579674-2.0370482 1.686-3.155.1043424.0101446.2092764.0128181.314.008v2.687c-.0026517.4998693.3677523.9232938.8635342.9871426s.9613811-.2519119 1.0854658-.7361426c.6152101.3279698 1.0131326.9547789 1.0481622 1.6510695s-.2979747 1.3598719-.8771622 1.7479305zm-.12 5.35c0 .5522847-.4477153 1-1 1h-14c-.5522847 0-1-.4477153-1-1v-1c.0006732-1.0863913.4426591-2.1258989 1.2245875-2.88011.7819284-.7542112 1.8367041-1.158409 2.9224125-1.11989.4456791 1.7645378 2.0330485 3.0008263 3.853 3.0008263s3.4073209-1.2362885 3.853-3.0008263c1.085474-.0376686 2.13976.3668099 2.9214983 1.1208377.7817384.7540279 1.2239872 1.7930359 1.2255017 2.8791623zm-14.024-13.671c-.1829648-.0009599-.3325638-.1461459-.339-.329-.1121811-.7657837-.3264188-1.5130934-.637-2.222.0708429-.2045959.235531-.3627906.4428097-.4253504.2072788-.0625597.4319869-.0218906.6041903.1093504.2688603.204658.6228885.259703.9411955.1463389s.5578393-.3798039.6368045-.7083389c.788-.515 2.98-1.757 4.375-2.781 1.411 1.033 3.609 2.28 4.375 2.78.0776603.3294084.316665.5971836.6351675.7116265.3185024.1144429.6732773.060022.9428325-.1446265.1716592-.1313847.3958604-.1726062.6030263-.1108719s.3722324.2189552.4439737.4228719c-.3102201.7090367-.5244437 1.4562973-.637 2.222 0 .181-.156.333-.435.32-.8235418-.2404153-1.6937083.1916224-2 .993-2.35 6.018-5.349 6.431-7.86 0-.3303733-.8268119-1.2444323-1.2567517-2.092-.984zm4.024 7.084c1.2184287.7828314 2.7815713.7828314 4.0000031 0l-.0000031.54c.001933 1.1045695-.8919305 2.001567-1.9965 2.0035s-2.001567-.8919305-2.0035-1.9965zm1.5-18.413h1c3.1053333.07101151 5.5664657 2.64356607 5.5 5.749v.616c-.0919086.00660816-.1833815.01829266-.274.035-.6-.448-3.4-2.007-4.8-3.088-.5553532-.41543982-1.3187709-.41258363-1.871.007-1.512 1.181-4.048 2.536-4.781 3.081-.0906185-.01670734-.1820914-.02839184-.274-.035v-.616c-.0625853-3.10392331 2.3963475-5.67417872 5.5-5.749zm-7.449 16.251c.1240847.4842307.5896839.7999914 1.0854658.7361426s.8661859-.4872733.8635342-.9871426v-2.686c.1047504.0039828.2096497.0009762.314-.009.4283574 1.1178035.9947473 2.177685 1.686 3.155v1.54c-1.534339.0001279-3.0097245.5909983-4.12 1.65-.5791875-.3880586-.9121918-1.0516399-.8771622-1.7479305s.4329521-1.3230997 1.0481622-1.6510695zm-32.051 2.483c.669.333 1.081.266 2.814.266.4107971.006283.8172356-.0848744 1.186-.266v1.318c-.494 1.258-3.479 1.269-4-.008zm1-18.734h2c2.7600532.00330612 4.9966939 2.23994685 5 5 0 .008 0 .453-.057 1.054-.1665943-.5046575-.4021576-.98386052-.7-1.424-.4207321-.86007846-1.2539129-1.44360714-2.206-1.545-1.265-.1-4.813-.1-6.091 0-.57748858.04212428-1.12055289.29058508-1.53.7-.60832588.6513613-1.07152521 1.4243827-1.359 2.268-.057-.6-.057-1.044-.057-1.053.00330612-2.76005315 2.23994685-4.99669388 5-5zm-4.25 11.4c-.35 0-.75-.583-.75-1.335s.4-1.333.75-1.333c.53740598.0004088.97904132-.4240027 1-.961.02296408-.71385069.2461173-1.4068731.644-2 .392-.565.478-.675.716-.7 1.154-.087 4.635-.086 5.775 0 .232.019.3.084.717.685.4004711.59486545.6257007 1.29030513.65 2.007.0209587.5369973.462594.9614088 1 .961.306 0 .75.519.75 1.333s-.442 1.341-.817 1.329c-.2824879-.0615751-.5778005.0021262-.8097856.1746771-.2319852.1725509-.3779353.4370616-.4002144.7253229-.010023.7953278-.305673 1.5605396-.833 2.156-1.504 1.416-1.561 2.558-2.328 2.558h-1.628c-.737 0-.889-1.2-2.331-2.553-.52335326-.5939353-.8170381-1.3554587-.828-2.147-.03801836-.2945569-.19786879-.5596528-.44063484-.7307487s-.54617677-.2324957-.83636516-.1692513zm1.25 9.6h.25c.73879809 1.3594163 2.22043918 2.1435827 3.76 1.99 1.5303793.1314374 2.9953813-.6476524 3.742-1.99 1.1020818-.0643581 2.1820215.3280212 2.9857469 1.0848248s1.2602803 1.8112176 1.2622531 2.9151752c0 .5522847-.4477153 1-1 1h-14c-2.092 0-.814-5 3-5zm-5 8v-1h18v1c0 1.6568542-1.3431458 3-3 3h-12c-1.65685425 0-3-1.3431458-3-3zm10 5v3.142c-.6532851-.1889023-1.3467149-.1889023-2 0v-3.142zm-3 7c0-1.1045695.8954305-2 2-2s2 .8954305 2 2-.8954305 2-2 2-2-.8954305-2-2zm5.858 1c.1889023-.6532851.1889023-1.3467149 0-2h9.142v2zm28.142 13v1h-26v-1c0-1.6568542 1.3431458-3 3-3h20c1.6568542 0 3 1.3431458 3 3zm-17-5v-10c0-2.209139 1.790861-4 4-4s4 1.790861 4 4v10zm10-10h9.142c-.1889023.6532851-.1889023 1.3467149 0 2h-9.142zm13 3c-1.1045695 0-2-.8954305-2-2s.8954305-2 2-2 2 .8954305 2 2-.8954305 2-2 2zm1-5.858c-.6532851-.1889023-1.3467149-.1889023-2 0v-3.142h2zm8-8.142c0 1.6568542-1.3431458 3-3 3h-12c-1.6568542 0-3-1.3431458-3-3v-1h18z"/></g></g></svg>