<svg id="filled_outline" height="512" viewBox="0 0 512 512" width="512" xmlns="http://www.w3.org/2000/svg" data-name="filled outline"><path d="m48 272h416v216h-416z" fill="#db8638"/><path d="m392 320v8a24 24 0 0 0 24 24h8v64h-8a24 24 0 0 0 -24 24v8h-272v-8a24 24 0 0 0 -24-24h-8v-64h8a24 24 0 0 0 24-24v-8z" fill="#c47220"/><path d="m352 215.43994a24.5822 24.5822 0 0 1 -24.56006 24.56006h-142.87994a24.54471 24.54471 0 0 1 -23.5-31.67993 24.23962 24.23962 0 0 1 3.07-6.51l18.37-27.56007a32.02 32.02 0 0 1 26.63-14.25h93.74a32.01979 32.01979 0 0 1 26.63 14.25l18.37 27.56006a24.59266 24.59266 0 0 1 4.13 13.62988z" fill="#8098ab"/><path d="m72 184h24v56h-24z" fill="#c47220"/><path d="m72 152h64v32h-64z" fill="#548aff"/><path d="m24 240h464v32h-464z" fill="#ea964b"/><path d="m192 304h128v64h-128z" fill="#ffc431"/><path d="m152 152-61.26688-122.53375a9.88853 9.88853 0 0 0 -8.84457-5.46625 9.88854 9.88854 0 0 0 -9.88855 9.88853v118.11147z" fill="#548aff"/><path d="m136 152v32l-64-32z" fill="#4976f2"/><path d="m72 184 48 32v-32z" fill="#4976f2"/><path d="m216 240h32v-8a24 24 0 0 0 -24-24h-8z" fill="#ffceb6"/><path d="m416 184h24v56h-24z" fill="#c47220"/><path d="m376 152h64v32h-64z" fill="#548aff"/><path d="m360 152 61.26688-122.53375a9.88853 9.88853 0 0 1 8.84457-5.46625 9.88854 9.88854 0 0 1 9.88855 9.88853v118.11147z" fill="#548aff"/><path d="m376 152v32l64-32z" fill="#4976f2"/><path d="m440 184-48 32v-32z" fill="#4976f2"/><path d="m296 240h-32v-8a24 24 0 0 1 24-24h8z" fill="#ffceb6"/><path d="m272 136h-24l-8 8v8a16 16 0 0 0 16 16 16 16 0 0 0 16-16z" fill="#ffceb6"/><path d="m272 136 4.68629-4.68629a11.31372 11.31372 0 0 0 3.31371-8 11.31369 11.31369 0 0 0 -11.3137-11.31371h-12.6863a16 16 0 0 0 -16 16v16l8-8z" fill="#c47220"/><path d="m488 232h-40v-198.11133a17.88858 17.88858 0 0 0 -33.88818-8.001l-61.26709 122.53421a8 8 0 0 0 7.15527 11.57812h8v24a7.96573 7.96573 0 0 0 8 7.98535v.01465h8v24a7.99975 7.99975 0 0 0 12.4375 6.65625l11.5625-7.70825v17.052h-52.54272a32.51669 32.51669 0 0 0 -.92652-34.626l-18.37451-27.5615a39.92043 39.92043 0 0 0 -33.28225-17.8125h-22.874v-12.68628l2.34277-2.343a19.31354 19.31354 0 0 0 -13.65625-32.97072h-12.68652a24.02718 24.02718 0 0 0 -24 24v24h-22.874a39.91892 39.91892 0 0 0 -33.28174 17.8125l-18.37551 27.5615a32.51775 32.51775 0 0 0 -.926 34.626h-52.54275v-17.052l11.56248 7.70825a7.99958 7.99958 0 0 0 12.43752-6.65625v-24h8v-.01465a7.96573 7.96573 0 0 0 8-7.98535v-24h8a8 8 0 0 0 7.15527-11.57812l-61.26709-122.53418a17.88858 17.88858 0 0 0 -33.88818 8.00097v198.11133h-40a8.00008 8.00008 0 0 0 -8 8v32a8.00008 8.00008 0 0 0 8 8h16v208a8.00008 8.00008 0 0 0 8 8h416a8.00008 8.00008 0 0 0 8-8v-208h16a8.00008 8.00008 0 0 0 8-8v-32a8.00008 8.00008 0 0 0 -8-8zm-104-60.94434v-11.05566h22.11133zm48 4.94434h-22.11157l22.11157-11.05566zm-59.05566-32 55.478-110.956a1.8885 1.8885 0 0 1 3.57766.84467v110.11133zm27.05566 48h13.57764l-13.57764 9.05176zm24 12.28125 8-5.33325v33.052h-8zm-160-52.28125a8 8 0 0 1 -16 0v-4.68652l3.31348-3.31348h12.68652zm-8-32h12.68652a3.31353 3.31353 0 0 1 2.34327 5.65625l-2.34379 2.34375h-20.686a8.00917 8.00917 0 0 1 8-8zm-88 95.4375a16.51452 16.51452 0 0 1 2.78174-9.18848l18.37549-27.56152a23.94962 23.94962 0 0 1 19.96877-10.6875h27.55975l-10.34247 10.34277 11.31348 11.31446 10.34324-10.34351v28.68628h16v-28.68579l10.34326 10.343 11.31348-11.31446-10.34302-10.34275h27.56028a23.95112 23.95112 0 0 1 19.96924 10.6875l18.37453 27.5615a16.56282 16.56282 0 0 1 -13.78077 25.751h-23.437v-16h8a8.00016 8.00016 0 0 0 6.65625-12.4375l-16-24-13.3125 8.875 7.70801 11.5625h-9.05176a32.03635 32.03635 0 0 0 -32 32 32.03635 32.03635 0 0 0 -32-32h-9.05176l7.708-11.5625-13.3125-8.875-16 24a8.00016 8.00016 0 0 0 6.65626 12.4375h8v16h-23.437a16.5814 16.5814 0 0 1 -16.563-16.5625zm72 16.5625h-16v-16a16.01833 16.01833 0 0 1 16 16zm48 0h-16a16.01833 16.01833 0 0 1 16-16zm-176-30.94824-13.57764-9.05176h13.57764zm-6.11133-41.05176h22.11133v11.05566zm-25.88867-126.11133a1.8885 1.8885 0 0 1 3.57764-.84472l55.47802 110.95605h-59.05566zm22.11151 142.11133h-22.11151v-11.05566zm-22.11151 22.948 8 5.33325v27.71875h-8zm376 281.052h-400v-200h400zm24-216h-448v-16h448z"/><path d="m88 424h8a16.01833 16.01833 0 0 1 16 16v8a8.00008 8.00008 0 0 0 8 8h272a8.00008 8.00008 0 0 0 8-8v-8a16.01833 16.01833 0 0 1 16-16h8a8.00008 8.00008 0 0 0 8-8v-64a8.00008 8.00008 0 0 0 -8-8h-8a16.01833 16.01833 0 0 1 -16-16v-8a8.00008 8.00008 0 0 0 -8-8h-64v-8a8.00008 8.00008 0 0 0 -8-8h-128a8.00008 8.00008 0 0 0 -8 8v8h-64a8.00008 8.00008 0 0 0 -8 8v8a16.01833 16.01833 0 0 1 -16 16h-8a8.00008 8.00008 0 0 0 -8 8v64a8.00008 8.00008 0 0 0 8 8zm112-112h112v48h-112zm-104 48a32.03635 32.03635 0 0 0 32-32h56v40a8.00008 8.00008 0 0 0 8 8h128a8.00008 8.00008 0 0 0 8-8v-40h56a32.03635 32.03635 0 0 0 32 32v48a32.03635 32.03635 0 0 0 -32 32h-256a32.03635 32.03635 0 0 0 -32-32z"/><path d="m224 328h16v16h-16z"/><path d="m256 328h32v16h-32z"/></svg>