<svg id="Capa_1" enable-background="new 0 0 512 512" height="512" viewBox="0 0 512 512" width="512" xmlns="http://www.w3.org/2000/svg"><g><g><path d="m175.094 237.748-129.098 32.214c-5.487 1.369-11.045-1.969-12.414-7.456l-25.775-103.292c-1.369-5.487 1.969-11.045 7.456-12.414l129.098-32.215c5.487-1.369 11.045 1.969 12.414 7.456l25.775 103.292c1.37 5.487-1.969 11.045-7.456 12.415z" fill="#f8f3f1"/><path d="m156.779 122.044 25.774 103.287c1.371 5.494-1.972 11.046-7.456 12.414l-25.712 6.416c5.494-1.371 8.827-6.92 7.456-12.414l-25.775-103.287c-1.371-5.494-6.92-8.827-12.414-7.456l25.712-6.416c5.484-1.369 11.044 1.961 12.415 7.456z" fill="#efe2dd"/></g><g><path d="m471.041 254.257-130.397-26.471c-5.542-1.125-9.123-6.53-7.998-12.072l21.179-104.332c1.125-5.542 6.53-9.123 12.072-7.998l130.397 26.471c5.542 1.125 9.123 6.53 7.998 12.072l-21.179 104.332c-1.125 5.542-6.53 9.123-12.072 7.998z" fill="#fb3a82"/><path d="m504.289 141.928-21.178 104.326c-1.127 5.549-6.523 9.125-12.072 7.998l-26.664-5.413c5.539 1.125 10.946-2.449 12.072-7.998l21.178-104.326c1.125-5.539-2.459-10.948-7.998-12.072l26.664 5.413c5.549 1.126 9.123 6.533 7.998 12.072z" fill="#fb1466"/></g><g><g><path d="m280.793 165.65-133.057.011c-5.655 0-10.24-4.584-10.241-10.239l-.009-106.46c0-5.655 4.584-10.24 10.239-10.241l133.057-.011c5.655 0 10.24 4.584 10.241 10.239l.009 106.46c.001 5.656-4.583 10.241-10.239 10.241z" fill="#fcb44d"/><path d="m291.02 48.952.009 106.454c0 5.663-4.576 10.24-10.239 10.241l-27.207.002c5.652 0 10.24-4.578 10.239-10.241l-.009-106.454c0-5.652-4.588-10.239-10.241-10.239l27.207-.002c5.663-.001 10.241 4.586 10.241 10.239z" fill="#fb9927"/></g></g><g><g><g><g><g><g><g><g><g><path d="m408.212 473.844h-141.407l10.269-122.203c1.351-16.081 12.234-29.776 27.595-34.724l32.84-10.579 32.84 10.579c15.361 4.948 26.243 18.642 27.595 34.724z" fill="#fcb44d"/><path d="m408.21 473.849h-23.64l-10.27-129.04c-1.11-13.94-8.64-26.18-19.79-32.99l15.84 5.1c15.36 4.95 26.24 18.64 27.59 34.72z" fill="#fb9927"/><path d="m350.75 285.675v29.09c0 7.313-5.928 13.241-13.241 13.241-7.313 0-13.241-5.928-13.241-13.241v-29.09z" fill="#c86f5c"/></g></g><path d="m337.508 213.338c-19.393 0-35.114 15.721-35.114 35.114v15.256c0 17.967 15.721 34.664 35.114 34.664s35.114-16.696 35.114-34.664v-15.256c.001-19.392-15.72-35.114-35.114-35.114z" fill="#d5887a"/><path d="m372.624 248.457v15.252c0 17.97-15.725 34.66-35.113 34.66-3.82 0-7.493-.65-10.939-1.831 14.041-4.795 24.173-18.393 24.173-32.828v-15.252c0-15.577-10.132-28.791-24.173-33.389 3.446-1.122 7.119-1.733 10.939-1.733 19.388-.001 35.113 15.724 35.113 35.121z" fill="#c86f5c"/></g></g></g></g></g></g><g><g><g><g><g><g><g><g><path d="m266.805 473.844h-141.408l10.269-122.203c1.351-16.081 12.234-29.776 27.595-34.724l32.84-10.579 32.84 10.579c15.361 4.948 26.243 18.642 27.595 34.724z" fill="#27d1b3"/><path d="m266.81 473.849h-23.65l-10.27-129.04c-1.11-13.94-8.63-26.17-19.77-32.99l15.82 5.1c15.36 4.95 26.25 18.64 27.6 34.72z" fill="#20b69f"/><path d="m209.342 285.675v29.09c0 7.313-5.928 13.241-13.241 13.241-7.313 0-13.241-5.928-13.241-13.241v-29.09z" fill="#fdb0a0"/></g></g><path d="m196.101 213.338c-19.393 0-35.114 15.721-35.114 35.114v15.256c0 17.967 15.721 34.664 35.114 34.664s35.114-16.696 35.114-34.664v-15.256c.001-19.392-15.721-35.114-35.114-35.114z" fill="#ffcec0"/><path d="m231.217 248.457v15.252c0 17.97-15.725 34.66-35.113 34.66-3.82 0-7.493-.65-10.939-1.831 14.041-4.795 24.173-18.393 24.173-32.828v-15.252c0-15.577-10.132-28.791-24.173-33.389 3.446-1.122 7.119-1.733 10.939-1.733 19.388-.001 35.113 15.724 35.113 35.121z" fill="#fdb0a0"/></g></g></g></g></g></g><g><g><g><g><g><g><g><g><g><path d="m196.101 483.844h-141.407l8.775-45.802c2.297-11.987 10.948-21.768 22.566-25.51l39.363-12.68 39.363 12.68c11.617 3.742 20.269 13.523 22.566 25.51z" fill="#fb3a82"/><path d="m196.1 483.849h-23.19l-8.77-51.63c-1.76-10.33-7.23-19.2-14.9-24.69l15.52 5c11.62 3.75 20.27 13.53 22.57 25.51z" fill="#fb1466"/><path d="m138.639 379.188v29.09c0 7.313-5.928 13.241-13.241 13.241-7.313 0-13.241-5.928-13.241-13.241v-29.09z" fill="#873f30"/></g></g><path d="m125.397 306.852c-19.393 0-35.114 15.721-35.114 35.114v15.256c0 17.967 15.721 34.664 35.114 34.664s35.114-16.696 35.114-34.664v-15.256c.001-19.393-15.72-35.114-35.114-35.114z" fill="#a34f41"/><path d="m160.513 341.97v15.252c0 17.97-15.725 34.66-35.113 34.66-3.82 0-7.493-.65-10.939-1.831 14.041-4.795 24.173-18.393 24.173-32.828v-15.253c0-15.577-10.132-28.791-24.173-33.389 3.446-1.122 7.119-1.733 10.939-1.733 19.388 0 35.113 15.725 35.113 35.122z" fill="#873f30"/></g></g></g></g></g></g><g><g><g><g><g><g><g><g><path d="m337.508 483.844h-141.407l8.775-45.802c2.297-11.987 10.948-21.768 22.566-25.51l39.363-12.68 39.363 12.68c11.617 3.742 20.269 13.523 22.566 25.51z" fill="#21c1f8"/><path d="m337.51 483.849h-23.19l-8.77-51.63c-1.76-10.33-7.23-19.2-14.9-24.69l15.52 5c11.62 3.75 20.27 13.53 22.56 25.51z" fill="#1faaee"/><path d="m280.046 379.188v29.09c0 7.313-5.928 13.241-13.241 13.241-7.313 0-13.241-5.928-13.241-13.241v-29.09z" fill="#fdb0a0"/></g></g><path d="m266.805 306.852c-19.393 0-35.114 15.721-35.114 35.114v15.256c0 17.967 15.721 34.664 35.114 34.664s35.114-16.696 35.114-34.664v-15.256c0-19.393-15.721-35.114-35.114-35.114z" fill="#ffcec0"/><path d="m301.92 341.97v15.252c0 17.97-15.725 34.66-35.113 34.66-3.82 0-7.493-.65-10.939-1.831 14.041-4.795 24.173-18.393 24.173-32.828v-15.253c0-15.577-10.132-28.791-24.173-33.389 3.446-1.122 7.119-1.733 10.939-1.733 19.388 0 35.113 15.725 35.113 35.122z" fill="#fdb0a0"/></g></g></g></g></g></g></g><g><g><g><g><g><g><g><path d="m478.916 483.844h-141.408l8.775-45.802c2.297-11.987 10.948-21.768 22.566-25.51l39.363-12.68 39.363 12.68c11.617 3.742 20.269 13.523 22.566 25.51z" fill="#bcea73"/><path d="m478.92 483.849h-23.19l-8.78-51.63c-1.75-10.33-7.22-19.2-14.89-24.69l15.52 5c11.61 3.75 20.26 13.53 22.56 25.51z" fill="#a3e440"/></g><g><path d="m421.453 379.188v29.09c0 7.313-5.928 13.241-13.241 13.241-7.313 0-13.241-5.928-13.241-13.241v-29.09z" fill="#f69583"/><g><path d="m408.212 306.852c-19.393 0-35.114 15.721-35.114 35.114v15.256c0 17.967 15.721 34.664 35.114 34.664s35.114-16.696 35.114-34.664v-15.256c0-19.393-15.721-35.114-35.114-35.114z" fill="#fdb0a0"/><path d="m443.328 341.97v15.252c0 17.97-15.725 34.66-35.113 34.66-3.82 0-7.493-.65-10.939-1.831 14.041-4.795 24.173-18.393 24.173-32.828v-15.253c0-15.577-10.132-28.791-24.173-33.389 3.446-1.122 7.119-1.733 10.939-1.733 19.388 0 35.113 15.725 35.113 35.122z" fill="#f69583"/><g><path d="m116.08 157.472c-9.296-5.583-20.21-7.211-30.73-4.586-21.718 5.42-34.979 27.499-29.559 49.217 2.625 10.521 9.19 19.39 18.486 24.973 6.396 3.841 13.557 5.811 20.829 5.811 3.297 0 6.619-.405 9.901-1.224 10.521-2.625 19.39-9.19 24.973-18.486 5.583-9.295 7.212-20.209 4.586-30.73-2.625-10.523-9.19-19.392-18.486-24.975zm3.933 28.605c.62 2.486.864 5.006.741 7.494l-19.699-8.728-4.524-18.132c4.134.214 8.179 1.428 11.827 3.62 5.86 3.52 9.999 9.112 11.655 15.746zm-26.184 31.768c-3.251-.167-6.446-.963-9.437-2.36l6.711-8.565zm-11.852-47.5 4.524 18.13-13.289 16.959c-1.278-2.139-2.247-4.478-2.867-6.964-2.786-11.162 2.256-22.473 11.632-28.125zm26.406 43.868-2.726-10.924 9.948 4.407c-1.984 2.639-4.431 4.842-7.222 6.517z"/><path d="m203.459 485.282 8.784-45.828c1.781-9.299 8.486-16.879 17.499-19.783l17.178-5.534c2.536 8.59 10.484 14.882 19.885 14.882s17.349-6.292 19.885-14.882l17.178 5.534c9.012 2.903 15.718 10.484 17.5 19.783l8.775 45.802c.688 3.592 3.832 6.09 7.358 6.09.468 0 .943-.044 1.419-.135 3.097-.594 5.376-3.014 5.947-5.93l8.784-45.828c1.781-9.299 8.486-16.879 17.499-19.783l17.178-5.534c2.536 8.59 10.484 14.882 19.885 14.882s17.349-6.292 19.885-14.882l17.178 5.534c9.012 2.903 15.718 10.484 17.5 19.783l8.775 45.802c.688 3.592 3.832 6.09 7.358 6.09.468 0 .943-.044 1.419-.135 4.068-.78 6.734-4.709 5.955-8.777l-8.775-45.803c-2.814-14.683-13.402-26.653-27.632-31.237l-20.921-6.74v-4.802c12.934-7.334 21.874-21.166 21.874-36.629v-15.256c0-23.498-19.117-42.615-42.615-42.615-2.267 0-4.492.182-6.664.525l10.153-50.013 57.849 11.743c1.188.241 2.381.36 3.565.36 3.448 0 6.821-1.009 9.761-2.957 3.95-2.617 6.645-6.616 7.587-11.259l3.381-16.653c.824-4.06-1.799-8.018-5.858-8.842-4.062-.82-8.019 1.799-8.842 5.858l-3.381 16.654c-.301 1.48-1.751 2.438-3.23 2.14l-98.249-19.945c-6.648-11.332-18.374-19.333-32.035-20.853l18.927-93.235c.196-.967.818-1.504 1.172-1.739.353-.234 1.09-.599 2.058-.401l130.397 26.471c1.48.3 2.44 1.75 2.14 3.23l-10.75 52.953c-.824 4.06 1.799 8.018 5.858 8.842 4.065.825 8.018-1.798 8.842-5.858l10.75-52.954c1.946-9.586-4.27-18.968-13.856-20.914l-57.849-11.743.609-3.002c.824-4.059-1.798-8.018-5.858-8.842-4.059-.821-8.019 1.799-8.842 5.858l-.609 3.002-57.85-11.743c-4.645-.945-9.376-.021-13.327 2.596s-6.646 6.616-7.588 11.26l-19.759 97.337c-18.288 4.791-31.822 21.456-31.822 41.226v15.256c0 15.464 8.94 29.295 21.873 36.629v4.802l-14.399 4.638c-1.841.593-3.641 1.309-5.394 2.12-7.72-7.747-18.394-12.548-30.169-12.548s-22.448 4.802-30.169 12.548c-1.754-.812-3.554-1.528-5.395-2.121l-14.399-4.638v-4.802c12.933-7.334 21.873-21.165 21.873-36.629v-15.256c0-13.866-6.66-26.203-16.946-33.99l-.004-41.308 59.028-.005c9.781-.001 17.739-7.959 17.739-17.741l-.009-106.458c0-4.739-1.846-9.193-5.197-12.543-3.351-3.351-7.806-5.195-12.544-5.195l-59.029.005v-3.063c0-4.142-3.358-7.5-7.5-7.5s-7.5 3.358-7.5 7.5v3.063l-8.878.001c-4.142 0-7.5 3.358-7.5 7.5s3.358 7.5 7.5 7.5l82.906-.007c.988 0 1.638.502 1.938.802s.803.95.803 1.937l.009 106.459c0 1.511-1.229 2.741-2.74 2.741l-133.057.011c-.988 0-1.638-.502-1.938-.802s-.803-.95-.803-1.937l-.009-106.459c0-1.511 1.229-2.74 2.74-2.74l14.755-.001c4.142 0 7.5-3.358 7.499-7.501 0-4.142-3.358-7.5-7.501-7.499l-14.755.001c-9.782.001-17.74 7.959-17.739 17.741l.005 61.477-44.715 11.159-.742-2.972c-1.003-4.019-5.073-6.465-9.093-5.461-4.019 1.003-6.464 5.074-5.461 9.093l.742 2.972-57.272 14.291c-9.491 2.368-15.285 12.016-12.917 21.507l25.775 103.292c2.01 8.055 9.263 13.447 17.213 13.447 1.417 0 2.858-.171 4.294-.53l57.272-14.291 9.437 37.816c-18.245 4.821-31.737 21.463-31.737 41.203v15.256c0 15.464 8.94 29.295 21.873 36.629v4.802l-20.921 6.74c-11.931 3.844-21.309 12.79-25.728 24.543-1.458 3.877.503 8.202 4.38 9.66.87.327 1.761.482 2.639.482 3.034 0 5.89-1.854 7.021-4.862 2.8-7.446 8.736-13.112 16.288-15.545l17.178-5.534c2.536 8.59 10.484 14.882 19.885 14.882s17.349-6.292 19.885-14.882l17.178 5.534c9.013 2.903 15.718 10.483 17.499 19.783l8.775 45.802c.688 3.592 3.832 6.09 7.358 6.09.468 0 .943-.044 1.419-.135 3.096-.595 5.375-3.015 5.946-5.93zm134.049-179.409c1.943 0 3.858-.148 5.741-.412v9.303c0 3.166-2.576 5.742-5.741 5.742s-5.741-2.576-5.741-5.742v-9.303c1.883.264 3.798.412 5.741.412zm-70.703 8.478c15.227 0 27.614 12.388 27.614 27.615v15.256c0 14.47-12.904 27.164-27.614 27.164s-27.614-12.693-27.614-27.164v-15.256c-.001-15.227 12.387-27.615 27.614-27.615zm-76.445-8.89c1.883.264 3.798.412 5.741.412s3.858-.148 5.741-.412v9.303c0 3.166-2.576 5.742-5.741 5.742s-5.741-2.576-5.741-5.742zm33.355-41.752c0 14.47-12.904 27.164-27.614 27.164s-27.614-12.693-27.614-27.164v-15.256c0-15.227 12.388-27.614 27.614-27.614s27.614 12.388 27.614 27.614zm-16.946-56.518c-3.411-.882-6.985-1.353-10.668-1.353-3.575 0-7.046.448-10.366 1.281l-8.474-33.961 29.505-.003zm-162.589 55.494c-1.463.364-2.956-.529-3.322-1.995l-25.774-103.291c-.366-1.466.529-2.957 1.995-3.322l112.915-28.177.003 29.523c0 4.739 1.846 9.193 5.197 12.543 3.351 3.351 7.806 5.195 12.544 5.195l14.064-.001 10.051 40.279c-7.449 5.175-13.17 12.66-16.126 21.412zm109.307-11.815v12.84c0 15.464 8.94 29.295 21.873 36.629v4.802l-14.399 4.638c-1.841.593-3.641 1.309-5.395 2.12-6.772-6.795-15.817-11.323-25.884-12.333l-10.044-40.251zm-55.704 91.096c0-15.227 12.388-27.615 27.614-27.615s27.614 12.388 27.614 27.615v15.256c0 14.47-12.904 27.164-27.614 27.164s-27.614-12.693-27.614-27.164zm27.614 72.053c-3.166 0-5.741-2.576-5.741-5.741v-9.303c1.883.264 3.798.412 5.741.412s3.858-.148 5.741-.412v9.303c.001 3.165-2.575 5.741-5.741 5.741zm99.745-8.626c-14.231 4.585-24.819 16.554-27.632 31.238l-1.409 7.355-1.409-7.355c-2.813-14.684-13.401-26.654-27.632-31.238l-20.921-6.74v-4.802c12.933-7.334 21.873-21.165 21.873-36.629v-15.256c0-6.216-1.349-12.12-3.752-17.45.431-.159.863-.318 1.301-.459l10.656-3.432c2.536 8.59 10.484 14.882 19.885 14.882s17.349-6.292 19.885-14.882l10.656 3.432c.438.141.869.3 1.301.46-2.403 5.33-3.752 11.234-3.752 17.45v15.256c0 15.464 8.94 29.295 21.873 36.629v4.802zm41.663 8.626c-3.166 0-5.741-2.576-5.741-5.741v-9.303c1.883.264 3.798.412 5.741.412s3.858-.148 5.741-.412v9.303c0 3.165-2.576 5.741-5.741 5.741zm99.744-8.626c-14.231 4.585-24.819 16.554-27.632 31.238l-1.409 7.354-1.409-7.354c-2.814-14.683-13.402-26.653-27.632-31.237l-20.921-6.74v-4.802c12.933-7.334 21.873-21.165 21.873-36.629v-15.256c0-6.216-1.349-12.12-3.752-17.45.431-.159.863-.318 1.301-.459l10.656-3.432c2.536 8.59 10.484 14.882 19.885 14.882s17.349-6.292 19.885-14.882l10.655 3.432c.438.141.87.3 1.301.46-2.403 5.33-3.752 11.234-3.752 17.45v15.256c0 15.464 8.94 29.295 21.873 36.629v4.802zm47.404 2.885c0 3.166-2.576 5.741-5.741 5.741s-5.741-2.576-5.741-5.741v-9.303c1.883.264 3.798.412 5.741.412s3.858-.148 5.741-.412zm21.874-66.312v15.256c0 14.47-12.904 27.164-27.615 27.164s-27.614-12.693-27.614-27.164v-15.256c0-15.227 12.388-27.615 27.614-27.615 15.227 0 27.615 12.388 27.615 27.615zm-38.827-95.087-12.062 59.416c-2.489 1.63-4.803 3.505-6.896 5.604-1.754-.812-3.554-1.527-5.395-2.12l-14.399-4.638v-4.802c12.934-7.334 21.874-21.166 21.874-36.629v-15.256c0-1.714-.113-3.401-.311-5.063zm-31.877 1.574v15.256c0 14.47-12.904 27.164-27.615 27.164s-27.614-12.693-27.614-27.164v-15.256c0-15.227 12.388-27.614 27.614-27.614 15.227 0 27.615 12.387 27.615 27.614z"/><path d="m426.546 139.036c-10.627-2.157-21.458-.047-30.498 5.942s-15.206 15.14-17.363 25.766c-4.453 21.937 9.771 43.407 31.708 47.861 2.714.551 5.42.816 8.088.816 18.9 0 35.87-13.301 39.772-32.524 2.157-10.627.047-21.458-5.941-30.498-5.989-9.039-15.14-15.206-25.766-17.363zm-33.161 34.692c1.36-6.7 5.248-12.47 10.948-16.246 4.242-2.811 9.109-4.266 14.084-4.266 1.709 0 3.432.172 5.145.52 4.235.86 8.097 2.732 11.32 5.431l-40.897 27.095c-1.205-3.938-1.475-8.221-.6-12.534zm50.168 10.184c-1.36 6.7-5.248 12.47-10.948 16.246-5.699 3.775-12.527 5.106-19.228 3.747-4.18-.849-7.911-2.682-11.011-5.202l40.707-26.969c1.132 3.915 1.314 8.07.48 12.178z"/><path d="m174.148 79.754v23.005h-1.132c-4.142 0-7.5 3.358-7.5 7.5s3.358 7.5 7.5 7.5h17.265c4.142 0 7.5-3.358 7.5-7.5s-3.358-7.5-7.5-7.5h-1.132v-21.891h17.611v46.858h-10.532c-4.142 0-7.5 3.358-7.5 7.5s3.358 7.5 7.5 7.5h36.064c4.142 0 7.5-3.358 7.5-7.5s-3.358-7.5-7.5-7.5h-10.532v-46.858h17.611v21.891h-1.132c-4.142 0-7.5 3.358-7.5 7.5s3.358 7.5 7.5 7.5h17.265c4.142 0 7.5-3.358 7.5-7.5s-3.358-7.5-7.5-7.5h-1.132v-23.006c2.145-1.32 3.581-3.682 3.581-6.385 0-4.142-3.358-7.5-7.5-7.5h-28.693v-.883c0-4.142-3.358-7.5-7.5-7.5s-7.5 3.358-7.5 7.5v.883h-28.692c-4.142 0-7.5 3.358-7.5 7.5-.001 2.704 1.435 5.066 3.58 6.386z"/><path d="m59.316 459.718c-4.068-.78-7.998 1.887-8.777 5.955l-3.211 16.76c-.779 4.068 1.887 7.998 5.955 8.777.477.091.951.135 1.419.135 3.526 0 6.67-2.499 7.358-6.09l3.211-16.76c.779-4.068-1.887-7.998-5.955-8.777z"/></g></g></g></g></g></g></g></g></g></g></g></svg>