<svg id="Layer_1" enable-background="new 0 0 512.002 512.002" height="512" viewBox="0 0 512.002 512.002" width="512" xmlns="http://www.w3.org/2000/svg"><g><g clip-rule="evenodd" fill-rule="evenodd"><path d="m199.656 275.459c2.033-32.306-24.183-33.871-49.607-40.97-54.834-15.311-59.913 19.537-74.048 21.512 0 99.411 80.589 180 180 180-3.456-4.924 9.906-38.685 11.048-40.183 11.304-14.82-10.748-27.634-18.629-35.286-14.88-14.448-45.951-1.511-54.834-12.155-32.522-38.973 3.792-36.714 6.07-72.918z" fill="#cbe558"/><path d="m150.049 234.489c25.424 7.099 51.64 8.664 49.607 40.97-2.278 36.204-38.592 33.945-6.07 72.918 8.883 10.645 39.955-2.292 54.834 12.155 7.881 7.652 29.933 20.466 18.629 35.286-1.143 1.498-14.505 35.259-11.048 40.184 99.411 0 180-80.589 180-180-12.22 2.531-36.365 19.965-46.495 13.331-47.644-31.203-49.844 5.975-77.572-3.514-50.841-17.4-18.994-38.053-19.343-51.086-.419-15.67-6.354-47.779 17.257-50.743 53.247-6.684 8.896-30.508 38.616-62.455-27.025-16.212-58.656-25.532-92.464-25.532-99.411 0-180 80.589-180 180 14.136-1.977 19.215-36.825 74.049-21.514z" fill="#66e0f7"/><path d="m309.849 163.989c-23.611 2.964-17.677 35.073-17.257 50.743.349 13.032-31.498 33.686 19.343 51.086 27.727 9.49 29.927-27.689 77.572 3.514 10.13 6.634 34.275-10.799 46.495-13.331 0-65.603-35.096-123.01-87.536-154.468-29.721 31.948 14.629 55.772-38.617 62.456z" fill="#cbe558"/><g><path d="m484.859 32.858c0-12.571-10.286-22.857-22.857-22.857s-22.857 10.286-22.857 22.857v11.429c0 5.843 2.222 11.192 5.863 15.244 4.192 4.666 10.266 7.613 16.994 7.613 6.729 0 12.802-2.946 16.995-7.613 3.641-4.052 5.863-9.401 5.863-15.244v-11.429z" fill="#ffdcd5"/><path d="m478.996 59.53c-4.192 4.666-10.266 7.613-16.995 7.613-6.728 0-12.802-2.946-16.993-7.613-13.564 6.419-23.006 20.251-23.006 36.184v11.428h80v-11.428c0-15.932-9.443-29.766-23.006-36.184z" fill="#ff5d7d"/></g><g><path d="m72.858 427.717c0-12.571-10.286-22.857-22.857-22.857s-22.857 10.286-22.857 22.857v11.429c0 5.843 2.222 11.192 5.863 15.244 4.192 4.666 10.266 7.613 16.994 7.613 6.729 0 12.802-2.946 16.994-7.613 3.641-4.052 5.863-9.401 5.863-15.244z" fill="#ffdcd5"/><path d="m66.995 454.39c-4.192 4.666-10.266 7.613-16.994 7.613s-12.802-2.946-16.993-7.613c-13.564 6.419-23.006 20.251-23.006 36.184v11.428h80v-11.428c-.001-15.932-9.444-29.766-23.007-36.184z" fill="#ffc144"/></g></g><g><path d="m492.608 56.215c1.447-3.701 2.251-7.721 2.251-11.929v-11.429c0-18.118-14.74-32.857-32.858-32.857-18.117 0-32.857 14.739-32.857 32.857v11.429c0 4.207.804 8.228 2.251 11.928-12.149 9.373-19.393 23.788-19.393 39.499v11.428c0 5.522 4.477 10 10 10h80c5.523 0 10-4.478 10-10v-11.427c0-15.706-7.246-30.125-19.394-39.499zm-43.463-23.358c0-7.09 5.768-12.857 12.857-12.857 7.089 0 12.857 5.768 12.857 12.857v11.429c0 7.09-5.768 12.857-12.857 12.857s-12.857-5.768-12.857-12.857zm42.857 64.285h-60v-1.428c0-9.405 4.596-18.305 12.032-23.939 5.168 3.389 11.34 5.369 17.968 5.369 6.635 0 12.813-1.984 17.985-5.38 7.512 5.625 12.015 14.389 12.015 23.95z"/><path d="m80.606 451.075c1.448-3.701 2.251-7.721 2.251-11.929v-11.43c0-18.117-14.74-32.856-32.857-32.856s-32.857 14.739-32.857 32.856v11.43c0 4.207.803 8.227 2.251 11.927-12.149 9.374-19.394 23.789-19.394 39.501v11.428c0 5.522 4.477 10 10 10h80c5.523 0 10-4.478 10-10v-11.428c0-15.706-7.246-30.125-19.394-39.499zm-43.463-23.358c0-7.089 5.768-12.856 12.857-12.856 7.089 0 12.857 5.768 12.857 12.856v11.43c0 7.089-5.768 12.856-12.857 12.856s-12.857-5.768-12.857-12.856zm42.857 64.285h-60v-1.428c0-9.406 4.596-18.307 12.033-23.94 5.168 3.389 11.339 5.369 17.968 5.369 6.635 0 12.813-1.983 17.984-5.379 7.512 5.625 12.015 14.389 12.015 23.95z"/><path d="m446.001 256.001c0-104.767-85.233-190-190-190-34.131 0-67.617 9.168-96.839 26.513-4.75 2.819-6.314 8.955-3.495 13.704 2.819 4.75 8.955 6.314 13.704 3.495 26.134-15.513 56.09-23.712 86.63-23.712 27.928 0 54.304 6.772 77.575 18.757-7.92 13.44-6.745 25.656-5.91 34.302.385 3.982.783 8.1-.18 9.355-.653.852-3.946 3.777-18.883 5.652-13.058 1.639-22.062 10.172-25.353 24.027-2.356 9.918-1.624 21.037-1.035 29.972.165 2.503.321 4.869.376 6.819-.177 1.222-1.885 4.44-3.021 6.581-3.728 7.025-9.361 17.643-4.801 29.173 4.065 10.279 14.846 18.108 33.926 24.639 14.935 5.111 24.961.038 33.019-4.038 10.228-5.174 18.308-9.263 42.312 6.457 3.389 2.22 7.147 3.12 11.117 3.12 9.257 0 19.656-4.897 29.167-9.377.341-.161.683-.321 1.025-.482-7.287 83.182-74.73 149.369-158.453 154.684 2.343-8.547 6.873-20.73 8.648-24.477 6.141-8.563 6.265-18.368.322-27.705-4.153-6.524-10.556-11.789-15.701-16.02-1.87-1.537-3.637-2.989-4.764-4.085-10.974-10.654-26.633-10.457-39.217-10.3-4.896.06-13.065.164-14.972-1.167-7.367-8.842-11.095-15.586-11.078-20.044.011-3.146 2.086-6.183 5.751-11.277 5.362-7.454 12.707-17.663 13.765-34.482 2.288-36.365-25.123-43.205-47.148-48.701-3.213-.802-6.536-1.631-9.75-2.528-35.868-10.013-54.134-.336-65.325 9.339 2.949-22.873 10.505-44.96 22.302-64.83 2.82-4.749 1.255-10.885-3.493-13.704-4.749-2.819-10.885-1.256-13.704 3.493-17.348 29.219-26.518 62.708-26.518 96.847 0 104.767 85.233 190 190 190s190.001-85.233 190.001-190zm-30.212-2.654c-5.679 2.675-17.414 8.195-21.043 7.464-14.628-9.544-26.661-14.061-37.846-14.207-10.532-.153-18.111 3.703-24.213 6.791-6.81 3.444-10.562 5.34-17.513 2.962-17.364-5.943-21.033-11.121-21.804-13.072-1.083-2.739.921-6.885 3.87-12.443 2.708-5.105 5.509-10.385 5.349-16.377-.063-2.361-.234-4.96-.416-7.712-1.568-23.815.6-31.796 8.922-32.841 17.096-2.146 26.744-6.131 32.262-13.325 5.758-7.508 4.939-15.978 4.217-23.45-.707-7.32-1.378-14.319 3.22-22.187 43.477 29.313 72.722 78.179 75.046 133.884-3.204 1.296-6.57 2.874-10.051 4.513zm-329.653 9.129c3.199-2.119 5.942-4.908 8.634-7.645 9.184-9.338 19.596-19.924 52.589-10.711 3.482.972 6.941 1.835 10.287 2.67 24.647 6.15 33.169 9.919 32.029 28.04-.696 11.07-5.235 17.379-10.04 24.058-4.444 6.177-9.48 13.178-9.516 22.884-.036 9.703 4.833 19.884 15.789 33.012 7.147 8.565 19.025 8.414 30.513 8.271 9.821-.127 19.984-.251 25.033 4.651 1.72 1.67 3.796 3.377 5.995 5.185 4.049 3.329 9.088 7.473 11.531 11.31 1.892 2.974 1.342 3.948.12 5.552-2.641 3.461-8.457 20.722-8.515 20.895-2.142 6.402-3.471 11.276-4.247 15.074-87.12-4.908-156.906-75.712-160.202-163.246z"/><path d="m68.567 140.322c1.725 1.179 3.688 1.743 5.631 1.743 3.192 0 6.331-1.525 8.267-4.361 3.571-5.228 7.428-10.36 11.466-15.254 3.515-4.26 2.911-10.563-1.349-14.078-4.261-3.514-10.563-2.909-14.078 1.35-4.421 5.358-8.645 10.978-12.555 16.703-3.115 4.56-1.943 10.783 2.618 13.897z"/><path d="m36.001 372c5.523 0 10-4.478 10-10v-17.714c0-5.522-4.477-10-10-10s-10 4.478-10 10v17.714c0 5.522 4.477 10 10 10z"/><path d="m130.172 85.521c1.977 0 3.975-.585 5.718-1.803 5.197-3.631 10.622-7.065 16.124-10.208 4.796-2.739 6.463-8.848 3.724-13.644-2.739-4.795-8.847-6.463-13.643-3.724-6.026 3.442-11.968 7.203-17.659 11.179-4.527 3.163-5.634 9.397-2.471 13.925 1.945 2.785 5.051 4.275 8.207 4.275z"/><path d="m36.001 294.285c5.523 0 10-4.478 10-10v-20c0-5.522-4.477-10-10-10s-10 4.478-10 10v20c0 5.523 4.477 10 10 10z"/><path d="m39.678 214.497c.78.186 1.56.274 2.328.274 4.523 0 8.624-3.09 9.719-7.682 1.47-6.163 3.243-12.329 5.269-18.328 1.768-5.232-1.042-10.907-6.274-12.675-5.233-1.768-10.907 1.042-12.674 6.274-2.221 6.576-4.164 13.334-5.774 20.088-1.282 5.373 2.034 10.768 7.406 12.049z"/><path d="m202.546 52.54c.801 0 1.616-.097 2.429-.299 6.146-1.534 12.437-2.802 18.697-3.769 5.458-.843 9.199-5.951 8.356-11.409-.843-5.459-5.95-9.203-11.409-8.356-6.859 1.06-13.751 2.448-20.486 4.128-5.358 1.337-8.619 6.766-7.282 12.124 1.134 4.546 5.212 7.581 9.695 7.581z"/><path d="m362 46.001h20c5.523 0 10-4.478 10-10s-4.477-10-10-10h-20c-5.523 0-10 4.478-10 10s4.478 10 10 10z"/><path d="m282 46.001h20c5.523 0 10-4.478 10-10s-4.477-10-10-10h-20c-5.523 0-10 4.478-10 10s4.477 10 10 10z"/><path d="m307.027 459.761c-6.146 1.534-12.437 2.802-18.697 3.769-5.458.843-9.199 5.951-8.356 11.409.763 4.941 5.021 8.476 9.871 8.476.507 0 1.021-.039 1.539-.119 6.859-1.06 13.751-2.448 20.486-4.129 5.358-1.336 8.619-6.765 7.282-12.123-1.338-5.359-6.767-8.615-12.125-7.283z"/><path d="m230.002 466.001h-20c-5.523 0-10 4.478-10 10s4.477 10 10 10h20c5.523 0 10-4.478 10-10s-4.477-10-10-10z"/><path d="m472.324 297.505c-5.373-1.279-10.766 2.036-12.047 7.407-1.47 6.163-3.243 12.329-5.269 18.328-1.768 5.232 1.042 10.907 6.274 12.675 1.061.358 2.14.528 3.201.528 4.172 0 8.064-2.632 9.473-6.803 2.221-6.576 4.164-13.334 5.774-20.088 1.282-5.371-2.034-10.766-7.406-12.047z"/><path d="m150.001 466.001h-20c-5.523 0-10 4.478-10 10s4.477 10 10 10h20c5.523 0 10-4.478 10-10s-4.477-10-10-10z"/><path d="m476.001 140.003c-5.523 0-10 4.478-10 10v17.713c0 5.522 4.477 10 10 10s10-4.478 10-10v-17.713c0-5.523-4.477-10-10-10z"/><path d="m476.001 217.717c-5.523 0-10 4.478-10 10v20c0 5.522 4.477 10 10 10s10-4.478 10-10v-20c0-5.523-4.477-10-10-10z"/><path d="m376.112 428.283c-5.197 3.631-10.622 7.065-16.124 10.208-4.796 2.739-6.463 8.848-3.724 13.644 1.846 3.23 5.22 5.042 8.693 5.042 1.681 0 3.386-.425 4.95-1.318 6.026-3.442 11.968-7.203 17.659-11.179 4.527-3.163 5.634-9.397 2.471-13.925s-9.398-5.634-13.925-2.472z"/><path d="m443.435 371.679c-4.559-3.115-10.783-1.943-13.897 2.618-3.571 5.228-7.428 10.36-11.466 15.254-3.515 4.26-2.911 10.563 1.349 14.078 1.864 1.537 4.118 2.286 6.359 2.286 2.882 0 5.742-1.239 7.719-3.636 4.421-5.358 8.645-10.978 12.555-16.703 3.114-4.56 1.942-10.783-2.619-13.897z"/><path d="m122.323 136.402c1.869 1.557 4.138 2.316 6.395 2.316 2.867 0 5.714-1.227 7.692-3.601 3.536-4.242 2.962-10.548-1.28-14.084-4.243-3.534-10.548-2.961-14.084 1.281l-.005.006c-3.537 4.243-2.961 10.546 1.282 14.082z"/></g></g></svg>