<?xml version="1.0" encoding="iso-8859-1"?>
<!-- Generator: Adobe Illustrator 19.0.0, SVG Export Plug-In . SVG Version: 6.00 Build 0)  -->
<svg version="1.1" id="Capa_1" xmlns="http://www.w3.org/2000/svg" xmlns:xlink="http://www.w3.org/1999/xlink" x="0px" y="0px"
	 viewBox="0 0 512 512" style="enable-background:new 0 0 512 512;" xml:space="preserve">
<rect x="31.548" y="424.34" style="fill:#A0556E;" width="80.16" height="80.16"/>
<rect x="31.548" y="424.34" style="fill:#82465A;" width="80.16" height="24.05"/>
<path style="fill:#E8F7FF;" d="M39.564,424.339h72.145v-32.065H39.564c-8.854,0-16.032,7.178-16.032,16.032l0,0
	C23.532,417.161,30.71,424.339,39.564,424.339z"/>
<g>
	<polygon style="fill:#AA6478;" points="159.806,143.774 111.71,143.774 103.694,504.5 167.823,504.5 	"/>
	<polygon style="fill:#AA6478;" points="239.968,231.952 207.903,231.952 199.887,360.21 247.984,360.21 	"/>
</g>
<g>
	<polygon style="fill:#BE788C;" points="159.807,143.774 111.71,143.774 111.175,167.823 160.341,167.823 	"/>
	<polygon style="fill:#BE788C;" points="239.968,231.952 207.903,231.952 206.4,256 241.471,256 	"/>
</g>
<polygon style="fill:#AA6478;" points="320.129,231.952 288.065,231.952 280.048,360.21 328.145,360.21 "/>
<polygon style="fill:#BE788C;" points="320.129,231.952 288.065,231.952 286.561,256 321.632,256 "/>
<polygon style="fill:#AA6478;" points="400.29,231.952 368.226,231.952 360.21,360.21 408.306,360.21 "/>
<g>
	<polygon style="fill:#BE788C;" points="400.29,231.952 368.226,231.952 366.723,256 401.793,256 	"/>
	<rect x="135.76" y="392.27" style="fill:#BE788C;" width="336.68" height="112.23"/>
</g>
<rect x="135.76" y="392.27" style="fill:#AA6478;" width="336.68" height="24.05"/>
<g>
	<path style="fill:#E8F7FF;" d="M143.774,392.274h320.645c8.854,0,16.032-7.178,16.032-16.032l0,0
		c0-8.854-7.178-16.032-16.032-16.032H143.774c-8.854,0-16.032,7.178-16.032,16.032l0,0
		C127.742,385.096,134.92,392.274,143.774,392.274z"/>
	<path style="fill:#E8F7FF;" d="M416.323,7.5c-23.762,0-45.286,9.445-61.143,24.728c-11.388-10.35-26.466-16.712-43.067-16.712
		c-19.402,0-36.753,8.651-48.513,22.266c-6.984-3.951-15.036-6.234-23.633-6.234c-22.293,0-40.989,15.189-46.442,35.767
		c-4.063-2.288-8.684-3.702-13.679-3.702c-14.915,0-26.994,11.674-27.886,26.365c-2.403-1.438-5.182-2.316-8.187-2.316
		c-8.854,0-16.032,7.178-16.032,16.032s7.178,16.032,16.032,16.032c6.694,0,12.417-4.107,14.817-9.935
		c5.146,6.03,12.707,9.935,21.256,9.935c8.969,0,16.863-4.285,21.998-10.835c8.792,11.444,22.576,18.851,38.123,18.851
		c8.597,0,16.649-2.283,23.633-6.234c11.759,13.615,29.11,22.266,48.513,22.266c9.568,0,18.614-2.153,26.77-5.91
		c14.958,27.399,44.025,45.991,77.44,45.991c48.699,0,88.177-39.478,88.177-88.177S465.022,7.5,416.323,7.5z"/>
</g>
<path style="fill:#D2F0FF;" d="M448.387,143.774c-32.426,0-60.757-17.507-76.075-43.581c-0.805-1.37-2.428-1.911-3.898-1.307
	c-7.481,3.072-15.649,4.807-24.237,4.807c-23.975,0-44.83-13.184-55.83-32.673c-0.763-1.353-2.313-1.93-3.787-1.44
	c-3.942,1.312-8.146,2.048-12.529,2.048c-21.905,0-39.644-17.591-40.013-39.407c-18.689,3.117-33.704,17.017-38.493,35.093
	c-4.063-2.288-8.684-3.702-13.679-3.702c-14.915,0-26.994,11.674-27.886,26.365c-2.403-1.438-5.182-2.316-8.187-2.316
	c-9.934,0-17.758,9.034-15.702,19.336c1.209,6.06,6.176,11.091,12.223,12.362c8.135,1.71,15.488-2.753,18.296-9.569
	c5.146,6.03,12.707,9.935,21.256,9.935c8.969,0,16.863-4.285,21.998-10.835c8.792,11.444,22.576,18.851,38.123,18.851
	c8.597,0,16.649-2.283,23.633-6.234c11.759,13.615,29.11,22.266,48.513,22.266c9.568,0,18.614-2.153,26.77-5.91
	c14.958,27.399,44.025,45.991,77.44,45.991c37.144,0,68.861-22.996,81.851-55.503C484.003,138.068,466.867,143.774,448.387,143.774z
	"/>
<path d="M504.5,497h-24.564V393.912c4.909-4.316,8.016-10.635,8.016-17.67c0-12.976-10.557-23.532-23.532-23.532h-49.067
	l-7.577-121.226c-0.247-3.953-3.525-7.032-7.485-7.032h-32.065c-3.96,0-7.238,3.079-7.485,7.032l-7.577,121.226h-17.973
	l-7.577-121.226c-0.247-3.953-3.525-7.032-7.485-7.032h-32.064c-3.96,0-7.238,3.079-7.485,7.032l-7.577,121.226H255.03
	l-7.577-121.226c-0.247-3.953-3.525-7.032-7.485-7.032h-32.064c-3.96,0-7.238,3.079-7.485,7.032l-7.577,121.226h-20.89
	l-4.646-209.102c-0.09-4.076-3.421-7.333-7.498-7.333h-48.097c-4.077,0-7.408,3.257-7.498,7.333l-5.359,241.167h-59.29
	c-12.976,0-23.532,10.557-23.532,23.532c0,7.035,3.107,13.354,8.016,17.67V497H7.5c-4.142,0-7.5,3.358-7.5,7.5s3.358,7.5,7.5,7.5
	h497c4.142,0,7.5-3.358,7.5-7.5S508.642,497,504.5,497z M472.952,376.242c0,4.705-3.828,8.532-8.532,8.532h-16.032
	c-4.142,0-7.5,3.358-7.5,7.5s3.358,7.5,7.5,7.5h16.032c0.173,0,0.344-0.01,0.516-0.013V497H143.258v-97.239
	c0.172,0.004,0.343,0.013,0.516,0.013h272.555c4.142,0,7.5-3.358,7.5-7.5s-3.358-7.5-7.5-7.5H143.774
	c-4.705,0-8.533-3.828-8.533-8.532s3.828-8.532,8.533-8.532h320.645C469.124,367.71,472.952,371.537,472.952,376.242z
	 M375.271,239.452h17.973l7.079,113.258h-32.13L375.271,239.452z M295.11,239.452h17.973l7.079,113.258h-32.13L295.11,239.452z
	 M214.949,239.452h17.973L240,352.71h-32.13L214.949,239.452z M119.044,151.274h33.427l4.477,201.436h-13.173
	c-12.976,0-23.533,10.557-23.533,23.532c0,7.035,3.107,13.354,8.017,17.67V497h-16.896L119.044,151.274z M39.048,431.826
	c0.172,0.004,0.343,0.013,0.516,0.013c4.142,0,7.5-3.358,7.5-7.5s-3.358-7.5-7.5-7.5c-4.705,0-8.532-3.828-8.532-8.532
	c0-4.705,3.828-8.532,8.532-8.532h58.954l-0.379,17.065H71.632c-4.142,0-7.5,3.358-7.5,7.5s3.358,7.5,7.5,7.5h26.174L96.358,497
	h-57.31V431.826z"/>
<path d="M127.742,111.194c4.142,0,7.5-3.358,7.5-7.5c0-4.705,3.828-8.532,8.533-8.532c1.488,0,2.947,0.421,4.335,1.252
	c2.248,1.345,5.034,1.419,7.351,0.198c2.316-1.222,3.828-3.564,3.986-6.179c0.657-10.833,9.618-19.319,20.399-19.319
	c3.409,0,6.774,0.921,10,2.738c2.021,1.139,4.458,1.277,6.597,0.374s3.738-2.745,4.333-4.989
	c4.709-17.774,20.825-30.188,39.191-30.188c6.96,0,13.855,1.82,19.939,5.262c3.11,1.76,7.033,1.081,9.369-1.625
	c10.796-12.5,26.41-19.669,42.837-19.669c14.045,0,27.549,5.243,38.023,14.762c2.923,2.656,7.405,2.591,10.249-0.15
	C375.524,23.036,395.39,15,416.323,15C460.809,15,497,51.192,497,95.677s-36.191,80.677-80.677,80.677
	c-29.535,0-56.686-16.126-70.857-42.085c-1.89-3.462-6.139-4.868-9.721-3.218c-7.522,3.465-15.473,5.222-23.632,5.222
	c-16.427,0-32.041-7.169-42.837-19.669c-2.336-2.705-6.258-3.385-9.369-1.625c-6.084,3.442-12.979,5.262-19.939,5.262
	c-12.674,0-24.402-5.803-32.175-15.921c-1.412-1.837-3.593-2.919-5.91-2.931c-0.013,0-0.025,0-0.037,0
	c-2.303,0-4.48,1.059-5.902,2.872c-3.968,5.061-9.835,7.963-16.097,7.963c-4.142,0-7.5,3.358-7.5,7.5s3.358,7.5,7.5,7.5
	c7.949,0,15.509-2.656,21.669-7.474c10.291,9.928,23.913,15.49,38.452,15.49c7.552,0,15.045-1.561,21.972-4.547
	c13.363,13.145,31.342,20.58,50.173,20.58c8.083,0,15.997-1.357,23.607-4.04c17.524,27.375,47.824,44.121,80.603,44.121
	c52.757,0,95.677-42.921,95.677-95.677S469.08,0,416.323,0c-22.594,0-44.134,7.885-61.353,22.334
	c-12.362-9.276-27.344-14.318-42.857-14.318c-18.832,0-36.81,7.435-50.173,20.58c-6.927-2.987-14.42-4.548-21.972-4.548
	c-22.298,0-42.175,13.351-50.899,33.332c-3.01-0.843-6.092-1.268-9.222-1.268c-15.493,0-28.816,10.075-33.575,24.188
	c-0.829-0.092-1.663-0.139-2.498-0.139c-12.976,0-23.533,10.557-23.533,23.532C120.242,107.836,123.6,111.194,127.742,111.194z"/>
<path d="M191.871,416.839c-4.142,0-7.5,3.358-7.5,7.5v16.032c0,4.142,3.358,7.5,7.5,7.5s7.5-3.358,7.5-7.5v-16.032
	C199.371,420.197,196.013,416.839,191.871,416.839z"/>
<path d="M223.936,416.839c-4.142,0-7.5,3.358-7.5,7.5v16.032c0,4.142,3.358,7.5,7.5,7.5s7.5-3.358,7.5-7.5v-16.032
	C231.436,420.197,228.078,416.839,223.936,416.839z"/>
<path d="M256,416.839c-4.142,0-7.5,3.358-7.5,7.5v16.032c0,4.142,3.358,7.5,7.5,7.5s7.5-3.358,7.5-7.5v-16.032
	C263.5,420.197,260.142,416.839,256,416.839z"/>
<path d="M288.064,416.839c-4.142,0-7.5,3.358-7.5,7.5v16.032c0,4.142,3.358,7.5,7.5,7.5s7.5-3.358,7.5-7.5v-16.032
	C295.564,420.197,292.207,416.839,288.064,416.839z"/>
<path d="M320.129,416.839c-4.142,0-7.5,3.358-7.5,7.5v16.032c0,4.142,3.358,7.5,7.5,7.5s7.5-3.358,7.5-7.5v-16.032
	C327.629,420.197,324.271,416.839,320.129,416.839z"/>
<path d="M352.193,416.839c-4.142,0-7.5,3.358-7.5,7.5v16.032c0,4.142,3.358,7.5,7.5,7.5s7.5-3.358,7.5-7.5v-16.032
	C359.693,420.197,356.335,416.839,352.193,416.839z"/>
<path d="M384.258,416.839c-4.142,0-7.5,3.358-7.5,7.5v16.032c0,4.142,3.358,7.5,7.5,7.5s7.5-3.358,7.5-7.5v-16.032
	C391.758,420.197,388.4,416.839,384.258,416.839z"/>
<path d="M416.323,416.839c-4.142,0-7.5,3.358-7.5,7.5v16.032c0,4.142,3.358,7.5,7.5,7.5s7.5-3.358,7.5-7.5v-16.032
	C423.823,420.197,420.465,416.839,416.323,416.839z"/>
<g>
</g>
<g>
</g>
<g>
</g>
<g>
</g>
<g>
</g>
<g>
</g>
<g>
</g>
<g>
</g>
<g>
</g>
<g>
</g>
<g>
</g>
<g>
</g>
<g>
</g>
<g>
</g>
<g>
</g>
</svg>
