<?xml version="1.0" encoding="iso-8859-1"?>
<!-- Generator: Adobe Illustrator 19.0.0, SVG Export Plug-In . SVG Version: 6.00 Build 0)  -->
<svg version="1.1" id="Layer_1" xmlns="http://www.w3.org/2000/svg" xmlns:xlink="http://www.w3.org/1999/xlink" x="0px" y="0px"
	 viewBox="0 0 512 512" style="enable-background:new 0 0 512 512;" xml:space="preserve">
<polygon style="fill:#9AD14B;" points="447.904,46.734 500.693,106.043 447.904,165.364 267.178,165.364 226.189,165.364 
	140.728,165.364 140.728,46.734 226.189,46.734 267.178,46.734 "/>
<g>
	<rect x="226.192" y="315.315" style="fill:#B27214;" width="40.988" height="187.826"/>
	<rect x="226.192" y="8.864" style="fill:#B27214;" width="40.988" height="37.87"/>
</g>
<g>
	<rect x="226.192" y="165.359" style="fill:#995C0D;" width="40.988" height="31.326"/>
	<rect x="226.192" y="8.261" style="fill:#995C0D;" width="20.364" height="38.472"/>
	<rect x="226.192" y="315.374" style="fill:#995C0D;" width="40.988" height="31.326"/>
	<rect x="226.192" y="315.374" style="fill:#995C0D;" width="20.364" height="187.767"/>
</g>
<polygon style="fill:#F95428;" points="311.509,196.69 311.509,315.32 267.178,315.32 226.189,315.32 57.901,315.32 11.302,255.999 
	57.901,196.69 226.189,196.69 267.178,196.69 "/>
<path style="fill:#333333;" d="M507.316,100.157L454.52,40.841c-1.681-1.889-4.088-2.97-6.617-2.97H276.036V8.859
	c0-4.893-3.967-8.859-8.859-8.859h-40.988c-4.893,0-8.859,3.967-8.859,8.859v29.013h-76.605c-4.893,0-8.859,3.967-8.859,8.859
	v118.631c0,4.893,3.967,8.859,8.859,8.859h76.605v13.604H57.906c-2.718,0-5.287,1.249-6.966,3.385L4.335,250.526
	c-2.524,3.213-2.524,7.735,0,10.948l46.605,59.315c1.68,2.138,4.248,3.385,6.966,3.385h159.423v178.967
	c0,4.893,3.967,8.859,8.859,8.859h40.988c4.893,0,8.859-3.967,8.859-8.859V324.174h35.474c4.893,0,8.859-3.967,8.859-8.859v-118.63
	c0-4.893-3.967-8.859-8.859-8.859h-35.474v-13.604h171.868c2.529,0,4.936-1.081,6.617-2.97l52.796-59.315
	C510.306,108.579,510.306,103.515,507.316,100.157z M235.047,17.718h23.27v20.154h-23.27V17.718z M258.317,494.282h-23.27V324.174
	h23.27V494.282z M302.651,306.456H62.212L22.567,256l39.645-50.456h240.439V306.456z M258.317,187.826h-23.27v-13.604h23.27V187.826
	z M443.928,156.503H149.584V55.591h294.345l44.911,50.457L443.928,156.503z"/>
<g>
	<path style="fill:#FFFFFF;" d="M262.599,87.832c4.893,0,8.859-3.967,8.859-8.859c0-4.893-3.967-8.859-8.859-8.859H241.74
		c-4.893,0-8.859,3.967-8.859,8.859v56.981c0,4.893,3.967,8.859,8.859,8.859h20.859c4.893,0,8.859-3.967,8.859-8.859
		c0-4.893-3.967-8.859-8.859-8.859h-12v-10.773h4.368c4.893,0,8.859-3.967,8.859-8.859c0-4.893-3.967-8.859-8.859-8.859h-4.368
		V87.831h12V87.832z"/>
	<path style="fill:#FFFFFF;" d="M365.298,87.832h10.754c4.893,0,8.859-3.967,8.859-8.859c0-4.893-3.967-8.859-8.859-8.859h-10.754
		c-10.457,0-18.964,8.507-18.964,18.963v36.773c0,10.457,8.507,18.963,18.964,18.963h10.754c4.893,0,8.859-3.967,8.859-8.859
		c0-4.893-3.967-8.859-8.859-8.859h-10.754c-0.687,0-1.246-0.559-1.246-1.245V89.077C364.052,88.391,364.612,87.832,365.298,87.832z
		"/>
	<path style="fill:#FFFFFF;" d="M306.79,70.114c-14.244,0-25.832,11.588-25.832,25.831v40.009c0,4.893,3.967,8.859,8.859,8.859
		s8.859-3.967,8.859-8.859v-14.035h16.226v14.035c0,4.893,3.967,8.859,8.859,8.859s8.859-3.967,8.859-8.859V95.945
		C332.621,81.701,321.033,70.114,306.79,70.114z M298.676,104.2v-8.256c0-4.473,3.639-8.113,8.114-8.113s8.114,3.639,8.114,8.113
		v8.256C314.904,104.2,298.676,104.2,298.676,104.2z"/>
	<path style="fill:#FFFFFF;" d="M425.911,87.832c4.893,0,8.859-3.967,8.859-8.859c0-4.893-3.967-8.859-8.859-8.859h-20.859
		c-4.893,0-8.859,3.967-8.859,8.859v56.981c0,4.893,3.967,8.859,8.859,8.859h20.859c4.893,0,8.859-3.967,8.859-8.859
		c0-4.893-3.967-8.859-8.859-8.859h-12v-10.773h4.368c4.893,0,8.859-3.967,8.859-8.859c0-4.893-3.967-8.859-8.859-8.859h-4.368
		V87.831h12V87.832z"/>
	<path style="fill:#FFFFFF;" d="M62.489,230.066l17.174,56.981c1.015,3.366,3.924,5.814,7.413,6.238
		c3.489,0.418,6.901-1.256,8.691-4.281l9.55-16.127l9.55,16.127c1.606,2.714,4.518,4.345,7.62,4.345
		c0.356,0,0.713-0.021,1.071-0.065c3.489-0.424,6.399-2.873,7.413-6.238l17.174-56.981c1.412-4.685-1.241-9.627-5.926-11.039
		c-4.68-1.41-9.626,1.241-11.038,5.926l-11.35,37.661l-6.891-11.637c-1.595-2.693-4.492-4.345-7.622-4.345
		c-3.13,0-6.028,1.651-7.622,4.345l-6.891,11.637l-11.35-37.661c-1.413-4.685-6.357-7.338-11.039-5.926
		C63.73,220.439,61.077,225.382,62.489,230.066z"/>
	<path style="fill:#FFFFFF;" d="M167.639,293.35c4.893,0,8.859-3.967,8.859-8.859v-14.035h16.226v14.035
		c0,4.893,3.967,8.859,8.859,8.859c4.893,0,8.859-3.967,8.859-8.859v-40.009c0-14.243-11.588-25.831-25.831-25.831
		c-14.244,0-25.832,11.588-25.832,25.831v40.009C158.779,289.384,162.746,293.35,167.639,293.35z M184.611,236.368
		c4.473,0,8.113,3.639,8.113,8.113v8.256h-16.226v-8.256C176.498,240.009,180.137,236.368,184.611,236.368z"/>
	<path style="fill:#FFFFFF;" d="M197.477,70.114h-15.263c-4.893,0-8.859,3.967-8.859,8.859v31.034v25.947
		c0,4.893,3.967,8.859,8.859,8.859c4.893,0,8.859-3.967,8.859-8.859v-17.088h6.403c13.441,0,24.377-10.935,24.377-24.376
		S210.918,70.114,197.477,70.114z M197.477,101.148h-6.403V87.832h6.403c3.671,0,6.659,2.987,6.659,6.659
		S201.149,101.148,197.477,101.148z"/>
	<path style="fill:#FFFFFF;" d="M235.442,293.35c4.893,0,8.859-3.967,8.859-8.859v-17.045c9.023,0.45,16.231,7.912,16.231,17.045
		c0,4.893,3.967,8.859,8.859,8.859s8.859-3.967,8.859-8.859c0-9.537-3.858-18.188-10.094-24.482
		c4.276-4.394,6.924-10.382,6.924-16.982c0-13.441-10.936-24.376-24.377-24.376h-15.263c-4.893,0-8.859,3.967-8.859,8.859v31.034
		v25.947C226.583,289.384,230.549,293.35,235.442,293.35z M257.363,243.027c0,3.671-2.987,6.659-6.659,6.659h-6.403v-13.316h6.403
		C254.376,236.368,257.363,239.355,257.363,243.027z"/>
</g>
<g>
</g>
<g>
</g>
<g>
</g>
<g>
</g>
<g>
</g>
<g>
</g>
<g>
</g>
<g>
</g>
<g>
</g>
<g>
</g>
<g>
</g>
<g>
</g>
<g>
</g>
<g>
</g>
<g>
</g>
</svg>
