<svg id="Capa_1" enable-background="new 0 0 511.999 511.999" height="512" viewBox="0 0 511.999 511.999" width="512" xmlns="http://www.w3.org/2000/svg"><g><g><path d="m464.343 504.499h-416.687c-22.178 0-40.156-17.979-40.156-40.156v-313.124c0-22.178 17.979-40.156 40.156-40.156h416.686c22.178 0 40.156 17.979 40.156 40.156v313.124c.001 22.177-17.978 40.156-40.155 40.156z" fill="#b1e4f9"/><g fill="#9bd069"><path d="m157.383 331.773h2.494c12.397 0 22.446 10.05 22.446 22.446 0 12.397-10.05 22.446-22.446 22.446h-8.48v17.994c0 20.386-16.526 36.912-36.912 36.912v-74.858h-5.487c-16.805 0-30.427-13.623-30.427-30.427 0-16.805 13.623-30.427 30.427-30.427h12.47c19.836 0 35.915 16.079 35.915 35.914z"/><path d="m108.998 295.859v-32.921c22.314 0 40.404-18.089 40.404-40.404v-3.492h13.468c16.805 0 30.427-13.623 30.427-30.427 0-16.805-13.623-30.427-30.427-30.427h-92.28v5.487c0 11.295-9.156 20.451-20.451 20.451-9.642 0-17.458 7.816-17.458 17.458 0 9.642 7.816 17.458 17.458 17.458h10.974c7.438 0 13.468 6.03 13.468 13.468 0 7.438-6.03 13.468-13.468 13.468h-16.461v6.769c0 23.81 19.302 43.112 43.112 43.112z"/><path d="m247.355 240.657h43.081v3.829c0 17.72 14.365 32.085 32.085 32.085h15.801v-20.285c0-6.795 5.509-12.304 12.304-12.304 6.795 0 12.304 5.509 12.304 12.304v32.922c0 7.346 5.955 13.302 13.302 13.302 7.346 0 13.302-5.955 13.302-13.302v-22.28c0-6.428 5.211-11.639 11.639-11.639 6.428 0 11.639 5.211 11.639 11.639v14.299c16.162 0 29.264-13.102 29.264-29.264v-29.263c8.081 0 14.632-6.551 14.632-14.632v-4.656c0-9.917 8.04-17.957 17.957-17.957v-2.798c0-15.718-12.742-28.461-28.461-28.461h-42.038c-6.979 0-12.637 5.658-12.637 12.637 0 7.714-6.253 13.967-13.967 13.967-7.714 0-13.967-6.253-13.967-13.967 0-6.979-5.658-12.637-12.637-12.637h-20.65c-9.165 0-16.595 7.43-16.595 16.595v10.009h-40.072c-8.723 0-15.794 7.071-15.794 15.794v3.493h-15.419c-9.115 0-16.505 7.389-16.505 16.505v2.633c0 11.837 9.595 21.432 21.432 21.432z"/><path d="m316.592 276.016h-44.113v-6.427c0-6.061-4.913-10.974-10.974-10.974-22.957 0-41.567 18.61-41.567 41.568v5.409c0 19.97 16.189 36.159 36.159 36.159 8.313 0 15.053 6.739 15.053 15.053v37.73c0 9.417 7.634 17.05 17.05 17.05 21.07 0 38.151-17.081 38.151-38.151v-35.008c14.325 0 25.938-11.613 25.938-25.938v-.665h-9.562c-14.434 0-26.134-11.701-26.134-26.134v-9.672z"/><path d="m399.509 394.956h-26.603v-14.851c0-20.816 16.874-37.69 37.69-37.69h31.033c20.816 0 37.69 16.874 37.69 37.69v7.038c0 18.273-14.813 33.086-33.086 33.086h-21.45c-.001-13.958-11.316-25.273-25.274-25.273z"/></g><circle cx="256" cy="37.969" fill="#dd636e" r="30.469"/><path d="m265.541 66.909c-3 .99-6.21 1.53-9.54 1.53-16.83 0-30.47-13.64-30.47-30.47s13.64-30.47 30.47-30.47c3.33 0 6.54.54 9.54 1.53-12.16 4-20.93 15.44-20.93 28.94s8.77 24.94 20.93 28.94z" fill="#da4a54"/></g><g><path d="m464.343 103.563h-117.592l-57.33-47.592c2.899-5.36 4.547-11.492 4.547-18.001 0-20.937-17.032-37.97-37.968-37.97s-37.969 17.033-37.969 37.969c0 6.51 1.648 12.641 4.547 18.001l-57.33 47.592h-117.592c-26.278.001-47.656 21.379-47.656 47.657v313.124c0 26.278 21.378 47.656 47.656 47.656h416.687c26.278 0 47.656-21.378 47.656-47.656v-313.124c0-26.278-21.378-47.656-47.656-47.656zm-208.343-88.563c12.665 0 22.969 10.304 22.969 22.969s-10.304 22.969-22.969 22.969-22.969-10.304-22.969-22.969 10.303-22.969 22.969-22.969zm-23.828 52.501c6.52 5.271 14.809 8.437 23.827 8.437s17.307-3.166 23.827-8.437l43.44 36.062h-134.534zm264.827 396.842c0 18.007-14.649 32.656-32.656 32.656h-416.687c-18.007 0-32.656-14.649-32.656-32.656v-313.124c0-18.007 14.649-32.656 32.656-32.656h416.687c18.007 0 32.656 14.649 32.656 32.656z"/><path d="m142.873 256.402c8.094-8.094 12.934-18.577 13.863-29.863h6.134c20.915 0 37.93-17.011 37.93-37.92 0-10.135-3.944-19.661-11.111-26.828-7.172-7.159-16.697-11.102-26.818-11.102h-31.92c-4.142 0-7.5 3.358-7.5 7.5s3.358 7.5 7.5 7.5h31.92c6.12 0 11.881 2.386 16.217 6.713 4.329 4.329 6.713 10.088 6.713 16.217 0 12.638-10.286 22.92-22.93 22.92h-13.47c-4.142 0-7.5 3.358-7.5 7.5v3.49c0 8.792-3.421 17.055-9.637 23.271-6.208 6.216-14.47 9.64-23.263 9.64-4.142 0-7.5 3.358-7.5 7.5v25.42h-13.74c-19.391 0-35.211-15.581-35.603-34.88h8.953c5.592 0 10.856-2.176 14.845-6.148 3.95-3.967 6.125-9.23 6.125-14.822 0-11.563-9.407-20.97-20.97-20.97h-10.971c-2.659 0-5.158-1.035-7.037-2.913-1.885-1.886-2.923-4.388-2.923-7.047 0-2.653 1.038-5.152 2.923-7.037 1.879-1.879 4.378-2.914 7.037-2.914 14.732 0 26.839-11.462 27.877-25.94h23.212c4.142 0 7.5-3.358 7.5-7.5s-3.358-7.5-7.5-7.5h-30.64c-4.142 0-7.5 3.358-7.5 7.5v5.48c0 7.146-5.809 12.96-12.95 12.96-6.666 0-12.932 2.595-17.644 7.307-4.718 4.718-7.316 10.984-7.316 17.643 0 6.665 2.598 12.935 7.317 17.654 4.712 4.711 10.978 7.306 17.643 7.306h10.97c3.292 0 5.97 2.678 5.97 5.97 0 1.597-.623 3.102-1.732 4.216-1.136 1.131-2.641 1.754-4.238 1.754h-16.46c-4.142 0-7.5 3.358-7.5 7.5v6.77c0 25.047 18.294 45.891 42.219 49.901-5.186 6.488-8.298 14.703-8.298 23.636 0 20.238 15.933 36.825 35.915 37.875v67.411c0 4.142 3.358 7.5 7.5 7.5 24.489 0 44.412-19.923 44.412-44.412v-10.494h.979c16.513 0 29.947-13.434 29.947-29.946 0-15.014-11.105-27.483-25.534-29.623-3.431-20.535-21.327-36.238-42.821-36.238h-4.968v-18.5c9.952-1.555 19.125-6.199 26.373-13.457zm7.01 75.371c0 4.142 3.358 7.5 7.5 7.5h2.494c8.242 0 14.947 6.705 14.947 14.947 0 8.241-6.705 14.946-14.947 14.946h-8.479c-4.142 0-7.5 3.358-7.5 7.5v17.994c0 13.626-9.316 25.119-21.912 28.443v-66.39c0-4.142-3.358-7.5-7.5-7.5h-5.487c-12.643 0-22.928-10.285-22.928-22.927s10.285-22.927 22.928-22.927h.001 12.469c15.667 0 28.414 12.746 28.414 28.414z"/><path d="m376.231 310.009c11.47 0 20.802-9.332 20.802-20.801v-22.28c0-2.282 1.857-4.139 4.139-4.139s4.139 1.857 4.139 4.139v14.299c0 4.142 3.358 7.5 7.5 7.5 20.271 0 36.764-16.492 36.764-36.764v-23.072c8.523-3.079 14.632-11.252 14.632-20.824v-4.655c0-5.766 4.691-10.457 10.457-10.457 4.142 0 7.5-3.358 7.5-7.5v-2.798c0-19.829-16.132-35.96-35.961-35.96h-42.038c-11.104 0-20.137 9.033-20.137 20.136 0 3.566-2.901 6.467-6.467 6.467-3.565 0-6.466-2.901-6.466-6.467 0-11.103-9.033-20.136-20.137-20.136h-20.65c-13.286 0-24.095 10.809-24.095 24.094v2.509h-32.572c-11.478 0-21.044 8.346-22.95 19.287h-8.264c-13.236 0-24.005 10.769-24.005 24.005v2.633c0 15.953 12.979 28.932 28.932 28.932h35.75c.703 7.612 3.574 14.604 7.983 20.358h-11.14c-.557-9.689-8.616-17.401-18.443-17.401-27.056 0-49.068 22.012-49.068 49.067v5.409c0 24.073 19.585 43.659 43.659 43.659 4.165 0 7.553 3.388 7.553 7.552v37.73c0 13.537 11.013 24.55 24.55 24.55 25.172 0 45.651-20.479 45.651-45.651v-28.356c14.838-3.414 25.938-16.73 25.938-32.59v-.665c0-4.142-3.358-7.5-7.5-7.5h-9.562c-10.275 0-18.634-8.359-18.634-18.635v-1.615h14.23c4.142 0 7.5-3.358 7.5-7.5v-20.285c0-2.649 2.155-4.804 4.804-4.804s4.804 2.155 4.804 4.804v32.921c.001 11.473 9.332 20.804 20.802 20.804zm-33.505 9.312h.749c-2.721 6.792-9.372 11.603-17.125 11.603-4.142 0-7.5 3.358-7.5 7.5v35.008c0 16.901-13.75 30.651-30.651 30.651-5.266 0-9.55-4.284-9.55-9.55v-37.73c0-12.436-10.117-22.552-22.553-22.552-15.802 0-28.659-12.856-28.659-28.659v-5.409c0-18.785 15.283-34.067 34.068-34.067 1.916 0 3.474 1.558 3.474 3.474v6.428c0 4.142 3.358 7.5 7.5 7.5h36.613v2.17c0 18.544 15.088 33.633 33.634 33.633zm7.899-82.839c-10.92 0-19.804 8.884-19.804 19.804v12.785h-8.301c-13.556 0-24.585-11.029-24.585-24.585v-3.829c0-4.142-3.358-7.5-7.5-7.5h-43.081c-7.682 0-13.932-6.25-13.932-13.932v-2.633c0-4.965 4.04-9.005 9.005-9.005h15.419c4.142 0 7.5-3.358 7.5-7.5v-3.493c0-4.574 3.721-8.294 8.294-8.294h40.072c4.142 0 7.5-3.358 7.5-7.5v-10.009c0-5.015 4.08-9.094 9.095-9.094h20.65c2.833 0 5.137 2.304 5.137 5.136 0 11.837 9.63 21.467 21.467 21.467 11.836 0 21.466-9.63 21.466-21.467 0-2.832 2.304-5.136 5.137-5.136h42.038c10.372 0 19.008 7.572 20.671 17.478-10.238 3.298-17.667 12.917-17.667 24.238v4.655c0 3.933-3.199 7.132-7.132 7.132-4.142 0-7.5 3.358-7.5 7.5v29.264c0 9.366-5.948 17.369-14.264 20.432v-5.467c0-10.553-8.585-19.139-19.139-19.139s-19.139 8.586-19.139 19.139v22.28c0 3.199-2.603 5.801-5.802 5.801s-5.801-2.603-5.801-5.801v-32.921c.001-10.921-8.884-19.806-19.804-19.806z"/><path d="m441.629 334.919h-16.029c-4.142 0-7.5 3.358-7.5 7.5s3.358 7.5 7.5 7.5h16.03c16.647 0 30.19 13.543 30.19 30.19v7.03c0 14.11-11.479 25.59-25.59 25.59h-14.807c-1.372-5.889-4.359-11.292-8.74-15.673-6.188-6.188-14.418-9.597-23.173-9.597h-19.1v-7.35c0-12.148 7.226-23.062 18.408-27.805 3.813-1.617 5.594-6.02 3.977-9.833s-6.02-5.594-9.833-3.977c-16.737 7.099-27.552 23.433-27.552 41.615v14.85c0 4.142 3.358 7.5 7.5 7.5h26.6c4.749 0 9.211 1.848 12.567 5.203s5.203 7.818 5.203 12.567c0 4.142 3.358 7.5 7.5 7.5h21.45c22.381 0 40.59-18.208 40.59-40.59v-7.03c-.001-24.918-20.273-45.19-45.191-45.19z"/><path d="m475.661 213.537c-4.142 0-7.5 3.358-7.5 7.5v32.921c0 4.142 3.358 7.5 7.5 7.5s7.5-3.358 7.5-7.5v-32.921c0-4.142-3.358-7.5-7.5-7.5z"/><path d="m131.554 460.959h-87.79c-4.142 0-7.5 3.358-7.5 7.5s3.358 7.5 7.5 7.5h87.791c4.142 0 7.5-3.358 7.5-7.5s-3.359-7.5-7.501-7.5z"/><path d="m43.764 452.996h41.9c4.142 0 7.5-3.358 7.5-7.5s-3.358-7.5-7.5-7.5h-41.9c-4.142 0-7.5 3.358-7.5 7.5s3.358 7.5 7.5 7.5z"/></g></g></svg>